<?xml version="1.0" encoding="UTF-8" standalone="no"?>
<svg
   xmlns:dc="http://purl.org/dc/elements/1.1/"
   xmlns:cc="http://creativecommons.org/ns#"
   xmlns:rdf="http://www.w3.org/1999/02/22-rdf-syntax-ns#"
   xmlns:svg="http://www.w3.org/2000/svg"
   xmlns="http://www.w3.org/2000/svg"
   xmlns:sodipodi="http://sodipodi.sourceforge.net/DTD/sodipodi-0.dtd"
   xmlns:inkscape="http://www.inkscape.org/namespaces/inkscape"
   style="fill-opacity:1; color-rendering:auto; color-interpolation:auto; stroke:black; text-rendering:auto; stroke-linecap:square; stroke-miterlimit:10; stroke-opacity:1; shape-rendering:auto; fill:black; stroke-dasharray:none; font-weight:normal; stroke-width:1; font-family:'Dialog'; font-style:normal; stroke-linejoin:miter; font-size:12px; stroke-dashoffset:0; image-rendering:auto;"
   width="560"
   height="420"
   id="svg2"
   version="1.1"
   inkscape:version="0.91 r13725"
   sodipodi:docname="free-dye-typhoon.svg">
  <metadata
     id="metadata166">
    <rdf:RDF>
      <cc:Work
         rdf:about="">
        <dc:format>image/svg+xml</dc:format>
        <dc:type
           rdf:resource="http://purl.org/dc/dcmitype/StillImage" />
      </cc:Work>
    </rdf:RDF>
  </metadata>
  <sodipodi:namedview
     pagecolor="#ffffff"
     bordercolor="#666666"
     borderopacity="1"
     objecttolerance="10"
     gridtolerance="10"
     guidetolerance="10"
     inkscape:pageopacity="0"
     inkscape:pageshadow="2"
     inkscape:window-width="1213"
     inkscape:window-height="691"
     id="namedview164"
     showgrid="false"
     inkscape:zoom="0.55357143"
     inkscape:cx="280"
     inkscape:cy="137.74194"
     inkscape:window-x="11"
     inkscape:window-y="0"
     inkscape:window-maximized="0"
     inkscape:current-layer="svg2" />
  <!--Generated by the Batik Graphics2D SVG Generator-->
  <defs
     id="genericDefs" />
  <g
     id="g42"
     style="color-interpolation:linearRGB;fill:#262626;stroke:#262626;stroke-width:0.5;stroke-linejoin:round;color-rendering:optimizeQuality;image-rendering:optimizeQuality;text-rendering:geometricPrecision">
    <line
       id="line44"
       y1="374"
       x2="507"
       x1="73"
       style="fill:none"
       y2="374" />
    <line
       id="line46"
       y1="31"
       x2="507"
       x1="73"
       style="fill:none"
       y2="31" />
    <line
       id="line48"
       y1="374"
       x2="73"
       x1="73"
       style="fill:none"
       y2="369.66" />
    <line
       id="line50"
       y1="374"
       x2="217.6667"
       x1="217.6667"
       style="fill:none"
       y2="369.66" />
    <line
       id="line52"
       y1="374"
       x2="362.33331"
       x1="362.33331"
       style="fill:none"
       y2="369.66" />
    <line
       id="line54"
       y1="374"
       x2="507"
       x1="507"
       style="fill:none"
       y2="369.66" />
    <line
       id="line56"
       y1="31"
       x2="73"
       x1="73"
       style="fill:none"
       y2="35.34" />
    <line
       id="line58"
       y1="31"
       x2="217.6667"
       x1="217.6667"
       style="fill:none"
       y2="35.34" />
    <line
       id="line60"
       y1="31"
       x2="362.33331"
       x1="362.33331"
       style="fill:none"
       y2="35.34" />
    <line
       id="line62"
       y1="31"
       x2="507"
       x1="507"
       style="fill:none"
       y2="35.34" />
  </g>
  <g
     id="g64"
     style="font-size:18px;font-family:mwa_cmr10;color-interpolation:linearRGB;fill:#262626;stroke:#262626;color-rendering:optimizeQuality;image-rendering:optimizeQuality;text-rendering:geometricPrecision"
     transform="translate(73,379.6)">
    <text
       id="text66"
       style="stroke:none"
       y="15.1199"
       xml:space="preserve"
       x="-4.5">0</text>
  </g>
  <g
     id="g68"
     style="font-size:18px;font-family:mwa_cmr10;color-interpolation:linearRGB;fill:#262626;stroke:#262626;color-rendering:optimizeQuality;image-rendering:optimizeQuality;text-rendering:geometricPrecision"
     transform="translate(217.6667,379.6)">
    <text
       id="text70"
       style="stroke:none"
       y="15.1199"
       xml:space="preserve"
       x="-9">5</text>
    <text
       id="text72"
       style="stroke:none"
       y="15.1199"
       xml:space="preserve"
       x="0">0</text>
  </g>
  <g
     id="g74"
     style="font-size:18px;font-family:mwa_cmr10;color-interpolation:linearRGB;fill:#262626;stroke:#262626;color-rendering:optimizeQuality;image-rendering:optimizeQuality;text-rendering:geometricPrecision"
     transform="translate(362.3333,379.6)">
    <text
       id="text76"
       style="stroke:none"
       y="15.1199"
       xml:space="preserve"
       x="-13.5">1</text>
    <text
       id="text78"
       style="stroke:none"
       y="15.1199"
       xml:space="preserve"
       x="-4.5">0</text>
    <text
       id="text80"
       style="stroke:none"
       y="15.1199"
       xml:space="preserve"
       x="4.5">0</text>
  </g>
  <g
     id="g82"
     style="font-size:18px;font-family:mwa_cmr10;color-interpolation:linearRGB;fill:#262626;stroke:#262626;color-rendering:optimizeQuality;image-rendering:optimizeQuality;text-rendering:geometricPrecision"
     transform="translate(507,379.6)">
    <text
       id="text84"
       style="stroke:none"
       y="15.1199"
       xml:space="preserve"
       x="-13.5">1</text>
    <text
       id="text86"
       style="stroke:none"
       y="15.1199"
       xml:space="preserve"
       x="-4.5">5</text>
    <text
       id="text88"
       style="stroke:none"
       y="15.1199"
       xml:space="preserve"
       x="4.5">0</text>
  </g>
  <g
     id="g90"
     style="color-interpolation:linearRGB;fill:#262626;stroke:#262626;stroke-width:0.5;stroke-linejoin:round;color-rendering:optimizeQuality;image-rendering:optimizeQuality;text-rendering:geometricPrecision">
    <line
       id="line92"
       y1="374"
       x2="73"
       x1="73"
       style="fill:none"
       y2="31" />
    <line
       id="line94"
       y1="374"
       x2="507"
       x1="507"
       style="fill:none"
       y2="31" />
    <line
       id="line96"
       y1="370.6373"
       x2="77.339996"
       x1="73"
       style="fill:none"
       y2="370.6373" />
    <line
       id="line98"
       y1="303.38239"
       x2="77.339996"
       x1="73"
       style="fill:none"
       y2="303.38239" />
    <line
       id="line100"
       y1="236.1274"
       x2="77.339996"
       x1="73"
       style="fill:none"
       y2="236.1274" />
    <line
       id="line102"
       y1="168.8725"
       x2="77.339996"
       x1="73"
       style="fill:none"
       y2="168.8725" />
    <line
       id="line104"
       y1="101.6176"
       x2="77.339996"
       x1="73"
       style="fill:none"
       y2="101.6176" />
    <line
       id="line106"
       y1="34.362701"
       x2="77.339996"
       x1="73"
       style="fill:none"
       y2="34.362701" />
    <line
       id="line108"
       y1="370.6373"
       x2="502.66"
       x1="507"
       style="fill:none"
       y2="370.6373" />
    <line
       id="line110"
       y1="303.38239"
       x2="502.66"
       x1="507"
       style="fill:none"
       y2="303.38239" />
    <line
       id="line112"
       y1="236.1274"
       x2="502.66"
       x1="507"
       style="fill:none"
       y2="236.1274" />
    <line
       id="line114"
       y1="168.8725"
       x2="502.66"
       x1="507"
       style="fill:none"
       y2="168.8725" />
    <line
       id="line116"
       y1="101.6176"
       x2="502.66"
       x1="507"
       style="fill:none"
       y2="101.6176" />
    <line
       id="line118"
       y1="34.362701"
       x2="502.66"
       x1="507"
       style="fill:none"
       y2="34.362701" />
  </g>
  <g
     id="g120"
     style="font-size:18px;font-family:mwa_cmr10;color-interpolation:linearRGB;fill:#262626;stroke:#262626;color-rendering:optimizeQuality;image-rendering:optimizeQuality;text-rendering:geometricPrecision"
     transform="translate(67.4,370.6373)">
    <text
       id="text122"
       style="stroke:none"
       y="4.3199"
       xml:space="preserve"
       x="-9">0</text>
  </g>
  <g
     id="g124"
     style="font-size:18px;font-family:mwa_cmr10;color-interpolation:linearRGB;fill:#262626;stroke:#262626;color-rendering:optimizeQuality;image-rendering:optimizeQuality;text-rendering:geometricPrecision"
     transform="translate(67.4,303.3824)">
    <text
       id="text126"
       style="stroke:none"
       y="4.3199"
       xml:space="preserve"
       x="-23.000099">0</text>
    <text
       id="text128"
       style="stroke:none"
       y="4.3199"
       xml:space="preserve"
       x="-14">.</text>
    <text
       id="text130"
       style="stroke:none"
       y="4.3199"
       xml:space="preserve"
       x="-9">2</text>
  </g>
  <g
     id="g132"
     style="font-size:18px;font-family:mwa_cmr10;color-interpolation:linearRGB;fill:#262626;stroke:#262626;color-rendering:optimizeQuality;image-rendering:optimizeQuality;text-rendering:geometricPrecision"
     transform="translate(67.4,236.1274)">
    <text
       id="text134"
       style="stroke:none"
       y="4.3199"
       xml:space="preserve"
       x="-23.000099">0</text>
    <text
       id="text136"
       style="stroke:none"
       y="4.3199"
       xml:space="preserve"
       x="-14">.</text>
    <text
       id="text138"
       style="stroke:none"
       y="4.3199"
       xml:space="preserve"
       x="-9">4</text>
  </g>
  <g
     id="g140"
     style="font-size:18px;font-family:mwa_cmr10;color-interpolation:linearRGB;fill:#262626;stroke:#262626;color-rendering:optimizeQuality;image-rendering:optimizeQuality;text-rendering:geometricPrecision"
     transform="translate(67.4,168.8725)">
    <text
       id="text142"
       style="stroke:none"
       y="4.3199"
       xml:space="preserve"
       x="-23.000099">0</text>
    <text
       id="text144"
       style="stroke:none"
       y="4.3199"
       xml:space="preserve"
       x="-14">.</text>
    <text
       id="text146"
       style="stroke:none"
       y="4.3199"
       xml:space="preserve"
       x="-9">6</text>
  </g>
  <g
     id="g148"
     style="font-size:18px;font-family:mwa_cmr10;color-interpolation:linearRGB;fill:#262626;stroke:#262626;color-rendering:optimizeQuality;image-rendering:optimizeQuality;text-rendering:geometricPrecision"
     transform="translate(67.4,101.6176)">
    <text
       id="text150"
       style="stroke:none"
       y="4.3199"
       xml:space="preserve"
       x="-23.000099">0</text>
    <text
       id="text152"
       style="stroke:none"
       y="4.3199"
       xml:space="preserve"
       x="-14">.</text>
    <text
       id="text154"
       style="stroke:none"
       y="4.3199"
       xml:space="preserve"
       x="-9">8</text>
  </g>
  <g
     id="g156"
     style="font-size:18px;font-family:mwa_cmr10;color-interpolation:linearRGB;fill:#262626;stroke:#262626;color-rendering:optimizeQuality;image-rendering:optimizeQuality;text-rendering:geometricPrecision"
     transform="translate(67.4,34.3627)">
    <text
       id="text158"
       style="stroke:none"
       y="4.3199"
       xml:space="preserve"
       x="-9">1</text>
  </g>
  <g
     id="g160"
     style="color-interpolation:linearRGB;fill:#0072bd;stroke:#0072bd;stroke-width:2;stroke-linecap:butt;stroke-linejoin:round;color-rendering:optimizeQuality;image-rendering:optimizeQuality;text-rendering:geometricPrecision">
    <path
       inkscape:connector-curvature="0"
       id="path162"
       style="fill:none;fill-rule:evenodd"
       d="m 75.8933,370.7271 2.8934,-0.0257 2.8933,-0.0513 2.8933,-0.0128 2.8934,-0.0129 2.8933,-0.0128 2.8933,0 2.8934,-0.0514 2.8933,-0.0385 2.8933,-0.0641 2.8934,-0.0257 2.8933,-0.0899 2.8933,-0.0898 2.8934,-0.1797 2.8933,-0.0257 2.8933,-0.1412 2.8934,-0.1796 2.8933,-0.1541 2.8933,-0.1797 2.8934,-0.2182 2.8933,-0.308 2.8933,-0.1926 2.8934,-0.3979 2.8933,-0.2567 2.8933,-0.4364 2.8934,-0.4749 2.8933,-0.6417 2.8933,-0.6418 2.8934,-1.0012 2.8933,-0.8343 2.8933,-1.1552 2.8934,-1.3605 2.8933,-1.3606 2.8933,-1.399 2.8934,-1.6815 2.8933,-1.5402 2.8933,-1.5146 2.8934,-1.4504 2.8933,-1.5402 2.8933,-1.3349 2.8934,-1.4633 2.8933,-1.3477 2.8933,-1.1552 2.8934,-1.9381 2.8933,-2.0023 2.8933,-2.1564 2.8934,-3.3243 2.8933,-4.6465 2.8933,-4.8902 2.8934,-7.4959 2.8933,-10.371 2.8933,-13.8879 2.8934,0 2.8933,-15.7747 2.8933,-28.7898 2.8934,-35.2717 2.8933,-55.7056 2.8933,-66.0894 2.8934,-10.6662 2.8933,-11.0513 2.8933,38.8399 2.8934,36.7862 2.8933,20.4982 2.8933,-4.133 2.8934,-20.9602 2.8933,-30.5354 2.8933,-41.1375 2.8934,-36.6194 2.8933,5.6861 2.8933,4.8261 2.8934,52.4326 2.8933,61.6613 2.8933,46.4641 2.8934,28.3534 2.8933,23.3219 2.8933,11.1411 2.8934,9.5624 2.8933,6.2893 2.8933,10.2298 2.8934,9.6394 2.8933,11.8856 2.8933,12.5658 2.8934,9.0362 2.8933,7.8552 2.8933,5.1085 2.8934,4.6336 2.8933,4.1202 2.8933,3.0548 2.8934,2.1948 2.8933,1.5788 2.8933,1.5274 2.8934,0.9883 2.8933,0.6546 2.8933,0.3466 2.8934,0.2952 2.8933,0.1797 2.8933,0.1412 2.8934,0.1283 2.8933,0.0642 2.8933,0.077 2.8934,-0.0128 2.8933,-0.077 2.8933,-0.2182 2.8934,-0.5776 2.8933,-0.6931 2.8933,-1.4504 2.8934,-2.1564 2.8933,-2.2847 2.8933,-1.5017 2.8934,-0.1797 2.8933,-0.1797 2.8933,0.9883 2.8934,2.0152 2.8933,2.0536 2.8933,1.7713 2.8934,1.245 2.8933,0.8472 2.8933,0.4492 2.8934,0.1926 2.8933,0.1155 2.8933,0.0256 2.8934,0.0386 2.8933,0.0256 2.8933,0 2.8934,0.0129 2.8933,0.0256 2.8933,-0.0128 2.8934,0 2.8933,-0.0128 2.8933,0 2.8934,-0.0129 2.8933,0 2.8933,-0.0128 2.8934,0 2.8933,0.0128 2.8933,0 2.8934,0.0129 2.8933,0 2.8933,-0.0129 2.8934,0.0129 2.8933,0 2.8933,0.0128 2.8934,0.0128 2.8933,-0.0128 2.8933,0 2.8934,-0.0385 2.8933,-0.0642 2.8933,0.0514 2.8934,0 2.8933,-0.0129 0.0517,-2e-4" />
  </g>
  <text
     xml:space="preserve"
     style="font-style:normal;font-variant:normal;font-weight:normal;font-stretch:normal;font-size:12.5px;line-height:1000%;font-family:'Minion Pro';-inkscape-font-specification:'Minion Pro, Normal';text-align:start;letter-spacing:0px;word-spacing:0px;writing-mode:lr-tb;text-anchor:start;fill:#000000;fill-opacity:1;stroke:none;stroke-width:1px;stroke-linecap:butt;stroke-linejoin:miter;stroke-opacity:1"
     x="204.12904"
     y="416.38708"
     id="text4294"
     sodipodi:linespacing="1000%"><tspan
       sodipodi:role="line"
       id="tspan4296"
       x="204.12904"
       y="416.38708"><tspan
         style="font-size:20px"
         id="tspan4300">Relative position (a.u.)</tspan></tspan></text>
  <text
     xml:space="preserve"
     style="font-style:normal;font-variant:normal;font-weight:normal;font-stretch:normal;font-size:20px;line-height:1000%;font-family:'Minion Pro';-inkscape-font-specification:'Minion Pro, Normal';text-align:start;letter-spacing:0px;word-spacing:0px;writing-mode:lr-tb;text-anchor:start;fill:#000000;fill-opacity:1;stroke:none;stroke-width:1px;stroke-linecap:butt;stroke-linejoin:miter;stroke-opacity:1"
     x="-287.14798"
     y="25.907642"
     id="text4385"
     sodipodi:linespacing="1000%"
     transform="matrix(0,-1,1,0,0,0)"><tspan
       sodipodi:role="line"
       id="tspan4387"
       x="-287.14798"
       y="25.907642">Normalized intensity</tspan></text>
  <text
     xml:space="preserve"
     style="font-style:normal;font-variant:normal;font-weight:normal;font-stretch:normal;font-size:20px;line-height:100%;font-family:'Minion Pro';-inkscape-font-specification:'Minion Pro, Normal';text-align:start;letter-spacing:0px;word-spacing:0px;writing-mode:lr-tb;text-anchor:start;fill:#000000;fill-opacity:1;stroke:none;stroke-width:1px;stroke-linecap:butt;stroke-linejoin:miter;stroke-opacity:1"
     x="133.67741"
     y="127.35484"
     id="text4389"
     sodipodi:linespacing="100%"><tspan
       sodipodi:role="line"
       id="tspan4391"
       x="133.67741"
       y="127.35484">NTF2-</tspan><tspan
       sodipodi:role="line"
       x="133.67741"
       y="147.35483"
       id="tspan4393">fluorescein</tspan></text>
  <text
     xml:space="preserve"
     style="font-style:normal;font-variant:normal;font-weight:normal;font-stretch:normal;font-size:20px;line-height:100%;font-family:'Minion Pro';-inkscape-font-specification:'Minion Pro, Normal';text-align:start;letter-spacing:0px;word-spacing:0px;writing-mode:lr-tb;text-anchor:start;fill:#000000;fill-opacity:1;stroke:none;stroke-width:1px;stroke-linecap:butt;stroke-linejoin:miter;stroke-opacity:1"
     x="334.19354"
     y="300.7742"
     id="text4395"
     sodipodi:linespacing="100%"><tspan
       sodipodi:role="line"
       id="tspan4397"
       x="334.19354"
       y="300.7742">Free</tspan><tspan
       sodipodi:role="line"
       x="334.19354"
       y="320.7742"
       id="tspan4399">fluorescein</tspan><tspan
       sodipodi:role="line"
       x="334.19354"
       y="340.7742"
       id="tspan4401">(Peak height = 0.03)</tspan></text>
</svg>
