<?xml version="1.0" encoding="UTF-8" standalone="no"?>
<svg
   xmlns:dc="http://purl.org/dc/elements/1.1/"
   xmlns:cc="http://creativecommons.org/ns#"
   xmlns:rdf="http://www.w3.org/1999/02/22-rdf-syntax-ns#"
   xmlns:svg="http://www.w3.org/2000/svg"
   xmlns="http://www.w3.org/2000/svg"
   xmlns:sodipodi="http://sodipodi.sourceforge.net/DTD/sodipodi-0.dtd"
   xmlns:inkscape="http://www.inkscape.org/namespaces/inkscape"
   style="fill-opacity:1; color-rendering:auto; color-interpolation:auto; stroke:black; text-rendering:auto; stroke-linecap:square; stroke-miterlimit:10; stroke-opacity:1; shape-rendering:auto; fill:black; stroke-dasharray:none; font-weight:normal; stroke-width:1; font-family:'Dialog'; font-style:normal; stroke-linejoin:miter; font-size:12px; stroke-dashoffset:0; image-rendering:auto;"
   width="560"
   height="420"
   id="svg37458"
   version="1.1"
   inkscape:version="0.91 r13725"
   sodipodi:docname="partition-coefficient-vs-mw.svg">
  <metadata
     id="metadata37739">
    <rdf:RDF>
      <cc:Work
         rdf:about="">
        <dc:format>image/svg+xml</dc:format>
        <dc:type
           rdf:resource="http://purl.org/dc/dcmitype/StillImage" />
      </cc:Work>
    </rdf:RDF>
  </metadata>
  <sodipodi:namedview
     pagecolor="#ffffff"
     bordercolor="#666666"
     borderopacity="1"
     objecttolerance="10"
     gridtolerance="10"
     guidetolerance="10"
     inkscape:pageopacity="0"
     inkscape:pageshadow="2"
     inkscape:window-width="1256"
     inkscape:window-height="699"
     id="namedview37737"
     showgrid="false"
     inkscape:zoom="0.97070313"
     inkscape:cx="329.15361"
     inkscape:cy="185.46447"
     inkscape:window-x="0"
     inkscape:window-y="0"
     inkscape:window-maximized="0"
     inkscape:current-layer="svg37458" />
  <!--Generated by the Batik Graphics2D SVG Generator-->
  <defs
     id="genericDefs">
    <defs
       id="defs1">
      <clipPath
         id="clipPath1"
         clipPathUnits="userSpaceOnUse">
        <path
           id="path37465"
           d="M0 0 L560 0 L560 420 L0 420 L0 0 Z" />
      </clipPath>
    </defs>
  </defs>
  <g
     id="g37507"
     style="font-size:18px;font-family:mwa_cmr10;color-interpolation:linearRGB;fill:#262626;stroke:#262626;color-rendering:optimizeQuality;image-rendering:optimizeQuality;text-rendering:geometricPrecision"
     transform="translate(73,373.6)">
    <path
       inkscape:connector-curvature="0"
       id="path37509"
       d="m 0,15.5106 q -2.2031,0 -3,-1.8125 -0.7969,-1.8125 -0.7969,-4.3125 0,-1.5625 0.2891,-2.9454 Q -3.2188,5.0574 -2.375,4.0965 -1.5312,3.1356 0,3.1356 q 1.1875,0 1.9453,0.5781 0.7578,0.5781 1.1485,1.5 0.3906,0.9219 0.539,1.9687 0.1484,1.0469 0.1484,2.2032 0,1.5468 -0.289,2.8906 -0.2891,1.3437 -1.125,2.289 Q 1.5312,15.5106 0,15.5106 Z m 0,-0.4688 q 1,0 1.4922,-1.0234 0.4922,-1.0235 0.6094,-2.2735 0.1172,-1.25 0.1172,-2.6562 0,-1.3594 -0.1172,-2.5 Q 1.9844,5.4481 1.5,4.5262 1.0156,3.6043 0,3.6043 -1.0156,3.6043 -1.5078,4.534 -2,5.4637 -2.1172,6.5965 q -0.1172,1.1328 -0.1172,2.4922 0,1 0.0469,1.8906 0.0469,0.8906 0.2578,1.8359 0.2109,0.9454 0.6875,1.586 0.4766,0.6406 1.2422,0.6406 z"
       style="stroke:none" />
  </g>
  <g
     id="g37511"
     style="font-size:18px;font-family:mwa_cmr10;color-interpolation:linearRGB;fill:#262626;stroke:#262626;color-rendering:optimizeQuality;image-rendering:optimizeQuality;text-rendering:geometricPrecision"
     transform="translate(159.8,373.6)">
    <path
       inkscape:connector-curvature="0"
       id="path37513"
       d="m -7.4375,13.0731 q 0.1875,0.5312 0.5703,0.9609 0.3828,0.4297 0.9062,0.6719 0.5235,0.2422 1.086,0.2422 1.2968,0 1.789,-1.0157 0.4922,-1.0156 0.4922,-2.4531 0,-0.625 -0.0234,-1.0469 -0.0235,-0.4218 -0.1172,-0.8281 -0.1719,-0.625 -0.5859,-1.1016 -0.4141,-0.4765 -1.0235,-0.4765 -0.6094,0 -1.039,0.1875 -0.4297,0.1875 -0.7032,0.4297 -0.2734,0.2422 -0.4843,0.5156 -0.211,0.2734 -0.2735,0.2891 l -0.2031,0 q -0.0313,0 -0.1016,-0.0547 -0.0703,-0.0547 -0.0703,-0.1172 l 0,-6 q 0,-0.0469 0.0625,-0.0938 0.0625,-0.0468 0.1094,-0.0468 l 0.0625,0 q 1.2031,0.5781 2.5781,0.5781 1.3281,0 2.5625,-0.5781 l 0.0625,0 q 0.0625,0 0.1172,0.039 0.0547,0.0391 0.0547,0.1016 l 0,0.1562 q 0,0.0938 -0.0469,0.0938 -0.6094,0.8125 -1.539,1.2734 -0.9297,0.461 -1.9141,0.461 -0.7188,0 -1.4844,-0.2032 l 0,3.4063 Q -6,7.9793 -5.5235,7.7684 q 0.4766,-0.211 1.1953,-0.211 1,0 1.7891,0.5703 0.7891,0.5704 1.2109,1.4922 0.4219,0.9219 0.4219,1.875 0,1.0782 -0.539,2.0078 -0.5391,0.9297 -1.4532,1.4688 -0.914,0.5391 -1.9765,0.5391 -0.8907,0 -1.6328,-0.4532 -0.7422,-0.4531 -1.1719,-1.2265 -0.4297,-0.7735 -0.4297,-1.6485 0,-0.4062 0.2656,-0.6562 0.2656,-0.25 0.6563,-0.25 0.4062,0 0.6718,0.2578 0.2657,0.2578 0.2657,0.6484 0,0.3907 -0.2657,0.6563 -0.2656,0.2656 -0.6718,0.2656 -0.0469,0 -0.1328,-0.0156 -0.086,-0.0156 -0.1172,-0.0156 z"
       style="stroke:none" />
    <path
       inkscape:connector-curvature="0"
       id="path37515"
       d="m 4.5,15.5106 q -2.2031,0 -3,-1.8125 Q 0.7031,11.8856 0.7031,9.3856 0.7031,7.8231 0.9922,6.4402 1.2812,5.0574 2.125,4.0965 2.9688,3.1356 4.5,3.1356 q 1.1875,0 1.9453,0.5781 0.7578,0.5781 1.1485,1.5 0.3906,0.9219 0.539,1.9687 0.1484,1.0469 0.1484,2.2032 0,1.5468 -0.289,2.8906 -0.2891,1.3437 -1.125,2.289 -0.836,0.9454 -2.3672,0.9454 z m 0,-0.4688 q 1,0 1.4922,-1.0234 0.4922,-1.0235 0.6094,-2.2735 0.1172,-1.25 0.1172,-2.6562 0,-1.3594 -0.1172,-2.5 Q 6.4844,5.4481 6,4.5262 5.5156,3.6043 4.5,3.6043 3.4844,3.6043 2.9922,4.534 2.5,5.4637 2.3828,6.5965 2.2656,7.7293 2.2656,9.0887 q 0,1 0.0469,1.8906 0.0469,0.8906 0.2578,1.8359 0.2109,0.9454 0.6875,1.586 0.4766,0.6406 1.2422,0.6406 z"
       style="stroke:none" />
  </g>
  <g
     id="g37517"
     style="font-size:18px;font-family:mwa_cmr10;color-interpolation:linearRGB;fill:#262626;stroke:#262626;color-rendering:optimizeQuality;image-rendering:optimizeQuality;text-rendering:geometricPrecision"
     transform="translate(246.6,373.6)">
    <path
       inkscape:connector-curvature="0"
       id="path37519"
       d="m -11.8282,15.1199 0,-0.6406 q 2.25,0 2.25,-0.5625 l 0,-9.4531 q -0.9375,0.4531 -2.3593,0.4531 l 0,-0.6406 q 2.2031,0 3.3281,-1.1406 l 0.2656,0 q 0.0625,0 0.1172,0.0468 0.0547,0.0469 0.0547,0.1094 l 0,10.625 q 0,0.5625 2.25,0.5625 l 0,0.6406 -5.9063,0 z"
       style="stroke:none" />
    <path
       inkscape:connector-curvature="0"
       id="path37521"
       d="m 0,15.5106 q -2.2031,0 -3,-1.8125 -0.7969,-1.8125 -0.7969,-4.3125 0,-1.5625 0.2891,-2.9454 Q -3.2188,5.0574 -2.375,4.0965 -1.5312,3.1356 0,3.1356 q 1.1875,0 1.9453,0.5781 0.7578,0.5781 1.1485,1.5 0.3906,0.9219 0.539,1.9687 0.1484,1.0469 0.1484,2.2032 0,1.5468 -0.289,2.8906 -0.2891,1.3437 -1.125,2.289 Q 1.5312,15.5106 0,15.5106 Z m 0,-0.4688 q 1,0 1.4922,-1.0234 0.4922,-1.0235 0.6094,-2.2735 0.1172,-1.25 0.1172,-2.6562 0,-1.3594 -0.1172,-2.5 Q 1.9844,5.4481 1.5,4.5262 1.0156,3.6043 0,3.6043 -1.0156,3.6043 -1.5078,4.534 -2,5.4637 -2.1172,6.5965 q -0.1172,1.1328 -0.1172,2.4922 0,1 0.0469,1.8906 0.0469,0.8906 0.2578,1.8359 0.2109,0.9454 0.6875,1.586 0.4766,0.6406 1.2422,0.6406 z"
       style="stroke:none" />
    <path
       inkscape:connector-curvature="0"
       id="path37523"
       d="m 9,15.5106 q -2.2031,0 -3,-1.8125 -0.7968,-1.8125 -0.7968,-4.3125 0,-1.5625 0.289,-2.9454 Q 5.7813,5.0574 6.625,4.0965 7.4688,3.1356 9,3.1356 q 1.1875,0 1.9453,0.5781 0.7579,0.5781 1.1485,1.5 0.3906,0.9219 0.539,1.9687 0.1485,1.0469 0.1485,2.2032 0,1.5468 -0.2891,2.8906 -0.289,1.3437 -1.125,2.289 Q 10.5313,15.5106 9,15.5106 Z m 0,-0.4688 q 1,0 1.4922,-1.0234 0.4922,-1.0235 0.6094,-2.2735 0.1172,-1.25 0.1172,-2.6562 0,-1.3594 -0.1172,-2.5 Q 10.9844,5.4481 10.5,4.5262 10.0157,3.6043 9,3.6043 7.9844,3.6043 7.4922,4.534 7,5.4637 6.8828,6.5965 6.7657,7.7293 6.7657,9.0887 q 0,1 0.0468,1.8906 0.0469,0.8906 0.2578,1.8359 0.211,0.9454 0.6875,1.586 Q 8.2344,15.0418 9,15.0418 Z"
       style="stroke:none" />
  </g>
  <g
     id="g37525"
     style="font-size:18px;font-family:mwa_cmr10;color-interpolation:linearRGB;fill:#262626;stroke:#262626;color-rendering:optimizeQuality;image-rendering:optimizeQuality;text-rendering:geometricPrecision"
     transform="translate(333.4,373.6)">
    <path
       inkscape:connector-curvature="0"
       id="path37527"
       d="m -11.8282,15.1199 0,-0.6406 q 2.25,0 2.25,-0.5625 l 0,-9.4531 q -0.9375,0.4531 -2.3593,0.4531 l 0,-0.6406 q 2.2031,0 3.3281,-1.1406 l 0.2656,0 q 0.0625,0 0.1172,0.0468 0.0547,0.0469 0.0547,0.1094 l 0,10.625 q 0,0.5625 2.25,0.5625 l 0,0.6406 -5.9063,0 z"
       style="stroke:none" />
    <path
       inkscape:connector-curvature="0"
       id="path37529"
       d="m -2.9375,13.0731 q 0.1875,0.5312 0.5703,0.9609 0.3828,0.4297 0.9063,0.6719 0.5234,0.2422 1.0859,0.2422 1.2969,0 1.7891,-1.0157 0.4921,-1.0156 0.4921,-2.4531 0,-0.625 -0.0234,-1.0469 Q 1.8594,10.0106 1.7656,9.6043 1.5938,8.9793 1.1797,8.5027 0.7656,8.0262 0.1562,8.0262 q -0.6093,0 -1.039,0.1875 -0.4297,0.1875 -0.7031,0.4297 -0.2735,0.2422 -0.4844,0.5156 -0.2109,0.2734 -0.2735,0.2891 l -0.2031,0 q -0.0312,0 -0.1015,-0.0547 -0.0704,-0.0547 -0.0704,-0.1172 l 0,-6 q 0,-0.0469 0.0626,-0.0938 0.0624,-0.0468 0.1093,-0.0468 l 0.0625,0 q 1.2032,0.5781 2.5782,0.5781 1.3281,0 2.5624,-0.5781 l 0.0626,0 q 0.0624,0 0.1171,0.039 0.0547,0.0391 0.0547,0.1016 l 0,0.1562 q 0,0.0938 -0.0468,0.0938 -0.6094,0.8125 -1.5391,1.2734 -0.9297,0.461 -1.9141,0.461 -0.7187,0 -1.4844,-0.2032 l 0,3.4063 Q -1.5,7.9793 -1.0234,7.7684 q 0.4765,-0.211 1.1953,-0.211 1,0 1.789,0.5703 0.7891,0.5704 1.211,1.4922 0.4219,0.9219 0.4219,1.875 0,1.0782 -0.5391,2.0078 -0.5391,0.9297 -1.4531,1.4688 -0.9141,0.5391 -1.9766,0.5391 -0.8906,0 -1.6328,-0.4532 -0.7422,-0.4531 -1.1719,-1.2265 -0.4297,-0.7735 -0.4297,-1.6485 0,-0.4062 0.2656,-0.6562 0.2657,-0.25 0.6563,-0.25 0.4063,0 0.6719,0.2578 0.2656,0.2578 0.2656,0.6484 0,0.3907 -0.2656,0.6563 -0.2656,0.2656 -0.6719,0.2656 -0.0469,0 -0.1328,-0.0156 -0.0859,-0.0156 -0.1172,-0.0156 z"
       style="stroke:none" />
    <path
       inkscape:connector-curvature="0"
       id="path37531"
       d="m 9,15.5106 q -2.2031,0 -3,-1.8125 -0.7968,-1.8125 -0.7968,-4.3125 0,-1.5625 0.289,-2.9454 Q 5.7813,5.0574 6.625,4.0965 7.4688,3.1356 9,3.1356 q 1.1875,0 1.9453,0.5781 0.7579,0.5781 1.1485,1.5 0.3906,0.9219 0.539,1.9687 0.1485,1.0469 0.1485,2.2032 0,1.5468 -0.2891,2.8906 -0.289,1.3437 -1.125,2.289 Q 10.5313,15.5106 9,15.5106 Z m 0,-0.4688 q 1,0 1.4922,-1.0234 0.4922,-1.0235 0.6094,-2.2735 0.1172,-1.25 0.1172,-2.6562 0,-1.3594 -0.1172,-2.5 Q 10.9844,5.4481 10.5,4.5262 10.0157,3.6043 9,3.6043 7.9844,3.6043 7.4922,4.534 7,5.4637 6.8828,6.5965 6.7657,7.7293 6.7657,9.0887 q 0,1 0.0468,1.8906 0.0469,0.8906 0.2578,1.8359 0.211,0.9454 0.6875,1.586 Q 8.2344,15.0418 9,15.0418 Z"
       style="stroke:none" />
  </g>
  <g
     id="g37533"
     style="font-size:18px;font-family:mwa_cmr10;color-interpolation:linearRGB;fill:#262626;stroke:#262626;color-rendering:optimizeQuality;image-rendering:optimizeQuality;text-rendering:geometricPrecision"
     transform="translate(420.2,373.6)">
    <path
       inkscape:connector-curvature="0"
       id="path37535"
       d="m -12.6094,15.1199 0,-0.4843 q 0,-0.0469 0.0469,-0.0938 l 2.7968,-3.0937 q 0.625,-0.6875 1.0235,-1.1563 Q -8.3438,9.8231 -7.961,9.2215 -7.5782,8.6199 -7.3516,7.9871 -7.125,7.3543 -7.125,6.6512 -7.125,5.9168 -7.3985,5.2449 -7.6719,4.5731 -8.211,4.1668 -8.75,3.7606 -9.5157,3.7606 q -0.7812,0 -1.4062,0.4687 -0.625,0.4688 -0.875,1.2188 0.0625,-0.0157 0.1875,-0.0157 0.4062,0 0.6875,0.2735 0.2812,0.2734 0.2812,0.7109 0,0.4063 -0.2812,0.6953 -0.2813,0.2891 -0.6875,0.2891 -0.4219,0 -0.7109,-0.2969 -0.2891,-0.2969 -0.2891,-0.6875 0,-0.6875 0.2578,-1.2812 0.2578,-0.5938 0.7344,-1.0547 0.4765,-0.461 1.0781,-0.7032 0.6016,-0.2421 1.2891,-0.2421 1.0312,0 1.914,0.4296 0.8828,0.4297 1.4063,1.2266 0.5234,0.7969 0.5234,1.8594 0,0.7812 -0.3437,1.4844 -0.3438,0.7031 -0.8828,1.2812 -0.5391,0.5781 -1.375,1.3047 -0.836,0.7266 -1.1016,0.9766 l -2.0313,1.9687 1.7344,0 q 1.2656,0 2.125,-0.0234 0.8594,-0.0235 0.9063,-0.0703 0.2187,-0.2344 0.4375,-1.6563 l 0.5312,0 -0.5156,3.2031 -6.6875,0 z"
       style="stroke:none" />
    <path
       inkscape:connector-curvature="0"
       id="path37537"
       d="m 0,15.5106 q -2.2031,0 -3,-1.8125 -0.7969,-1.8125 -0.7969,-4.3125 0,-1.5625 0.2891,-2.9454 Q -3.2188,5.0574 -2.375,4.0965 -1.5312,3.1356 0,3.1356 q 1.1875,0 1.9453,0.5781 0.7578,0.5781 1.1485,1.5 0.3906,0.9219 0.539,1.9687 0.1484,1.0469 0.1484,2.2032 0,1.5468 -0.289,2.8906 -0.2891,1.3437 -1.125,2.289 Q 1.5312,15.5106 0,15.5106 Z m 0,-0.4688 q 1,0 1.4922,-1.0234 0.4922,-1.0235 0.6094,-2.2735 0.1172,-1.25 0.1172,-2.6562 0,-1.3594 -0.1172,-2.5 Q 1.9844,5.4481 1.5,4.5262 1.0156,3.6043 0,3.6043 -1.0156,3.6043 -1.5078,4.534 -2,5.4637 -2.1172,6.5965 q -0.1172,1.1328 -0.1172,2.4922 0,1 0.0469,1.8906 0.0469,0.8906 0.2578,1.8359 0.2109,0.9454 0.6875,1.586 0.4766,0.6406 1.2422,0.6406 z"
       style="stroke:none" />
    <path
       inkscape:connector-curvature="0"
       id="path37539"
       d="m 9,15.5106 q -2.2031,0 -3,-1.8125 -0.7968,-1.8125 -0.7968,-4.3125 0,-1.5625 0.289,-2.9454 Q 5.7813,5.0574 6.625,4.0965 7.4688,3.1356 9,3.1356 q 1.1875,0 1.9453,0.5781 0.7579,0.5781 1.1485,1.5 0.3906,0.9219 0.539,1.9687 0.1485,1.0469 0.1485,2.2032 0,1.5468 -0.2891,2.8906 -0.289,1.3437 -1.125,2.289 Q 10.5313,15.5106 9,15.5106 Z m 0,-0.4688 q 1,0 1.4922,-1.0234 0.4922,-1.0235 0.6094,-2.2735 0.1172,-1.25 0.1172,-2.6562 0,-1.3594 -0.1172,-2.5 Q 10.9844,5.4481 10.5,4.5262 10.0157,3.6043 9,3.6043 7.9844,3.6043 7.4922,4.534 7,5.4637 6.8828,6.5965 6.7657,7.7293 6.7657,9.0887 q 0,1 0.0468,1.8906 0.0469,0.8906 0.2578,1.8359 0.211,0.9454 0.6875,1.586 Q 8.2344,15.0418 9,15.0418 Z"
       style="stroke:none" />
  </g>
  <g
     id="g37541"
     style="font-size:18px;font-family:mwa_cmr10;color-interpolation:linearRGB;fill:#262626;stroke:#262626;color-rendering:optimizeQuality;image-rendering:optimizeQuality;text-rendering:geometricPrecision"
     transform="translate(507,373.6)">
    <path
       inkscape:connector-curvature="0"
       id="path37543"
       d="m -12.6094,15.1199 0,-0.4843 q 0,-0.0469 0.0469,-0.0938 l 2.7968,-3.0937 q 0.625,-0.6875 1.0235,-1.1563 Q -8.3438,9.8231 -7.961,9.2215 -7.5782,8.6199 -7.3516,7.9871 -7.125,7.3543 -7.125,6.6512 -7.125,5.9168 -7.3985,5.2449 -7.6719,4.5731 -8.211,4.1668 -8.75,3.7606 -9.5157,3.7606 q -0.7812,0 -1.4062,0.4687 -0.625,0.4688 -0.875,1.2188 0.0625,-0.0157 0.1875,-0.0157 0.4062,0 0.6875,0.2735 0.2812,0.2734 0.2812,0.7109 0,0.4063 -0.2812,0.6953 -0.2813,0.2891 -0.6875,0.2891 -0.4219,0 -0.7109,-0.2969 -0.2891,-0.2969 -0.2891,-0.6875 0,-0.6875 0.2578,-1.2812 0.2578,-0.5938 0.7344,-1.0547 0.4765,-0.461 1.0781,-0.7032 0.6016,-0.2421 1.2891,-0.2421 1.0312,0 1.914,0.4296 0.8828,0.4297 1.4063,1.2266 0.5234,0.7969 0.5234,1.8594 0,0.7812 -0.3437,1.4844 -0.3438,0.7031 -0.8828,1.2812 -0.5391,0.5781 -1.375,1.3047 -0.836,0.7266 -1.1016,0.9766 l -2.0313,1.9687 1.7344,0 q 1.2656,0 2.125,-0.0234 0.8594,-0.0235 0.9063,-0.0703 0.2187,-0.2344 0.4375,-1.6563 l 0.5312,0 -0.5156,3.2031 -6.6875,0 z"
       style="stroke:none" />
    <path
       inkscape:connector-curvature="0"
       id="path37545"
       d="m -2.9375,13.0731 q 0.1875,0.5312 0.5703,0.9609 0.3828,0.4297 0.9063,0.6719 0.5234,0.2422 1.0859,0.2422 1.2969,0 1.7891,-1.0157 0.4921,-1.0156 0.4921,-2.4531 0,-0.625 -0.0234,-1.0469 Q 1.8594,10.0106 1.7656,9.6043 1.5938,8.9793 1.1797,8.5027 0.7656,8.0262 0.1562,8.0262 q -0.6093,0 -1.039,0.1875 -0.4297,0.1875 -0.7031,0.4297 -0.2735,0.2422 -0.4844,0.5156 -0.2109,0.2734 -0.2735,0.2891 l -0.2031,0 q -0.0312,0 -0.1015,-0.0547 -0.0704,-0.0547 -0.0704,-0.1172 l 0,-6 q 0,-0.0469 0.0626,-0.0938 0.0624,-0.0468 0.1093,-0.0468 l 0.0625,0 q 1.2032,0.5781 2.5782,0.5781 1.3281,0 2.5624,-0.5781 l 0.0626,0 q 0.0624,0 0.1171,0.039 0.0547,0.0391 0.0547,0.1016 l 0,0.1562 q 0,0.0938 -0.0468,0.0938 -0.6094,0.8125 -1.5391,1.2734 -0.9297,0.461 -1.9141,0.461 -0.7187,0 -1.4844,-0.2032 l 0,3.4063 Q -1.5,7.9793 -1.0234,7.7684 q 0.4765,-0.211 1.1953,-0.211 1,0 1.789,0.5703 0.7891,0.5704 1.211,1.4922 0.4219,0.9219 0.4219,1.875 0,1.0782 -0.5391,2.0078 -0.5391,0.9297 -1.4531,1.4688 -0.9141,0.5391 -1.9766,0.5391 -0.8906,0 -1.6328,-0.4532 -0.7422,-0.4531 -1.1719,-1.2265 -0.4297,-0.7735 -0.4297,-1.6485 0,-0.4062 0.2656,-0.6562 0.2657,-0.25 0.6563,-0.25 0.4063,0 0.6719,0.2578 0.2656,0.2578 0.2656,0.6484 0,0.3907 -0.2656,0.6563 -0.2656,0.2656 -0.6719,0.2656 -0.0469,0 -0.1328,-0.0156 -0.0859,-0.0156 -0.1172,-0.0156 z"
       style="stroke:none" />
    <path
       inkscape:connector-curvature="0"
       id="path37547"
       d="m 9,15.5106 q -2.2031,0 -3,-1.8125 -0.7968,-1.8125 -0.7968,-4.3125 0,-1.5625 0.289,-2.9454 Q 5.7813,5.0574 6.625,4.0965 7.4688,3.1356 9,3.1356 q 1.1875,0 1.9453,0.5781 0.7579,0.5781 1.1485,1.5 0.3906,0.9219 0.539,1.9687 0.1485,1.0469 0.1485,2.2032 0,1.5468 -0.2891,2.8906 -0.289,1.3437 -1.125,2.289 Q 10.5313,15.5106 9,15.5106 Z m 0,-0.4688 q 1,0 1.4922,-1.0234 0.4922,-1.0235 0.6094,-2.2735 0.1172,-1.25 0.1172,-2.6562 0,-1.3594 -0.1172,-2.5 Q 10.9844,5.4481 10.5,4.5262 10.0157,3.6043 9,3.6043 7.9844,3.6043 7.4922,4.534 7,5.4637 6.8828,6.5965 6.7657,7.7293 6.7657,9.0887 q 0,1 0.0468,1.8906 0.0469,0.8906 0.2578,1.8359 0.211,0.9454 0.6875,1.586 Q 8.2344,15.0418 9,15.0418 Z"
       style="stroke:none" />
  </g>
  <g
     id="g37549"
     style="font-size:20px;font-family:mwa_cmr10;color-interpolation:linearRGB;fill:#262626;stroke:#262626;color-rendering:optimizeQuality;image-rendering:optimizeQuality;text-rendering:geometricPrecision"
     transform="translate(290.0002,396.2)">
    <path
       inkscape:connector-curvature="0"
       id="path37551"
       d="m -102.037,16.6319 0,-0.7031 q 2.0625,0 2.0625,-1.1875 l 0,-10.4375 q 0,-0.625 -2.0625,-0.625 l 0,-0.7031 3.7812,0 q 0.25,0 0.3281,0.2187 l 4.3438,11.3125 4.3594,-11.3125 q 0.0781,-0.2187 0.3281,-0.2187 l 3.7812,0 0,0.7031 q -2.0625,0 -2.0625,0.625 l 0,10.9844 q 0,0.6406 2.0625,0.6406 l 0,0.7031 -5.8281,0 0,-0.7031 q 2.0625,0 2.0625,-0.6406 l 0,-11.6406 -4.9219,12.7656 q -0.0937,0.2187 -0.3281,0.2187 -0.2656,0 -0.3437,-0.2187 l -4.8594,-12.6094 0,10.9375 q 0,1.1875 2.0469,1.1875 l 0,0.7031 -4.75,0 z"
       style="stroke:none" />
    <path
       inkscape:connector-curvature="0"
       id="path37553"
       d="m -79.5901,16.8507 q -1.2032,0 -2.2266,-0.6094 -1.0234,-0.6094 -1.6172,-1.6328 -0.5937,-1.0234 -0.5937,-2.2422 0,-0.9062 0.3281,-1.7578 0.3281,-0.8516 0.9375,-1.5234 0.6094,-0.6719 1.4141,-1.0469 0.8046,-0.375 1.7578,-0.375 1.2343,0 2.2422,0.6484 1.0078,0.6485 1.5937,1.7422 0.5859,1.0938 0.5859,2.3125 0,1.2031 -0.5937,2.2344 -0.5938,1.0312 -1.6172,1.6406 -1.0234,0.6094 -2.2109,0.6094 z m 0,-0.5781 q 1.6093,0 2.1406,-1.1641 0.5312,-1.1641 0.5312,-2.9609 0,-1 -0.1015,-1.6641 -0.1016,-0.6641 -0.4766,-1.1953 -0.2187,-0.3281 -0.5625,-0.5781 -0.3437,-0.25 -0.7344,-0.3829 -0.3906,-0.1328 -0.7968,-0.1328 -0.625,0 -1.1875,0.2813 -0.5625,0.2812 -0.9375,0.8125 -0.3594,0.5625 -0.461,1.2422 -0.1015,0.6797 -0.1015,1.6172 0,1.125 0.1953,2.0156 0.1953,0.8906 0.7812,1.5 0.586,0.6094 1.711,0.6094 z"
       style="stroke:none" />
    <path
       inkscape:connector-curvature="0"
       id="path37555"
       d="m -74.0807,16.6319 0,-0.7031 q 0.6875,0 1.125,-0.1094 0.4375,-0.1093 0.4375,-0.5312 l 0,-10.5 q 0,-0.5313 -0.1563,-0.7735 -0.1562,-0.2421 -0.4609,-0.289 -0.3047,-0.0469 -0.9453,-0.0469 l 0,-0.7031 2.9687,-0.2188 0,12.5313 q 0,0.4219 0.4453,0.5312 0.4453,0.1094 1.1172,0.1094 l 0,0.7031 -4.5312,0 z"
       style="stroke:none" />
    <path
       inkscape:connector-curvature="0"
       id="path37557"
       d="m -64.2057,16.8507 q -1.2188,0 -2.2422,-0.6406 -1.0234,-0.6407 -1.6016,-1.7032 -0.5781,-1.0625 -0.5781,-2.2656 0,-1.1719 0.5313,-2.2266 0.5312,-1.0546 1.4843,-1.7031 0.9532,-0.6484 2.125,-0.6484 0.9063,0 1.586,0.3125 0.6797,0.3125 1.125,0.8594 0.4453,0.5468 0.664,1.289 0.2188,0.7422 0.2188,1.6172 0,0.2656 -0.2031,0.2656 l -5.7813,0 0,0.2188 q 0,1.6562 0.6641,2.8515 0.664,1.1954 2.1797,1.1954 0.6093,0 1.1328,-0.2735 0.5234,-0.2734 0.914,-0.7656 0.3907,-0.4922 0.5157,-1.0391 0.0312,-0.0781 0.0859,-0.1328 0.0547,-0.0547 0.1172,-0.0547 l 0.1719,0 q 0.2031,0 0.2031,0.2657 -0.2813,1.125 -1.2188,1.8515 -0.9375,0.7266 -2.0937,0.7266 z m -2.6563,-5.3438 4.5625,0 q 0,-0.75 -0.2109,-1.5156 -0.2109,-0.7656 -0.7031,-1.2812 -0.4922,-0.5157 -1.2735,-0.5157 -1.1406,0 -1.7578,1.0625 -0.6172,1.0625 -0.6172,2.25 z"
       style="stroke:none" />
    <path
       inkscape:connector-curvature="0"
       id="path37559"
       d="m -55.4057,16.8507 q -1.2188,0 -2.2031,-0.625 -0.9844,-0.625 -1.5469,-1.6797 -0.5625,-1.0547 -0.5625,-2.2266 0,-1.1875 0.5547,-2.2734 0.5547,-1.0859 1.5469,-1.7344 0.9921,-0.6484 2.2109,-0.6484 1.1719,0 2.1328,0.4609 0.9609,0.461 0.9609,1.5078 0,0.3907 -0.2812,0.6797 -0.2813,0.2891 -0.6719,0.2891 -0.4062,0 -0.6875,-0.2891 -0.2812,-0.289 -0.2812,-0.6797 0,-0.3593 0.2265,-0.6172 0.2266,-0.2578 0.5547,-0.3203 -0.6875,-0.4375 -1.9375,-0.4375 -0.9531,0 -1.539,0.6328 -0.586,0.6329 -0.8204,1.5704 -0.2343,0.9375 -0.2343,1.8593 0,0.9688 0.289,1.8672 0.2891,0.8985 0.9297,1.4922 0.6406,0.5938 1.5938,0.5938 0.9531,0 1.6172,-0.586 0.664,-0.5859 0.914,-1.5234 0,-0.1094 0.1563,-0.1094 l 0.2343,0 q 0.0625,0 0.1094,0.0547 0.0469,0.0547 0.0469,0.1172 l 0,0.0625 q -0.2969,1.1875 -1.1953,1.875 -0.8985,0.6875 -2.1172,0.6875 z"
       style="stroke:none" />
    <path
       inkscape:connector-curvature="0"
       id="path37561"
       d="m -49.4338,14.2413 0,-4.4062 q 0,-0.5313 -0.1563,-0.7735 -0.1562,-0.2422 -0.4609,-0.2969 -0.3047,-0.0546 -0.9453,-0.0546 l 0,-0.7032 3.0312,-0.2187 0,6.4531 q 0,0.7813 0.1094,1.2188 0.1094,0.4375 0.4765,0.6562 0.3672,0.2188 1.1641,0.2188 1.0781,0 1.7109,-0.8985 0.6329,-0.8984 0.6329,-2.0547 l 0,-3.5468 q 0,-0.5313 -0.1641,-0.7735 -0.1641,-0.2422 -0.4609,-0.2969 -0.2969,-0.0546 -0.9375,-0.0546 l 0,-0.7032 3.0312,-0.2187 0,7.0312 q 0,0.5157 0.1563,0.7578 0.1562,0.2422 0.4609,0.2969 0.3047,0.0547 0.9453,0.0547 l 0,0.7031 -2.9687,0.2188 0,-1.6875 q -0.375,0.75 -1.0391,1.2187 -0.6641,0.4688 -1.4609,0.4688 -1.4375,0 -2.2813,-0.6094 -0.8437,-0.6094 -0.8437,-2 z"
       style="stroke:none" />
    <path
       inkscape:connector-curvature="0"
       id="path37563"
       d="m -39.9807,16.6319 0,-0.7031 q 0.6875,0 1.125,-0.1094 0.4375,-0.1093 0.4375,-0.5312 l 0,-10.5 q 0,-0.5313 -0.1562,-0.7735 -0.1563,-0.2421 -0.461,-0.289 -0.3047,-0.0469 -0.9453,-0.0469 l 0,-0.7031 2.9688,-0.2188 0,12.5313 q 0,0.4219 0.4453,0.5312 0.4453,0.1094 1.1172,0.1094 l 0,0.7031 -4.5313,0 z"
       style="stroke:none" />
    <path
       inkscape:connector-curvature="0"
       id="path37565"
       d="m -34.2932,14.6632 q 0,-1.1875 0.9375,-1.9375 0.9375,-0.75 2.25,-1.0547 1.3125,-0.3047 2.5,-0.3047 l 0,-0.8125 q 0,-0.5781 -0.25,-1.125 -0.25,-0.5469 -0.7343,-0.8906 -0.4844,-0.3438 -1.0625,-0.3438 -1.3282,0 -2.0157,0.5938 0.375,0 0.625,0.289 0.25,0.2891 0.25,0.6641 0,0.4063 -0.2812,0.6875 -0.2813,0.2813 -0.6719,0.2813 -0.4062,0 -0.6875,-0.2813 -0.2812,-0.2812 -0.2812,-0.6875 0,-1.0469 0.9609,-1.5625 0.9609,-0.5156 2.1016,-0.5156 0.8125,0 1.6328,0.3515 0.8203,0.3516 1.3437,0.9922 0.5235,0.6407 0.5235,1.5 l 0,4.5 q 0,0.3907 0.164,0.7188 0.1641,0.3281 0.5235,0.3281 0.3281,0 0.4921,-0.3281 0.1641,-0.3281 0.1641,-0.7188 l 0,-1.2812 0.5781,0 0,1.2812 q 0,0.4532 -0.2343,0.8594 -0.2344,0.4063 -0.625,0.6484 -0.3907,0.2422 -0.8594,0.2422 -0.5781,0 -1.0078,-0.4609 -0.4297,-0.4609 -0.4766,-1.0859 -0.3594,0.75 -1.0859,1.1953 -0.7266,0.4453 -1.5391,0.4453 -0.7656,0 -1.5078,-0.2188 -0.7422,-0.2187 -1.2344,-0.7031 -0.4922,-0.4844 -0.4922,-1.2656 z m 1.625,0 q 0,0.7031 0.5157,1.1875 0.5156,0.4844 1.2187,0.4844 0.6563,0 1.1797,-0.3282 0.5234,-0.3281 0.8359,-0.8828 0.3125,-0.5547 0.3125,-1.164 l 0,-2.0782 q -0.9062,0 -1.8593,0.2969 -0.9532,0.2969 -1.5782,0.9297 -0.625,0.6328 -0.625,1.5547 z"
       style="stroke:none" />
    <path
       inkscape:connector-curvature="0"
       id="path37567"
       d="m -24.6744,16.6319 0,-0.7031 q 0.6875,0 1.125,-0.1094 0.4375,-0.1093 0.4375,-0.5312 l 0,-5.4531 q 0,-0.5313 -0.1562,-0.7735 -0.1563,-0.2422 -0.461,-0.2969 -0.3047,-0.0546 -0.9453,-0.0546 l 0,-0.7032 2.8594,-0.2187 0,1.9531 q 0.3281,-0.8594 0.9219,-1.4062 0.5937,-0.5469 1.4531,-0.5469 0.5937,0 1.0625,0.3515 0.4687,0.3516 0.4687,0.9297 0,0.3594 -0.2578,0.6328 -0.2578,0.2735 -0.6484,0.2735 -0.375,0 -0.6328,-0.2656 -0.2578,-0.2657 -0.2578,-0.6407 0,-0.5312 0.375,-0.7656 l -0.1094,0 q -0.8125,0 -1.3281,0.5859 -0.5157,0.586 -0.7266,1.461 -0.2109,0.875 -0.2109,1.6562 l 0,3.2813 q 0,0.6406 1.9375,0.6406 l 0,0.7031 -4.9063,0 z"
       style="stroke:none" />
    <path
       inkscape:connector-curvature="0"
       id="path37569"
       d="M -6.4131,16.6319 -8.9913,9.3507 Q -9.1788,8.9132 -9.5069,8.8116 -9.835,8.7101 -10.4756,8.7101 l 0,-0.7032 4.125,0 0,0.7032 q -1.1875,0 -1.1875,0.5 0.0156,0.0312 0.0234,0.0625 0.0078,0.0312 0.0078,0.0781 l 1.9219,5.3906 1.6562,-4.6875 -0.2656,-0.7031 Q -4.3506,8.9132 -4.6944,8.8116 -5.0381,8.7101 -5.6631,8.7101 l 0,-0.7032 3.9531,0 0,0.7032 q -1.1875,0 -1.1875,0.5 0,0.0781 0.0156,0.1406 l 2.0156,5.6406 1.8125,-5.0937 Q 0.9775,9.7413 0.9775,9.6163 0.9775,9.1944 0.6259,8.9522 0.2744,8.7101 -0.1631,8.7101 l 0,-0.7032 3.3906,0 0,0.7032 q -0.6094,0 -1.0391,0.3203 -0.4297,0.3203 -0.6328,0.8672 l -2.3906,6.7343 q -0.0625,0.2188 -0.2969,0.2188 l -0.1562,0 q -0.2344,0 -0.3125,-0.2188 l -2.0157,-5.7031 -2.0156,5.7031 q -0.1094,0.2188 -0.3125,0.2188 l -0.1562,0 q -0.2344,0 -0.3125,-0.2188 z"
       style="stroke:none" />
    <path
       inkscape:connector-curvature="0"
       id="path37571"
       d="m 7.8994,16.8507 q -1.2188,0 -2.2422,-0.6406 -1.0235,-0.6407 -1.6016,-1.7032 -0.5781,-1.0625 -0.5781,-2.2656 0,-1.1719 0.5312,-2.2266 Q 4.54,8.9601 5.4931,8.3116 6.4462,7.6632 7.6181,7.6632 q 0.9063,0 1.5859,0.3125 0.6797,0.3125 1.125,0.8594 0.4454,0.5468 0.6641,1.289 0.2188,0.7422 0.2188,1.6172 0,0.2656 -0.2032,0.2656 l -5.7812,0 0,0.2188 q 0,1.6562 0.664,2.8515 0.6641,1.1954 2.1797,1.1954 0.6094,0 1.1328,-0.2735 0.5235,-0.2734 0.9141,-0.7656 0.3906,-0.4922 0.5156,-1.0391 0.0313,-0.0781 0.086,-0.1328 0.0547,-0.0547 0.1172,-0.0547 l 0.1718,0 q 0.2032,0 0.2032,0.2657 -0.2813,1.125 -1.2188,1.8515 -0.9375,0.7266 -2.0937,0.7266 z m -2.6563,-5.3438 4.5625,0 q 0,-0.75 -0.2109,-1.5156 Q 9.3837,9.2257 8.8915,8.7101 8.3994,8.1944 7.6181,8.1944 q -1.1406,0 -1.7578,1.0625 -0.6172,1.0625 -0.6172,2.25 z"
       style="stroke:none" />
    <path
       inkscape:connector-curvature="0"
       id="path37573"
       d="m 12.3244,16.6319 0,-0.7031 q 0.6875,0 1.125,-0.1094 0.4375,-0.1093 0.4375,-0.5312 l 0,-5.4531 q 0,-0.7657 -0.2969,-0.9454 -0.2969,-0.1796 -1.1719,-0.1796 l 0,-0.7032 2.875,-0.2187 0,7.5 q 0,0.4219 0.3828,0.5312 0.3828,0.1094 1.0235,0.1094 l 0,0.7031 -4.375,0 z M 13.1837,4.3507 q 0,-0.4375 0.3282,-0.7656 0.3281,-0.3282 0.7656,-0.3282 0.2812,0 0.5469,0.1407 0.2656,0.1406 0.4062,0.4062 0.1406,0.2656 0.1406,0.5469 0,0.4375 -0.3281,0.7656 -0.3281,0.3281 -0.7656,0.3281 -0.4375,0 -0.7656,-0.3281 -0.3282,-0.3281 -0.3282,-0.7656 z"
       style="stroke:none" />
    <path
       inkscape:connector-curvature="0"
       id="path37575"
       d="m 17.7775,18.1944 q 0,-0.7187 0.5156,-1.25 0.5156,-0.5312 1.2344,-0.75 -0.4063,-0.3125 -0.6172,-0.7656 -0.2109,-0.4531 -0.2109,-0.9687 0,-0.9375 0.5937,-1.6719 -0.9219,-0.8906 -0.9219,-2.0625 0,-0.625 0.2735,-1.1719 0.2734,-0.5469 0.75,-0.9453 0.4765,-0.3984 1.0625,-0.6094 0.5859,-0.2109 1.1953,-0.2109 1.2031,0 2.1406,0.7031 0.4219,-0.4375 0.9766,-0.6797 0.5547,-0.2422 1.164,-0.2422 0.4375,0 0.711,0.3047 0.2734,0.3047 0.2734,0.7422 0,0.2344 -0.1875,0.4219 -0.1875,0.1875 -0.4375,0.1875 -0.25,0 -0.4375,-0.1875 -0.1875,-0.1875 -0.1875,-0.4219 0,-0.375 0.25,-0.5156 -1.0312,0 -1.7812,0.7031 0.3593,0.3594 0.5781,0.8828 0.2187,0.5235 0.2187,1.0391 0,0.8594 -0.4687,1.539 -0.4688,0.6797 -1.2344,1.0547 -0.7656,0.375 -1.5781,0.375 -1.0938,0 -2,-0.5937 -0.2813,0.3906 -0.2813,0.875 0,0.5312 0.3516,0.9219 0.3516,0.3906 0.8672,0.3906 l 1.6406,0 q 1.2031,0 2.1563,0.2187 0.9531,0.2188 1.6015,0.8594 0.6485,0.6406 0.6485,1.8281 0,0.875 -0.7422,1.461 -0.7422,0.5859 -1.7735,0.8437 -1.0312,0.2578 -1.9062,0.2578 -0.8906,0 -1.9219,-0.2578 -1.0312,-0.2578 -1.7734,-0.8437 -0.7422,-0.586 -0.7422,-1.461 z m 1.125,0 q 0,0.6719 0.5469,1.125 0.5468,0.4532 1.3125,0.6719 0.7656,0.2188 1.4531,0.2188 0.6719,0 1.4453,-0.2188 0.7734,-0.2187 1.3125,-0.6719 0.5391,-0.4531 0.5391,-1.125 0,-1.0468 -0.9532,-1.3515 -0.9531,-0.3047 -2.3281,-0.3047 l -1.6406,0 q -0.4531,0 -0.8359,0.2187 -0.3829,0.2188 -0.6172,0.6172 -0.2344,0.3985 -0.2344,0.8203 z m 2.75,-5.0468 q 1.7031,0 1.7031,-2.4219 0,-1.0313 -0.3594,-1.711 -0.3593,-0.6796 -1.3437,-0.6796 -0.9688,0 -1.3281,0.6796 -0.3594,0.6797 -0.3594,1.711 0,0.6719 0.1328,1.2109 0.1328,0.5391 0.5078,0.875 0.375,0.336 1.0469,0.336 z"
       style="stroke:none" />
    <path
       inkscape:connector-curvature="0"
       id="path37577"
       d="m 27.7088,16.6319 0,-0.7031 q 0.6875,0 1.125,-0.1094 0.4375,-0.1093 0.4375,-0.5312 l 0,-10.5 q 0,-0.5313 -0.1563,-0.7735 Q 28.9588,3.7726 28.6541,3.7257 28.3494,3.6788 27.7088,3.6788 l 0,-0.7031 2.9687,-0.2188 0,6.875 q 0.4219,-0.8281 1.1719,-1.3359 0.75,-0.5078 1.6562,-0.5078 1.3907,0 2.0938,0.664 0.7031,0.6641 0.7031,2.0391 l 0,4.7969 q 0,0.4219 0.4375,0.5312 0.4375,0.1094 1.125,0.1094 l 0,0.7031 -4.5937,0 0,-0.7031 q 0.6875,0 1.125,-0.1094 0.4375,-0.1093 0.4375,-0.5312 l 0,-4.7344 q 0,-0.9844 -0.2813,-1.6172 -0.2812,-0.6328 -1.1562,-0.6328 -1.1563,0 -1.9063,0.9297 -0.75,0.9297 -0.75,2.1172 l 0,3.9375 q 0,0.4219 0.4375,0.5312 0.4375,0.1094 1.1094,0.1094 l 0,0.7031 -4.5781,0 z"
       style="stroke:none" />
    <path
       inkscape:connector-curvature="0"
       id="path37579"
       d="m 39.6119,14.2257 0,-5.5156 -1.6719,0 0,-0.5157 q 1.3125,0 1.9297,-1.2187 0.6172,-1.2188 0.6172,-2.6563 l 0.5781,0 0,3.6875 2.8125,0 0,0.7032 -2.8125,0 0,5.4843 q 0,0.8282 0.2735,1.4532 0.2734,0.625 1.0078,0.625 0.6719,0 0.9766,-0.6641 0.3046,-0.6641 0.3046,-1.4141 l 0,-1.1875 0.5782,0 0,1.2188 q 0,0.625 -0.2266,1.2344 -0.2266,0.6093 -0.6797,1 -0.4531,0.3906 -1.0937,0.3906 -1.2032,0 -1.8985,-0.7188 -0.6953,-0.7187 -0.6953,-1.9062 z"
       style="stroke:none" />
    <path
       inkscape:connector-curvature="0"
       id="path37581"
       d="m 58.0682,21.6007 q -1.1094,-0.8906 -1.9141,-2.0235 -0.8047,-1.1328 -1.3203,-2.4218 -0.5156,-1.2891 -0.7734,-2.6953 -0.2578,-1.4063 -0.2578,-2.8282 0,-1.4375 0.2578,-2.8437 0.2578,-1.4063 0.7812,-2.7031 0.5235,-1.2969 1.336,-2.4297 0.8125,-1.1328 1.8906,-1.9922 0,-0.0313 0.0937,-0.0313 l 0.1875,0 q 0.0625,0 0.1094,0.0547 0.0469,0.0547 0.0469,0.1172 0,0.0938 -0.0313,0.125 -0.9843,0.9688 -1.6328,2.0625 -0.6484,1.0938 -1.0469,2.3281 -0.3984,1.2344 -0.5703,2.5547 -0.1718,1.3203 -0.1718,2.7578 0,6.3594 3.3906,9.6563 0.0625,0.0625 0.0625,0.1719 0,0.0468 -0.0547,0.1093 -0.0547,0.0625 -0.1016,0.0625 l -0.1875,0 q -0.0937,0 -0.0937,-0.0312 z"
       style="stroke:none" />
    <path
       inkscape:connector-curvature="0"
       id="path37583"
       d="m 60.0807,16.6319 0,-0.7031 q 0.6875,0 1.125,-0.1094 0.4375,-0.1093 0.4375,-0.5312 l 0,-10.5 q 0,-0.5313 -0.1562,-0.7735 Q 61.3307,3.7726 61.026,3.7257 60.7213,3.6788 60.0807,3.6788 l 0,-0.7031 2.9688,-0.2188 0,9.4844 2.6718,-2.3437 q 0.4063,-0.3907 0.4063,-0.7032 0,-0.2343 -0.1641,-0.3593 -0.164,-0.125 -0.3984,-0.125 l 0,-0.7032 3.75,0 0,0.7032 q -1.3438,0 -2.7031,1.1875 l -1.4375,1.2343 2.5625,3.6094 q 0.5156,0.75 0.875,0.9688 0.3593,0.2187 1.1718,0.2187 l 0,0.7031 -3.9843,0 0,-0.7031 q 0.6875,0 0.6875,-0.4219 0,-0.2968 -0.3594,-0.7656 l -1.9219,-2.7344 -1.2187,1.0625 0,2.2188 q 0,0.4219 0.4453,0.5312 0.4453,0.1094 1.1172,0.1094 l 0,0.7031 -4.4688,0 z"
       style="stroke:none" />
    <path
       inkscape:connector-curvature="0"
       id="path37585"
       d="m 70.687,16.6319 0,-0.7031 q 2.0469,0 2.0469,-0.6406 l 0,-10.9844 q 0,-0.625 -2.0469,-0.625 l 0,-0.7031 7.3594,0 q 1.375,0 2.5078,0.5859 1.1328,0.586 1.9297,1.5703 0.7968,0.9844 1.2343,2.2344 0.4375,1.25 0.4375,2.5625 0,1.2656 -0.4375,2.4688 -0.4375,1.2031 -1.2656,2.164 -0.8281,0.961 -1.9531,1.5156 -1.125,0.5547 -2.4531,0.5547 l -7.3594,0 z m 3.8437,-1.3437 q 0,0.4375 0.25,0.539 0.25,0.1016 0.7657,0.1016 l 1.9843,0 q 1.0313,0 1.9532,-0.4453 0.9218,-0.4453 1.5312,-1.2422 0.625,-0.8281 0.8438,-1.8672 0.2187,-1.039 0.2187,-2.4453 0,-1.4531 -0.2187,-2.5469 Q 81.6401,6.2882 81.0151,5.4288 80.4214,4.5851 79.4995,4.1319 78.5776,3.6788 77.5307,3.6788 l -1.9843,0 q -0.3594,0 -0.5547,0.0234 -0.1953,0.0235 -0.3281,0.1641 -0.1329,0.1406 -0.1329,0.4375 l 0,10.9844 z"
       style="stroke:none" />
    <path
       inkscape:connector-curvature="0"
       id="path37587"
       d="m 85.937,14.6632 q 0,-1.1875 0.9375,-1.9375 0.9375,-0.75 2.25,-1.0547 1.3125,-0.3047 2.5,-0.3047 l 0,-0.8125 q 0,-0.5781 -0.25,-1.125 -0.25,-0.5469 -0.7344,-0.8906 -0.4843,-0.3438 -1.0625,-0.3438 -1.3281,0 -2.0156,0.5938 0.375,0 0.625,0.289 0.25,0.2891 0.25,0.6641 0,0.4063 -0.2812,0.6875 -0.2813,0.2813 -0.6719,0.2813 -0.4063,0 -0.6875,-0.2813 -0.2813,-0.2812 -0.2813,-0.6875 0,-1.0469 0.961,-1.5625 0.9609,-0.5156 2.1015,-0.5156 0.8125,0 1.6329,0.3515 0.8203,0.3516 1.3437,0.9922 0.5234,0.6407 0.5234,1.5 l 0,4.5 q 0,0.3907 0.1641,0.7188 0.1641,0.3281 0.5234,0.3281 0.3282,0 0.4922,-0.3281 0.1641,-0.3281 0.1641,-0.7188 l 0,-1.2812 0.5781,0 0,1.2812 q 0,0.4532 -0.2344,0.8594 -0.2343,0.4063 -0.625,0.6484 -0.3906,0.2422 -0.8593,0.2422 -0.5782,0 -1.0078,-0.4609 -0.4297,-0.4609 -0.4766,-1.0859 -0.3594,0.75 -1.0859,1.1953 -0.7266,0.4453 -1.5391,0.4453 -0.7656,0 -1.5078,-0.2188 -0.7422,-0.2187 -1.2344,-0.7031 -0.4922,-0.4844 -0.4922,-1.2656 z m 1.625,0 q 0,0.7031 0.5156,1.1875 0.5157,0.4844 1.2188,0.4844 0.6562,0 1.1797,-0.3282 0.5234,-0.3281 0.8359,-0.8828 0.3125,-0.5547 0.3125,-1.164 l 0,-2.0782 q -0.9062,0 -1.8594,0.2969 -0.9531,0.2969 -1.5781,0.9297 -0.625,0.6328 -0.625,1.5547 z"
       style="stroke:none" />
    <path
       inkscape:connector-curvature="0"
       id="path37589"
       d="m 96.3371,21.6319 q -0.1719,0 -0.1719,-0.1718 0,-0.0938 0.0312,-0.125 3.4219,-3.3438 3.4219,-9.7032 0,-6.3593 -3.375,-9.6562 -0.0781,-0.0469 -0.0781,-0.1719 0,-0.0625 0.0547,-0.1172 0.0547,-0.0547 0.1172,-0.0547 l 0.1875,0 q 0.0625,0 0.0937,0.0313 1.4375,1.1406 2.3984,2.7578 0.961,1.6172 1.4063,3.4531 0.4453,1.836 0.4453,3.7578 0,1.4219 -0.2422,2.7891 -0.2422,1.3672 -0.7656,2.7031 -0.5234,1.336 -1.3203,2.461 -0.7969,1.125 -1.9219,2.0156 -0.0312,0.0312 -0.0937,0.0312 l -0.1875,0 z"
       style="stroke:none" />
  </g>
  <g
     id="g37625"
     style="font-size:18px;font-family:mwa_cmr10;color-interpolation:linearRGB;fill:#262626;stroke:#262626;color-rendering:optimizeQuality;image-rendering:optimizeQuality;text-rendering:geometricPrecision"
     transform="translate(67.4,368)">
    <path
       inkscape:connector-curvature="0"
       id="path37627"
       d="m -18.5001,4.7106 q -2.2031,0 -3,-1.8125 -0.7968,-1.8125 -0.7968,-4.3125 0,-1.5625 0.289,-2.9454 0.2891,-1.3828 1.1328,-2.3437 0.8438,-0.9609 2.375,-0.9609 1.1875,0 1.9453,0.5781 0.7579,0.5781 1.1485,1.5 0.3906,0.9219 0.539,1.9687 0.1485,1.0469 0.1485,2.2032 0,1.5468 -0.2891,2.8906 -0.289,1.3437 -1.125,2.289 -0.8359,0.9454 -2.3672,0.9454 z m 0,-0.4688 q 1,0 1.4922,-1.0234 0.4922,-1.0235 0.6094,-2.2735 0.1172,-1.25 0.1172,-2.6562 0,-1.3594 -0.1172,-2.5 -0.1172,-1.1406 -0.6016,-2.0625 -0.4843,-0.9219 -1.5,-0.9219 -1.0156,0 -1.5078,0.9297 -0.4922,0.9297 -0.6094,2.0625 -0.1171,1.1328 -0.1171,2.4922 0,1 0.0468,1.8906 0.0469,0.8906 0.2578,1.8359 0.211,0.9454 0.6875,1.586 0.4766,0.6406 1.2422,0.6406 z"
       style="stroke:none" />
  </g>
  <g
     id="g37629"
     style="font-size:18px;font-family:mwa_cmr10;color-interpolation:linearRGB;fill:#262626;stroke:#262626;color-rendering:optimizeQuality;image-rendering:optimizeQuality;text-rendering:geometricPrecision"
     transform="translate(67.4,368)">
    <path
       inkscape:connector-curvature="0"
       id="path37631"
       d="m -12.4844,3.3199 q 0,-0.3906 0.2969,-0.6875 0.2968,-0.2968 0.6875,-0.2968 0.25,0 0.4843,0.1328 0.2344,0.1328 0.3672,0.375 0.1328,0.2422 0.1328,0.4765 0,0.4063 -0.289,0.7032 -0.2891,0.2968 -0.6953,0.2968 -0.3907,0 -0.6875,-0.2968 -0.2969,-0.2969 -0.2969,-0.7032 z"
       style="stroke:none" />
    <path
       inkscape:connector-curvature="0"
       id="path37633"
       d="m -8.1094,4.3199 0,-0.4843 q 0,-0.0469 0.0469,-0.0938 l 2.7968,-3.0937 q 0.625,-0.6875 1.0235,-1.1563 0.3984,-0.4687 0.7812,-1.0703 0.3828,-0.6016 0.6094,-1.2344 0.2266,-0.6328 0.2266,-1.3359 0,-0.7344 -0.2735,-1.4063 -0.2734,-0.6718 -0.8125,-1.0781 -0.539,-0.4062 -1.3047,-0.4062 -0.7812,0 -1.4062,0.4687 -0.625,0.4688 -0.875,1.2188 0.0625,-0.0157 0.1875,-0.0157 0.4062,0 0.6875,0.2735 0.2812,0.2734 0.2812,0.7109 0,0.4063 -0.2812,0.6953 -0.2813,0.2891 -0.6875,0.2891 -0.4219,0 -0.7109,-0.2969 -0.2891,-0.2969 -0.2891,-0.6875 0,-0.6875 0.2578,-1.2812 0.2578,-0.5938 0.7344,-1.0547 0.4765,-0.461 1.0781,-0.7032 0.6016,-0.2421 1.2891,-0.2421 1.0312,0 1.914,0.4296 0.8828,0.4297 1.4063,1.2266 0.5234,0.7969 0.5234,1.8594 0,0.7812 -0.3437,1.4844 -0.3438,0.7031 -0.8828,1.2812 -0.5391,0.5781 -1.375,1.3047 -0.836,0.7266 -1.1016,0.9766 l -2.0313,1.9687 1.7344,0 q 1.2656,0 2.125,-0.0234 0.8594,-0.0235 0.9063,-0.0703 0.2187,-0.2344 0.4375,-1.6563 l 0.5312,0 -0.5156,3.2031 -6.6875,0 z"
       style="stroke:none" />
  </g>
  <g
     id="g37635"
     style="font-size:18px;font-family:mwa_cmr10;color-interpolation:linearRGB;fill:#262626;stroke:#262626;color-rendering:optimizeQuality;image-rendering:optimizeQuality;text-rendering:geometricPrecision"
     transform="translate(67.4,311.8333)">
    <path
       inkscape:connector-curvature="0"
       id="path37637"
       d="m -18.5001,4.7106 q -2.2031,0 -3,-1.8125 -0.7968,-1.8125 -0.7968,-4.3125 0,-1.5625 0.289,-2.9454 0.2891,-1.3828 1.1328,-2.3437 0.8438,-0.9609 2.375,-0.9609 1.1875,0 1.9453,0.5781 0.7579,0.5781 1.1485,1.5 0.3906,0.9219 0.539,1.9687 0.1485,1.0469 0.1485,2.2032 0,1.5468 -0.2891,2.8906 -0.289,1.3437 -1.125,2.289 -0.8359,0.9454 -2.3672,0.9454 z m 0,-0.4688 q 1,0 1.4922,-1.0234 0.4922,-1.0235 0.6094,-2.2735 0.1172,-1.25 0.1172,-2.6562 0,-1.3594 -0.1172,-2.5 -0.1172,-1.1406 -0.6016,-2.0625 -0.4843,-0.9219 -1.5,-0.9219 -1.0156,0 -1.5078,0.9297 -0.4922,0.9297 -0.6094,2.0625 -0.1171,1.1328 -0.1171,2.4922 0,1 0.0468,1.8906 0.0469,0.8906 0.2578,1.8359 0.211,0.9454 0.6875,1.586 0.4766,0.6406 1.2422,0.6406 z"
       style="stroke:none" />
    <path
       inkscape:connector-curvature="0"
       id="path37639"
       d="m -12.4844,3.3199 q 0,-0.3906 0.2969,-0.6875 0.2968,-0.2968 0.6875,-0.2968 0.25,0 0.4843,0.1328 0.2344,0.1328 0.3672,0.375 0.1328,0.2422 0.1328,0.4765 0,0.4063 -0.289,0.7032 -0.2891,0.2968 -0.6953,0.2968 -0.3907,0 -0.6875,-0.2968 -0.2969,-0.2969 -0.2969,-0.7032 z"
       style="stroke:none" />
    <path
       inkscape:connector-curvature="0"
       id="path37641"
       d="m -7.2813,2.9293 q 0.4219,0.6094 1.1328,0.9141 0.711,0.3047 1.5235,0.3047 1.0468,0 1.4843,-0.8907 0.4375,-0.8906 0.4375,-2.0312 0,-0.5156 -0.0859,-1.0235 -0.0859,-0.5078 -0.3125,-0.9453 -0.2266,-0.4375 -0.6094,-0.7031 -0.3828,-0.2656 -0.9297,-0.2656 l -1.1875,0 Q -6,-1.7113 -6,-1.8832 l 0,-0.1562 q 0,-0.1407 0.1718,-0.1407 l 0.9844,-0.0781 q 0.6406,0 1.0547,-0.4766 0.4141,-0.4765 0.6094,-1.1562 0.1953,-0.6797 0.1953,-1.2891 0,-0.8593 -0.4063,-1.414 -0.4062,-0.5547 -1.2343,-0.5547 -0.6875,0 -1.3125,0.2578 -0.625,0.2578 -0.9844,0.7891 0.0312,-0.0157 0.0547,-0.0157 0.0234,0 0.0703,0 0.4062,0 0.6719,0.2813 0.2656,0.2812 0.2656,0.6719 0,0.3906 -0.2656,0.6718 -0.2657,0.2813 -0.6719,0.2813 -0.4063,0 -0.6875,-0.2813 -0.2813,-0.2812 -0.2813,-0.6718 0,-0.7657 0.4688,-1.3438 0.4687,-0.5781 1.2031,-0.8672 0.7344,-0.289 1.4688,-0.289 0.5468,0 1.1562,0.164 0.6094,0.1641 1.1016,0.461 0.4922,0.2968 0.8047,0.7734 0.3125,0.4766 0.3125,1.0859 0,0.75 -0.3438,1.3907 -0.3437,0.6406 -0.9297,1.1093 -0.5859,0.4688 -1.289,0.7032 0.7812,0.1406 1.4843,0.5781 0.7032,0.4375 1.1329,1.125 0.4296,0.6875 0.4296,1.4844 0,0.9843 -0.5468,1.789 -0.5469,0.8047 -1.4375,1.2578 -0.8907,0.4532 -1.875,0.4532 -0.8438,0 -1.6875,-0.3204 Q -7.1563,4.0699 -7.7032,3.4293 -8.25,2.7887 -8.25,1.8981 q 0,-0.4532 0.3047,-0.75 0.3046,-0.2969 0.7421,-0.2969 0.2969,0 0.5391,0.1328 0.2422,0.1328 0.375,0.3828 0.1328,0.25 0.1328,0.5313 0,0.4375 -0.3047,0.7343 -0.3047,0.2969 -0.7422,0.2969 l -0.0781,0 z"
       style="stroke:none" />
  </g>
  <g
     id="g37643"
     style="font-size:18px;font-family:mwa_cmr10;color-interpolation:linearRGB;fill:#262626;stroke:#262626;color-rendering:optimizeQuality;image-rendering:optimizeQuality;text-rendering:geometricPrecision"
     transform="translate(67.4,255.6667)">
    <path
       inkscape:connector-curvature="0"
       id="path37645"
       d="m -18.5001,4.7106 q -2.2031,0 -3,-1.8125 -0.7968,-1.8125 -0.7968,-4.3125 0,-1.5625 0.289,-2.9454 0.2891,-1.3828 1.1328,-2.3437 0.8438,-0.9609 2.375,-0.9609 1.1875,0 1.9453,0.5781 0.7579,0.5781 1.1485,1.5 0.3906,0.9219 0.539,1.9687 0.1485,1.0469 0.1485,2.2032 0,1.5468 -0.2891,2.8906 -0.289,1.3437 -1.125,2.289 -0.8359,0.9454 -2.3672,0.9454 z m 0,-0.4688 q 1,0 1.4922,-1.0234 0.4922,-1.0235 0.6094,-2.2735 0.1172,-1.25 0.1172,-2.6562 0,-1.3594 -0.1172,-2.5 -0.1172,-1.1406 -0.6016,-2.0625 -0.4843,-0.9219 -1.5,-0.9219 -1.0156,0 -1.5078,0.9297 -0.4922,0.9297 -0.6094,2.0625 -0.1171,1.1328 -0.1171,2.4922 0,1 0.0468,1.8906 0.0469,0.8906 0.2578,1.8359 0.211,0.9454 0.6875,1.586 0.4766,0.6406 1.2422,0.6406 z"
       style="stroke:none" />
    <path
       inkscape:connector-curvature="0"
       id="path37647"
       d="m -12.4844,3.3199 q 0,-0.3906 0.2969,-0.6875 0.2968,-0.2968 0.6875,-0.2968 0.25,0 0.4843,0.1328 0.2344,0.1328 0.3672,0.375 0.1328,0.2422 0.1328,0.4765 0,0.4063 -0.289,0.7032 -0.2891,0.2968 -0.6953,0.2968 -0.3907,0 -0.6875,-0.2968 -0.2969,-0.2969 -0.2969,-0.7032 z"
       style="stroke:none" />
    <path
       inkscape:connector-curvature="0"
       id="path37649"
       d="m -8.5,1.3512 0,-0.6406 5.5625,-8.2969 Q -2.875,-7.6644 -2.75,-7.6644 l 0.2656,0 q 0.2031,0 0.2031,0.2031 l 0,8.1719 1.7656,0 0,0.6406 -1.7656,0 0,1.7656 q 0,0.375 0.5235,0.4688 0.5234,0.0937 1.2265,0.0937 l 0,0.6406 -4.9687,0 0,-0.6406 q 0.7031,0 1.2265,-0.0937 Q -3.75,3.4918 -3.75,3.1168 l 0,-1.7656 -4.75,0 z m 0.5937,-0.6406 4.2656,0 0,-6.3594 -4.2656,6.3594 z"
       style="stroke:none" />
  </g>
  <g
     id="g37651"
     style="font-size:18px;font-family:mwa_cmr10;color-interpolation:linearRGB;fill:#262626;stroke:#262626;color-rendering:optimizeQuality;image-rendering:optimizeQuality;text-rendering:geometricPrecision"
     transform="translate(67.4,199.5)">
    <path
       inkscape:connector-curvature="0"
       id="path37653"
       d="m -18.5001,4.7106 q -2.2031,0 -3,-1.8125 -0.7968,-1.8125 -0.7968,-4.3125 0,-1.5625 0.289,-2.9454 0.2891,-1.3828 1.1328,-2.3437 0.8438,-0.9609 2.375,-0.9609 1.1875,0 1.9453,0.5781 0.7579,0.5781 1.1485,1.5 0.3906,0.9219 0.539,1.9687 0.1485,1.0469 0.1485,2.2032 0,1.5468 -0.2891,2.8906 -0.289,1.3437 -1.125,2.289 -0.8359,0.9454 -2.3672,0.9454 z m 0,-0.4688 q 1,0 1.4922,-1.0234 0.4922,-1.0235 0.6094,-2.2735 0.1172,-1.25 0.1172,-2.6562 0,-1.3594 -0.1172,-2.5 -0.1172,-1.1406 -0.6016,-2.0625 -0.4843,-0.9219 -1.5,-0.9219 -1.0156,0 -1.5078,0.9297 -0.4922,0.9297 -0.6094,2.0625 -0.1171,1.1328 -0.1171,2.4922 0,1 0.0468,1.8906 0.0469,0.8906 0.2578,1.8359 0.211,0.9454 0.6875,1.586 0.4766,0.6406 1.2422,0.6406 z"
       style="stroke:none" />
    <path
       inkscape:connector-curvature="0"
       id="path37655"
       d="m -12.4844,3.3199 q 0,-0.3906 0.2969,-0.6875 0.2968,-0.2968 0.6875,-0.2968 0.25,0 0.4843,0.1328 0.2344,0.1328 0.3672,0.375 0.1328,0.2422 0.1328,0.4765 0,0.4063 -0.289,0.7032 -0.2891,0.2968 -0.6953,0.2968 -0.3907,0 -0.6875,-0.2968 -0.2969,-0.2969 -0.2969,-0.7032 z"
       style="stroke:none" />
    <path
       inkscape:connector-curvature="0"
       id="path37657"
       d="m -7.4375,2.2731 q 0.1875,0.5312 0.5703,0.9609 0.3828,0.4297 0.9062,0.6719 0.5235,0.2422 1.086,0.2422 1.2968,0 1.789,-1.0157 0.4922,-1.0156 0.4922,-2.4531 0,-0.625 -0.0234,-1.0469 -0.0235,-0.4218 -0.1172,-0.8281 -0.1719,-0.625 -0.5859,-1.1016 -0.4141,-0.4765 -1.0235,-0.4765 -0.6094,0 -1.039,0.1875 -0.4297,0.1875 -0.7032,0.4297 -0.2734,0.2422 -0.4843,0.5156 -0.211,0.2734 -0.2735,0.2891 l -0.2031,0 q -0.0313,0 -0.1016,-0.0547 -0.0703,-0.0547 -0.0703,-0.1172 l 0,-6 q 0,-0.0469 0.0625,-0.0938 0.0625,-0.0468 0.1094,-0.0468 l 0.0625,0 q 1.2031,0.5781 2.5781,0.5781 1.3281,0 2.5625,-0.5781 l 0.0625,0 q 0.0625,0 0.1172,0.039 0.0547,0.0391 0.0547,0.1016 l 0,0.1562 q 0,0.0938 -0.0469,0.0938 -0.6094,0.8125 -1.539,1.2734 -0.9297,0.461 -1.9141,0.461 -0.7188,0 -1.4844,-0.2032 l 0,3.4063 Q -6,-2.8207 -5.5235,-3.0316 q 0.4766,-0.211 1.1953,-0.211 1,0 1.7891,0.5703 0.7891,0.5704 1.2109,1.4922 0.4219,0.9219 0.4219,1.875 0,1.0782 -0.539,2.0078 -0.5391,0.9297 -1.4532,1.4688 -0.914,0.5391 -1.9765,0.5391 -0.8907,0 -1.6328,-0.4532 Q -7.25,3.8043 -7.6797,3.0309 -8.1094,2.2574 -8.1094,1.3824 q 0,-0.4062 0.2656,-0.6562 0.2656,-0.25 0.6563,-0.25 0.4062,0 0.6718,0.2578 0.2657,0.2578 0.2657,0.6484 0,0.3907 -0.2657,0.6563 -0.2656,0.2656 -0.6718,0.2656 -0.0469,0 -0.1328,-0.0156 -0.086,-0.0156 -0.1172,-0.0156 z"
       style="stroke:none" />
  </g>
  <g
     id="g37659"
     style="font-size:18px;font-family:mwa_cmr10;color-interpolation:linearRGB;fill:#262626;stroke:#262626;color-rendering:optimizeQuality;image-rendering:optimizeQuality;text-rendering:geometricPrecision"
     transform="translate(67.4,143.3333)">
    <path
       inkscape:connector-curvature="0"
       id="path37661"
       d="m -18.5001,4.7106 q -2.2031,0 -3,-1.8125 -0.7968,-1.8125 -0.7968,-4.3125 0,-1.5625 0.289,-2.9454 0.2891,-1.3828 1.1328,-2.3437 0.8438,-0.9609 2.375,-0.9609 1.1875,0 1.9453,0.5781 0.7579,0.5781 1.1485,1.5 0.3906,0.9219 0.539,1.9687 0.1485,1.0469 0.1485,2.2032 0,1.5468 -0.2891,2.8906 -0.289,1.3437 -1.125,2.289 -0.8359,0.9454 -2.3672,0.9454 z m 0,-0.4688 q 1,0 1.4922,-1.0234 0.4922,-1.0235 0.6094,-2.2735 0.1172,-1.25 0.1172,-2.6562 0,-1.3594 -0.1172,-2.5 -0.1172,-1.1406 -0.6016,-2.0625 -0.4843,-0.9219 -1.5,-0.9219 -1.0156,0 -1.5078,0.9297 -0.4922,0.9297 -0.6094,2.0625 -0.1171,1.1328 -0.1171,2.4922 0,1 0.0468,1.8906 0.0469,0.8906 0.2578,1.8359 0.211,0.9454 0.6875,1.586 0.4766,0.6406 1.2422,0.6406 z"
       style="stroke:none" />
    <path
       inkscape:connector-curvature="0"
       id="path37663"
       d="m -12.4844,3.3199 q 0,-0.3906 0.2969,-0.6875 0.2968,-0.2968 0.6875,-0.2968 0.25,0 0.4843,0.1328 0.2344,0.1328 0.3672,0.375 0.1328,0.2422 0.1328,0.4765 0,0.4063 -0.289,0.7032 -0.2891,0.2968 -0.6953,0.2968 -0.3907,0 -0.6875,-0.2968 -0.2969,-0.2969 -0.2969,-0.7032 z"
       style="stroke:none" />
    <path
       inkscape:connector-curvature="0"
       id="path37665"
       d="m -4.5,4.7106 q -1.1094,0 -1.8594,-0.5938 Q -7.1094,3.5231 -7.5157,2.5777 -7.9219,1.6324 -8.086,0.6012 -8.25,-0.4301 -8.25,-1.4926 q 0,-1.4375 0.5547,-2.8672 0.5546,-1.4296 1.6328,-2.3671 1.0781,-0.9375 2.5625,-0.9375 0.6093,0 1.1406,0.2343 0.5312,0.2344 0.8359,0.6797 0.3047,0.4453 0.3047,1.1016 0,0.3594 -0.25,0.6094 -0.25,0.25 -0.625,0.25 -0.3437,0 -0.6015,-0.25 -0.2579,-0.25 -0.2579,-0.6094 0,-0.3594 0.2579,-0.6172 0.2578,-0.2578 0.6015,-0.2578 l 0.0938,0 Q -2.2188,-6.8363 -2.6407,-6.9926 -3.0625,-7.1488 -3.5,-7.1488 q -0.5469,0 -1.0078,0.2344 -0.461,0.2343 -0.836,0.6406 -0.375,0.4062 -0.6172,0.8906 -0.2422,0.4844 -0.3828,1.1094 -0.1406,0.625 -0.1719,1.1719 -0.0312,0.5468 -0.0312,1.375 0.3125,-0.7344 0.8906,-1.2032 0.5781,-0.4687 1.3125,-0.4687 0.7969,0 1.461,0.3203 0.664,0.3203 1.1328,0.8984 0.4687,0.5782 0.7265,1.3125 0.2578,0.7344 0.2578,1.5 0,1.0469 -0.4765,2 Q -1.7188,3.5856 -2.5703,4.1481 -3.4219,4.7106 -4.5,4.7106 Z m 0,-0.5625 q 0.6875,0 1.1093,-0.3204 0.4219,-0.3203 0.625,-0.8437 0.2032,-0.5234 0.25,-1.0547 0.0469,-0.5312 0.0469,-1.2969 0,-1.0312 -0.0937,-1.75 -0.0938,-0.7187 -0.5313,-1.2656 -0.4375,-0.5469 -1.3125,-0.5469 -0.7344,0 -1.2031,0.4922 -0.4688,0.4922 -0.6875,1.2422 -0.2188,0.75 -0.2188,1.4531 0,0.2344 0.0157,0.3594 0,0.0156 0,0.0391 0,0.0234 -0.0157,0.039 0,0.7813 0.1563,1.5703 0.1562,0.7891 0.6094,1.336 0.4531,0.5469 1.25,0.5469 z"
       style="stroke:none" />
  </g>
  <g
     id="g37667"
     style="font-size:18px;font-family:mwa_cmr10;color-interpolation:linearRGB;fill:#262626;stroke:#262626;color-rendering:optimizeQuality;image-rendering:optimizeQuality;text-rendering:geometricPrecision"
     transform="translate(67.4,87.1667)">
    <path
       inkscape:connector-curvature="0"
       id="path37669"
       d="m -18.5001,4.7106 q -2.2031,0 -3,-1.8125 -0.7968,-1.8125 -0.7968,-4.3125 0,-1.5625 0.289,-2.9454 0.2891,-1.3828 1.1328,-2.3437 0.8438,-0.9609 2.375,-0.9609 1.1875,0 1.9453,0.5781 0.7579,0.5781 1.1485,1.5 0.3906,0.9219 0.539,1.9687 0.1485,1.0469 0.1485,2.2032 0,1.5468 -0.2891,2.8906 -0.289,1.3437 -1.125,2.289 -0.8359,0.9454 -2.3672,0.9454 z m 0,-0.4688 q 1,0 1.4922,-1.0234 0.4922,-1.0235 0.6094,-2.2735 0.1172,-1.25 0.1172,-2.6562 0,-1.3594 -0.1172,-2.5 -0.1172,-1.1406 -0.6016,-2.0625 -0.4843,-0.9219 -1.5,-0.9219 -1.0156,0 -1.5078,0.9297 -0.4922,0.9297 -0.6094,2.0625 -0.1171,1.1328 -0.1171,2.4922 0,1 0.0468,1.8906 0.0469,0.8906 0.2578,1.8359 0.211,0.9454 0.6875,1.586 0.4766,0.6406 1.2422,0.6406 z"
       style="stroke:none" />
    <path
       inkscape:connector-curvature="0"
       id="path37671"
       d="m -12.4844,3.3199 q 0,-0.3906 0.2969,-0.6875 0.2968,-0.2968 0.6875,-0.2968 0.25,0 0.4843,0.1328 0.2344,0.1328 0.3672,0.375 0.1328,0.2422 0.1328,0.4765 0,0.4063 -0.289,0.7032 -0.2891,0.2968 -0.6953,0.2968 -0.3907,0 -0.6875,-0.2968 -0.2969,-0.2969 -0.2969,-0.7032 z"
       style="stroke:none" />
    <path
       inkscape:connector-curvature="0"
       id="path37673"
       d="m -5.875,3.8512 q 0,-1 0.1797,-1.961 0.1796,-0.9609 0.5156,-1.8906 0.3359,-0.9297 0.8125,-1.8359 0.4765,-0.9063 1.0547,-1.6875 l 1.6406,-2.2969 -2.0469,0 q -3.2031,0 -3.2969,0.0938 -0.25,0.2968 -0.4531,1.6562 l -0.5156,0 0.5781,-3.7812 0.5313,0 0,0.0625 q 0,0.3281 1.1015,0.4218 1.1016,0.0938 2.1485,0.0938 l 3.3593,0 0,0.4687 q 0,0.0157 -0.0078,0.0235 -0.0078,0.0078 -0.0234,0.0234 l -2.4688,3.4844 q -0.9218,1.3594 -1.1484,3.0078 -0.2266,1.6484 -0.2266,4.1172 0,0.3594 -0.2578,0.6094 -0.2578,0.25 -0.6015,0.25 -0.3594,0 -0.6172,-0.25 -0.2578,-0.25 -0.2578,-0.6094 z"
       style="stroke:none" />
  </g>
  <g
     id="g37675"
     style="font-size:18px;font-family:mwa_cmr10;color-interpolation:linearRGB;fill:#262626;stroke:#262626;color-rendering:optimizeQuality;image-rendering:optimizeQuality;text-rendering:geometricPrecision"
     transform="translate(67.4,31)">
    <path
       inkscape:connector-curvature="0"
       id="path37677"
       d="m -18.5001,4.7106 q -2.2031,0 -3,-1.8125 -0.7968,-1.8125 -0.7968,-4.3125 0,-1.5625 0.289,-2.9454 0.2891,-1.3828 1.1328,-2.3437 0.8438,-0.9609 2.375,-0.9609 1.1875,0 1.9453,0.5781 0.7579,0.5781 1.1485,1.5 0.3906,0.9219 0.539,1.9687 0.1485,1.0469 0.1485,2.2032 0,1.5468 -0.2891,2.8906 -0.289,1.3437 -1.125,2.289 -0.8359,0.9454 -2.3672,0.9454 z m 0,-0.4688 q 1,0 1.4922,-1.0234 0.4922,-1.0235 0.6094,-2.2735 0.1172,-1.25 0.1172,-2.6562 0,-1.3594 -0.1172,-2.5 -0.1172,-1.1406 -0.6016,-2.0625 -0.4843,-0.9219 -1.5,-0.9219 -1.0156,0 -1.5078,0.9297 -0.4922,0.9297 -0.6094,2.0625 -0.1171,1.1328 -0.1171,2.4922 0,1 0.0468,1.8906 0.0469,0.8906 0.2578,1.8359 0.211,0.9454 0.6875,1.586 0.4766,0.6406 1.2422,0.6406 z"
       style="stroke:none" />
    <path
       inkscape:connector-curvature="0"
       id="path37679"
       d="m -12.4844,3.3199 q 0,-0.3906 0.2969,-0.6875 0.2968,-0.2968 0.6875,-0.2968 0.25,0 0.4843,0.1328 0.2344,0.1328 0.3672,0.375 0.1328,0.2422 0.1328,0.4765 0,0.4063 -0.289,0.7032 -0.2891,0.2968 -0.6953,0.2968 -0.3907,0 -0.6875,-0.2968 -0.2969,-0.2969 -0.2969,-0.7032 z"
       style="stroke:none" />
    <path
       inkscape:connector-curvature="0"
       id="path37681"
       d="m -8.25,1.5856 q 0,-1.0782 0.7187,-1.9063 0.7188,-0.8281 1.8281,-1.3906 L -6.375,-2.1332 q -0.6094,-0.4062 -1,-1.0781 -0.3907,-0.6719 -0.3907,-1.4219 0,-0.8594 0.4532,-1.5547 0.4531,-0.6953 1.2031,-1.0859 0.75,-0.3906 1.6094,-0.3906 0.7968,0 1.539,0.3203 0.7422,0.3203 1.2266,0.9297 0.4844,0.6093 0.4844,1.4375 0,0.6093 -0.2891,1.1328 -0.2891,0.5234 -0.7891,0.9297 -0.5,0.4062 -1.0625,0.7031 l 1.0313,0.6562 q 0.7187,0.4688 1.1562,1.2266 0.4375,0.7578 0.4375,1.5859 0,0.9844 -0.5234,1.7813 -0.5234,0.7969 -1.3906,1.2344 -0.8672,0.4375 -1.8203,0.4375 -0.9375,0 -1.7969,-0.375 Q -7.1563,3.9606 -7.7032,3.2418 -8.25,2.5231 -8.25,1.5856 Z m 0.9843,0 q 0,0.7187 0.3907,1.3046 0.3906,0.586 1.0312,0.9219 0.6406,0.336 1.3438,0.336 1.0468,0 1.8984,-0.6094 Q -1.75,2.9293 -1.75,1.9137 -1.75,1.5699 -1.8828,1.234 -2.0157,0.8981 -2.2578,0.6168 -2.5,0.3356 -2.7969,0.1637 l -2.4219,-1.5625 q -0.5625,0.2969 -1.0312,0.75 -0.4688,0.4531 -0.7422,1.0312 -0.2735,0.5782 -0.2735,1.2032 z m 1.2344,-5.5 2.1875,1.4062 q 0.75,-0.4375 1.2344,-1.0625 0.4844,-0.625 0.4844,-1.4062 0,-0.5938 -0.336,-1.1016 -0.3359,-0.5078 -0.8828,-0.7891 -0.5469,-0.2812 -1.1719,-0.2812 -0.5468,0 -1.1015,0.2109 -0.5547,0.211 -0.9141,0.625 -0.3594,0.4141 -0.3594,0.9766 0,0.8437 0.8594,1.4219 z"
       style="stroke:none" />
  </g>
  <g
     id="g37683"
     style="font-size:20px;font-family:mwa_cmr10;color-interpolation:linearRGB;fill:#262626;stroke:#262626;color-rendering:optimizeQuality;image-rendering:optimizeQuality;text-rendering:geometricPrecision"
     transform="matrix(0,-1,1,0,41.3999,199.4998)">
    <path
       inkscape:connector-curvature="0"
       id="path37685"
       d="m -84.4683,-7.1281 0,-0.7031 q 2.0469,0 2.0469,-0.6406 l 0,-10.9844 q 0,-0.625 -2.0469,-0.625 l 0,-0.7031 7.1094,0 q 1.0938,0 2.1875,0.4453 1.0938,0.4453 1.8047,1.3047 0.7109,0.8594 0.7109,2 0,1.1094 -0.7109,1.9531 -0.7109,0.8438 -1.7969,1.2813 -1.0859,0.4375 -2.1953,0.4375 l -3.2031,0 0,4.8906 q 0,0.6406 2.0625,0.6406 l 0,0.7031 -5.9688,0 z m 3.8438,-6.8437 2.7187,0 q 1.1094,0 1.7891,-0.3125 0.6797,-0.3125 1,-0.9844 0.3203,-0.6719 0.3203,-1.7656 0,-1.625 -0.7187,-2.336 -0.7188,-0.7109 -2.3907,-0.7109 l -1.7031,0 q -0.3594,0 -0.5547,0.0234 -0.1953,0.0235 -0.3281,0.1641 -0.1328,0.1406 -0.1328,0.4375 l 0,5.4844 z"
       style="stroke:none" />
    <path
       inkscape:connector-curvature="0"
       id="path37687"
       d="m -71.4183,-9.0968 q 0,-1.1875 0.9375,-1.9375 0.9375,-0.75 2.25,-1.0547 1.3125,-0.3047 2.5,-0.3047 l 0,-0.8125 q 0,-0.5781 -0.25,-1.125 -0.25,-0.5469 -0.7343,-0.8906 -0.4844,-0.3438 -1.0625,-0.3438 -1.3282,0 -2.0157,0.5938 0.375,0 0.625,0.289 0.25,0.2891 0.25,0.6641 0,0.4063 -0.2812,0.6875 -0.2813,0.2813 -0.6719,0.2813 -0.4062,0 -0.6875,-0.2813 -0.2812,-0.2812 -0.2812,-0.6875 0,-1.0469 0.9609,-1.5625 0.9609,-0.5156 2.1016,-0.5156 0.8125,0 1.6328,0.3515 0.8203,0.3516 1.3437,0.9922 0.5235,0.6407 0.5235,1.5 l 0,4.5 q 0,0.3907 0.164,0.7188 0.1641,0.3281 0.5235,0.3281 0.3281,0 0.4922,-0.3281 0.164,-0.3281 0.164,-0.7188 l 0,-1.2812 0.5781,0 0,1.2812 q 0,0.4532 -0.2343,0.8594 -0.2344,0.4063 -0.625,0.6484 -0.3907,0.2422 -0.8594,0.2422 -0.5781,0 -1.0078,-0.4609 -0.4297,-0.4609 -0.4766,-1.0859 -0.3594,0.75 -1.0859,1.1953 -0.7266,0.4453 -1.5391,0.4453 -0.7656,0 -1.5078,-0.2188 -0.7422,-0.2187 -1.2344,-0.7031 -0.4922,-0.4844 -0.4922,-1.2656 z m 1.625,0 q 0,0.7031 0.5157,1.1875 0.5156,0.4844 1.2187,0.4844 0.6563,0 1.1797,-0.3282 0.5234,-0.3281 0.8359,-0.8828 0.3125,-0.5547 0.3125,-1.164 l 0,-2.0782 q -0.9062,0 -1.8593,0.2969 -0.9532,0.2969 -1.5782,0.9297 -0.625,0.6328 -0.625,1.5547 z"
       style="stroke:none" />
    <path
       inkscape:connector-curvature="0"
       id="path37689"
       d="m -61.7995,-7.1281 0,-0.7031 q 0.6875,0 1.125,-0.1094 0.4375,-0.1093 0.4375,-0.5312 l 0,-5.4531 q 0,-0.5313 -0.1562,-0.7735 -0.1563,-0.2422 -0.461,-0.2969 -0.3047,-0.0546 -0.9453,-0.0546 l 0,-0.7032 2.8594,-0.2187 0,1.9531 q 0.3281,-0.8594 0.9219,-1.4062 0.5937,-0.5469 1.4531,-0.5469 0.5937,0 1.0625,0.3515 0.4687,0.3516 0.4687,0.9297 0,0.3594 -0.2578,0.6328 -0.2578,0.2735 -0.6484,0.2735 -0.375,0 -0.6328,-0.2656 -0.2578,-0.2657 -0.2578,-0.6407 0,-0.5312 0.375,-0.7656 l -0.1094,0 q -0.8125,0 -1.3281,0.5859 -0.5157,0.586 -0.7266,1.461 -0.2109,0.875 -0.2109,1.6562 l 0,3.2813 q 0,0.6406 1.9375,0.6406 l 0,0.7031 -4.9063,0 z"
       style="stroke:none" />
    <path
       inkscape:connector-curvature="0"
       id="path37691"
       d="m -52.5132,-9.5343 0,-5.5156 -1.6719,0 0,-0.5157 q 1.3125,0 1.9297,-1.2187 0.6172,-1.2188 0.6172,-2.6563 l 0.5781,0 0,3.6875 2.8125,0 0,0.7032 -2.8125,0 0,5.4843 q 0,0.8282 0.2734,1.4532 0.2735,0.625 1.0079,0.625 0.6718,0 0.9765,-0.6641 0.3047,-0.6641 0.3047,-1.4141 l 0,-1.1875 0.5781,0 0,1.2188 q 0,0.625 -0.2265,1.2344 -0.2266,0.6093 -0.6797,1 -0.4531,0.3906 -1.0938,0.3906 -1.2031,0 -1.8984,-0.7188 -0.6953,-0.7187 -0.6953,-1.9062 z"
       style="stroke:none" />
    <path
       inkscape:connector-curvature="0"
       id="path37693"
       d="m -46.2507,-7.1281 0,-0.7031 q 0.6875,0 1.125,-0.1094 0.4375,-0.1093 0.4375,-0.5312 l 0,-5.4531 q 0,-0.7657 -0.2969,-0.9454 -0.2968,-0.1796 -1.1718,-0.1796 l 0,-0.7032 2.875,-0.2187 0,7.5 q 0,0.4219 0.3828,0.5312 0.3828,0.1094 1.0234,0.1094 l 0,0.7031 -4.375,0 z m 0.8594,-12.2812 q 0,-0.4375 0.3281,-0.7656 0.3281,-0.3282 0.7656,-0.3282 0.2813,0 0.5469,0.1407 0.2656,0.1406 0.4063,0.4062 0.1406,0.2656 0.1406,0.5469 0,0.4375 -0.3281,0.7656 -0.3282,0.3281 -0.7657,0.3281 -0.4375,0 -0.7656,-0.3281 -0.3281,-0.3281 -0.3281,-0.7656 z"
       style="stroke:none" />
    <path
       inkscape:connector-curvature="0"
       id="path37695"
       d="m -39.3132,-9.5343 0,-5.5156 -1.6719,0 0,-0.5157 q 1.3125,0 1.9297,-1.2187 0.6172,-1.2188 0.6172,-2.6563 l 0.5781,0 0,3.6875 2.8125,0 0,0.7032 -2.8125,0 0,5.4843 q 0,0.8282 0.2735,1.4532 0.2734,0.625 1.0078,0.625 0.6719,0 0.9766,-0.6641 0.3046,-0.6641 0.3046,-1.4141 l 0,-1.1875 0.5782,0 0,1.2188 q 0,0.625 -0.2266,1.2344 -0.2266,0.6093 -0.6797,1 -0.4531,0.3906 -1.0937,0.3906 -1.2032,0 -1.8985,-0.7188 -0.6953,-0.7187 -0.6953,-1.9062 z"
       style="stroke:none" />
    <path
       inkscape:connector-curvature="0"
       id="path37697"
       d="m -33.0507,-7.1281 0,-0.7031 q 0.6875,0 1.125,-0.1094 0.4375,-0.1093 0.4375,-0.5312 l 0,-5.4531 q 0,-0.7657 -0.2968,-0.9454 -0.2969,-0.1796 -1.1719,-0.1796 l 0,-0.7032 2.875,-0.2187 0,7.5 q 0,0.4219 0.3828,0.5312 0.3828,0.1094 1.0234,0.1094 l 0,0.7031 -4.375,0 z m 0.8594,-12.2812 q 0,-0.4375 0.3281,-0.7656 0.3282,-0.3282 0.7657,-0.3282 0.2812,0 0.5468,0.1407 0.2657,0.1406 0.4063,0.4062 0.1406,0.2656 0.1406,0.5469 0,0.4375 -0.3281,0.7656 -0.3281,0.3281 -0.7656,0.3281 -0.4375,0 -0.7657,-0.3281 -0.3281,-0.3281 -0.3281,-0.7656 z"
       style="stroke:none" />
    <path
       inkscape:connector-curvature="0"
       id="path37699"
       d="m -23.16,-6.9093 q -1.2031,0 -2.2266,-0.6094 -1.0234,-0.6094 -1.6172,-1.6328 -0.5937,-1.0234 -0.5937,-2.2422 0,-0.9062 0.3281,-1.7578 0.3281,-0.8516 0.9375,-1.5234 0.6094,-0.6719 1.4141,-1.0469 0.8047,-0.375 1.7578,-0.375 1.2344,0 2.2422,0.6484 1.0078,0.6485 1.5937,1.7422 0.586,1.0938 0.586,2.3125 0,1.2031 -0.5938,2.2344 -0.5937,1.0312 -1.6172,1.6406 -1.0234,0.6094 -2.2109,0.6094 z m 0,-0.5781 q 1.6094,0 2.1406,-1.1641 0.5313,-1.1641 0.5313,-2.9609 0,-1 -0.1016,-1.6641 -0.1016,-0.6641 -0.4766,-1.1953 -0.2187,-0.3281 -0.5625,-0.5781 -0.3437,-0.25 -0.7343,-0.3829 -0.3907,-0.1328 -0.7969,-0.1328 -0.625,0 -1.1875,0.2813 -0.5625,0.2812 -0.9375,0.8125 -0.3594,0.5625 -0.4609,1.2422 -0.1016,0.6797 -0.1016,1.6172 0,1.125 0.1953,2.0156 0.1953,0.8906 0.7813,1.5 0.5859,0.6094 1.7109,0.6094 z"
       style="stroke:none" />
    <path
       inkscape:connector-curvature="0"
       id="path37701"
       d="m -17.6662,-7.1281 0,-0.7031 q 0.6875,0 1.125,-0.1094 0.4375,-0.1093 0.4375,-0.5312 l 0,-5.4531 q 0,-0.5313 -0.1563,-0.7735 -0.1562,-0.2422 -0.4609,-0.2969 -0.3047,-0.0546 -0.9453,-0.0546 l 0,-0.7032 2.9062,-0.2187 0,1.9531 q 0.3906,-0.8594 1.1797,-1.4062 0.7891,-0.5469 1.7109,-0.5469 1.3907,0 2.0938,0.664 0.7031,0.6641 0.7031,2.0391 l 0,4.7969 q 0,0.4219 0.4375,0.5312 0.4375,0.1094 1.125,0.1094 l 0,0.7031 -4.5937,0 0,-0.7031 q 0.6875,0 1.125,-0.1094 0.4375,-0.1093 0.4375,-0.5312 l 0,-4.7344 q 0,-0.9844 -0.2813,-1.6172 -0.2812,-0.6328 -1.1562,-0.6328 -1.1563,0 -1.9063,0.9297 -0.75,0.9297 -0.75,2.1172 l 0,3.9375 q 0,0.4219 0.4375,0.5312 0.4375,0.1094 1.1094,0.1094 l 0,0.7031 -4.5781,0 z"
       style="stroke:none" />
    <path
       inkscape:connector-curvature="0"
       id="path37703"
       d="m 4.3244,-6.9093 q -1.2187,0 -2.2031,-0.625 -0.9844,-0.625 -1.5469,-1.6797 -0.5625,-1.0547 -0.5625,-2.2266 0,-1.1875 0.5547,-2.2734 0.5547,-1.0859 1.5469,-1.7344 0.9922,-0.6484 2.2109,-0.6484 1.1719,0 2.1328,0.4609 0.961,0.461 0.961,1.5078 0,0.3907 -0.2813,0.6797 -0.2812,0.2891 -0.6719,0.2891 -0.4062,0 -0.6875,-0.2891 -0.2812,-0.289 -0.2812,-0.6797 0,-0.3593 0.2266,-0.6172 0.2265,-0.2578 0.5546,-0.3203 -0.6875,-0.4375 -1.9375,-0.4375 -0.9531,0 -1.539,0.6328 -0.586,0.6329 -0.8203,1.5704 -0.2344,0.9375 -0.2344,1.8593 0,0.9688 0.2891,1.8672 0.289,0.8985 0.9296,1.4922 0.6407,0.5938 1.5938,0.5938 0.9531,0 1.6172,-0.586 0.664,-0.5859 0.914,-1.5234 0,-0.1094 0.1563,-0.1094 l 0.2344,0 q 0.0625,0 0.1093,0.0547 0.0469,0.0547 0.0469,0.1172 l 0,0.0625 Q 7.34,-8.2843 6.4416,-7.5968 5.5432,-6.9093 4.3244,-6.9093 Z"
       style="stroke:none" />
    <path
       inkscape:connector-curvature="0"
       id="path37705"
       d="m 13.14,-6.9093 q -1.2031,0 -2.2265,-0.6094 -1.0235,-0.6094 -1.6172,-1.6328 -0.5938,-1.0234 -0.5938,-2.2422 0,-0.9062 0.3282,-1.7578 0.3281,-0.8516 0.9375,-1.5234 0.6093,-0.6719 1.414,-1.0469 0.8047,-0.375 1.7578,-0.375 1.2344,0 2.2422,0.6484 1.0078,0.6485 1.5938,1.7422 0.5859,1.0938 0.5859,2.3125 0,1.2031 -0.5937,2.2344 -0.5938,1.0312 -1.6172,1.6406 -1.0235,0.6094 -2.211,0.6094 z m 0,-0.5781 q 1.6094,0 2.1407,-1.1641 0.5312,-1.1641 0.5312,-2.9609 0,-1 -0.1016,-1.6641 -0.1015,-0.6641 -0.4765,-1.1953 -0.2188,-0.3281 -0.5625,-0.5781 -0.3438,-0.25 -0.7344,-0.3829 -0.3906,-0.1328 -0.7969,-0.1328 -0.625,0 -1.1875,0.2813 -0.5625,0.2812 -0.9375,0.8125 -0.3593,0.5625 -0.4609,1.2422 -0.1016,0.6797 -0.1016,1.6172 0,1.125 0.1953,2.0156 0.1954,0.8906 0.7813,1.5 0.5859,0.6094 1.7109,0.6094 z"
       style="stroke:none" />
    <path
       inkscape:connector-curvature="0"
       id="path37707"
       d="m 23.5745,-6.9093 q -1.2188,0 -2.2422,-0.6406 -1.0235,-0.6407 -1.6016,-1.7032 -0.5781,-1.0625 -0.5781,-2.2656 0,-1.1719 0.5312,-2.2266 0.5313,-1.0546 1.4844,-1.7031 0.9531,-0.6484 2.125,-0.6484 0.9063,0 1.5859,0.3125 0.6797,0.3125 1.125,0.8594 0.4454,0.5468 0.6641,1.289 0.2188,0.7422 0.2188,1.6172 0,0.2656 -0.2032,0.2656 l -5.7812,0 0,0.2188 q 0,1.6562 0.664,2.8515 0.6641,1.1954 2.1797,1.1954 0.6094,0 1.1328,-0.2735 0.5235,-0.2734 0.9141,-0.7656 0.3906,-0.4922 0.5156,-1.0391 0.0313,-0.0781 0.086,-0.1328 0.0547,-0.0547 0.1172,-0.0547 l 0.1718,0 q 0.2032,0 0.2032,0.2657 -0.2813,1.125 -1.2188,1.8515 -0.9375,0.7266 -2.0937,0.7266 z m -2.6563,-5.3438 4.5625,0 q 0,-0.75 -0.2109,-1.5156 -0.211,-0.7656 -0.7032,-1.2812 -0.4921,-0.5157 -1.2734,-0.5157 -1.1406,0 -1.7578,1.0625 -0.6172,1.0625 -0.6172,2.25 z"
       style="stroke:none" />
    <path
       inkscape:connector-curvature="0"
       id="path37709"
       d="m 27.9057,-7.1281 0,-0.7031 q 0.6875,0 1.125,-0.1094 0.4375,-0.1093 0.4375,-0.5312 l 0,-6.5781 -1.5469,0 0,-0.7032 1.5469,0 0,-2.3906 q 0,-0.75 0.4297,-1.3437 0.4297,-0.5938 1.0859,-0.9766 0.6563,-0.3828 1.4297,-0.5781 0.7735,-0.1953 1.4766,-0.1953 0.6719,0 1.2734,0.2968 0.6016,0.2969 0.8828,0.8125 1.3282,-1.1093 3.4219,-1.1093 0.5938,0 1.1641,0.25 0.5703,0.25 0.9375,0.7265 0.3672,0.4766 0.3672,1.086 0,0.3906 -0.2891,0.6796 -0.2891,0.2891 -0.6797,0.2891 -0.4062,0 -0.6797,-0.2734 -0.2734,-0.2735 -0.2734,-0.6953 0,-0.375 0.2578,-0.6641 0.2578,-0.2891 0.6328,-0.2891 -0.6094,-0.5781 -1.5937,-0.5781 -0.7188,0 -1.4141,0.3281 -0.6953,0.3282 -1.1172,0.9297 -0.4219,0.6016 -0.4219,1.336 l 0,2.3593 2.6407,0 2.9531,-0.25 0,7.5313 q 0,0.4219 0.4375,0.5312 0.4375,0.1094 1.125,0.1094 l 0,0.7031 -4.5156,0 0,-0.7031 q 0.6718,0 1.1171,-0.1094 0.4454,-0.1093 0.4454,-0.5312 l 0,-5.5 q 0,-0.5625 -0.1329,-0.7891 -0.1328,-0.2265 -0.6484,-0.289 l -3.3594,0 0,6.5781 q 0,0.4219 0.4375,0.5312 0.4375,0.1094 1.1094,0.1094 l 0,0.7031 -4.5156,0 0,-0.7031 q 0.6719,0 1.1172,-0.1094 0.4453,-0.1093 0.4453,-0.5312 l 0,-6.5781 -4.1406,0 0,6.5781 q 0,0.4219 0.4375,0.5312 0.4375,0.1094 1.125,0.1094 l 0,0.7031 -4.5313,0 z m 2.9063,-8.625 4.2031,0 0,-2.3906 0,-0.125 q -0.2969,-0.1094 -0.4531,-0.3594 -0.1563,-0.25 -0.1563,-0.5468 0,-0.3907 0.2656,-0.6719 0.2657,-0.2813 0.6407,-0.2813 -0.6094,-0.5781 -1.5782,-0.5781 -0.7343,0 -1.414,0.3359 -0.6797,0.336 -1.0938,0.9375 -0.414,0.6016 -0.414,1.3204 l 0,2.3593 z"
       style="stroke:none" />
    <path
       inkscape:connector-curvature="0"
       id="path37711"
       d="m 48.8745,-6.9093 q -1.2187,0 -2.2031,-0.625 -0.9844,-0.625 -1.5469,-1.6797 -0.5625,-1.0547 -0.5625,-2.2266 0,-1.1875 0.5547,-2.2734 0.5547,-1.0859 1.5469,-1.7344 0.9922,-0.6484 2.2109,-0.6484 1.1719,0 2.1328,0.4609 0.961,0.461 0.961,1.5078 0,0.3907 -0.2813,0.6797 -0.2812,0.2891 -0.6719,0.2891 -0.4062,0 -0.6875,-0.2891 -0.2812,-0.289 -0.2812,-0.6797 0,-0.3593 0.2265,-0.6172 0.2266,-0.2578 0.5547,-0.3203 -0.6875,-0.4375 -1.9375,-0.4375 -0.9531,0 -1.539,0.6328 -0.586,0.6329 -0.8203,1.5704 -0.2344,0.9375 -0.2344,1.8593 0,0.9688 0.289,1.8672 0.2891,0.8985 0.9297,1.4922 0.6407,0.5938 1.5938,0.5938 0.9531,0 1.6172,-0.586 0.664,-0.5859 0.914,-1.5234 0,-0.1094 0.1563,-0.1094 l 0.2344,0 q 0.0625,0 0.1093,0.0547 0.0469,0.0547 0.0469,0.1172 l 0,0.0625 q -0.2969,1.1875 -1.1953,1.875 -0.8984,0.6875 -2.1172,0.6875 z"
       style="stroke:none" />
    <path
       inkscape:connector-curvature="0"
       id="path37713"
       d="m 53.2995,-7.1281 0,-0.7031 q 0.6875,0 1.125,-0.1094 0.4375,-0.1093 0.4375,-0.5312 l 0,-5.4531 q 0,-0.7657 -0.2969,-0.9454 -0.2969,-0.1796 -1.1719,-0.1796 l 0,-0.7032 2.875,-0.2187 0,7.5 q 0,0.4219 0.3829,0.5312 0.3828,0.1094 1.0234,0.1094 l 0,0.7031 -4.375,0 z m 0.8594,-12.2812 q 0,-0.4375 0.3281,-0.7656 0.3281,-0.3282 0.7656,-0.3282 0.2813,0 0.5469,0.1407 0.2656,0.1406 0.4062,0.4062 0.1407,0.2656 0.1407,0.5469 0,0.4375 -0.3282,0.7656 -0.3281,0.3281 -0.7656,0.3281 -0.4375,0 -0.7656,-0.3281 -0.3281,-0.3281 -0.3281,-0.7656 z"
       style="stroke:none" />
    <path
       inkscape:connector-curvature="0"
       id="path37715"
       d="m 63.1745,-6.9093 q -1.2187,0 -2.2422,-0.6406 -1.0234,-0.6407 -1.6015,-1.7032 -0.5782,-1.0625 -0.5782,-2.2656 0,-1.1719 0.5313,-2.2266 0.5312,-1.0546 1.4844,-1.7031 0.9531,-0.6484 2.125,-0.6484 0.9062,0 1.5859,0.3125 0.6797,0.3125 1.125,0.8594 0.4453,0.5468 0.6641,1.289 0.2187,0.7422 0.2187,1.6172 0,0.2656 -0.2031,0.2656 l -5.7813,0 0,0.2188 q 0,1.6562 0.6641,2.8515 0.6641,1.1954 2.1797,1.1954 0.6094,0 1.1328,-0.2735 0.5234,-0.2734 0.9141,-0.7656 0.3906,-0.4922 0.5156,-1.0391 0.0312,-0.0781 0.0859,-0.1328 0.0547,-0.0547 0.1172,-0.0547 l 0.1719,0 q 0.2031,0 0.2031,0.2657 -0.2812,1.125 -1.2187,1.8515 -0.9375,0.7266 -2.0938,0.7266 z m -2.6562,-5.3438 4.5625,0 q 0,-0.75 -0.211,-1.5156 -0.2109,-0.7656 -0.7031,-1.2812 -0.4922,-0.5157 -1.2734,-0.5157 -1.1407,0 -1.7578,1.0625 -0.6172,1.0625 -0.6172,2.25 z"
       style="stroke:none" />
    <path
       inkscape:connector-curvature="0"
       id="path37717"
       d="m 67.5839,-7.1281 0,-0.7031 q 0.6875,0 1.125,-0.1094 0.4375,-0.1093 0.4375,-0.5312 l 0,-5.4531 q 0,-0.5313 -0.1563,-0.7735 -0.1562,-0.2422 -0.4609,-0.2969 -0.3047,-0.0546 -0.9453,-0.0546 l 0,-0.7032 2.9062,-0.2187 0,1.9531 q 0.3907,-0.8594 1.1797,-1.4062 0.7891,-0.5469 1.711,-0.5469 1.3906,0 2.0937,0.664 0.7031,0.6641 0.7031,2.0391 l 0,4.7969 q 0,0.4219 0.4375,0.5312 0.4375,0.1094 1.125,0.1094 l 0,0.7031 -4.5937,0 0,-0.7031 q 0.6875,0 1.125,-0.1094 0.4375,-0.1093 0.4375,-0.5312 l 0,-4.7344 q 0,-0.9844 -0.2813,-1.6172 -0.2812,-0.6328 -1.1562,-0.6328 -1.1563,0 -1.9063,0.9297 -0.75,0.9297 -0.75,2.1172 l 0,3.9375 q 0,0.4219 0.4375,0.5312 0.4375,0.1094 1.1094,0.1094 l 0,0.7031 -4.5781,0 z"
       style="stroke:none" />
    <path
       inkscape:connector-curvature="0"
       id="path37719"
       d="m 79.487,-9.5343 0,-5.5156 -1.6718,0 0,-0.5157 q 1.3125,0 1.9296,-1.2187 0.6172,-1.2188 0.6172,-2.6563 l 0.5782,0 0,3.6875 2.8125,0 0,0.7032 -2.8125,0 0,5.4843 q 0,0.8282 0.2734,1.4532 0.2734,0.625 1.0078,0.625 0.6719,0 0.9766,-0.6641 0.3047,-0.6641 0.3047,-1.4141 l 0,-1.1875 0.5781,0 0,1.2188 q 0,0.625 -0.2266,1.2344 -0.2265,0.6093 -0.6797,1 -0.4531,0.3906 -1.0937,0.3906 -1.2031,0 -1.8985,-0.7188 -0.6953,-0.7187 -0.6953,-1.9062 z"
       style="stroke:none" />
  </g>
  <g
     id="g37477"
     style="color-interpolation:linearRGB;fill:#262626;stroke:#262626;stroke-width:0.5;stroke-linejoin:round;color-rendering:optimizeQuality;image-rendering:optimizeQuality;text-rendering:geometricPrecision">
    <line
       id="line37479"
       y1="368"
       x2="507"
       x1="73"
       style="fill:none"
       y2="368" />
    <line
       id="line37481"
       y1="31"
       x2="507"
       x1="73"
       style="fill:none"
       y2="31" />
    <line
       id="line37483"
       y1="368"
       x2="73"
       x1="73"
       style="fill:none"
       y2="363.66" />
    <line
       id="line37485"
       y1="368"
       x2="159.8"
       x1="159.8"
       style="fill:none"
       y2="363.66" />
    <line
       id="line37487"
       y1="368"
       x2="246.60001"
       x1="246.60001"
       style="fill:none"
       y2="363.66" />
    <line
       id="line37489"
       y1="368"
       x2="333.39999"
       x1="333.39999"
       style="fill:none"
       y2="363.66" />
    <line
       id="line37491"
       y1="368"
       x2="420.20001"
       x1="420.20001"
       style="fill:none"
       y2="363.66" />
    <line
       id="line37493"
       y1="368"
       x2="507"
       x1="507"
       style="fill:none"
       y2="363.66" />
    <line
       id="line37495"
       y1="31"
       x2="73"
       x1="73"
       style="fill:none"
       y2="35.34" />
    <line
       id="line37497"
       y1="31"
       x2="159.8"
       x1="159.8"
       style="fill:none"
       y2="35.34" />
    <line
       id="line37499"
       y1="31"
       x2="246.60001"
       x1="246.60001"
       style="fill:none"
       y2="35.34" />
    <line
       id="line37501"
       y1="31"
       x2="333.39999"
       x1="333.39999"
       style="fill:none"
       y2="35.34" />
    <line
       id="line37503"
       y1="31"
       x2="420.20001"
       x1="420.20001"
       style="fill:none"
       y2="35.34" />
    <line
       id="line37505"
       y1="31"
       x2="507"
       x1="507"
       style="fill:none"
       y2="35.34" />
  </g>
  <g
     id="g37591"
     style="color-interpolation:linearRGB;fill:#262626;stroke:#262626;stroke-width:0.5;stroke-linejoin:round;color-rendering:optimizeQuality;image-rendering:optimizeQuality;text-rendering:geometricPrecision">
    <line
       id="line37593"
       y1="368"
       x2="73"
       x1="73"
       style="fill:none"
       y2="31" />
    <line
       id="line37595"
       y1="368"
       x2="507"
       x1="507"
       style="fill:none"
       y2="31" />
    <line
       id="line37597"
       y1="368"
       x2="77.339996"
       x1="73"
       style="fill:none"
       y2="368" />
    <line
       id="line37599"
       y1="311.83331"
       x2="77.339996"
       x1="73"
       style="fill:none"
       y2="311.83331" />
    <line
       id="line37601"
       y1="255.6667"
       x2="77.339996"
       x1="73"
       style="fill:none"
       y2="255.6667" />
    <line
       id="line37603"
       y1="199.5"
       x2="77.339996"
       x1="73"
       style="fill:none"
       y2="199.5" />
    <line
       id="line37605"
       y1="143.3333"
       x2="77.339996"
       x1="73"
       style="fill:none"
       y2="143.3333" />
    <line
       id="line37607"
       y1="87.166702"
       x2="77.339996"
       x1="73"
       style="fill:none"
       y2="87.166702" />
    <line
       id="line37609"
       y1="31"
       x2="77.339996"
       x1="73"
       style="fill:none"
       y2="31" />
    <line
       id="line37611"
       y1="368"
       x2="502.66"
       x1="507"
       style="fill:none"
       y2="368" />
    <line
       id="line37613"
       y1="311.83331"
       x2="502.66"
       x1="507"
       style="fill:none"
       y2="311.83331" />
    <line
       id="line37615"
       y1="255.6667"
       x2="502.66"
       x1="507"
       style="fill:none"
       y2="255.6667" />
    <line
       id="line37617"
       y1="199.5"
       x2="502.66"
       x1="507"
       style="fill:none"
       y2="199.5" />
    <line
       id="line37619"
       y1="143.3333"
       x2="502.66"
       x1="507"
       style="fill:none"
       y2="143.3333" />
    <line
       id="line37621"
       y1="87.166702"
       x2="502.66"
       x1="507"
       style="fill:none"
       y2="87.166702" />
    <line
       id="line37623"
       y1="31"
       x2="502.66"
       x1="507"
       style="fill:none"
       y2="31" />
  </g>
  <ellipse
     style="color-interpolation:linearRGB;fill:#0072bd;stroke:#0072bd;stroke-width:2;stroke-linecap:butt;color-rendering:optimizeQuality;image-rendering:optimizeQuality;text-rendering:geometricPrecision;fill-opacity:1"
     cx="124.58"
     cy="86.666702"
     id="circle37723"
     r="3" />
  <ellipse
     style="color-interpolation:linearRGB;fill:#0072bd;stroke:#0072bd;stroke-width:2;stroke-linecap:butt;color-rendering:optimizeQuality;image-rendering:optimizeQuality;text-rendering:geometricPrecision;fill-opacity:1"
     cx="124.58"
     cy="103.5167"
     id="circle37725"
     r="3" />
  <ellipse
     style="color-interpolation:linearRGB;fill:#0072bd;stroke:#0072bd;stroke-width:2;stroke-linecap:butt;color-rendering:optimizeQuality;image-rendering:optimizeQuality;text-rendering:geometricPrecision;fill-opacity:1"
     cx="124.58"
     cy="30.5"
     id="circle37727"
     r="3" />
  <ellipse
     style="color-interpolation:linearRGB;fill:#0072bd;stroke:#0072bd;stroke-width:2;stroke-linecap:butt;color-rendering:optimizeQuality;image-rendering:optimizeQuality;text-rendering:geometricPrecision;fill-opacity:1"
     cx="124.58"
     cy="30.5"
     id="circle37729"
     r="3" />
  <ellipse
     style="color-interpolation:linearRGB;fill:#0072bd;stroke:#0072bd;stroke-width:2;stroke-linecap:butt;color-rendering:optimizeQuality;image-rendering:optimizeQuality;text-rendering:geometricPrecision;fill-opacity:1"
     cx="506.5"
     cy="316.95001"
     id="circle37731"
     r="3" />
  <ellipse
     style="color-interpolation:linearRGB;fill:#0072bd;stroke:#0072bd;stroke-width:2;stroke-linecap:butt;color-rendering:optimizeQuality;image-rendering:optimizeQuality;text-rendering:geometricPrecision;fill-opacity:1"
     cx="194.02"
     cy="221.46671"
     id="circle37733"
     r="3" />
  <ellipse
     style="color-interpolation:linearRGB;fill:#0072bd;stroke:#0072bd;stroke-width:2;stroke-linecap:butt;color-rendering:optimizeQuality;image-rendering:optimizeQuality;text-rendering:geometricPrecision;fill-opacity:1"
     cx="194.02"
     cy="227.0834"
     id="circle37735"
     r="3" />
</svg>
