<?xml version="1.0" encoding="UTF-8" standalone="no"?>
<svg
   xmlns:dc="http://purl.org/dc/elements/1.1/"
   xmlns:cc="http://creativecommons.org/ns#"
   xmlns:rdf="http://www.w3.org/1999/02/22-rdf-syntax-ns#"
   xmlns:svg="http://www.w3.org/2000/svg"
   xmlns="http://www.w3.org/2000/svg"
   version="1.1"
   id="svg11520"
   viewBox="0 0 744.09448819 1052.3622047"
   height="297mm"
   width="210mm">
  <defs
     id="defs11522">
    <clipPath
       id="clipPath14934"
       clipPathUnits="userSpaceOnUse">
      <rect
         y="100.18074"
         x="172.8"
         height="301.0639"
         width="301.0639"
         id="rect14936"
         style="opacity:1;fill:none;fill-opacity:1;stroke:#a84949;stroke-width:2.20000005;stroke-miterlimit:10;stroke-dasharray:none;stroke-dashoffset:0;stroke-opacity:1" />
    </clipPath>
  </defs>
  <metadata
     id="metadata11525">
    <rdf:RDF>
      <cc:Work
         rdf:about="">
        <dc:format>image/svg+xml</dc:format>
        <dc:type
           rdf:resource="http://purl.org/dc/dcmitype/StillImage" />
        <dc:title></dc:title>
      </cc:Work>
    </rdf:RDF>
  </metadata>
  <g
     id="layer1">
    <line
       id="line12171"
       y1="386.97403"
       x2="434.57458"
       x1="434.57458"
       style="font-style:normal;font-weight:normal;font-size:medium;font-family:Dialog;color-interpolation:linearRGB;fill:none;fill-opacity:1;stroke:#262626;stroke-width:0.44387263;stroke-linecap:butt;stroke-linejoin:round;stroke-miterlimit:10;stroke-dasharray:none;stroke-dashoffset:0;stroke-opacity:1;color-rendering:optimizeQuality;image-rendering:optimizeQuality;shape-rendering:auto;text-rendering:geometricPrecision"
       y2="109.56581" />
    <line
       id="line12189"
       y2="387.21933"
       style="font-style:normal;font-weight:normal;font-size:medium;font-family:Dialog;color-interpolation:linearRGB;fill:none;fill-opacity:1;stroke:#262626;stroke-width:0.5;stroke-linecap:square;stroke-linejoin:round;stroke-miterlimit:10;stroke-dasharray:none;stroke-dashoffset:0;stroke-opacity:1;color-rendering:optimizeQuality;image-rendering:optimizeQuality;shape-rendering:auto;text-rendering:geometricPrecision"
       y1="387.21933"
       x2="429.254"
       x1="433.71402" />
    <line
       id="line12191"
       y2="372.93362"
       style="font-style:normal;font-weight:normal;font-size:medium;font-family:Dialog;color-interpolation:linearRGB;fill:none;fill-opacity:1;stroke:#262626;stroke-width:0.5;stroke-linecap:square;stroke-linejoin:round;stroke-miterlimit:10;stroke-dasharray:none;stroke-dashoffset:0;stroke-opacity:1;color-rendering:optimizeQuality;image-rendering:optimizeQuality;shape-rendering:auto;text-rendering:geometricPrecision"
       y1="372.93362"
       x2="429.254"
       x1="433.71402" />
    <line
       id="line12193"
       y2="322.64792"
       style="font-style:normal;font-weight:normal;font-size:medium;font-family:Dialog;color-interpolation:linearRGB;fill:none;fill-opacity:1;stroke:#262626;stroke-width:0.5;stroke-linecap:square;stroke-linejoin:round;stroke-miterlimit:10;stroke-dasharray:none;stroke-dashoffset:0;stroke-opacity:1;color-rendering:optimizeQuality;image-rendering:optimizeQuality;shape-rendering:auto;text-rendering:geometricPrecision"
       y1="322.64792"
       x2="429.254"
       x1="433.71402" />
    <line
       id="line12195"
       y2="272.36224"
       style="font-style:normal;font-weight:normal;font-size:medium;font-family:Dialog;color-interpolation:linearRGB;fill:none;fill-opacity:1;stroke:#262626;stroke-width:0.5;stroke-linecap:square;stroke-linejoin:round;stroke-miterlimit:10;stroke-dasharray:none;stroke-dashoffset:0;stroke-opacity:1;color-rendering:optimizeQuality;image-rendering:optimizeQuality;shape-rendering:auto;text-rendering:geometricPrecision"
       y1="272.36224"
       x2="429.254"
       x1="433.71402" />
    <line
       id="line12197"
       y2="222.07645"
       style="font-style:normal;font-weight:normal;font-size:medium;font-family:Dialog;color-interpolation:linearRGB;fill:none;fill-opacity:1;stroke:#262626;stroke-width:0.5;stroke-linecap:square;stroke-linejoin:round;stroke-miterlimit:10;stroke-dasharray:none;stroke-dashoffset:0;stroke-opacity:1;color-rendering:optimizeQuality;image-rendering:optimizeQuality;shape-rendering:auto;text-rendering:geometricPrecision"
       y1="222.07645"
       x2="429.254"
       x1="433.71402" />
    <line
       id="line12199"
       y2="171.79074"
       style="font-style:normal;font-weight:normal;font-size:medium;font-family:Dialog;color-interpolation:linearRGB;fill:none;fill-opacity:1;stroke:#262626;stroke-width:0.5;stroke-linecap:square;stroke-linejoin:round;stroke-miterlimit:10;stroke-dasharray:none;stroke-dashoffset:0;stroke-opacity:1;color-rendering:optimizeQuality;image-rendering:optimizeQuality;shape-rendering:auto;text-rendering:geometricPrecision"
       y1="171.79074"
       x2="429.254"
       x1="433.71402" />
    <line
       id="line12201"
       y2="121.50504"
       style="font-style:normal;font-weight:normal;font-size:medium;font-family:Dialog;color-interpolation:linearRGB;fill:none;fill-opacity:1;stroke:#262626;stroke-width:0.5;stroke-linecap:square;stroke-linejoin:round;stroke-miterlimit:10;stroke-dasharray:none;stroke-dashoffset:0;stroke-opacity:1;color-rendering:optimizeQuality;image-rendering:optimizeQuality;shape-rendering:auto;text-rendering:geometricPrecision"
       y1="121.50504"
       x2="429.254"
       x1="433.71402" />
    <g
       transform="translate(-40.400003,0)"
       clip-path="url(#clipPath14934)"
       id="g14930">
      <path
         d="m 134.72769,122.78234 1.0067,0.6769 1.0066,0.0124 1.0067,0.2804 1.0067,0.2026 1.0067,-0.7449 1.0067,0.1841 1.0067,-0.3274 1.0067,1.4564 1.0066,0.4089 1.0067,0.2508 1.0067,-0.2224 1.0067,-0.4595 1.0067,1.5688 1.0067,-1.3588 1.0067,-0.0581 1.0066,-1.1179 1.0067,-0.4373 1.0067,-0.0643 1.0067,0.9809 1.0067,0.1013 1.0067,0.525 1.0067,-0.0964 1.0066,0.4608 1.0067,-0.635 1.0067,0.4719 1.0067,0.3669 1.0067,0.5806 1.0067,-0.0716 1.0067,0.0667 1.0066,0.2248 1.0067,0.0358 1.0067,0.11 1.0067,0.5027 1.0067,0.1742 1.0067,-0.1408 1.0067,0.2038 1.0066,0.7573 1.0067,0.0827 1.0067,-0.5311 1.0067,0.9376 1.0067,-0.3929 1.0067,-0.6979 1.0067,0.3718 1.0066,-0.0593 1.0067,0.1804 1.0067,-0.0828 1.0067,-0.0692 1.0067,0.525 1.0067,-0.294 1.0067,0.4769 1.0066,0.8882 1.0067,0.3434 1.0067,0.541 1.0067,-0.2544 1.0067,0.5472 1.0067,0.1865 1.0067,-0.0148 1.0066,0.2495 1.0067,0.3348 1.0067,0.009 1.0067,0.1247 1.0067,0.2385 1.0067,0.1124 1.0067,0.4126 1.0066,0.3656 1.0067,0.6696 1.0067,0.289 1.0067,-0.4966 1.0067,-0.1371 1.0067,-0.257 1.0067,0.9549 1.0066,0.2694 1.0067,-0.4892 1.0067,0.2495 1.0067,-0.6313 1.0067,0.3027 1.0067,0.7214 1.0067,0.4633 1.0066,0.546 1.0067,0.3051 1.0067,-0.1532 1.0067,0.609 1.0067,0.2051 1.0067,0.1297 1.0067,0.8128 1.0066,0.1495 1.0067,0.4077 1.0067,0.4953 1.0067,-0.226 1.0067,-0.236 1.0067,0.2026 1.0067,0.2533 1.0066,0.5361 1.0067,-0.1544 1.0067,1.2489 1.0067,0.4879 1.0067,0.6597 1.0067,0.1445 1.0067,1.1056 1.0066,0.3632 1.0067,0.672 1.0067,0.4657 1.0067,0.6498 1.0067,-0.2619 1.0067,-0.0333 1.0067,1.1883 1.0066,-0.84 1.0067,0.3323 1.0067,-0.0605 1.0067,0.1334 1.0067,0.3521 1.0067,1.0389 1.0067,1.1896 1.0066,0.0704 1.0067,0.7585 1.0067,0.9697 1.0067,1.244 1.0067,1.0747 1.0067,3.2896 1.0067,4.2199 1.0066,7.3624 1.0067,8.9511 1.0067,10.8103 1.0067,13.0498 1.0067,14.6879 1.0067,15.7614 1.0067,16.4766 1.0066,16.8386 1.0067,16.594 1.0067,15.376 1.0067,14.5557 1.0067,12.8164 1.0067,10.7694 1.0067,8.4274 1.0067,6.2791 1.0066,4.4261 1.0067,3.3539 1.0067,1.7294 1.0067,1.6801 1.0067,0.9709 1.0067,0.8128 1.0066,0.5794 1.0067,0.7202 1.0067,0.5065 1.0067,0.3212 1.0067,0.4941 1.0067,0.1989 1.0067,0.4126 1.0066,0.4163 1.0067,0.2149 1.0067,0.2372 1.0067,0.2718 1.0067,0.5213 1.0067,0.3372 1.0067,0.3619 1.0066,0.2829 1.0067,0.189 1.0067,0.4979 1.0067,0.3039 1.0067,0.331 1.0067,0.047 1.0067,0.3533 1.0066,-0.1977 1.0067,-0.0148 1.0067,-0.0371 1.0067,-0.289 1.0067,-0.3682 1.0067,-0.1816 1.0066,-0.0815 1.0067,-0.5163 1.0067,-0.2557 1.0067,-0.6437 1.0067,-0.5929 1.0067,-0.5856 1.0067,-0.73 1.0066,-0.6733 1.0067,-0.5645 1.0067,-0.7844 1.0067,-0.5337 1.0067,-0.5781 1.0067,-0.462 1.0067,-0.3879 1.0066,-0.2619 1.0068,-0.2569 1.0066,0.0222 1.0067,0.0247 1.0067,-0.0371 1.0067,-0.0259 1.0067,-0.0704 1.0067,0.2495 1.0066,0.068 1.0067,0.2162 1.0067,0.0518 1.0067,-0.016 1.0067,0.0247 1.0067,0.0889 1.0067,0.294 1.0066,-0.01 1.0067,0.0666 1.0067,-0.0111 1.0067,-0.0123 1.0067,-0.006 1.0067,0.2928 1.0067,0.0333 1.0066,0.0272 1.0067,0.2001 1.0067,0.0186 1.0067,0.1815 1.0067,0.0729 1.0067,-0.058 1.0067,0.0531 1.0066,0.0655 1.0067,0.1013 1.0067,0.0802 1.0067,0.2731 1.0067,-0.2199 1.0067,0.1531 1.0067,-0.0247 1.0066,0.0396 1.0067,0.1495 1.0067,0.0333 1.0067,0.0939 1.0067,0.0766 1.0067,0.0358 1.0067,0.0889 1.0066,0.002 1.0067,0.2446 1.0067,-0.0408 1.0067,-0.0222 1.0067,0.1038 1.0067,-0.0346 1.0067,0.0444 1.0066,0.2101 1.0067,0.005 1.0067,0.1198 1.0067,-0.0271 1.0067,0.163 1.0067,-0.0198 1.0067,0.1298 1.0066,-0.0371 1.0067,0.0778 1.0067,0.0803 1.0067,0.009 1.0067,0.0234 1.0067,-0.004 1.0067,0.2631 1.0067,0.0729 1.0066,0.0643 1.0067,-0.042 1.0067,0.1383 1.0067,-0.0581 1.0067,0.0841 1.0067,0.1692 1.0066,0.1742 1.0067,-0.0828 1.0067,0.1643 1.0067,-0.0222 1.0067,0.1433 1.0067,0.0667 1.0066,-0.0754 1.0068,0.0828 1.0066,-0.1236 1.0067,0.3101 1.0067,-0.058 1.0067,0.0976 1.0067,0.0407 1.0067,-0.1939 1.0066,0.2038 1.0067,0.1359 1.0067,-0.1001 1.0067,-0.0247 1.0067,0.1322 1.0067,0.0963 1.0066,-0.0407 1.0068,-0.0989 1.0066,0.0445 1.0067,-0.016 1.0067,0.184 1.0067,-0.1606 1.0067,-0.0926 1.0067,0.1309 1.0066,0.1557 1.0067,-0.0482 1.0067,0.0309 1.0067,0.0395 1.0067,-0.1544 1.0067,-0.0346 1.0067,0.2088 1.0067,0.0568 1.0066,-0.009 1.0067,-0.1754 1.0067,0.1926 1.0067,0.2928 1.0067,-0.0333 1.0067,-0.0111 1.0066,-0.0853 1.0067,-0.0506 1.0067,0.2248 1.0067,0.1507 1.0067,-0.0296 1.0067,-0.1631 1.0067,0.2211 1.0067,0.01 1.0066,0.0507 1.0067,-0.0532 1.0067,0.0297 1.0067,-0.0272 1.0067,0.1112 1.0067,0.001 1.0066,0.0815 1.0067,0.0643 1.0067,0.0617 1.0067,-0.168 1.0067,0.1384 1.0067,0.0173 1.0067,0.0754 1.0066,0.1445 1.0067,-0.0618 1.0067,0.0741 1.0067,-0.0605 1.0067,-0.006 1.0067,0.2001 1.0067,-0.0852 1.0067,-0.0457 1.0066,0.1137 1.0067,-0.002 1.0067,0.0445 1.0067,0.1235 1.0067,-0.006 1.0067,0.084 1.0066,-0.01 1.0067,10e-4 1.0067,0.0248 1.0067,0.021 1.0067,0.0432 1.0067,-0.009 1.0066,0.163 1.0068,0.0618 1.0066,0.016 1.0067,-0.0296 1.0067,0.1952 1.0067,-0.0544 1.0066,0.0247 1.0068,0.068 1.0066,-0.0593 1.0068,0.0531 1.0066,-0.047 1.0067,0.1396 1.0067,0.0408 1.0067,-0.1593 1.0066,0.2828 1.0068,0.0186 1.0066,-0.047 1.0067,0.0198 1.0067,-0.0309 1.0067,0.0222 1.0066,0.0223 1.0068,0.0444 1.0066,0.2014 1.0068,-0.0321 1.0066,-0.0531 1.0067,-0.0606 1.0067,0.0914 1.0067,0.1841 1.0066,-0.0642 1.0068,-0.0741 1.0066,0.0494 1.0067,0.1643 1.0067,-0.0544 1.0067,0.0359 1.0067,0.0358 1.0067,0.1223 1.0066,-0.1643 1.0067,0.126 1.0067,0.042 1.0067,-0.0112 1.0067,0.0902 1.0067,0.0914 1.0066,-0.1223 1.0068,0.11 1.0066,-0.0667 1.0067,0.063 1.0067,-0.0235 1.0067,0.1606 1.0067,0.0815 1.0067,-0.1013 1.0066,0.0779"
         style="font-style:normal;font-weight:normal;font-size:medium;font-family:Dialog;color-interpolation:linearRGB;fill:none;fill-opacity:1;fill-rule:evenodd;stroke:#a84949;stroke-width:2.20000005;stroke-linecap:butt;stroke-linejoin:round;stroke-miterlimit:10;stroke-dasharray:none;stroke-dashoffset:0;stroke-opacity:1;color-rendering:optimizeQuality;image-rendering:optimizeQuality;shape-rendering:auto;text-rendering:geometricPrecision"
         id="path12253" />
      <path
         d="m 134.72769,124.37664 1.0067,0.5531 1.0066,0.4568 1.0067,0.6282 1.0067,-1.5599 1.0067,0.529 1.0067,1.8034 1.0067,-0.003 1.0067,0.7244 1.0066,0.4388 1.0067,-1.07 1.0067,-0.2255 1.0067,1.4789 1.0067,0.1803 1.0067,-0.6552 1.0067,-1.1903 1.0066,-1.2624 1.0067,1.587 1.0067,1.6832 1.0067,-1.2113 1.0067,0.6042 1.0067,-0.4599 1.0067,0.2555 1.0066,-0.4178 1.0067,0.7033 1.0067,-0.5861 1.0067,-0.003 1.0067,0.0631 1.0067,0.5711 1.0067,0.4328 1.0066,0.6402 1.0067,-0.532 1.0067,0.2495 1.0067,0.021 1.0067,-0.4899 1.0067,2.0409 1.0067,0.0721 1.0066,-0.7243 1.0067,0.9317 1.0067,-0.2795 1.0067,1.4157 1.0067,-1.7824 1.0067,-0.015 1.0067,0.5921 1.0066,-0.2044 1.0067,0.8536 1.0067,0.2705 1.0067,0.4449 1.0067,0.2795 1.0067,0.0722 1.0067,0.1232 1.0066,1.2053 1.0067,0.6522 1.0067,0.7364 1.0067,-0.1653 1.0067,-0.1773 1.0067,-0.8807 1.0067,0.2074 1.0066,0.7875 1.0067,0.1623 1.0067,-0.7214 1.0067,1.2685 1.0067,-0.3517 1.0067,0.0962 1.0067,-0.2014 1.0066,1.2684 1.0067,-0.1022 1.0067,-0.0571 1.0067,-0.3757 1.0067,0.021 1.0067,1.052 1.0067,-0.0811 1.0066,-0.5982 1.0067,0.3878 1.0067,0.024 1.0067,0.4238 1.0067,0.3697 1.0067,1.3316 1.0067,0.541 1.0066,-0.4358 1.0067,-0.7274 1.0067,1.6261 1.0067,0.7905 1.0067,-0.5621 1.0067,1.581 1.0067,-0.033 1.0066,-0.0722 1.0067,0.0661 1.0067,0.8116 1.0067,0.2435 1.0067,0.568 1.0067,-0.3967 1.0067,0.3096 1.0066,-0.3306 1.0067,1.9867 1.0067,0.7304 1.0067,-0.1593 1.0067,0.4719 1.0067,0.6102 1.0067,0.3126 1.0066,1.5089 1.0067,-0.8086 1.0067,1.1963 1.0067,1.1752 1.0067,-0.529 1.0067,-0.1413 1.0067,0.9198 1.0066,-0.0992 1.0067,-1.1301 1.0067,1.1752 1.0067,1.7193 1.0067,0.2224 1.0067,0.8206 1.0067,0.6943 1.0066,1.2233 1.0067,1.1542 1.0067,1.0099 1.0067,1.7073 1.0067,4.4725 1.0067,5.5906 1.0067,8.6054 1.0066,13.5168 1.0067,18.0674 1.0067,17.0394 1.0067,19.2547 1.0067,19.42 1.0067,19.435 1.0067,17.6436 1.0066,15.3533 1.0067,11.9718 1.0067,9.48 1.0067,7.7999 1.0067,5.9362 1.0067,3.3785 1.0067,2.7592 1.0067,1.8335 1.0066,0.9739 1.0067,1.1361 1.0067,0.6312 1.0067,0.6854 1.0067,0.2494 1.0067,0.5832 1.0066,0.4598 1.0067,0.2826 1.0067,0.4689 1.0067,0.1472 1.0067,0.1984 1.0067,0.1052 1.0067,0.3216 1.0066,-0.3366 1.0067,0.6372 1.0067,0.3006 1.0067,0.3817 1.0067,0.2615 1.0067,0.1894 1.0067,0.1232 1.0066,0.3697 1.0067,-0.0902 1.0067,0.4689 1.0067,0.1323 1.0067,0.6612 1.0067,-0.1593 1.0067,0.0301 1.0066,0.0811 1.0067,-0.018 1.0067,-0.2284 1.0067,-0.0662 1.0067,-0.2615 1.0067,-0.541 1.0066,0.009 1.0067,0.3938 1.0067,0.0541 1.0067,0.1773 1.0067,0.0721 1.0067,-0.009 1.0067,0.0992 1.0066,0.1714 1.0067,0.2013 1.0067,-0.003 1.0067,0.1533 1.0067,-0.012 1.0067,0.1834 1.0067,-0.006 1.0066,0.2284 1.0068,0.2464 1.0066,0.2285 1.0067,0.0481 1.0067,0.2585 1.0067,-0.2044 1.0067,-0.0932 1.0067,0.1833 1.0066,-0.0991 1.0067,0.1533 1.0067,0.2103 1.0067,-0.012 1.0067,-0.0481 1.0067,0.1623 1.0067,0.1593 1.0066,0.0301 1.0067,0.1202 1.0067,0.0241 1.0067,-0.3096 1.0067,0.3216 1.0067,-0.0511 1.0067,0.1864 1.0066,-0.0211 1.0067,0.2074 1.0067,-0.1593 1.0067,0.1443 1.0067,-0.1112 1.0067,0.2374 1.0067,-0.0932 1.0066,0.1624 1.0067,0.2645 1.0067,-0.2555 1.0067,0.1863 1.0067,-0.009 1.0067,0.2375 1.0067,-0.0752 1.0066,0.1233 1.0067,-0.0361 1.0067,0.1262 1.0067,-0.009 1.0067,-0.1202 1.0067,0.0962 1.0067,0 1.0066,0.1923 1.0067,-0.0871 1.0067,0.0721 1.0067,0.1773 1.0067,-0.2434 1.0067,0.2855 1.0067,0.1744 1.0066,-0.1082 1.0067,0.0871 1.0067,-0.1833 1.0067,0.0811 1.0067,0.0782 1.0067,0.033 1.0067,0.1473 1.0066,0.021 1.0067,-0.1803 1.0067,0.0361 1.0067,0.1503 1.0067,-0.0872 1.0067,0.2375 1.0067,-0.009 1.0067,0.0812 1.0066,-0.1172 1.0067,0.1532 1.0067,0.0361 1.0067,-0.0361 1.0067,0.0301 1.0067,-0.1322 1.0066,0.2254 1.0067,-0.0481 1.0067,-0.2284 1.0067,0.2404 1.0067,-0.021 1.0067,0.2344 1.0066,-0.2013 1.0068,0.018 1.0066,0.1322 1.0067,-0.1322 1.0067,0.2885 1.0067,-0.1232 1.0067,0.015 1.0067,0.0481 1.0066,0.021 1.0067,0.3096 1.0067,-0.2464 1.0067,-0.0632 1.0067,0.2345 1.0067,-0.1713 1.0066,-0.1593 1.0068,0.2645 1.0066,-0.0842 1.0067,0.1954 1.0067,0.0421 1.0067,-0.2766 1.0067,-0.0841 1.0067,0.2434 1.0066,-0.1593 1.0067,0.1082 1.0067,0.2315 1.0067,-0.1743 1.0067,0.1472 1.0067,0.009 1.0067,-0.1683 1.0067,0.1263 1.0066,-0.1413 1.0067,0.1713 1.0067,0.0571 1.0067,0.1052 1.0067,-0.0901 1.0067,0.0391 1.0066,0.015 1.0067,-0.009 1.0067,0.2074 1.0067,0.0391 1.0067,0.0241 1.0067,-0.2405 1.0067,0.1112 1.0067,0.0361 1.0066,0.2014 1.0067,-0.1654 1.0067,0.1503 1.0067,-0.1773 1.0067,-0.0811 1.0067,0.3276 1.0066,-0.2044 1.0067,0.2284 1.0067,0.0451 1.0067,0.03 1.0067,0.0962 1.0067,0.009 1.0067,-0.0752 1.0066,-0.2164 1.0067,0.3908 1.0067,-0.1323 1.0067,0.0812 1.0067,-0.0181 1.0067,-0.009 1.0067,0.1263 1.0067,-0.1263 1.0066,0.0842 1.0067,-0.1203 1.0067,0.1383 1.0067,-0.1262 1.0067,0.1382 1.0067,-0.1593 1.0066,0.1984 1.0067,-0.2525 1.0067,0.2345 1.0067,0.0781 1.0067,-0.2435 1.0067,0.1714 1.0066,0.036 1.0068,-0.2284 1.0066,0.2976 1.0067,-0.1533 1.0067,0.003 1.0067,-0.0211 1.0066,-0.018 1.0068,0.0842 1.0066,0.1322 1.0068,-0.2374 1.0066,0.1953 1.0067,-0.1623 1.0067,0.2165 1.0067,-0.0602 1.0066,0.0361 1.0068,0.027 1.0066,-0.0991 1.0067,-0.1233 1.0067,0.1624 1.0067,0.0631 1.0066,-0.0421 1.0068,0.03 1.0066,-0.0721 1.0068,0.1292 1.0066,0.0241 1.0067,-0.1172 1.0067,-0.006 1.0067,-0.0511 1.0066,0.0781 1.0068,0.0271 1.0066,0.0781 1.0067,-0.0421 1.0067,-0.0811 1.0067,0.0781 1.0067,0.0421 1.0067,-0.0902 1.0066,-0.0751 1.0067,0.3276 1.0067,-0.0331 1.0067,-0.0631 1.0067,-0.0661 1.0067,-0.1323 1.0066,0.1323 1.0068,-0.0301 1.0066,0.0481 1.0067,-0.3456 1.0067,0.1953 1.0067,0.2044 1.0067,0.0361 1.0067,-0.1563 1.0066,0.0631"
         style="font-style:normal;font-weight:normal;font-size:medium;font-family:Dialog;color-interpolation:linearRGB;fill:none;fill-opacity:1;fill-rule:evenodd;stroke:#2dd284;stroke-width:2.20000005;stroke-linecap:butt;stroke-linejoin:round;stroke-miterlimit:10;stroke-dasharray:none;stroke-dashoffset:0;stroke-opacity:1;color-rendering:optimizeQuality;image-rendering:optimizeQuality;shape-rendering:auto;text-rendering:geometricPrecision"
         id="path12249" />
    </g>
    <line
       id="line12169"
       y1="385.39813"
       x2="132.82726"
       x1="132.82726"
       style="font-style:normal;font-weight:normal;font-size:medium;font-family:Dialog;color-interpolation:linearRGB;fill:none;fill-opacity:1;stroke:#262626;stroke-width:0.44049776;stroke-linecap:butt;stroke-linejoin:round;stroke-miterlimit:10;stroke-dasharray:none;stroke-dashoffset:0;stroke-opacity:1;color-rendering:optimizeQuality;image-rendering:optimizeQuality;shape-rendering:auto;text-rendering:geometricPrecision"
       y2="112.19228" />
    <g
       transform="translate(132.71429,391.27644)"
       style="font-style:normal;font-weight:normal;font-size:10px;font-family:'Helvetica Neue';color-interpolation:linearRGB;fill:#262626;fill-opacity:1;stroke:#262626;stroke-width:1;stroke-linecap:square;stroke-linejoin:miter;stroke-miterlimit:10;stroke-dasharray:none;stroke-dashoffset:0;stroke-opacity:1;color-rendering:optimizeQuality;image-rendering:optimizeQuality;shape-rendering:auto;text-rendering:geometricPrecision"
       id="g12131">
      <text
         x="-3"
         xml:space="preserve"
         y="10"
         style="stroke:none"
         id="text12133">0</text>
    </g>
    <g
       transform="translate(196.42859,391.27644)"
       style="font-style:normal;font-weight:normal;font-size:10px;font-family:'Helvetica Neue';color-interpolation:linearRGB;fill:#262626;fill-opacity:1;stroke:#262626;stroke-width:1;stroke-linecap:square;stroke-linejoin:miter;stroke-miterlimit:10;stroke-dasharray:none;stroke-dashoffset:0;stroke-opacity:1;color-rendering:optimizeQuality;image-rendering:optimizeQuality;shape-rendering:auto;text-rendering:geometricPrecision"
       id="g12135">
      <text
         x="-8.5"
         xml:space="preserve"
         y="10"
         style="stroke:none"
         id="text12137">100</text>
    </g>
    <g
       transform="translate(260.14289,391.27644)"
       style="font-style:normal;font-weight:normal;font-size:10px;font-family:'Helvetica Neue';color-interpolation:linearRGB;fill:#262626;fill-opacity:1;stroke:#262626;stroke-width:1;stroke-linecap:square;stroke-linejoin:miter;stroke-miterlimit:10;stroke-dasharray:none;stroke-dashoffset:0;stroke-opacity:1;color-rendering:optimizeQuality;image-rendering:optimizeQuality;shape-rendering:auto;text-rendering:geometricPrecision"
       id="g12139">
      <text
         x="-8.5"
         xml:space="preserve"
         y="10"
         style="stroke:none"
         id="text12141">200</text>
    </g>
    <g
       transform="translate(323.85719,391.27644)"
       style="font-style:normal;font-weight:normal;font-size:10px;font-family:'Helvetica Neue';color-interpolation:linearRGB;fill:#262626;fill-opacity:1;stroke:#262626;stroke-width:1;stroke-linecap:square;stroke-linejoin:miter;stroke-miterlimit:10;stroke-dasharray:none;stroke-dashoffset:0;stroke-opacity:1;color-rendering:optimizeQuality;image-rendering:optimizeQuality;shape-rendering:auto;text-rendering:geometricPrecision"
       id="g12143">
      <text
         x="-8.5"
         xml:space="preserve"
         y="10"
         style="stroke:none"
         id="text12145">300</text>
    </g>
    <g
       transform="translate(387.57139,391.27644)"
       style="font-style:normal;font-weight:normal;font-size:10px;font-family:'Helvetica Neue';color-interpolation:linearRGB;fill:#262626;fill-opacity:1;stroke:#262626;stroke-width:1;stroke-linecap:square;stroke-linejoin:miter;stroke-miterlimit:10;stroke-dasharray:none;stroke-dashoffset:0;stroke-opacity:1;color-rendering:optimizeQuality;image-rendering:optimizeQuality;shape-rendering:auto;text-rendering:geometricPrecision"
       id="g12147">
      <text
         x="-8.5"
         xml:space="preserve"
         y="10"
         style="stroke:none"
         id="text12149">400</text>
    </g>
    <g
       transform="translate(281.41225,405.27654)"
       style="font-style:normal;font-weight:normal;font-size:11px;font-family:'Helvetica Neue';color-interpolation:linearRGB;fill:#262626;fill-opacity:1;stroke:#262626;stroke-width:1;stroke-linecap:square;stroke-linejoin:miter;stroke-miterlimit:10;stroke-dasharray:none;stroke-dashoffset:0;stroke-opacity:1;color-rendering:optimizeQuality;image-rendering:optimizeQuality;shape-rendering:auto;text-rendering:geometricPrecision"
       id="g12163">
      <text
         x="-44"
         xml:space="preserve"
         y="11"
         style="stroke:none"
         id="text12165">Position (microns)</text>
    </g>
    <line
       id="line12095"
       y1="387.13599"
       x2="430.05606"
       x1="132.71429"
       style="font-style:normal;font-weight:normal;font-size:medium;font-family:Dialog;color-interpolation:linearRGB;fill:none;fill-opacity:1;stroke:#262626;stroke-width:0.40825409;stroke-linecap:butt;stroke-linejoin:round;stroke-miterlimit:10;stroke-dasharray:none;stroke-dashoffset:0;stroke-opacity:1;color-rendering:optimizeQuality;image-rendering:optimizeQuality;shape-rendering:auto;text-rendering:geometricPrecision"
       y2="387.13599" />
    <line
       id="line12099"
       y2="382.75934"
       style="font-style:normal;font-weight:normal;font-size:medium;font-family:Dialog;color-interpolation:linearRGB;fill:none;fill-opacity:1;stroke:#262626;stroke-width:0.5;stroke-linecap:square;stroke-linejoin:round;stroke-miterlimit:10;stroke-dasharray:none;stroke-dashoffset:0;stroke-opacity:1;color-rendering:optimizeQuality;image-rendering:optimizeQuality;shape-rendering:auto;text-rendering:geometricPrecision"
       y1="387.21933"
       x2="132.71429"
       x1="132.71429" />
    <line
       id="line12101"
       y2="382.75934"
       style="font-style:normal;font-weight:normal;font-size:medium;font-family:Dialog;color-interpolation:linearRGB;fill:none;fill-opacity:1;stroke:#262626;stroke-width:0.5;stroke-linecap:square;stroke-linejoin:round;stroke-miterlimit:10;stroke-dasharray:none;stroke-dashoffset:0;stroke-opacity:1;color-rendering:optimizeQuality;image-rendering:optimizeQuality;shape-rendering:auto;text-rendering:geometricPrecision"
       y1="387.21933"
       x2="196.42859"
       x1="196.42859" />
    <line
       id="line12103"
       y2="382.75934"
       style="font-style:normal;font-weight:normal;font-size:medium;font-family:Dialog;color-interpolation:linearRGB;fill:none;fill-opacity:1;stroke:#262626;stroke-width:0.5;stroke-linecap:square;stroke-linejoin:round;stroke-miterlimit:10;stroke-dasharray:none;stroke-dashoffset:0;stroke-opacity:1;color-rendering:optimizeQuality;image-rendering:optimizeQuality;shape-rendering:auto;text-rendering:geometricPrecision"
       y1="387.21933"
       x2="260.14288"
       x1="260.14288" />
    <line
       id="line12105"
       y2="382.75934"
       style="font-style:normal;font-weight:normal;font-size:medium;font-family:Dialog;color-interpolation:linearRGB;fill:none;fill-opacity:1;stroke:#262626;stroke-width:0.5;stroke-linecap:square;stroke-linejoin:round;stroke-miterlimit:10;stroke-dasharray:none;stroke-dashoffset:0;stroke-opacity:1;color-rendering:optimizeQuality;image-rendering:optimizeQuality;shape-rendering:auto;text-rendering:geometricPrecision"
       y1="387.21933"
       x2="323.85721"
       x1="323.85721" />
    <line
       id="line12107"
       y2="382.75934"
       style="font-style:normal;font-weight:normal;font-size:medium;font-family:Dialog;color-interpolation:linearRGB;fill:none;fill-opacity:1;stroke:#262626;stroke-width:0.5;stroke-linecap:square;stroke-linejoin:round;stroke-miterlimit:10;stroke-dasharray:none;stroke-dashoffset:0;stroke-opacity:1;color-rendering:optimizeQuality;image-rendering:optimizeQuality;shape-rendering:auto;text-rendering:geometricPrecision"
       y1="387.21933"
       x2="387.57138"
       x1="387.57138" />
    <line
       id="line12173"
       y2="387.21933"
       style="font-style:normal;font-weight:normal;font-size:medium;font-family:Dialog;color-interpolation:linearRGB;fill:none;fill-opacity:1;stroke:#262626;stroke-width:0.5;stroke-linecap:square;stroke-linejoin:round;stroke-miterlimit:10;stroke-dasharray:none;stroke-dashoffset:0;stroke-opacity:1;color-rendering:optimizeQuality;image-rendering:optimizeQuality;shape-rendering:auto;text-rendering:geometricPrecision"
       y1="387.21933"
       x2="137.17429"
       x1="132.71429" />
    <line
       id="line12175"
       y2="372.93362"
       style="font-style:normal;font-weight:normal;font-size:medium;font-family:Dialog;color-interpolation:linearRGB;fill:none;fill-opacity:1;stroke:#262626;stroke-width:0.5;stroke-linecap:square;stroke-linejoin:round;stroke-miterlimit:10;stroke-dasharray:none;stroke-dashoffset:0;stroke-opacity:1;color-rendering:optimizeQuality;image-rendering:optimizeQuality;shape-rendering:auto;text-rendering:geometricPrecision"
       y1="372.93362"
       x2="137.17429"
       x1="132.71429" />
    <line
       id="line12177"
       y2="322.64792"
       style="font-style:normal;font-weight:normal;font-size:medium;font-family:Dialog;color-interpolation:linearRGB;fill:none;fill-opacity:1;stroke:#262626;stroke-width:0.5;stroke-linecap:square;stroke-linejoin:round;stroke-miterlimit:10;stroke-dasharray:none;stroke-dashoffset:0;stroke-opacity:1;color-rendering:optimizeQuality;image-rendering:optimizeQuality;shape-rendering:auto;text-rendering:geometricPrecision"
       y1="322.64792"
       x2="137.17429"
       x1="132.71429" />
    <line
       id="line12179"
       y2="272.36224"
       style="font-style:normal;font-weight:normal;font-size:medium;font-family:Dialog;color-interpolation:linearRGB;fill:none;fill-opacity:1;stroke:#262626;stroke-width:0.5;stroke-linecap:square;stroke-linejoin:round;stroke-miterlimit:10;stroke-dasharray:none;stroke-dashoffset:0;stroke-opacity:1;color-rendering:optimizeQuality;image-rendering:optimizeQuality;shape-rendering:auto;text-rendering:geometricPrecision"
       y1="272.36224"
       x2="137.17429"
       x1="132.71429" />
    <line
       id="line12181"
       y2="222.07645"
       style="font-style:normal;font-weight:normal;font-size:medium;font-family:Dialog;color-interpolation:linearRGB;fill:none;fill-opacity:1;stroke:#262626;stroke-width:0.5;stroke-linecap:square;stroke-linejoin:round;stroke-miterlimit:10;stroke-dasharray:none;stroke-dashoffset:0;stroke-opacity:1;color-rendering:optimizeQuality;image-rendering:optimizeQuality;shape-rendering:auto;text-rendering:geometricPrecision"
       y1="222.07645"
       x2="137.17429"
       x1="132.71429" />
    <line
       id="line12183"
       y2="171.79074"
       style="font-style:normal;font-weight:normal;font-size:medium;font-family:Dialog;color-interpolation:linearRGB;fill:none;fill-opacity:1;stroke:#262626;stroke-width:0.5;stroke-linecap:square;stroke-linejoin:round;stroke-miterlimit:10;stroke-dasharray:none;stroke-dashoffset:0;stroke-opacity:1;color-rendering:optimizeQuality;image-rendering:optimizeQuality;shape-rendering:auto;text-rendering:geometricPrecision"
       y1="171.79074"
       x2="137.17429"
       x1="132.71429" />
    <line
       id="line12185"
       y2="121.50504"
       style="font-style:normal;font-weight:normal;font-size:medium;font-family:Dialog;color-interpolation:linearRGB;fill:none;fill-opacity:1;stroke:#262626;stroke-width:0.5;stroke-linecap:square;stroke-linejoin:round;stroke-miterlimit:10;stroke-dasharray:none;stroke-dashoffset:0;stroke-opacity:1;color-rendering:optimizeQuality;image-rendering:optimizeQuality;shape-rendering:auto;text-rendering:geometricPrecision"
       y1="121.50504"
       x2="137.17429"
       x1="132.71429" />
    <line
       id="line12097"
       y1="109.13821"
       x2="433.73312"
       x1="132.71429"
       style="font-style:normal;font-weight:normal;font-size:medium;font-family:Dialog;color-interpolation:linearRGB;fill:none;fill-opacity:1;stroke:#262626;stroke-width:0.41077062;stroke-linecap:butt;stroke-linejoin:round;stroke-miterlimit:10;stroke-dasharray:none;stroke-dashoffset:0;stroke-opacity:1;color-rendering:optimizeQuality;image-rendering:optimizeQuality;shape-rendering:auto;text-rendering:geometricPrecision"
       y2="109.13821" />
    <line
       id="line12115"
       y2="113.67934"
       style="font-style:normal;font-weight:normal;font-size:medium;font-family:Dialog;color-interpolation:linearRGB;fill:none;fill-opacity:1;stroke:#262626;stroke-width:0.5;stroke-linecap:square;stroke-linejoin:round;stroke-miterlimit:10;stroke-dasharray:none;stroke-dashoffset:0;stroke-opacity:1;color-rendering:optimizeQuality;image-rendering:optimizeQuality;shape-rendering:auto;text-rendering:geometricPrecision"
       y1="109.21935"
       x2="132.71429"
       x1="132.71429" />
    <line
       id="line12117"
       y2="113.67934"
       style="font-style:normal;font-weight:normal;font-size:medium;font-family:Dialog;color-interpolation:linearRGB;fill:none;fill-opacity:1;stroke:#262626;stroke-width:0.5;stroke-linecap:square;stroke-linejoin:round;stroke-miterlimit:10;stroke-dasharray:none;stroke-dashoffset:0;stroke-opacity:1;color-rendering:optimizeQuality;image-rendering:optimizeQuality;shape-rendering:auto;text-rendering:geometricPrecision"
       y1="109.21935"
       x2="196.42859"
       x1="196.42859" />
    <line
       id="line12119"
       y2="113.67934"
       style="font-style:normal;font-weight:normal;font-size:medium;font-family:Dialog;color-interpolation:linearRGB;fill:none;fill-opacity:1;stroke:#262626;stroke-width:0.5;stroke-linecap:square;stroke-linejoin:round;stroke-miterlimit:10;stroke-dasharray:none;stroke-dashoffset:0;stroke-opacity:1;color-rendering:optimizeQuality;image-rendering:optimizeQuality;shape-rendering:auto;text-rendering:geometricPrecision"
       y1="109.21935"
       x2="260.14288"
       x1="260.14288" />
    <line
       id="line12121"
       y2="113.67934"
       style="font-style:normal;font-weight:normal;font-size:medium;font-family:Dialog;color-interpolation:linearRGB;fill:none;fill-opacity:1;stroke:#262626;stroke-width:0.5;stroke-linecap:square;stroke-linejoin:round;stroke-miterlimit:10;stroke-dasharray:none;stroke-dashoffset:0;stroke-opacity:1;color-rendering:optimizeQuality;image-rendering:optimizeQuality;shape-rendering:auto;text-rendering:geometricPrecision"
       y1="109.21935"
       x2="323.85721"
       x1="323.85721" />
    <line
       id="line12123"
       y2="113.67934"
       style="font-style:normal;font-weight:normal;font-size:medium;font-family:Dialog;color-interpolation:linearRGB;fill:none;fill-opacity:1;stroke:#262626;stroke-width:0.5;stroke-linecap:square;stroke-linejoin:round;stroke-miterlimit:10;stroke-dasharray:none;stroke-dashoffset:0;stroke-opacity:1;color-rendering:optimizeQuality;image-rendering:optimizeQuality;shape-rendering:auto;text-rendering:geometricPrecision"
       y1="109.21935"
       x2="387.57138"
       x1="387.57138" />
    <line
       id="line12187"
       y2="109.21935"
       style="font-style:normal;font-weight:normal;font-size:medium;font-family:Dialog;color-interpolation:linearRGB;fill:none;fill-opacity:1;stroke:#262626;stroke-width:0.5;stroke-linecap:square;stroke-linejoin:round;stroke-miterlimit:10;stroke-dasharray:none;stroke-dashoffset:0;stroke-opacity:1;color-rendering:optimizeQuality;image-rendering:optimizeQuality;shape-rendering:auto;text-rendering:geometricPrecision"
       y1="109.21935"
       x2="137.17429"
       x1="132.71429" />
    <g
       transform="translate(128.65719,372.93364)"
       style="font-style:normal;font-weight:normal;font-size:10px;font-family:'Helvetica Neue';color-interpolation:linearRGB;fill:#262626;fill-opacity:1;stroke:#262626;stroke-width:1;stroke-linecap:square;stroke-linejoin:miter;stroke-miterlimit:10;stroke-dasharray:none;stroke-dashoffset:0;stroke-opacity:1;color-rendering:optimizeQuality;image-rendering:optimizeQuality;shape-rendering:auto;text-rendering:geometricPrecision"
       id="g12209">
      <text
         x="-6"
         xml:space="preserve"
         y="3.5"
         style="stroke:none"
         id="text12211">0</text>
    </g>
    <g
       transform="translate(128.65719,322.64794)"
       style="font-style:normal;font-weight:normal;font-size:10px;font-family:'Helvetica Neue';color-interpolation:linearRGB;fill:#262626;fill-opacity:1;stroke:#262626;stroke-width:1;stroke-linecap:square;stroke-linejoin:miter;stroke-miterlimit:10;stroke-dasharray:none;stroke-dashoffset:0;stroke-opacity:1;color-rendering:optimizeQuality;image-rendering:optimizeQuality;shape-rendering:auto;text-rendering:geometricPrecision"
       id="g12213">
      <text
         x="-14"
         xml:space="preserve"
         y="3.5"
         style="stroke:none"
         id="text12215">0.2</text>
    </g>
    <g
       transform="translate(128.65719,272.36224)"
       style="font-style:normal;font-weight:normal;font-size:10px;font-family:'Helvetica Neue';color-interpolation:linearRGB;fill:#262626;fill-opacity:1;stroke:#262626;stroke-width:1;stroke-linecap:square;stroke-linejoin:miter;stroke-miterlimit:10;stroke-dasharray:none;stroke-dashoffset:0;stroke-opacity:1;color-rendering:optimizeQuality;image-rendering:optimizeQuality;shape-rendering:auto;text-rendering:geometricPrecision"
       id="g12217">
      <text
         x="-14"
         xml:space="preserve"
         y="3.5"
         style="stroke:none"
         id="text12219">0.4</text>
    </g>
    <g
       transform="translate(128.65719,222.07644)"
       style="font-style:normal;font-weight:normal;font-size:10px;font-family:'Helvetica Neue';color-interpolation:linearRGB;fill:#262626;fill-opacity:1;stroke:#262626;stroke-width:1;stroke-linecap:square;stroke-linejoin:miter;stroke-miterlimit:10;stroke-dasharray:none;stroke-dashoffset:0;stroke-opacity:1;color-rendering:optimizeQuality;image-rendering:optimizeQuality;shape-rendering:auto;text-rendering:geometricPrecision"
       id="g12221">
      <text
         x="-14"
         xml:space="preserve"
         y="3.5"
         style="stroke:none"
         id="text12223">0.6</text>
    </g>
    <g
       transform="translate(128.65719,171.79074)"
       style="font-style:normal;font-weight:normal;font-size:10px;font-family:'Helvetica Neue';color-interpolation:linearRGB;fill:#262626;fill-opacity:1;stroke:#262626;stroke-width:1;stroke-linecap:square;stroke-linejoin:miter;stroke-miterlimit:10;stroke-dasharray:none;stroke-dashoffset:0;stroke-opacity:1;color-rendering:optimizeQuality;image-rendering:optimizeQuality;shape-rendering:auto;text-rendering:geometricPrecision"
       id="g12225">
      <text
         x="-14"
         xml:space="preserve"
         y="3.5"
         style="stroke:none"
         id="text12227">0.8</text>
    </g>
    <g
       transform="translate(128.65719,121.50504)"
       style="font-style:normal;font-weight:normal;font-size:10px;font-family:'Helvetica Neue';color-interpolation:linearRGB;fill:#262626;fill-opacity:1;stroke:#262626;stroke-width:1;stroke-linecap:square;stroke-linejoin:miter;stroke-miterlimit:10;stroke-dasharray:none;stroke-dashoffset:0;stroke-opacity:1;color-rendering:optimizeQuality;image-rendering:optimizeQuality;shape-rendering:auto;text-rendering:geometricPrecision"
       id="g12229">
      <text
         x="-6"
         xml:space="preserve"
         y="3.5"
         style="stroke:none"
         id="text12231">1</text>
    </g>
    <g
       transform="matrix(0,-1,1,0,107.65719,247.21914)"
       style="font-style:normal;font-weight:normal;font-size:11px;font-family:'Helvetica Neue';color-interpolation:linearRGB;fill:#262626;fill-opacity:1;stroke:#262626;stroke-width:1;stroke-linecap:square;stroke-linejoin:miter;stroke-miterlimit:10;stroke-dasharray:none;stroke-dashoffset:0;stroke-opacity:1;color-rendering:optimizeQuality;image-rendering:optimizeQuality;shape-rendering:auto;text-rendering:geometricPrecision"
       id="g12237">
      <text
         x="-81.5"
         xml:space="preserve"
         y="-3"
         style="stroke:none"
         id="text12239">Intensity normalized to initial inlet</text>
    </g>
    <g
       transform="translate(-124.79216,79.274227)"
       id="g12880">
      <path
         d="m 403.31429,261.01934 0,-49 121.5,0 0,49 z"
         style="font-style:normal;font-weight:normal;font-size:medium;font-family:Dialog;color-interpolation:linearRGB;fill:none;fill-opacity:1;fill-rule:evenodd;stroke:#000000;stroke-width:0.5;stroke-linecap:butt;stroke-linejoin:miter;stroke-miterlimit:10;stroke-dasharray:none;stroke-dashoffset:0;stroke-opacity:1;color-rendering:optimizeQuality;image-rendering:optimizeQuality;shape-rendering:auto;text-rendering:geometricPrecision"
         id="path12293" />
      <g
         id="g12295"
         style="font-style:normal;font-weight:normal;font-size:10px;font-family:'Helvetica Neue';color-interpolation:linearRGB;fill:#000000;fill-opacity:1;stroke:#000000;stroke-width:1;stroke-linecap:square;stroke-linejoin:miter;stroke-miterlimit:10;stroke-dasharray:none;stroke-dashoffset:0;stroke-opacity:1;color-rendering:optimizeQuality;image-rendering:optimizeQuality;shape-rendering:auto;text-rendering:geometricPrecision"
         transform="translate(408.31429,215.01934)">
        <text
           id="text12297"
           style="stroke:none"
           y="10"
           xml:space="preserve"
           x="0">09/17-18/15</text>
      </g>
      <g
         id="g12299"
         style="font-style:normal;font-weight:normal;font-size:10px;font-family:'Helvetica Neue';color-interpolation:linearRGB;fill:#000000;fill-opacity:1;stroke:#000000;stroke-width:1;stroke-linecap:square;stroke-linejoin:miter;stroke-miterlimit:10;stroke-dasharray:none;stroke-dashoffset:0;stroke-opacity:1;color-rendering:optimizeQuality;image-rendering:optimizeQuality;shape-rendering:auto;text-rendering:geometricPrecision"
         transform="translate(408.31429,215.01934)">
        <text
           id="text12301"
           style="stroke:none"
           y="23"
           xml:space="preserve"
           x="0">~25uM NTF2-GFPcct1</text>
        <text
           id="text12303"
           style="stroke:none"
           y="36"
           xml:space="preserve"
           x="0">~25uM mCherry</text>
      </g>
    </g>
    <g
       transform="translate(-7.1656341,129.77385)"
       id="g15138">
      <text
         xml:space="preserve"
         style="font-style:normal;font-variant:normal;font-weight:normal;font-stretch:normal;font-size:9.4934206px;line-height:100%;font-family:'Minion Pro';-inkscape-font-specification:'Minion Pro, Normal';text-align:start;letter-spacing:0px;word-spacing:0px;writing-mode:lr-tb;text-anchor:start;fill:#000000;fill-opacity:1;stroke:none;stroke-width:1px;stroke-linecap:butt;stroke-linejoin:miter;stroke-opacity:1"
         x="303.89102"
         y="116.13731"
         id="text13597"><tspan
           id="tspan13599"
           x="303.89102"
           y="116.13731"
           style="font-size:13.29078865px">GFP-NTF2 (90 kD)</tspan></text>
      <text
         xml:space="preserve"
         style="font-style:normal;font-variant:normal;font-weight:normal;font-stretch:normal;font-size:9.4934206px;line-height:100%;font-family:'Minion Pro';-inkscape-font-specification:'Minion Pro, Normal';text-align:start;letter-spacing:0px;word-spacing:0px;writing-mode:lr-tb;text-anchor:start;fill:#000000;fill-opacity:1;stroke:none;stroke-width:1px;stroke-linecap:butt;stroke-linejoin:miter;stroke-opacity:1"
         x="303.82458"
         y="131.68016"
         id="text13601"><tspan
           id="tspan13603"
           x="303.82458"
           y="131.68016"
           style="font-size:13.29078865px">mCherry (30 kD)</tspan></text>
      <path
         style="fill:none;fill-rule:evenodd;stroke:#2dd284;stroke-width:2.27842093;stroke-linecap:butt;stroke-linejoin:miter;stroke-miterlimit:4;stroke-dasharray:none;stroke-opacity:1"
         d="m 279.43992,112.81461 c 16.25644,0 16.25644,0 16.25644,0"
         id="path13623" />
      <path
         id="path13625"
         d="m 279.43992,129.5204 c 16.25644,0 16.25644,0 16.25644,0"
         style="fill:none;fill-rule:evenodd;stroke:#a84949;stroke-width:2.27800012;stroke-linecap:butt;stroke-linejoin:miter;stroke-miterlimit:4;stroke-dasharray:none;stroke-opacity:1" />
    </g>
    <text
       id="text13649"
       y="132.2458"
       x="226.01843"
       style="font-style:normal;font-variant:normal;font-weight:normal;font-stretch:normal;font-size:9.4934206px;line-height:100%;font-family:'Minion Pro';-inkscape-font-specification:'Minion Pro, Normal';text-align:start;letter-spacing:0px;word-spacing:0px;writing-mode:lr-tb;text-anchor:start;fill:#000000;fill-opacity:1;stroke:none;stroke-width:1px;stroke-linecap:butt;stroke-linejoin:miter;stroke-opacity:1"
       xml:space="preserve"><tspan
         y="132.2458"
         x="226.01843"
         id="tspan13651"><tspan
           style="font-size:17.08815765px"
           id="tspan8366">Intensity profiles</tspan></tspan></text>
  </g>
</svg>
