<?xml version="1.0" encoding="UTF-8" standalone="no"?>
<svg
   xmlns:dc="http://purl.org/dc/elements/1.1/"
   xmlns:cc="http://creativecommons.org/ns#"
   xmlns:rdf="http://www.w3.org/1999/02/22-rdf-syntax-ns#"
   xmlns:svg="http://www.w3.org/2000/svg"
   xmlns="http://www.w3.org/2000/svg"
   width="210mm"
   height="297mm"
   viewBox="0 0 744.09448819 1052.3622047"
   id="svg19602"
   version="1.1">
  <defs
     id="defs19604">
    <defs
       id="defs1">
      <clipPath
         clipPathUnits="userSpaceOnUse"
         id="clipPath1">
        <path
           d="M 0,0 560,0 560,420 0,420 0,0 Z"
           id="path9522" />
      </clipPath>
    </defs>
  </defs>
  <metadata
     id="metadata19607">
    <rdf:RDF>
      <cc:Work
         rdf:about="">
        <dc:format>image/svg+xml</dc:format>
        <dc:type
           rdf:resource="http://purl.org/dc/dcmitype/StillImage" />
        <dc:title></dc:title>
      </cc:Work>
    </rdf:RDF>
  </metadata>
  <g
     transform="translate(15.649145,-413.30338)"
     id="g8152">
    <g
       id="g7539"
       style="font-style:normal;font-weight:normal;font-size:medium;font-family:Dialog;color-interpolation:linearRGB;fill:#262626;fill-opacity:1;stroke:#262626;stroke-width:0.5;stroke-linecap:square;stroke-linejoin:round;stroke-miterlimit:10;stroke-dasharray:none;stroke-dashoffset:0;stroke-opacity:1;color-rendering:optimizeQuality;image-rendering:optimizeQuality;shape-rendering:auto;text-rendering:geometricPrecision"
       transform="translate(67.171038,466.98352)">
      <line
         id="line7541"
         y1="374"
         x2="73"
         x1="73"
         style="fill:none"
         y2="31" />
      <line
         id="line7543"
         y1="374"
         x2="77.339996"
         x1="73"
         style="fill:none"
         y2="374" />
      <line
         id="line7545"
         y1="331.125"
         x2="77.339996"
         x1="73"
         style="fill:none"
         y2="331.125" />
      <line
         id="line7547"
         y1="288.25"
         x2="77.339996"
         x1="73"
         style="fill:none"
         y2="288.25" />
      <line
         id="line7549"
         y1="245.375"
         x2="77.339996"
         x1="73"
         style="fill:none"
         y2="245.375" />
      <line
         id="line7551"
         y1="202.5"
         x2="77.339996"
         x1="73"
         style="fill:none"
         y2="202.5" />
      <line
         id="line7553"
         y1="159.625"
         x2="77.339996"
         x1="73"
         style="fill:none"
         y2="159.625" />
      <line
         id="line7555"
         y1="116.75"
         x2="77.339996"
         x1="73"
         style="fill:none"
         y2="116.75" />
      <line
         id="line7557"
         y1="73.875"
         x2="77.339996"
         x1="73"
         style="fill:none"
         y2="73.875" />
      <line
         id="line7559"
         y1="31"
         x2="77.339996"
         x1="73"
         style="fill:none"
         y2="31" />
    </g>
    <g
       id="g7561"
       style="font-style:normal;font-weight:normal;font-size:18px;font-family:mwa_cmr10;color-interpolation:linearRGB;fill:#262626;fill-opacity:1;stroke:#262626;stroke-width:1;stroke-linecap:square;stroke-linejoin:miter;stroke-miterlimit:10;stroke-dasharray:none;stroke-dashoffset:0;stroke-opacity:1;color-rendering:optimizeQuality;image-rendering:optimizeQuality;shape-rendering:auto;text-rendering:geometricPrecision"
       transform="translate(134.57104,840.98352)">
      <path
         id="path7563"
         d="m -14.7969,0.9918 0,-1.125 4.7656,0 0,1.125 -4.7656,0 z"
         style="stroke:none" />
    </g>
    <g
       id="g7565"
       style="font-style:normal;font-weight:normal;font-size:18px;font-family:mwa_cmr10;color-interpolation:linearRGB;fill:#262626;fill-opacity:1;stroke:#262626;stroke-width:1;stroke-linecap:square;stroke-linejoin:miter;stroke-miterlimit:10;stroke-dasharray:none;stroke-dashoffset:0;stroke-opacity:1;color-rendering:optimizeQuality;image-rendering:optimizeQuality;shape-rendering:auto;text-rendering:geometricPrecision"
       transform="translate(134.57104,840.98352)">
      <path
         id="path7567"
         d="m -7.3282,4.3199 0,-0.6406 q 2.25,0 2.25,-0.5625 l 0,-9.4531 q -0.9375,0.4531 -2.3593,0.4531 l 0,-0.6406 q 2.2031,0 3.3281,-1.1406 l 0.2656,0 q 0.0625,0 0.1172,0.0468 0.0547,0.0469 0.0547,0.1094 l 0,10.625 q 0,0.5625 2.25,0.5625 l 0,0.6406 -5.9063,0 z"
         style="stroke:none" />
    </g>
    <g
       id="g7569"
       style="font-style:normal;font-weight:normal;font-size:18px;font-family:mwa_cmr10;color-interpolation:linearRGB;fill:#262626;fill-opacity:1;stroke:#262626;stroke-width:1;stroke-linecap:square;stroke-linejoin:miter;stroke-miterlimit:10;stroke-dasharray:none;stroke-dashoffset:0;stroke-opacity:1;color-rendering:optimizeQuality;image-rendering:optimizeQuality;shape-rendering:auto;text-rendering:geometricPrecision"
       transform="translate(134.57104,798.10852)">
      <path
         id="path7571"
         d="m -28.7969,0.9918 0,-1.125 4.7656,0 0,1.125 -4.7656,0 z"
         style="stroke:none" />
      <path
         id="path7573"
         d="m -18.5001,4.7106 q -2.2031,0 -3,-1.8125 -0.7968,-1.8125 -0.7968,-4.3125 0,-1.5625 0.289,-2.9454 0.2891,-1.3828 1.1328,-2.3437 0.8438,-0.9609 2.375,-0.9609 1.1875,0 1.9453,0.5781 0.7579,0.5781 1.1485,1.5 0.3906,0.9219 0.539,1.9687 0.1485,1.0469 0.1485,2.2032 0,1.5468 -0.2891,2.8906 -0.289,1.3437 -1.125,2.289 -0.8359,0.9454 -2.3672,0.9454 z m 0,-0.4688 q 1,0 1.4922,-1.0234 0.4922,-1.0235 0.6094,-2.2735 0.1172,-1.25 0.1172,-2.6562 0,-1.3594 -0.1172,-2.5 -0.1172,-1.1406 -0.6016,-2.0625 -0.4843,-0.9219 -1.5,-0.9219 -1.0156,0 -1.5078,0.9297 -0.4922,0.9297 -0.6094,2.0625 -0.1171,1.1328 -0.1171,2.4922 0,1 0.0468,1.8906 0.0469,0.8906 0.2578,1.8359 0.211,0.9454 0.6875,1.586 0.4766,0.6406 1.2422,0.6406 z"
         style="stroke:none" />
      <path
         id="path7575"
         d="m -12.4844,3.3199 q 0,-0.3906 0.2969,-0.6875 0.2968,-0.2968 0.6875,-0.2968 0.25,0 0.4843,0.1328 0.2344,0.1328 0.3672,0.375 0.1328,0.2422 0.1328,0.4765 0,0.4063 -0.289,0.7032 -0.2891,0.2968 -0.6953,0.2968 -0.3907,0 -0.6875,-0.2968 -0.2969,-0.2969 -0.2969,-0.7032 z"
         style="stroke:none" />
      <path
         id="path7577"
         d="m -7.4375,2.2731 q 0.1875,0.5312 0.5703,0.9609 0.3828,0.4297 0.9062,0.6719 0.5235,0.2422 1.086,0.2422 1.2968,0 1.789,-1.0157 0.4922,-1.0156 0.4922,-2.4531 0,-0.625 -0.0234,-1.0469 -0.0235,-0.4218 -0.1172,-0.8281 -0.1719,-0.625 -0.5859,-1.1016 -0.4141,-0.4765 -1.0235,-0.4765 -0.6094,0 -1.039,0.1875 -0.4297,0.1875 -0.7032,0.4297 -0.2734,0.2422 -0.4843,0.5156 -0.211,0.2734 -0.2735,0.2891 l -0.2031,0 q -0.0313,0 -0.1016,-0.0547 -0.0703,-0.0547 -0.0703,-0.1172 l 0,-6 q 0,-0.0469 0.0625,-0.0938 0.0625,-0.0468 0.1094,-0.0468 l 0.0625,0 q 1.2031,0.5781 2.5781,0.5781 1.3281,0 2.5625,-0.5781 l 0.0625,0 q 0.0625,0 0.1172,0.039 0.0547,0.0391 0.0547,0.1016 l 0,0.1562 q 0,0.0938 -0.0469,0.0938 -0.6094,0.8125 -1.539,1.2734 -0.9297,0.461 -1.9141,0.461 -0.7188,0 -1.4844,-0.2032 l 0,3.4063 Q -6,-2.8207 -5.5235,-3.0316 q 0.4766,-0.211 1.1953,-0.211 1,0 1.7891,0.5703 0.7891,0.5704 1.2109,1.4922 0.4219,0.9219 0.4219,1.875 0,1.0782 -0.539,2.0078 -0.5391,0.9297 -1.4532,1.4688 -0.914,0.5391 -1.9765,0.5391 -0.8907,0 -1.6328,-0.4532 Q -7.25,3.8043 -7.6797,3.0309 -8.1094,2.2574 -8.1094,1.3824 q 0,-0.4062 0.2656,-0.6562 0.2656,-0.25 0.6563,-0.25 0.4062,0 0.6718,0.2578 0.2657,0.2578 0.2657,0.6484 0,0.3907 -0.2657,0.6563 -0.2656,0.2656 -0.6718,0.2656 -0.0469,0 -0.1328,-0.0156 -0.086,-0.0156 -0.1172,-0.0156 z"
         style="stroke:none" />
    </g>
    <g
       id="g7579"
       style="font-style:normal;font-weight:normal;font-size:18px;font-family:mwa_cmr10;color-interpolation:linearRGB;fill:#262626;fill-opacity:1;stroke:#262626;stroke-width:1;stroke-linecap:square;stroke-linejoin:miter;stroke-miterlimit:10;stroke-dasharray:none;stroke-dashoffset:0;stroke-opacity:1;color-rendering:optimizeQuality;image-rendering:optimizeQuality;shape-rendering:auto;text-rendering:geometricPrecision"
       transform="translate(134.57104,755.23352)">
      <path
         id="path7581"
         d="m -4.5,4.7106 q -2.2032,0 -3,-1.8125 -0.7969,-1.8125 -0.7969,-4.3125 0,-1.5625 0.2891,-2.9454 0.289,-1.3828 1.1328,-2.3437 0.8437,-0.9609 2.375,-0.9609 1.1875,0 1.9453,0.5781 0.7578,0.5781 1.1484,1.5 0.3906,0.9219 0.5391,1.9687 0.1484,1.0469 0.1484,2.2032 0,1.5468 -0.289,2.8906 -0.2891,1.3437 -1.125,2.289 -0.836,0.9454 -2.3672,0.9454 z m 0,-0.4688 q 1,0 1.4922,-1.0234 0.4921,-1.0235 0.6093,-2.2735 0.1172,-1.25 0.1172,-2.6562 0,-1.3594 -0.1172,-2.5 Q -2.5157,-5.3519 -3,-6.2738 q -0.4844,-0.9219 -1.5,-0.9219 -1.0157,0 -1.5078,0.9297 -0.4922,0.9297 -0.6094,2.0625 -0.1172,1.1328 -0.1172,2.4922 0,1 0.0469,1.8906 0.0468,0.8906 0.2578,1.8359 0.2109,0.9454 0.6875,1.586 0.4765,0.6406 1.2422,0.6406 z"
         style="stroke:none" />
    </g>
    <g
       id="g7583"
       style="font-style:normal;font-weight:normal;font-size:18px;font-family:mwa_cmr10;color-interpolation:linearRGB;fill:#262626;fill-opacity:1;stroke:#262626;stroke-width:1;stroke-linecap:square;stroke-linejoin:miter;stroke-miterlimit:10;stroke-dasharray:none;stroke-dashoffset:0;stroke-opacity:1;color-rendering:optimizeQuality;image-rendering:optimizeQuality;shape-rendering:auto;text-rendering:geometricPrecision"
       transform="translate(134.57104,712.35852)">
      <path
         id="path7585"
         d="m -18.5001,4.7106 q -2.2031,0 -3,-1.8125 -0.7968,-1.8125 -0.7968,-4.3125 0,-1.5625 0.289,-2.9454 0.2891,-1.3828 1.1328,-2.3437 0.8438,-0.9609 2.375,-0.9609 1.1875,0 1.9453,0.5781 0.7579,0.5781 1.1485,1.5 0.3906,0.9219 0.539,1.9687 0.1485,1.0469 0.1485,2.2032 0,1.5468 -0.2891,2.8906 -0.289,1.3437 -1.125,2.289 -0.8359,0.9454 -2.3672,0.9454 z m 0,-0.4688 q 1,0 1.4922,-1.0234 0.4922,-1.0235 0.6094,-2.2735 0.1172,-1.25 0.1172,-2.6562 0,-1.3594 -0.1172,-2.5 -0.1172,-1.1406 -0.6016,-2.0625 -0.4843,-0.9219 -1.5,-0.9219 -1.0156,0 -1.5078,0.9297 -0.4922,0.9297 -0.6094,2.0625 -0.1171,1.1328 -0.1171,2.4922 0,1 0.0468,1.8906 0.0469,0.8906 0.2578,1.8359 0.211,0.9454 0.6875,1.586 0.4766,0.6406 1.2422,0.6406 z"
         style="stroke:none" />
      <path
         id="path7587"
         d="m -12.4844,3.3199 q 0,-0.3906 0.2969,-0.6875 0.2968,-0.2968 0.6875,-0.2968 0.25,0 0.4843,0.1328 0.2344,0.1328 0.3672,0.375 0.1328,0.2422 0.1328,0.4765 0,0.4063 -0.289,0.7032 -0.2891,0.2968 -0.6953,0.2968 -0.3907,0 -0.6875,-0.2968 -0.2969,-0.2969 -0.2969,-0.7032 z"
         style="stroke:none" />
      <path
         id="path7589"
         d="m -7.4375,2.2731 q 0.1875,0.5312 0.5703,0.9609 0.3828,0.4297 0.9062,0.6719 0.5235,0.2422 1.086,0.2422 1.2968,0 1.789,-1.0157 0.4922,-1.0156 0.4922,-2.4531 0,-0.625 -0.0234,-1.0469 -0.0235,-0.4218 -0.1172,-0.8281 -0.1719,-0.625 -0.5859,-1.1016 -0.4141,-0.4765 -1.0235,-0.4765 -0.6094,0 -1.039,0.1875 -0.4297,0.1875 -0.7032,0.4297 -0.2734,0.2422 -0.4843,0.5156 -0.211,0.2734 -0.2735,0.2891 l -0.2031,0 q -0.0313,0 -0.1016,-0.0547 -0.0703,-0.0547 -0.0703,-0.1172 l 0,-6 q 0,-0.0469 0.0625,-0.0938 0.0625,-0.0468 0.1094,-0.0468 l 0.0625,0 q 1.2031,0.5781 2.5781,0.5781 1.3281,0 2.5625,-0.5781 l 0.0625,0 q 0.0625,0 0.1172,0.039 0.0547,0.0391 0.0547,0.1016 l 0,0.1562 q 0,0.0938 -0.0469,0.0938 -0.6094,0.8125 -1.539,1.2734 -0.9297,0.461 -1.9141,0.461 -0.7188,0 -1.4844,-0.2032 l 0,3.4063 Q -6,-2.8207 -5.5235,-3.0316 q 0.4766,-0.211 1.1953,-0.211 1,0 1.7891,0.5703 0.7891,0.5704 1.2109,1.4922 0.4219,0.9219 0.4219,1.875 0,1.0782 -0.539,2.0078 -0.5391,0.9297 -1.4532,1.4688 -0.914,0.5391 -1.9765,0.5391 -0.8907,0 -1.6328,-0.4532 Q -7.25,3.8043 -7.6797,3.0309 -8.1094,2.2574 -8.1094,1.3824 q 0,-0.4062 0.2656,-0.6562 0.2656,-0.25 0.6563,-0.25 0.4062,0 0.6718,0.2578 0.2657,0.2578 0.2657,0.6484 0,0.3907 -0.2657,0.6563 -0.2656,0.2656 -0.6718,0.2656 -0.0469,0 -0.1328,-0.0156 -0.086,-0.0156 -0.1172,-0.0156 z"
         style="stroke:none" />
    </g>
    <g
       id="g7591"
       style="font-style:normal;font-weight:normal;font-size:18px;font-family:mwa_cmr10;color-interpolation:linearRGB;fill:#262626;fill-opacity:1;stroke:#262626;stroke-width:1;stroke-linecap:square;stroke-linejoin:miter;stroke-miterlimit:10;stroke-dasharray:none;stroke-dashoffset:0;stroke-opacity:1;color-rendering:optimizeQuality;image-rendering:optimizeQuality;shape-rendering:auto;text-rendering:geometricPrecision"
       transform="translate(134.57104,669.48352)">
      <path
         id="path7593"
         d="m -7.3282,4.3199 0,-0.6406 q 2.25,0 2.25,-0.5625 l 0,-9.4531 q -0.9375,0.4531 -2.3593,0.4531 l 0,-0.6406 q 2.2031,0 3.3281,-1.1406 l 0.2656,0 q 0.0625,0 0.1172,0.0468 0.0547,0.0469 0.0547,0.1094 l 0,10.625 q 0,0.5625 2.25,0.5625 l 0,0.6406 -5.9063,0 z"
         style="stroke:none" />
    </g>
    <g
       id="g7595"
       style="font-style:normal;font-weight:normal;font-size:18px;font-family:mwa_cmr10;color-interpolation:linearRGB;fill:#262626;fill-opacity:1;stroke:#262626;stroke-width:1;stroke-linecap:square;stroke-linejoin:miter;stroke-miterlimit:10;stroke-dasharray:none;stroke-dashoffset:0;stroke-opacity:1;color-rendering:optimizeQuality;image-rendering:optimizeQuality;shape-rendering:auto;text-rendering:geometricPrecision"
       transform="translate(134.57104,626.60852)">
      <path
         id="path7597"
         d="m -21.3282,4.3199 0,-0.6406 q 2.25,0 2.25,-0.5625 l 0,-9.4531 q -0.9375,0.4531 -2.3594,0.4531 l 0,-0.6406 q 2.2032,0 3.3282,-1.1406 l 0.2656,0 q 0.0625,0 0.1172,0.0468 0.0547,0.0469 0.0547,0.1094 l 0,10.625 q 0,0.5625 2.25,0.5625 l 0,0.6406 -5.9063,0 z"
         style="stroke:none" />
      <path
         id="path7599"
         d="m -12.4844,3.3199 q 0,-0.3906 0.2969,-0.6875 0.2968,-0.2968 0.6875,-0.2968 0.25,0 0.4843,0.1328 0.2344,0.1328 0.3672,0.375 0.1328,0.2422 0.1328,0.4765 0,0.4063 -0.289,0.7032 -0.2891,0.2968 -0.6953,0.2968 -0.3907,0 -0.6875,-0.2968 -0.2969,-0.2969 -0.2969,-0.7032 z"
         style="stroke:none" />
      <path
         id="path7601"
         d="m -7.4375,2.2731 q 0.1875,0.5312 0.5703,0.9609 0.3828,0.4297 0.9062,0.6719 0.5235,0.2422 1.086,0.2422 1.2968,0 1.789,-1.0157 0.4922,-1.0156 0.4922,-2.4531 0,-0.625 -0.0234,-1.0469 -0.0235,-0.4218 -0.1172,-0.8281 -0.1719,-0.625 -0.5859,-1.1016 -0.4141,-0.4765 -1.0235,-0.4765 -0.6094,0 -1.039,0.1875 -0.4297,0.1875 -0.7032,0.4297 -0.2734,0.2422 -0.4843,0.5156 -0.211,0.2734 -0.2735,0.2891 l -0.2031,0 q -0.0313,0 -0.1016,-0.0547 -0.0703,-0.0547 -0.0703,-0.1172 l 0,-6 q 0,-0.0469 0.0625,-0.0938 0.0625,-0.0468 0.1094,-0.0468 l 0.0625,0 q 1.2031,0.5781 2.5781,0.5781 1.3281,0 2.5625,-0.5781 l 0.0625,0 q 0.0625,0 0.1172,0.039 0.0547,0.0391 0.0547,0.1016 l 0,0.1562 q 0,0.0938 -0.0469,0.0938 -0.6094,0.8125 -1.539,1.2734 -0.9297,0.461 -1.9141,0.461 -0.7188,0 -1.4844,-0.2032 l 0,3.4063 Q -6,-2.8207 -5.5235,-3.0316 q 0.4766,-0.211 1.1953,-0.211 1,0 1.7891,0.5703 0.7891,0.5704 1.2109,1.4922 0.4219,0.9219 0.4219,1.875 0,1.0782 -0.539,2.0078 -0.5391,0.9297 -1.4532,1.4688 -0.914,0.5391 -1.9765,0.5391 -0.8907,0 -1.6328,-0.4532 Q -7.25,3.8043 -7.6797,3.0309 -8.1094,2.2574 -8.1094,1.3824 q 0,-0.4062 0.2656,-0.6562 0.2656,-0.25 0.6563,-0.25 0.4062,0 0.6718,0.2578 0.2657,0.2578 0.2657,0.6484 0,0.3907 -0.2657,0.6563 -0.2656,0.2656 -0.6718,0.2656 -0.0469,0 -0.1328,-0.0156 -0.086,-0.0156 -0.1172,-0.0156 z"
         style="stroke:none" />
    </g>
    <g
       id="g7603"
       style="font-style:normal;font-weight:normal;font-size:18px;font-family:mwa_cmr10;color-interpolation:linearRGB;fill:#262626;fill-opacity:1;stroke:#262626;stroke-width:1;stroke-linecap:square;stroke-linejoin:miter;stroke-miterlimit:10;stroke-dasharray:none;stroke-dashoffset:0;stroke-opacity:1;color-rendering:optimizeQuality;image-rendering:optimizeQuality;shape-rendering:auto;text-rendering:geometricPrecision"
       transform="translate(134.57104,583.73352)">
      <path
         id="path7605"
         d="m -8.1094,4.3199 0,-0.4843 q 0,-0.0469 0.0469,-0.0938 l 2.7968,-3.0937 q 0.625,-0.6875 1.0235,-1.1563 0.3984,-0.4687 0.7812,-1.0703 0.3828,-0.6016 0.6094,-1.2344 0.2266,-0.6328 0.2266,-1.3359 0,-0.7344 -0.2735,-1.4063 -0.2734,-0.6718 -0.8125,-1.0781 -0.539,-0.4062 -1.3047,-0.4062 -0.7812,0 -1.4062,0.4687 -0.625,0.4688 -0.875,1.2188 0.0625,-0.0157 0.1875,-0.0157 0.4062,0 0.6875,0.2735 0.2812,0.2734 0.2812,0.7109 0,0.4063 -0.2812,0.6953 -0.2813,0.2891 -0.6875,0.2891 -0.4219,0 -0.7109,-0.2969 -0.2891,-0.2969 -0.2891,-0.6875 0,-0.6875 0.2578,-1.2812 0.2578,-0.5938 0.7344,-1.0547 0.4765,-0.461 1.0781,-0.7032 0.6016,-0.2421 1.2891,-0.2421 1.0312,0 1.914,0.4296 0.8828,0.4297 1.4063,1.2266 0.5234,0.7969 0.5234,1.8594 0,0.7812 -0.3437,1.4844 -0.3438,0.7031 -0.8828,1.2812 -0.5391,0.5781 -1.375,1.3047 -0.836,0.7266 -1.1016,0.9766 l -2.0313,1.9687 1.7344,0 q 1.2656,0 2.125,-0.0234 0.8594,-0.0235 0.9063,-0.0703 0.2187,-0.2344 0.4375,-1.6563 l 0.5312,0 -0.5156,3.2031 -6.6875,0 z"
         style="stroke:none" />
    </g>
    <g
       id="g7607"
       style="font-style:normal;font-weight:normal;font-size:18px;font-family:mwa_cmr10;color-interpolation:linearRGB;fill:#262626;fill-opacity:1;stroke:#262626;stroke-width:1;stroke-linecap:square;stroke-linejoin:miter;stroke-miterlimit:10;stroke-dasharray:none;stroke-dashoffset:0;stroke-opacity:1;color-rendering:optimizeQuality;image-rendering:optimizeQuality;shape-rendering:auto;text-rendering:geometricPrecision"
       transform="translate(134.57104,540.85852)">
      <path
         id="path7609"
         d="m -22.1094,4.3199 0,-0.4843 q 0,-0.0469 0.0468,-0.0938 l 2.7969,-3.0937 q 0.625,-0.6875 1.0234,-1.1563 0.3985,-0.4687 0.7813,-1.0703 0.3828,-0.6016 0.6094,-1.2344 0.2265,-0.6328 0.2265,-1.3359 0,-0.7344 -0.2734,-1.4063 -0.2734,-0.6718 -0.8125,-1.0781 -0.5391,-0.4062 -1.3047,-0.4062 -0.7812,0 -1.4062,0.4687 -0.625,0.4688 -0.875,1.2188 0.0625,-0.0157 0.1875,-0.0157 0.4062,0 0.6875,0.2735 0.2812,0.2734 0.2812,0.7109 0,0.4063 -0.2812,0.6953 -0.2813,0.2891 -0.6875,0.2891 -0.4219,0 -0.711,-0.2969 -0.289,-0.2969 -0.289,-0.6875 0,-0.6875 0.2578,-1.2812 0.2578,-0.5938 0.7343,-1.0547 0.4766,-0.461 1.0782,-0.7032 0.6015,-0.2421 1.289,-0.2421 1.0313,0 1.9141,0.4296 0.8828,0.4297 1.4062,1.2266 0.5235,0.7969 0.5235,1.8594 0,0.7812 -0.3438,1.4844 -0.3437,0.7031 -0.8828,1.2812 -0.539,0.5781 -1.375,1.3047 -0.8359,0.7266 -1.1015,0.9766 l -2.0313,1.9687 1.7344,0 q 1.2656,0 2.125,-0.0234 0.8594,-0.0235 0.9062,-0.0703 0.2188,-0.2344 0.4375,-1.6563 l 0.5313,0 -0.5156,3.2031 -6.6875,0 z"
         style="stroke:none" />
      <path
         id="path7611"
         d="m -12.4844,3.3199 q 0,-0.3906 0.2969,-0.6875 0.2968,-0.2968 0.6875,-0.2968 0.25,0 0.4843,0.1328 0.2344,0.1328 0.3672,0.375 0.1328,0.2422 0.1328,0.4765 0,0.4063 -0.289,0.7032 -0.2891,0.2968 -0.6953,0.2968 -0.3907,0 -0.6875,-0.2968 -0.2969,-0.2969 -0.2969,-0.7032 z"
         style="stroke:none" />
      <path
         id="path7613"
         d="m -7.4375,2.2731 q 0.1875,0.5312 0.5703,0.9609 0.3828,0.4297 0.9062,0.6719 0.5235,0.2422 1.086,0.2422 1.2968,0 1.789,-1.0157 0.4922,-1.0156 0.4922,-2.4531 0,-0.625 -0.0234,-1.0469 -0.0235,-0.4218 -0.1172,-0.8281 -0.1719,-0.625 -0.5859,-1.1016 -0.4141,-0.4765 -1.0235,-0.4765 -0.6094,0 -1.039,0.1875 -0.4297,0.1875 -0.7032,0.4297 -0.2734,0.2422 -0.4843,0.5156 -0.211,0.2734 -0.2735,0.2891 l -0.2031,0 q -0.0313,0 -0.1016,-0.0547 -0.0703,-0.0547 -0.0703,-0.1172 l 0,-6 q 0,-0.0469 0.0625,-0.0938 0.0625,-0.0468 0.1094,-0.0468 l 0.0625,0 q 1.2031,0.5781 2.5781,0.5781 1.3281,0 2.5625,-0.5781 l 0.0625,0 q 0.0625,0 0.1172,0.039 0.0547,0.0391 0.0547,0.1016 l 0,0.1562 q 0,0.0938 -0.0469,0.0938 -0.6094,0.8125 -1.539,1.2734 -0.9297,0.461 -1.9141,0.461 -0.7188,0 -1.4844,-0.2032 l 0,3.4063 Q -6,-2.8207 -5.5235,-3.0316 q 0.4766,-0.211 1.1953,-0.211 1,0 1.7891,0.5703 0.7891,0.5704 1.2109,1.4922 0.4219,0.9219 0.4219,1.875 0,1.0782 -0.539,2.0078 -0.5391,0.9297 -1.4532,1.4688 -0.914,0.5391 -1.9765,0.5391 -0.8907,0 -1.6328,-0.4532 Q -7.25,3.8043 -7.6797,3.0309 -8.1094,2.2574 -8.1094,1.3824 q 0,-0.4062 0.2656,-0.6562 0.2656,-0.25 0.6563,-0.25 0.4062,0 0.6718,0.2578 0.2657,0.2578 0.2657,0.6484 0,0.3907 -0.2657,0.6563 -0.2656,0.2656 -0.6718,0.2656 -0.0469,0 -0.1328,-0.0156 -0.086,-0.0156 -0.1172,-0.0156 z"
         style="stroke:none" />
    </g>
    <g
       id="g7615"
       style="font-style:normal;font-weight:normal;font-size:18px;font-family:mwa_cmr10;color-interpolation:linearRGB;fill:#262626;fill-opacity:1;stroke:#262626;stroke-width:1;stroke-linecap:square;stroke-linejoin:miter;stroke-miterlimit:10;stroke-dasharray:none;stroke-dashoffset:0;stroke-opacity:1;color-rendering:optimizeQuality;image-rendering:optimizeQuality;shape-rendering:auto;text-rendering:geometricPrecision"
       transform="translate(134.57104,497.98352)">
      <path
         id="path7617"
         d="m -7.2813,2.9293 q 0.4219,0.6094 1.1328,0.9141 0.711,0.3047 1.5235,0.3047 1.0468,0 1.4843,-0.8907 0.4375,-0.8906 0.4375,-2.0312 0,-0.5156 -0.0859,-1.0235 -0.0859,-0.5078 -0.3125,-0.9453 -0.2266,-0.4375 -0.6094,-0.7031 -0.3828,-0.2656 -0.9297,-0.2656 l -1.1875,0 Q -6,-1.7113 -6,-1.8832 l 0,-0.1562 q 0,-0.1407 0.1718,-0.1407 l 0.9844,-0.0781 q 0.6406,0 1.0547,-0.4766 0.4141,-0.4765 0.6094,-1.1562 0.1953,-0.6797 0.1953,-1.2891 0,-0.8593 -0.4063,-1.414 -0.4062,-0.5547 -1.2343,-0.5547 -0.6875,0 -1.3125,0.2578 -0.625,0.2578 -0.9844,0.7891 0.0312,-0.0157 0.0547,-0.0157 0.0234,0 0.0703,0 0.4062,0 0.6719,0.2813 0.2656,0.2812 0.2656,0.6719 0,0.3906 -0.2656,0.6718 -0.2657,0.2813 -0.6719,0.2813 -0.4063,0 -0.6875,-0.2813 -0.2813,-0.2812 -0.2813,-0.6718 0,-0.7657 0.4688,-1.3438 0.4687,-0.5781 1.2031,-0.8672 0.7344,-0.289 1.4688,-0.289 0.5468,0 1.1562,0.164 0.6094,0.1641 1.1016,0.461 0.4922,0.2968 0.8047,0.7734 0.3125,0.4766 0.3125,1.0859 0,0.75 -0.3438,1.3907 -0.3437,0.6406 -0.9297,1.1093 -0.5859,0.4688 -1.289,0.7032 0.7812,0.1406 1.4843,0.5781 0.7032,0.4375 1.1329,1.125 0.4296,0.6875 0.4296,1.4844 0,0.9843 -0.5468,1.789 -0.5469,0.8047 -1.4375,1.2578 -0.8907,0.4532 -1.875,0.4532 -0.8438,0 -1.6875,-0.3204 Q -7.1563,4.0699 -7.7032,3.4293 -8.25,2.7887 -8.25,1.8981 q 0,-0.4532 0.3047,-0.75 0.3046,-0.2969 0.7421,-0.2969 0.2969,0 0.5391,0.1328 0.2422,0.1328 0.375,0.3828 0.1328,0.25 0.1328,0.5313 0,0.4375 -0.3047,0.7343 -0.3047,0.2969 -0.7422,0.2969 l -0.0781,0 z"
         style="stroke:none" />
    </g>
  </g>
  <line
     id="line19895"
     y1="427.82642"
     x2="474.77286"
     x1="155.8215"
     style="font-style:normal;font-weight:normal;font-size:medium;font-family:Dialog;color-interpolation:linearRGB;fill:none;fill-opacity:1;stroke:#262626;stroke-width:0.4287152;stroke-linecap:square;stroke-linejoin:round;stroke-miterlimit:10;stroke-dasharray:none;stroke-dashoffset:0;stroke-opacity:1;color-rendering:optimizeQuality;image-rendering:optimizeQuality;shape-rendering:auto;text-rendering:geometricPrecision"
     y2="427.82642" />
  <line
     id="line19897"
     y1="427.82642"
     x2="155.8215"
     x1="155.8215"
     style="font-style:normal;font-weight:normal;font-size:medium;font-family:Dialog;color-interpolation:linearRGB;fill:none;fill-opacity:1;stroke:#262626;stroke-width:0.4287152;stroke-linecap:square;stroke-linejoin:round;stroke-miterlimit:10;stroke-dasharray:none;stroke-dashoffset:0;stroke-opacity:1;color-rendering:optimizeQuality;image-rendering:optimizeQuality;shape-rendering:auto;text-rendering:geometricPrecision"
     y2="423.48477" />
  <line
     id="line19909"
     y1="427.82642"
     x2="474.77286"
     x1="474.77286"
     style="font-style:normal;font-weight:normal;font-size:medium;font-family:Dialog;color-interpolation:linearRGB;fill:none;fill-opacity:1;stroke:#262626;stroke-width:0.4287152;stroke-linecap:square;stroke-linejoin:round;stroke-miterlimit:10;stroke-dasharray:none;stroke-dashoffset:0;stroke-opacity:1;color-rendering:optimizeQuality;image-rendering:optimizeQuality;shape-rendering:auto;text-rendering:geometricPrecision"
     y2="423.48477" />
  <g
     transform="matrix(0.73491101,0,0,1.0003754,102.173,157.68601)"
     style="font-style:normal;font-weight:normal;font-size:medium;font-family:Dialog;color-interpolation:linearRGB;fill:#262626;fill-opacity:1;stroke:#262626;stroke-width:0.5;stroke-linecap:butt;stroke-linejoin:round;stroke-miterlimit:10;stroke-dasharray:none;stroke-dashoffset:0;stroke-opacity:1;color-rendering:optimizeQuality;image-rendering:optimizeQuality;shape-rendering:auto;text-rendering:geometricPrecision"
     id="g20053">
    <line
       y2="184.125"
       style="fill:none"
       x1="73"
       x2="507"
       y1="184.125"
       id="line20055" />
  </g>
  <g
     transform="translate(-44.63476,-413.79132)"
     id="g8545">
    <path
       style="font-style:normal;font-weight:normal;font-size:medium;font-family:Dialog;color-interpolation:sRGB;fill:#58a1e4;fill-opacity:1;stroke:none;stroke-width:1;stroke-linecap:square;stroke-linejoin:miter;stroke-miterlimit:10;stroke-dasharray:none;stroke-dashoffset:0;stroke-opacity:1;color-rendering:optimizeSpeed;image-rendering:optimizeSpeed;shape-rendering:crispEdges;text-rendering:optimizeSpeed"
       d="m 226.97104,755.23352 115.7333,0 0,-168.9275 -115.7333,0 z"
       id="path7683" />
    <g
       id="g8518"
       style="stroke-width:2;stroke-miterlimit:10;stroke-dasharray:none">
      <line
         id="line7693"
         y2="656.62103"
         style="font-style:normal;font-weight:normal;font-size:medium;font-family:Dialog;color-interpolation:linearRGB;fill:none;fill-opacity:1;stroke:#000000;stroke-width:2;stroke-linecap:butt;stroke-linejoin:round;stroke-miterlimit:10;stroke-dasharray:none;stroke-dashoffset:0;stroke-opacity:1;color-rendering:optimizeQuality;image-rendering:optimizeQuality;shape-rendering:auto;text-rendering:geometricPrecision"
         y1="586.30603"
         x2="284.83774"
         x1="284.83774" />
      <line
         id="line7697"
         y2="515.99103"
         style="font-style:normal;font-weight:normal;font-size:medium;font-family:Dialog;color-interpolation:linearRGB;fill:none;fill-opacity:1;stroke:#000000;stroke-width:2;stroke-linecap:butt;stroke-linejoin:round;stroke-miterlimit:10;stroke-dasharray:none;stroke-dashoffset:0;stroke-opacity:1;color-rendering:optimizeQuality;image-rendering:optimizeQuality;shape-rendering:auto;text-rendering:geometricPrecision"
         y1="586.30603"
         x2="284.83774"
         x1="284.83774" />
      <circle
         id="circle7701"
         cy="586.30603"
         cx="284.83774"
         r="1"
         style="font-style:normal;font-weight:normal;font-size:medium;font-family:Dialog;color-interpolation:linearRGB;fill:#000000;fill-opacity:1;stroke:none;stroke-width:2;stroke-linecap:butt;stroke-linejoin:round;stroke-miterlimit:10;stroke-dasharray:none;stroke-dashoffset:0;stroke-opacity:1;color-rendering:optimizeQuality;image-rendering:optimizeQuality;shape-rendering:auto;text-rendering:geometricPrecision" />
      <g
         style="font-style:normal;font-weight:normal;font-size:medium;font-family:Dialog;color-interpolation:linearRGB;fill:#000000;fill-opacity:1;stroke:#000000;stroke-width:2;stroke-linecap:square;stroke-linejoin:miter;stroke-miterlimit:10;stroke-dasharray:none;stroke-dashoffset:0;stroke-opacity:1;color-rendering:optimizeQuality;image-rendering:optimizeQuality;shape-rendering:auto;text-rendering:geometricPrecision"
         transform="translate(284.83774,656.62102)"
         id="g7707">
        <path
           style="stroke:none;stroke-width:2;stroke-miterlimit:10;stroke-dasharray:none"
           d="M -3,0 3,0"
           id="path7709" />
      </g>
      <g
         transform="translate(284.83774,656.62102)"
         style="font-style:normal;font-weight:normal;font-size:medium;font-family:Dialog;color-interpolation:linearRGB;fill:#000000;fill-opacity:1;stroke:#000000;stroke-width:2;stroke-linecap:butt;stroke-linejoin:miter;stroke-miterlimit:10;stroke-dasharray:none;stroke-dashoffset:0;stroke-opacity:1;color-rendering:optimizeQuality;image-rendering:optimizeQuality;shape-rendering:auto;text-rendering:geometricPrecision"
         id="g7711">
        <path
           style="fill:none;stroke-width:2;stroke-miterlimit:10;stroke-dasharray:none"
           d="M -3,0 3,0"
           id="path7713" />
      </g>
      <g
         style="font-style:normal;font-weight:normal;font-size:medium;font-family:Dialog;color-interpolation:linearRGB;fill:#000000;fill-opacity:1;stroke:#000000;stroke-width:2;stroke-linecap:square;stroke-linejoin:miter;stroke-miterlimit:10;stroke-dasharray:none;stroke-dashoffset:0;stroke-opacity:1;color-rendering:optimizeQuality;image-rendering:optimizeQuality;shape-rendering:auto;text-rendering:geometricPrecision"
         transform="translate(284.83774,515.99102)"
         id="g7723">
        <path
           style="stroke:none;stroke-width:2;stroke-miterlimit:10;stroke-dasharray:none"
           d="M -3,0 3,0"
           id="path7725" />
      </g>
      <g
         transform="translate(284.83774,515.99102)"
         style="font-style:normal;font-weight:normal;font-size:medium;font-family:Dialog;color-interpolation:linearRGB;fill:#000000;fill-opacity:1;stroke:#000000;stroke-width:2;stroke-linecap:butt;stroke-linejoin:miter;stroke-miterlimit:10;stroke-dasharray:none;stroke-dashoffset:0;stroke-opacity:1;color-rendering:optimizeQuality;image-rendering:optimizeQuality;shape-rendering:auto;text-rendering:geometricPrecision"
         id="g7727">
        <path
           style="fill:none;stroke-width:2;stroke-miterlimit:10;stroke-dasharray:none"
           d="M -3,0 3,0"
           id="path7729" />
      </g>
    </g>
  </g>
  <g
     transform="translate(313.80061,77.84078)"
     style="font-style:normal;font-weight:normal;font-size:20px;font-family:mwa_cmr10;color-interpolation:linearRGB;fill:#000000;fill-opacity:1;stroke:#000000;stroke-width:1;stroke-linecap:square;stroke-linejoin:miter;stroke-miterlimit:10;stroke-dasharray:none;stroke-dashoffset:0;stroke-opacity:1;color-rendering:optimizeQuality;image-rendering:optimizeQuality;shape-rendering:auto;text-rendering:geometricPrecision"
     id="g19995">
    <path
       style="stroke:none"
       d="m -145.6655,-7.1281 0,-0.7031 q 2.0625,0 2.0625,-0.6406 l 0,-10.9844 q 0,-0.625 -2.0625,-0.625 l 0,-0.7031 7.3437,0 q 1.0156,0 2.0547,0.3906 1.0391,0.3906 1.7187,1.1719 0.6797,0.7812 0.6797,1.8281 0,1.2188 -1,2.0469 -1,0.8281 -2.3437,1.0781 0.875,0 1.789,0.4766 0.9141,0.4765 1.5,1.2812 0.586,0.8047 0.586,1.6953 0,1.0938 -0.6485,1.9375 -0.6484,0.8438 -1.6796,1.2969 -1.0313,0.4531 -2.0782,0.4531 l -7.9218,0 z m 3.7968,-1.3437 q 0,0.4375 0.2422,0.539 0.2422,0.1016 0.7735,0.1016 l 2.5312,0 q 0.7813,0 1.4531,-0.4141 0.6719,-0.414 1.0625,-1.1015 0.3907,-0.6875 0.3907,-1.4688 0,-0.75 -0.3204,-1.4843 -0.3203,-0.7344 -0.9218,-1.2032 -0.6016,-0.4687 -1.3672,-0.4687 l -3.8438,0 0,5.5 z m 0,-6.0156 3,0 q 0.6094,0 1.1407,-0.2188 0.5312,-0.2187 0.9531,-0.6406 0.4219,-0.4219 0.6484,-0.9375 0.2266,-0.5156 0.2266,-1.1094 0,-0.5156 -0.1641,-0.9922 -0.164,-0.4765 -0.5,-0.8672 -0.3359,-0.3906 -0.7812,-0.6093 -0.4453,-0.2188 -0.9766,-0.2188 l -2.5312,0 q -0.3594,0 -0.5625,0.0234 -0.2032,0.0235 -0.3282,0.1641 -0.125,0.1406 -0.125,0.4375 l 0,4.9688 z"
       id="path19997" />
    <path
       style="stroke:none"
       d="m -127.328,-6.9093 q -1.2031,0 -2.2266,-0.6094 -1.0234,-0.6094 -1.6171,-1.6328 -0.5938,-1.0234 -0.5938,-2.2422 0,-0.9062 0.3281,-1.7578 0.3282,-0.8516 0.9375,-1.5234 0.6094,-0.6719 1.4141,-1.0469 0.8047,-0.375 1.7578,-0.375 1.2344,0 2.2422,0.6484 1.0078,0.6485 1.5937,1.7422 0.586,1.0938 0.586,2.3125 0,1.2031 -0.5938,2.2344 -0.5937,1.0312 -1.6172,1.6406 -1.0234,0.6094 -2.2109,0.6094 z m 0,-0.5781 q 1.6094,0 2.1406,-1.1641 0.5313,-1.1641 0.5313,-2.9609 0,-1 -0.1016,-1.6641 -0.1015,-0.6641 -0.4765,-1.1953 -0.2188,-0.3281 -0.5625,-0.5781 -0.3438,-0.25 -0.7344,-0.3829 -0.3906,-0.1328 -0.7969,-0.1328 -0.625,0 -1.1875,0.2813 -0.5625,0.2812 -0.9375,0.8125 -0.3594,0.5625 -0.4609,1.2422 -0.1016,0.6797 -0.1016,1.6172 0,1.125 0.1953,2.0156 0.1953,0.8906 0.7813,1.5 0.5859,0.6094 1.7109,0.6094 z"
       id="path19999" />
    <path
       style="stroke:none"
       d="m -120.2717,-9.5187 0,-4.4062 q 0,-0.5313 -0.1563,-0.7735 -0.1562,-0.2422 -0.4609,-0.2969 -0.3047,-0.0546 -0.9453,-0.0546 l 0,-0.7032 3.0312,-0.2187 0,6.4531 q 0,0.7813 0.1094,1.2188 0.1094,0.4375 0.4766,0.6562 0.3672,0.2188 1.164,0.2188 1.0782,0 1.711,-0.8985 0.6328,-0.8984 0.6328,-2.0547 l 0,-3.5468 q 0,-0.5313 -0.1641,-0.7735 -0.164,-0.2422 -0.4609,-0.2969 -0.2969,-0.0546 -0.9375,-0.0546 l 0,-0.7032 3.0312,-0.2187 0,7.0312 q 0,0.5157 0.1563,0.7578 0.1562,0.2422 0.4609,0.2969 0.3047,0.0547 0.9453,0.0547 l 0,0.7031 -2.9687,0.2188 0,-1.6875 q -0.375,0.75 -1.0391,1.2187 -0.664,0.4688 -1.4609,0.4688 -1.4375,0 -2.2813,-0.6094 -0.8437,-0.6094 -0.8437,-2 z"
       id="path20001" />
    <path
       style="stroke:none"
       d="m -110.8342,-7.1281 0,-0.7031 q 0.6875,0 1.125,-0.1094 0.4375,-0.1093 0.4375,-0.5312 l 0,-5.4531 q 0,-0.5313 -0.1562,-0.7735 -0.1563,-0.2422 -0.461,-0.2969 -0.3047,-0.0546 -0.9453,-0.0546 l 0,-0.7032 2.9063,-0.2187 0,1.9531 q 0.3906,-0.8594 1.1797,-1.4062 0.789,-0.5469 1.7109,-0.5469 1.3906,0 2.0937,0.664 0.7032,0.6641 0.7032,2.0391 l 0,4.7969 q 0,0.4219 0.4375,0.5312 0.4375,0.1094 1.125,0.1094 l 0,0.7031 -4.5938,0 0,-0.7031 q 0.6875,0 1.125,-0.1094 0.4375,-0.1093 0.4375,-0.5312 l 0,-4.7344 q 0,-0.9844 -0.2812,-1.6172 -0.2813,-0.6328 -1.1563,-0.6328 -1.1562,0 -1.9062,0.9297 -0.75,0.9297 -0.75,2.1172 l 0,3.9375 q 0,0.4219 0.4375,0.5312 0.4375,0.1094 1.1093,0.1094 l 0,0.7031 -4.5781,0 z"
       id="path20003" />
    <path
       style="stroke:none"
       d="m -95.5373,-6.9093 q -1.1875,0 -2.164,-0.6406 -0.9766,-0.6407 -1.5157,-1.6797 -0.539,-1.0391 -0.539,-2.211 0,-1.2187 0.5859,-2.2578 0.586,-1.039 1.6016,-1.6562 1.0156,-0.6172 2.2344,-0.6172 0.7343,0 1.3906,0.3125 0.6562,0.3125 1.1406,0.8594 l 0,-4.1719 q 0,-0.5313 -0.1641,-0.7735 -0.164,-0.2421 -0.4609,-0.289 -0.2969,-0.0469 -0.9375,-0.0469 l 0,-0.7031 2.9688,-0.2188 0,12.0625 q 0,0.5157 0.1562,0.7578 0.1563,0.2422 0.4531,0.2969 0.2969,0.0547 0.9375,0.0547 l 0,0.7031 -3.0156,0.2188 0,-1.25 q -0.5156,0.5937 -1.2344,0.9219 -0.7187,0.3281 -1.4375,0.3281 z m -2.0468,-1.9531 q 0.3437,0.6562 0.914,1.0468 0.5703,0.3907 1.2422,0.3907 0.8281,0 1.5234,-0.4844 0.6954,-0.4844 1.0391,-1.2344 l 0,-4.7969 q -0.2344,-0.4375 -0.5937,-0.789 -0.3594,-0.3516 -0.8047,-0.5391 -0.4453,-0.1875 -0.9453,-0.1875 -1.0313,0 -1.6719,0.5938 -0.6406,0.5937 -0.8906,1.5156 -0.25,0.9219 -0.25,1.9219 0,0.7968 0.0781,1.3906 0.0781,0.5937 0.3594,1.1719 z"
       id="path20005" />
    <path
       style="stroke:none"
       d="m -77.9372,-6.9093 q -1.1875,0 -2.1641,-0.6406 -0.9766,-0.6407 -1.5156,-1.6797 -0.5391,-1.0391 -0.5391,-2.211 0,-1.2187 0.5859,-2.2578 0.586,-1.039 1.6016,-1.6562 1.0156,-0.6172 2.2344,-0.6172 0.7344,0 1.3906,0.3125 0.6563,0.3125 1.1406,0.8594 l 0,-4.1719 q 0,-0.5313 -0.164,-0.7735 -0.1641,-0.2421 -0.461,-0.289 -0.2968,-0.0469 -0.9375,-0.0469 l 0,-0.7031 2.9688,-0.2188 0,12.0625 q 0,0.5157 0.1562,0.7578 0.1563,0.2422 0.4532,0.2969 0.2968,0.0547 0.9375,0.0547 l 0,0.7031 -3.0157,0.2188 0,-1.25 q -0.5156,0.5937 -1.2343,0.9219 -0.7188,0.3281 -1.4375,0.3281 z m -2.0469,-1.9531 q 0.3437,0.6562 0.914,1.0468 0.5704,0.3907 1.2422,0.3907 0.8282,0 1.5235,-0.4844 0.6953,-0.4844 1.039,-1.2344 l 0,-4.7969 q -0.2343,-0.4375 -0.5937,-0.789 -0.3594,-0.3516 -0.8047,-0.5391 -0.4453,-0.1875 -0.9453,-0.1875 -1.0313,0 -1.6719,0.5938 -0.6406,0.5937 -0.8906,1.5156 -0.25,0.9219 -0.25,1.9219 0,0.7968 0.0781,1.3906 0.0781,0.5937 0.3594,1.1719 z"
       id="path20007" />
    <path
       style="stroke:none"
       d="m -71.2185,-7.1281 0,-0.7031 q 0.6875,0 1.125,-0.1094 0.4375,-0.1093 0.4375,-0.5312 l 0,-5.4531 q 0,-0.7657 -0.2968,-0.9454 -0.2969,-0.1796 -1.1719,-0.1796 l 0,-0.7032 2.875,-0.2187 0,7.5 q 0,0.4219 0.3828,0.5312 0.3828,0.1094 1.0234,0.1094 l 0,0.7031 -4.375,0 z m 0.8594,-12.2812 q 0,-0.4375 0.3281,-0.7656 0.3282,-0.3282 0.7657,-0.3282 0.2812,0 0.5468,0.1407 0.2657,0.1406 0.4063,0.4062 0.1406,0.2656 0.1406,0.5469 0,0.4375 -0.3281,0.7656 -0.3281,0.3281 -0.7656,0.3281 -0.4375,0 -0.7657,-0.3281 -0.3281,-0.3281 -0.3281,-0.7656 z"
       id="path20009" />
    <path
       style="stroke:none"
       d="m -65.8122,-7.1281 0,-0.7031 q 0.6875,0 1.125,-0.1094 0.4375,-0.1093 0.4375,-0.5312 l 0,-6.5781 -1.5469,0 0,-0.7032 1.5469,0 0,-2.3906 q 0,-0.75 0.4297,-1.3437 0.4297,-0.5938 1.0859,-0.9766 0.6563,-0.3828 1.4297,-0.5781 0.7735,-0.1953 1.4766,-0.1953 0.625,0 1.2109,0.2109 0.586,0.2109 0.9141,0.6484 0.9531,-0.8593 2.25,-0.8593 0.6719,0 1.2187,0.4062 0.5469,0.4063 0.5469,1.0625 0,0.3906 -0.2578,0.6484 -0.2578,0.2579 -0.6484,0.2579 -0.375,0 -0.6407,-0.2579 -0.2656,-0.2578 -0.2656,-0.6484 0,-0.625 0.5313,-0.8437 -0.3282,-0.0938 -0.5782,-0.0938 -0.5781,0 -1,0.4063 -0.4218,0.4062 -0.6328,1.0078 -0.2109,0.6015 -0.2109,1.1797 l 0,2.3593 2.3281,0 0,0.7032 -2.2656,0 0,6.5781 q 0,0.4219 0.5859,0.5312 0.586,0.1094 1.3516,0.1094 l 0,0.7031 -4.9063,0 0,-0.7031 q 0.6875,0 1.125,-0.1094 0.4375,-0.1093 0.4375,-0.5312 l 0,-6.5781 -4.1093,0 0,6.5781 q 0,0.4219 0.4375,0.5312 0.4375,0.1094 1.125,0.1094 l 0,0.7031 -4.5313,0 z m 2.9063,-8.625 4.1718,0 0,-2.3906 q 0,-0.1719 0.0469,-0.5156 -0.5469,-0.25 -0.5469,-0.8281 0,-0.3282 0.1875,-0.5704 0.1875,-0.2421 0.5,-0.3203 -0.5625,-0.3281 -1.4375,-0.3281 -0.7343,0 -1.414,0.3359 -0.6797,0.336 -1.0938,0.9375 -0.414,0.6016 -0.414,1.3204 l 0,2.3593 z"
       id="path20011" />
    <path
       style="stroke:none"
       d="m -52.6215,-9.5187 0,-4.4062 q 0,-0.5313 -0.1563,-0.7735 -0.1562,-0.2422 -0.4609,-0.2969 -0.3047,-0.0546 -0.9453,-0.0546 l 0,-0.7032 3.0312,-0.2187 0,6.4531 q 0,0.7813 0.1094,1.2188 0.1094,0.4375 0.4766,0.6562 0.3672,0.2188 1.164,0.2188 1.0782,0 1.711,-0.8985 0.6328,-0.8984 0.6328,-2.0547 l 0,-3.5468 q 0,-0.5313 -0.1641,-0.7735 -0.164,-0.2422 -0.4609,-0.2969 -0.2969,-0.0546 -0.9375,-0.0546 l 0,-0.7032 3.0312,-0.2187 0,7.0312 q 0,0.5157 0.1563,0.7578 0.1562,0.2422 0.4609,0.2969 0.3047,0.0547 0.9453,0.0547 l 0,0.7031 -2.9687,0.2188 0,-1.6875 q -0.375,0.75 -1.0391,1.2187 -0.664,0.4688 -1.4609,0.4688 -1.4375,0 -2.2813,-0.6094 -0.8437,-0.6094 -0.8437,-2 z"
       id="path20013" />
    <path
       style="stroke:none"
       d="m -43.1059,-7.0656 0,-3.2656 q 0,-0.1562 0.1719,-0.1562 l 0.2344,0 q 0.125,0 0.1562,0.1562 0.5625,2.9063 2.7032,2.9063 0.9531,0 1.5859,-0.4297 0.6328,-0.4297 0.6328,-1.336 0,-0.6406 -0.4922,-1.0937 -0.4922,-0.4531 -1.1797,-0.625 l -1.3437,-0.2656 q -0.6719,-0.1407 -1.2188,-0.4454 -0.5468,-0.3046 -0.8984,-0.8046 -0.3516,-0.5 -0.3516,-1.1719 0,-0.875 0.461,-1.4375 0.4609,-0.5625 1.2031,-0.8125 0.7422,-0.25 1.6016,-0.25 1.0312,0 1.7812,0.5469 l 0.5781,-0.5 q 0,-0.0469 0.0938,-0.0469 l 0.1562,0 q 0.0625,0 0.1094,0.0547 0.0469,0.0547 0.0469,0.1172 l 0,2.6093 q 0,0.1875 -0.1563,0.1875 l -0.25,0 q -0.1718,0 -0.1718,-0.1875 0,-1.0468 -0.5782,-1.6797 -0.5781,-0.6328 -1.625,-0.6328 -0.9062,0 -1.5625,0.336 -0.6562,0.3359 -0.6562,1.1484 0,0.5469 0.4687,0.9063 0.4688,0.3593 1.1094,0.5156 l 1.3594,0.25 q 0.6875,0.1562 1.2734,0.5312 0.586,0.375 0.9375,0.9375 0.3516,0.5625 0.3516,1.2813 0,0.7187 -0.25,1.25 -0.25,0.5312 -0.6953,0.8828 -0.4453,0.3516 -1.0547,0.5156 -0.6094,0.1641 -1.2656,0.1641 -1.25,0 -2.1407,-0.8281 l -0.7343,0.7812 q 0,0.0469 -0.1094,0.0469 l -0.1094,0 q -0.1719,0 -0.1719,-0.1563 z"
       id="path20015" />
    <path
       style="stroke:none"
       d="m -35.3584,-7.1281 0,-0.7031 q 0.6875,0 1.125,-0.1094 0.4375,-0.1093 0.4375,-0.5312 l 0,-5.4531 q 0,-0.7657 -0.2968,-0.9454 -0.2969,-0.1796 -1.1719,-0.1796 l 0,-0.7032 2.875,-0.2187 0,7.5 q 0,0.4219 0.3828,0.5312 0.3828,0.1094 1.0234,0.1094 l 0,0.7031 -4.375,0 z m 0.8594,-12.2812 q 0,-0.4375 0.3281,-0.7656 0.3282,-0.3282 0.7657,-0.3282 0.2812,0 0.5468,0.1407 0.2657,0.1406 0.4063,0.4062 0.1406,0.2656 0.1406,0.5469 0,0.4375 -0.3281,0.7656 -0.3281,0.3281 -0.7656,0.3281 -0.4375,0 -0.7657,-0.3281 -0.3281,-0.3281 -0.3281,-0.7656 z"
       id="path20017" />
    <path
       style="stroke:none"
       d="m -25.4677,-6.9093 q -1.2032,0 -2.2266,-0.6094 -1.0234,-0.6094 -1.6172,-1.6328 -0.5937,-1.0234 -0.5937,-2.2422 0,-0.9062 0.3281,-1.7578 0.3281,-0.8516 0.9375,-1.5234 0.6094,-0.6719 1.4141,-1.0469 0.8046,-0.375 1.7578,-0.375 1.2343,0 2.2422,0.6484 1.0078,0.6485 1.5937,1.7422 0.5859,1.0938 0.5859,2.3125 0,1.2031 -0.5937,2.2344 -0.5938,1.0312 -1.6172,1.6406 -1.0234,0.6094 -2.2109,0.6094 z m 0,-0.5781 q 1.6093,0 2.1406,-1.1641 0.5312,-1.1641 0.5312,-2.9609 0,-1 -0.1015,-1.6641 -0.1016,-0.6641 -0.4766,-1.1953 -0.2187,-0.3281 -0.5625,-0.5781 -0.3437,-0.25 -0.7344,-0.3829 -0.3906,-0.1328 -0.7968,-0.1328 -0.625,0 -1.1875,0.2813 -0.5625,0.2812 -0.9375,0.8125 -0.3594,0.5625 -0.461,1.2422 -0.1015,0.6797 -0.1015,1.6172 0,1.125 0.1953,2.0156 0.1953,0.8906 0.7812,1.5 0.586,0.6094 1.711,0.6094 z"
       id="path20019" />
    <path
       style="stroke:none"
       d="m -19.9739,-7.1281 0,-0.7031 q 0.6875,0 1.125,-0.1094 0.4375,-0.1093 0.4375,-0.5312 l 0,-5.4531 q 0,-0.5313 -0.1563,-0.7735 -0.1562,-0.2422 -0.4609,-0.2969 -0.3047,-0.0546 -0.9453,-0.0546 l 0,-0.7032 2.9062,-0.2187 0,1.9531 q 0.3906,-0.8594 1.1797,-1.4062 0.7891,-0.5469 1.7109,-0.5469 1.3907,0 2.0938,0.664 0.7031,0.6641 0.7031,2.0391 l 0,4.7969 q 0,0.4219 0.4375,0.5312 0.4375,0.1094 1.125,0.1094 l 0,0.7031 -4.5937,0 0,-0.7031 q 0.6875,0 1.125,-0.1094 0.4375,-0.1093 0.4375,-0.5312 l 0,-4.7344 q 0,-0.9844 -0.2813,-1.6172 -0.2812,-0.6328 -1.1562,-0.6328 -1.1563,0 -1.9063,0.9297 -0.75,0.9297 -0.75,2.1172 l 0,3.9375 q 0,0.4219 0.4375,0.5312 0.4375,0.1094 1.1094,0.1094 l 0,0.7031 -4.5781,0 z"
       id="path20021" />
    <path
       style="stroke:none"
       d="m 2.0167,-6.9093 q -1.2187,0 -2.2031,-0.625 -0.9844,-0.625 -1.5469,-1.6797 -0.5625,-1.0547 -0.5625,-2.2266 0,-1.1875 0.5547,-2.2734 0.5547,-1.0859 1.5469,-1.7344 0.9922,-0.6484 2.2109,-0.6484 1.1719,0 2.1328,0.4609 0.961,0.461 0.961,1.5078 0,0.3907 -0.2813,0.6797 -0.2812,0.2891 -0.6719,0.2891 -0.4062,0 -0.6875,-0.2891 -0.2812,-0.289 -0.2812,-0.6797 0,-0.3593 0.2265,-0.6172 0.2266,-0.2578 0.5547,-0.3203 -0.6875,-0.4375 -1.9375,-0.4375 -0.9531,0 -1.539,0.6328 -0.586,0.6329 -0.8203,1.5704 -0.2344,0.9375 -0.2344,1.8593 0,0.9688 0.289,1.8672 0.2891,0.8985 0.9297,1.4922 0.6407,0.5938 1.5938,0.5938 0.9531,0 1.6172,-0.586 0.664,-0.5859 0.914,-1.5234 0,-0.1094 0.1563,-0.1094 l 0.2344,0 q 0.0625,0 0.1093,0.0547 0.0469,0.0547 0.0469,0.1172 l 0,0.0625 q -0.2969,1.1875 -1.1953,1.875 -0.8984,0.6875 -2.1172,0.6875 z"
       id="path20023" />
    <path
       style="stroke:none"
       d="m 10.8323,-6.9093 q -1.2031,0 -2.2265,-0.6094 -1.0235,-0.6094 -1.6172,-1.6328 -0.5938,-1.0234 -0.5938,-2.2422 0,-0.9062 0.3281,-1.7578 0.3282,-0.8516 0.9375,-1.5234 0.6094,-0.6719 1.4141,-1.0469 0.8047,-0.375 1.7578,-0.375 1.2344,0 2.2422,0.6484 1.0078,0.6485 1.5938,1.7422 0.5859,1.0938 0.5859,2.3125 0,1.2031 -0.5938,2.2344 -0.5937,1.0312 -1.6171,1.6406 -1.0235,0.6094 -2.211,0.6094 z m 0,-0.5781 q 1.6094,0 2.1406,-1.1641 0.5313,-1.1641 0.5313,-2.9609 0,-1 -0.1016,-1.6641 -0.1015,-0.6641 -0.4765,-1.1953 -0.2188,-0.3281 -0.5625,-0.5781 -0.3438,-0.25 -0.7344,-0.3829 -0.3906,-0.1328 -0.7969,-0.1328 -0.625,0 -1.1875,0.2813 -0.5625,0.2812 -0.9375,0.8125 -0.3594,0.5625 -0.4609,1.2422 -0.1016,0.6797 -0.1016,1.6172 0,1.125 0.1953,2.0156 0.1953,0.8906 0.7813,1.5 0.5859,0.6094 1.7109,0.6094 z"
       id="path20025" />
    <path
       style="stroke:none"
       d="m 16.3261,-7.1281 0,-0.7031 q 0.6875,0 1.125,-0.1094 0.4375,-0.1093 0.4375,-0.5312 l 0,-5.4531 q 0,-0.5313 -0.1562,-0.7735 -0.1563,-0.2422 -0.461,-0.2969 -0.3047,-0.0546 -0.9453,-0.0546 l 0,-0.7032 2.9063,-0.2187 0,1.9531 q 0.3906,-0.8594 1.1796,-1.4062 0.7891,-0.5469 1.711,-0.5469 1.3906,0 2.0937,0.664 0.7032,0.6641 0.7032,2.0391 l 0,4.7969 q 0,0.4219 0.4375,0.5312 0.4375,0.1094 1.125,0.1094 l 0,0.7031 -4.5938,0 0,-0.7031 q 0.6875,0 1.125,-0.1094 0.4375,-0.1093 0.4375,-0.5312 l 0,-4.7344 q 0,-0.9844 -0.2812,-1.6172 -0.2813,-0.6328 -1.1563,-0.6328 -1.1562,0 -1.9062,0.9297 -0.75,0.9297 -0.75,2.1172 l 0,3.9375 q 0,0.4219 0.4375,0.5312 0.4375,0.1094 1.1093,0.1094 l 0,0.7031 -4.5781,0 z"
       id="path20027" />
    <path
       style="stroke:none"
       d="m 27.4043,-7.0656 0,-3.2656 q 0,-0.1562 0.1718,-0.1562 l 0.2344,0 q 0.125,0 0.1563,0.1562 0.5625,2.9063 2.7031,2.9063 0.9531,0 1.5859,-0.4297 0.6328,-0.4297 0.6328,-1.336 0,-0.6406 -0.4922,-1.0937 -0.4921,-0.4531 -1.1796,-0.625 l -1.3438,-0.2656 q -0.6719,-0.1407 -1.2187,-0.4454 -0.5469,-0.3046 -0.8985,-0.8046 -0.3515,-0.5 -0.3515,-1.1719 0,-0.875 0.4609,-1.4375 0.4609,-0.5625 1.2031,-0.8125 0.7422,-0.25 1.6016,-0.25 1.0312,0 1.7812,0.5469 l 0.5782,-0.5 q 0,-0.0469 0.0937,-0.0469 l 0.1563,0 q 0.0625,0 0.1093,0.0547 0.0469,0.0547 0.0469,0.1172 l 0,2.6093 q 0,0.1875 -0.1562,0.1875 l -0.25,0 q -0.1719,0 -0.1719,-0.1875 0,-1.0468 -0.5781,-1.6797 -0.5782,-0.6328 -1.625,-0.6328 -0.9063,0 -1.5625,0.336 -0.6563,0.3359 -0.6563,1.1484 0,0.5469 0.4688,0.9063 0.4687,0.3593 1.1093,0.5156 l 1.3594,0.25 q 0.6875,0.1562 1.2734,0.5312 0.586,0.375 0.9375,0.9375 0.3516,0.5625 0.3516,1.2813 0,0.7187 -0.25,1.25 -0.25,0.5312 -0.6953,0.8828 -0.4453,0.3516 -1.0547,0.5156 -0.6094,0.1641 -1.2656,0.1641 -1.25,0 -2.1406,-0.8281 l -0.7344,0.7812 q 0,0.0469 -0.1094,0.0469 l -0.1094,0 q -0.1718,0 -0.1718,-0.1563 z"
       id="path20029" />
    <path
       style="stroke:none"
       d="m 36.5893,-9.5343 0,-5.5156 -1.6719,0 0,-0.5157 q 1.3125,0 1.9297,-1.2187 0.6172,-1.2188 0.6172,-2.6563 l 0.5781,0 0,3.6875 2.8125,0 0,0.7032 -2.8125,0 0,5.4843 q 0,0.8282 0.2734,1.4532 0.2735,0.625 1.0078,0.625 0.6719,0 0.9766,-0.6641 0.3047,-0.6641 0.3047,-1.4141 l 0,-1.1875 0.5781,0 0,1.2188 q 0,0.625 -0.2266,1.2344 -0.2265,0.6093 -0.6796,1 -0.4532,0.3906 -1.0938,0.3906 -1.2031,0 -1.8984,-0.7188 -0.6953,-0.7187 -0.6953,-1.9062 z"
       id="path20031" />
    <path
       style="stroke:none"
       d="m 43.0393,-9.0968 q 0,-1.1875 0.9375,-1.9375 0.9375,-0.75 2.25,-1.0547 1.3125,-0.3047 2.5,-0.3047 l 0,-0.8125 q 0,-0.5781 -0.25,-1.125 -0.25,-0.5469 -0.7344,-0.8906 -0.4844,-0.3438 -1.0625,-0.3438 -1.3281,0 -2.0156,0.5938 0.375,0 0.625,0.289 0.25,0.2891 0.25,0.6641 0,0.4063 -0.2813,0.6875 -0.2812,0.2813 -0.6718,0.2813 -0.4063,0 -0.6875,-0.2813 -0.2813,-0.2812 -0.2813,-0.6875 0,-1.0469 0.9609,-1.5625 0.961,-0.5156 2.1016,-0.5156 0.8125,0 1.6328,0.3515 0.8203,0.3516 1.3438,0.9922 0.5234,0.6407 0.5234,1.5 l 0,4.5 q 0,0.3907 0.1641,0.7188 0.164,0.3281 0.5234,0.3281 0.3281,0 0.4922,-0.3281 0.1641,-0.3281 0.1641,-0.7188 l 0,-1.2812 0.5781,0 0,1.2812 q 0,0.4532 -0.2344,0.8594 -0.2344,0.4063 -0.625,0.6484 -0.3906,0.2422 -0.8594,0.2422 -0.5781,0 -1.0078,-0.4609 -0.4297,-0.4609 -0.4765,-1.0859 -0.3594,0.75 -1.086,1.1953 -0.7265,0.4453 -1.539,0.4453 -0.7657,0 -1.5079,-0.2188 -0.7421,-0.2187 -1.2343,-0.7031 -0.4922,-0.4844 -0.4922,-1.2656 z m 1.625,0 q 0,0.7031 0.5156,1.1875 0.5156,0.4844 1.2188,0.4844 0.6562,0 1.1796,-0.3282 0.5235,-0.3281 0.836,-0.8828 0.3125,-0.5547 0.3125,-1.164 l 0,-2.0782 q -0.9063,0 -1.8594,0.2969 -0.9531,0.2969 -1.5781,0.9297 -0.625,0.6328 -0.625,1.5547 z"
       id="path20033" />
    <path
       style="stroke:none"
       d="m 52.7362,-7.1281 0,-0.7031 q 0.6875,0 1.125,-0.1094 0.4375,-0.1093 0.4375,-0.5312 l 0,-5.4531 q 0,-0.5313 -0.1563,-0.7735 -0.1562,-0.2422 -0.4609,-0.2969 -0.3047,-0.0546 -0.9453,-0.0546 l 0,-0.7032 2.9062,-0.2187 0,1.9531 q 0.3907,-0.8594 1.1797,-1.4062 0.7891,-0.5469 1.711,-0.5469 1.3906,0 2.0937,0.664 0.7031,0.6641 0.7031,2.0391 l 0,4.7969 q 0,0.4219 0.4375,0.5312 0.4375,0.1094 1.125,0.1094 l 0,0.7031 -4.5937,0 0,-0.7031 q 0.6875,0 1.125,-0.1094 0.4375,-0.1093 0.4375,-0.5312 l 0,-4.7344 q 0,-0.9844 -0.2813,-1.6172 -0.2812,-0.6328 -1.1562,-0.6328 -1.1563,0 -1.9063,0.9297 -0.75,0.9297 -0.75,2.1172 l 0,3.9375 q 0,0.4219 0.4375,0.5312 0.4375,0.1094 1.1094,0.1094 l 0,0.7031 -4.5781,0 z"
       id="path20035" />
    <path
       style="stroke:none"
       d="m 64.6393,-9.5343 0,-5.5156 -1.6719,0 0,-0.5157 q 1.3126,0 1.9297,-1.2187 0.6172,-1.2188 0.6172,-2.6563 l 0.5782,0 0,3.6875 2.8125,0 0,0.7032 -2.8125,0 0,5.4843 q 0,0.8282 0.2734,1.4532 0.2734,0.625 1.0078,0.625 0.6719,0 0.9766,-0.6641 0.3047,-0.6641 0.3047,-1.4141 l 0,-1.1875 0.5781,0 0,1.2188 q 0,0.625 -0.2266,1.2344 -0.2265,0.6093 -0.6797,1 -0.4531,0.3906 -1.0937,0.3906 -1.2031,0 -1.8985,-0.7188 -0.6953,-0.7187 -0.6953,-1.9062 z"
       id="path20037" />
    <path
       style="stroke:none"
       d="m 83.0956,-2.1593 q -1.1094,-0.8906 -1.9141,-2.0235 -0.8047,-1.1328 -1.3203,-2.4218 -0.5156,-1.2891 -0.7734,-2.6953 -0.2578,-1.4063 -0.2578,-2.8282 0,-1.4375 0.2578,-2.8437 0.2578,-1.4063 0.7812,-2.7031 0.5235,-1.2969 1.336,-2.4297 0.8125,-1.1328 1.8906,-1.9922 0,-0.0313 0.0937,-0.0313 l 0.1875,0 q 0.0625,0 0.1094,0.0547 0.0469,0.0547 0.0469,0.1172 0,0.0938 -0.0313,0.125 -0.9843,0.9688 -1.6328,2.0625 -0.6484,1.0938 -1.0468,2.3281 -0.3985,1.2344 -0.5704,2.5547 -0.1718,1.3203 -0.1718,2.7578 0,6.3594 3.3906,9.6563 0.0625,0.0625 0.0625,0.1719 0,0.0468 -0.0547,0.1093 -0.0547,0.0625 -0.1016,0.0625 l -0.1875,0 q -0.0937,0 -0.0937,-0.0312 z"
       id="path20039" />
    <path
       style="stroke:none"
       d="m 85.155,-3.3624 q 0,-0.125 0.0156,-0.1563 l 2.9375,-11.8125 q 0.0938,-0.2812 0.3203,-0.4609 0.2266,-0.1797 0.5235,-0.1797 0.25,0 0.4296,0.1562 0.1797,0.1563 0.1797,0.4063 0,0.0625 -0.0078,0.0937 -0.0078,0.0313 -0.0234,0.0782 l -1.1719,4.6718 q -0.2031,0.8282 -0.2031,1.4375 0,0.7344 0.3515,1.2188 0.3516,0.4844 1.0704,0.4844 1.4531,0 2.5625,-1.8282 0,-0.0156 0.0078,-0.0234 0.0078,-0.0078 0.0078,-0.0234 l 1.4375,-5.8125 q 0.0781,-0.2657 0.3203,-0.4532 0.2422,-0.1875 0.5234,-0.1875 0.2344,0 0.4141,0.1563 0.1797,0.1562 0.1797,0.4062 0,0.125 -0.0156,0.1563 l -1.4375,5.7656 q -0.1407,0.5625 -0.1407,0.9844 0,0.8594 0.5782,0.8594 0.625,0 0.9453,-0.7735 0.3203,-0.7734 0.5547,-1.8672 0.0312,-0.125 0.1562,-0.125 l 0.2344,0 q 0.0781,0 0.1328,0.0625 0.0547,0.0625 0.0547,0.1407 -0.3438,1.3906 -0.7578,2.2343 -0.4141,0.8438 -1.3516,0.8438 -0.6719,0 -1.1797,-0.375 -0.5078,-0.375 -0.664,-1.0313 -0.5,0.625 -1.1719,1.0157 -0.6719,0.3906 -1.4063,0.3906 -1.25,0 -1.9687,-0.5781 l -1.0156,4.0468 q -0.0625,0.2813 -0.2969,0.4532 -0.2344,0.1718 -0.5313,0.1718 -0.2343,0 -0.414,-0.1484 -0.1797,-0.1484 -0.1797,-0.3984 z"
       id="path20041" />
    <path
       style="stroke:none"
       d="m 97.1167,-7.1281 0,-0.7031 q 0.6875,0 1.125,-0.1094 0.4375,-0.1093 0.4375,-0.5312 l 0,-5.4531 q 0,-0.5313 -0.1563,-0.7735 -0.1562,-0.2422 -0.4609,-0.2969 -0.3047,-0.0546 -0.9453,-0.0546 l 0,-0.7032 2.9062,-0.2187 0,1.9531 q 0.3907,-0.8594 1.1797,-1.4062 0.7891,-0.5469 1.711,-0.5469 2.3125,0 2.7187,1.875 0.3906,-0.8281 1.1641,-1.3516 0.7734,-0.5234 1.6953,-0.5234 0.9062,0 1.5234,0.2969 0.6172,0.2968 0.9297,0.8984 0.3125,0.6016 0.3125,1.5078 l 0,4.7969 q 0,0.4219 0.4453,0.5312 0.4453,0.1094 1.1172,0.1094 l 0,0.7031 -4.5781,0 0,-0.7031 q 0.6875,0 1.125,-0.1094 0.4375,-0.1093 0.4375,-0.5312 l 0,-4.7344 q 0,-1.0156 -0.2813,-1.6328 -0.2812,-0.6172 -1.1562,-0.6172 -1.1563,0 -1.9063,0.9297 -0.75,0.9297 -0.75,2.1172 l 0,3.9375 q 0,0.4219 0.4375,0.5312 0.4375,0.1094 1.125,0.1094 l 0,0.7031 -4.5937,0 0,-0.7031 q 0.6875,0 1.125,-0.1094 0.4375,-0.1093 0.4375,-0.5312 l 0,-4.7344 q 0,-0.9844 -0.2813,-1.6172 -0.2812,-0.6328 -1.1562,-0.6328 -1.1563,0 -1.9063,0.9297 -0.75,0.9297 -0.75,2.1172 l 0,3.9375 q 0,0.4219 0.4375,0.5312 0.4375,0.1094 1.1094,0.1094 l 0,0.7031 -4.5781,0 z"
       id="path20043" />
    <path
       style="stroke:none"
       d="m 114.148,-2.5343 q 0,-0.0469 0.0156,-0.0781 l 6.9531,-19.2657 q 0.0469,-0.125 0.1407,-0.1875 0.0937,-0.0625 0.2187,-0.0625 0.1875,0 0.2969,0.1094 0.1094,0.1094 0.1094,0.2969 l 0,0.0781 -6.9532,19.2656 q -0.125,0.25 -0.375,0.25 -0.1718,0 -0.289,-0.1172 -0.1172,-0.1171 -0.1172,-0.289 z"
       id="path20045" />
    <path
       style="stroke:none"
       d="m 123.5949,-7.0656 0,-3.2656 q 0,-0.1562 0.1719,-0.1562 l 0.2343,0 q 0.125,0 0.1563,0.1562 0.5625,2.9063 2.7031,2.9063 0.9531,0 1.586,-0.4297 0.6328,-0.4297 0.6328,-1.336 0,-0.6406 -0.4922,-1.0937 -0.4922,-0.4531 -1.1797,-0.625 l -1.3438,-0.2656 q -0.6718,-0.1407 -1.2187,-0.4454 -0.5469,-0.3046 -0.8984,-0.8046 -0.3516,-0.5 -0.3516,-1.1719 0,-0.875 0.4609,-1.4375 0.461,-0.5625 1.2032,-0.8125 0.7421,-0.25 1.6015,-0.25 1.0313,0 1.7813,0.5469 l 0.5781,-0.5 q 0,-0.0469 0.0937,-0.0469 l 0.1563,0 q 0.0625,0 0.1094,0.0547 0.0468,0.0547 0.0468,0.1172 l 0,2.6093 q 0,0.1875 -0.1562,0.1875 l -0.25,0 q -0.1719,0 -0.1719,-0.1875 0,-1.0468 -0.5781,-1.6797 -0.5781,-0.6328 -1.625,-0.6328 -0.9063,0 -1.5625,0.336 -0.6563,0.3359 -0.6563,1.1484 0,0.5469 0.4688,0.9063 0.4687,0.3593 1.1094,0.5156 l 1.3593,0.25 q 0.6875,0.1562 1.2735,0.5312 0.5859,0.375 0.9375,0.9375 0.3515,0.5625 0.3515,1.2813 0,0.7187 -0.25,1.25 -0.25,0.5312 -0.6953,0.8828 -0.4453,0.3516 -1.0547,0.5156 -0.6093,0.1641 -1.2656,0.1641 -1.25,0 -2.1406,-0.8281 l -0.7344,0.7812 q 0,0.0469 -0.1094,0.0469 l -0.1093,0 q -0.1719,0 -0.1719,-0.1563 z"
       id="path20047" />
    <path
       style="stroke:none"
       d="m 131.4361,-14.3133 0,-0.375 q 0,-0.0313 0.0157,-0.0782 l 2.1875,-2.4062 q 0.4843,-0.5313 0.789,-0.8906 0.3047,-0.3594 0.6094,-0.836 0.3047,-0.4765 0.4766,-0.9609 0.1718,-0.4844 0.1718,-1.0313 0,-0.5781 -0.2109,-1.1015 -0.2109,-0.5235 -0.6328,-0.836 -0.4219,-0.3125 -1.0156,-0.3125 -0.6094,0 -1.0938,0.3672 -0.4844,0.3672 -0.6875,0.9453 0.0625,-0.0156 0.1563,-0.0156 0.3125,0 0.539,0.211 0.2266,0.2109 0.2266,0.539 0,0.3281 -0.2266,0.5469 -0.2265,0.2187 -0.539,0.2187 -0.3282,0 -0.5469,-0.2265 -0.2188,-0.2266 -0.2188,-0.5391 0,-0.5156 0.1954,-0.9765 0.1953,-0.461 0.5703,-0.8204 0.375,-0.3593 0.8437,-0.5546 0.4688,-0.1954 0.9844,-0.1954 0.8125,0 1.5,0.3438 0.6875,0.3437 1.0937,0.9609 0.4063,0.6172 0.4063,1.4453 0,0.6094 -0.2734,1.1563 -0.2735,0.5469 -0.6875,0.9922 -0.4141,0.4453 -1.0625,1.0156 -0.6485,0.5703 -0.8516,0.7578 l -1.5938,1.5156 1.3438,0 q 1,0 1.6641,-0.0156 0.664,-0.0156 0.7109,-0.0469 0.1562,-0.1718 0.3281,-1.2968 l 0.4219,0 -0.4063,2.5 -5.1875,0 z"
       id="path20049" />
    <path
       style="stroke:none"
       d="m 139.9499,-2.1281 q -0.1719,0 -0.1719,-0.1718 0,-0.0938 0.0313,-0.125 3.4218,-3.3438 3.4218,-9.7032 0,-6.3593 -3.375,-9.6562 -0.0781,-0.0469 -0.0781,-0.1719 0,-0.0625 0.0547,-0.1172 0.0547,-0.0547 0.1172,-0.0547 l 0.1875,0 q 0.0625,0 0.0937,0.0313 1.4375,1.1406 2.3985,2.7578 0.9609,1.6172 1.4062,3.4531 0.4453,1.836 0.4453,3.7578 0,1.4219 -0.2421,2.7891 -0.2422,1.3672 -0.7657,2.7031 -0.5234,1.336 -1.3203,2.461 -0.7969,1.125 -1.9219,2.0156 -0.0312,0.0312 -0.0937,0.0312 l -0.1875,0 z"
       id="path20051" />
  </g>
  <g
     transform="translate(-44.40774,-413.75782)"
     id="g8560">
    <path
       style="font-style:normal;font-weight:normal;font-size:medium;font-family:Dialog;color-interpolation:sRGB;fill:#58a1e4;fill-opacity:1;stroke:none;stroke-width:1;stroke-linecap:square;stroke-linejoin:miter;stroke-miterlimit:10;stroke-dasharray:none;stroke-dashoffset:0;stroke-opacity:1;color-rendering:optimizeSpeed;image-rendering:optimizeSpeed;shape-rendering:crispEdges;text-rendering:optimizeSpeed"
       d="m 371.63774,755.23352 115.7333,0 0,-40.3025 -115.7333,0 z"
       id="path7685" />
    <g
       id="g8531"
       style="stroke-width:2;stroke-miterlimit:10;stroke-dasharray:none">
      <line
         id="line7695"
         y2="800.68103"
         style="font-style:normal;font-weight:normal;font-size:medium;font-family:Dialog;color-interpolation:linearRGB;fill:none;fill-opacity:1;stroke:#000000;stroke-width:2;stroke-linecap:butt;stroke-linejoin:round;stroke-miterlimit:10;stroke-dasharray:none;stroke-dashoffset:0;stroke-opacity:1;color-rendering:optimizeQuality;image-rendering:optimizeQuality;shape-rendering:auto;text-rendering:geometricPrecision"
         y1="714.93103"
         x2="429.50436"
         x1="429.50436" />
      <line
         id="line7699"
         y2="629.18103"
         style="font-style:normal;font-weight:normal;font-size:medium;font-family:Dialog;color-interpolation:linearRGB;fill:none;fill-opacity:1;stroke:#000000;stroke-width:2;stroke-linecap:butt;stroke-linejoin:round;stroke-miterlimit:10;stroke-dasharray:none;stroke-dashoffset:0;stroke-opacity:1;color-rendering:optimizeQuality;image-rendering:optimizeQuality;shape-rendering:auto;text-rendering:geometricPrecision"
         y1="714.93103"
         x2="429.50436"
         x1="429.50436" />
      <g
         transform="translate(429.50434,714.93102)"
         style="font-style:normal;font-weight:normal;font-size:medium;font-family:Dialog;color-interpolation:linearRGB;fill:#000000;fill-opacity:1;stroke:#000000;stroke-width:2;stroke-linecap:butt;stroke-linejoin:round;stroke-miterlimit:10;stroke-dasharray:none;stroke-dashoffset:0;stroke-opacity:1;color-rendering:optimizeQuality;image-rendering:optimizeQuality;shape-rendering:auto;text-rendering:geometricPrecision"
         id="g7703">
        <circle
           r="1"
           style="stroke:none;stroke-width:2;stroke-miterlimit:10;stroke-dasharray:none"
           cx="0"
           cy="0"
           id="circle7705" />
      </g>
      <g
         style="font-style:normal;font-weight:normal;font-size:medium;font-family:Dialog;color-interpolation:linearRGB;fill:#000000;fill-opacity:1;stroke:#000000;stroke-width:2;stroke-linecap:square;stroke-linejoin:miter;stroke-miterlimit:10;stroke-dasharray:none;stroke-dashoffset:0;stroke-opacity:1;color-rendering:optimizeQuality;image-rendering:optimizeQuality;shape-rendering:auto;text-rendering:geometricPrecision"
         transform="translate(429.50434,800.68102)"
         id="g7715">
        <path
           style="stroke:none;stroke-width:2;stroke-miterlimit:10;stroke-dasharray:none"
           d="M -3,0 3,0"
           id="path7717" />
      </g>
      <g
         transform="translate(429.50434,800.68102)"
         style="font-style:normal;font-weight:normal;font-size:medium;font-family:Dialog;color-interpolation:linearRGB;fill:#000000;fill-opacity:1;stroke:#000000;stroke-width:2;stroke-linecap:butt;stroke-linejoin:miter;stroke-miterlimit:10;stroke-dasharray:none;stroke-dashoffset:0;stroke-opacity:1;color-rendering:optimizeQuality;image-rendering:optimizeQuality;shape-rendering:auto;text-rendering:geometricPrecision"
         id="g7719">
        <path
           style="fill:none;stroke-width:2;stroke-miterlimit:10;stroke-dasharray:none"
           d="M -3,0 3,0"
           id="path7721" />
      </g>
      <g
         style="font-style:normal;font-weight:normal;font-size:medium;font-family:Dialog;color-interpolation:linearRGB;fill:#000000;fill-opacity:1;stroke:#000000;stroke-width:2;stroke-linecap:square;stroke-linejoin:miter;stroke-miterlimit:10;stroke-dasharray:none;stroke-dashoffset:0;stroke-opacity:1;color-rendering:optimizeQuality;image-rendering:optimizeQuality;shape-rendering:auto;text-rendering:geometricPrecision"
         transform="translate(429.50434,629.18102)"
         id="g7731">
        <path
           style="stroke:none;stroke-width:2;stroke-miterlimit:10;stroke-dasharray:none"
           d="M -3,0 3,0"
           id="path7733" />
      </g>
      <g
         transform="translate(429.50434,629.18102)"
         style="font-style:normal;font-weight:normal;font-size:medium;font-family:Dialog;color-interpolation:linearRGB;fill:#000000;fill-opacity:1;stroke:#000000;stroke-width:2;stroke-linecap:butt;stroke-linejoin:miter;stroke-miterlimit:10;stroke-dasharray:none;stroke-dashoffset:0;stroke-opacity:1;color-rendering:optimizeQuality;image-rendering:optimizeQuality;shape-rendering:auto;text-rendering:geometricPrecision"
         id="g7735">
        <path
           style="fill:none;stroke-width:2;stroke-miterlimit:10;stroke-dasharray:none"
           d="M -3,0 3,0"
           id="path7737" />
      </g>
    </g>
  </g>
  <g
     transform="translate(240.64043,443.19169)"
     style="font-style:normal;font-weight:normal;font-size:18px;font-family:mwa_cmr10;color-interpolation:linearRGB;fill:#262626;fill-opacity:1;stroke:#262626;stroke-width:1;stroke-linecap:square;stroke-linejoin:miter;stroke-miterlimit:10;stroke-dasharray:none;stroke-dashoffset:0;stroke-opacity:1;color-rendering:optimizeQuality;image-rendering:optimizeQuality;shape-rendering:auto;text-rendering:geometricPrecision"
     id="g9552">
    <path
       style="stroke:none"
       d="m -40.5157,15.1199 0,-0.6406 q 1.8594,0 1.8594,-0.5625 l 0,-9.8906 q 0,-0.5625 -1.8594,-0.5625 l 0,-0.6406 9.9375,0 0.5,4.125 -0.5313,0 Q -30.7188,5.8074 -30.9298,5.1512 -31.1407,4.4949 -31.5391,4.1277 -31.9376,3.7606 -32.5938,3.6121 -33.2501,3.4637 -34.422,3.4637 l -1.6406,0 q -0.3281,0 -0.5078,0.0234 -0.1797,0.0235 -0.2891,0.1485 -0.1093,0.125 -0.1093,0.3906 l 0,4.6406 1.2656,0 q 0.9219,0 1.3516,-0.1641 0.4296,-0.164 0.5937,-0.5937 0.1641,-0.4297 0.1641,-1.3516 l 0.5156,0 0,4.8282 -0.5156,0 q 0,-0.9219 -0.1641,-1.3516 -0.1641,-0.4297 -0.5937,-0.5938 -0.4297,-0.164 -1.3516,-0.164 l -1.2656,0 0,4.6406 q 0,0.5625 2.2968,0.5625 l 0,0.6406 -5.8437,0 z"
       id="path9554" />
    <path
       style="stroke:none"
       d="m -28.2969,15.3699 0,-4.2031 q 0,-0.1406 0.1562,-0.1406 l 0.2188,0 q 0.0469,0 0.0937,0.0469 0.0469,0.0468 0.0469,0.0937 0,1.7656 1.0938,2.7422 1.0937,0.9766 2.875,0.9766 0.625,0 1.1484,-0.3594 0.5234,-0.3594 0.8203,-0.9453 0.2969,-0.586 0.2969,-1.211 0,-0.5468 -0.2188,-1.0625 -0.2187,-0.5156 -0.6328,-0.8906 -0.414,-0.375 -0.9297,-0.5 l -2.3437,-0.5781 q -1.1563,-0.2969 -1.8906,-1.25 -0.7344,-0.9531 -0.7344,-2.1406 0,-0.9375 0.4687,-1.7579 0.4688,-0.8203 1.2735,-1.289 0.8047,-0.4688 1.7422,-0.4688 1.7968,0 2.8593,1.2188 l 0.75,-1.1719 q 0.0469,-0.0469 0.125,-0.0469 l 0.1094,0 q 0.0625,0 0.1094,0.0391 0.0469,0.0391 0.0469,0.1016 l 0,4.1718 q 0,0.1719 -0.1563,0.1719 l -0.2031,0 q -0.1719,0 -0.1719,-0.1719 0,-0.4531 -0.1484,-1 -0.1485,-0.5468 -0.4219,-1.0468 -0.2734,-0.5 -0.6016,-0.8125 -0.8593,-0.875 -2.2968,-0.875 -0.6094,0 -1.1329,0.3125 -0.5234,0.3125 -0.8281,0.8437 -0.3047,0.5313 -0.3047,1.125 0,0.7813 0.4766,1.4063 0.4766,0.625 1.2578,0.8281 l 2.3281,0.5781 q 0.5782,0.1406 1.0938,0.5 0.5156,0.3594 0.8594,0.8438 0.3437,0.4843 0.539,1.0781 0.1953,0.5937 0.1953,1.2344 0,0.9687 -0.4453,1.8359 -0.4453,0.8672 -1.2656,1.3906 -0.8203,0.5235 -1.7734,0.5235 -0.6094,0 -1.2344,-0.1329 -0.625,-0.1328 -1.1485,-0.3984 -0.5234,-0.2656 -0.9609,-0.7031 l -0.75,1.1875 q -0.0469,0.0469 -0.125,0.0469 l -0.1094,0 q -0.1562,0 -0.1562,-0.1407 z"
       id="path9556" />
    <path
       style="stroke:none"
       d="m -18.7656,15.1199 0,-0.6406 q 1.8593,0 1.8593,-0.5625 l 0,-9.8906 q 0,-0.5625 -1.8593,-0.5625 l 0,-0.6406 9.9375,0 0.5,4.125 -0.5313,0 Q -8.9688,5.8074 -9.1797,5.1512 -9.3906,4.4949 -9.7891,4.1277 -10.1875,3.7606 -10.8438,3.6121 -11.5,3.4637 -12.6719,3.4637 l -1.6406,0 q -0.3281,0 -0.5078,0.0234 -0.1797,0.0235 -0.2891,0.1485 -0.1094,0.125 -0.1094,0.3906 l 0,4.6406 1.2657,0 q 0.9218,0 1.3515,-0.1641 0.4297,-0.164 0.5938,-0.5937 0.164,-0.4297 0.164,-1.3516 l 0.5157,0 0,4.8282 -0.5157,0 q 0,-0.9219 -0.164,-1.3516 -0.1641,-0.4297 -0.5938,-0.5938 -0.4297,-0.164 -1.3515,-0.164 l -1.2657,0 0,4.6406 q 0,0.5625 2.2969,0.5625 l 0,0.6406 -5.8437,0 z"
       id="path9558" />
    <path
       style="stroke:none"
       d="m -3.9219,13.1981 q 0.6563,0.7812 1.586,1.2343 0.9297,0.4532 1.9609,0.4532 1,0 1.8125,-0.5079 Q 2.25,13.8699 2.25,12.9168 l 0,-1.5 Q 2.25,10.8387 0,10.8387 l 0,-0.625 5.1719,0 0,0.625 q -0.5781,0 -0.9141,0.0937 -0.3359,0.0938 -0.3359,0.4844 l 0,3.5469 q 0,0.0625 -0.0469,0.1094 -0.0469,0.0468 -0.1094,0.0468 -0.1718,0 -0.5625,-0.3984 -0.3906,-0.3984 -0.6093,-0.6953 -0.4375,0.75 -1.3828,1.1172 -0.9454,0.3672 -1.9766,0.3672 -1.7344,0 -3.1719,-0.8985 -1.4375,-0.8984 -2.2734,-2.4062 -0.836,-1.5078 -0.836,-3.2422 0,-1.2656 0.4844,-2.4688 0.4844,-1.2031 1.3438,-2.1172 0.8593,-0.914 2.0156,-1.4296 1.1562,-0.5157 2.4375,-0.5157 0.9375,0 1.7656,0.3985 0.8281,0.3984 1.4844,1.1328 L 3.5313,2.4793 Q 3.6406,2.4324 3.6563,2.4324 l 0.125,0 q 0.0625,0 0.1015,0.0391 0.0391,0.0391 0.0391,0.1016 l 0,4.8593 q 0,0.1563 -0.1406,0.1563 l -0.3282,0 q -0.1562,0 -0.1562,-0.1563 0,-0.5156 -0.2109,-1.1562 Q 2.875,5.6356 2.5547,5.0574 2.2344,4.4793 1.8125,4.0418 0.8125,3.0574 -0.5,3.0574 q -1,0 -1.914,0.4532 -0.9141,0.4531 -1.5391,1.2343 -0.6563,0.8438 -0.9141,1.9219 -0.2578,1.0781 -0.2578,2.2969 0,2.7656 1.2031,4.2344 z"
       id="path9560" />
    <path
       style="stroke:none"
       d="m 6.2657,11.7918 0,-1.125 4.7656,0 0,1.125 -4.7656,0 z"
       id="path9562" />
    <path
       style="stroke:none"
       d="m 12.6094,15.1199 0,-0.6406 q 1.8594,0 1.8594,-0.5625 l 0,-9.8906 q 0,-0.5625 -1.8594,-0.5625 l 0,-0.6406 5.3906,0 0,0.6406 q -1.8437,0 -1.8437,0.5625 l 0,5.8437 5.5625,-5.3437 q 0.2187,-0.25 0.2187,-0.5 0,-0.2813 -0.2422,-0.4219 -0.2422,-0.1406 -0.539,-0.1406 l 0,-0.6406 3.9062,0 0,0.6406 q -1.4844,0 -2.5937,1.0625 l -3.1875,3.0469 3.9375,5.8437 q 0.4843,0.7188 0.8515,0.8906 0.3672,0.1719 1.2422,0.1719 l 0,0.6406 -4.7187,0 0,-0.6406 q 0.4375,0 0.7265,-0.0859 0.2891,-0.086 0.2891,-0.4141 0,-0.2187 -0.2188,-0.5625 l -3.2343,-4.7812 -2,1.9531 0,3.3281 q 0,0.5625 1.8437,0.5625 l 0,0.6406 -5.3906,0 z"
       id="path9564" />
    <path
       style="stroke:none"
       d="m 26.2657,11.7918 0,-1.125 4.7656,0 0,1.125 -4.7656,0 z"
       id="path9566" />
    <path
       style="stroke:none"
       d="m 33.7344,15.1199 0,-0.6406 q 2.25,0 2.25,-0.5625 l 0,-9.4531 q -0.9375,0.4531 -2.3593,0.4531 l 0,-0.6406 q 2.2031,0 3.3281,-1.1406 l 0.2656,0 q 0.0625,0 0.1172,0.0468 0.0547,0.0469 0.0547,0.1094 l 0,10.625 q 0,0.5625 2.25,0.5625 l 0,0.6406 -5.9063,0 z"
       id="path9568" />
  </g>
  <g
     transform="translate(385.27635,443.19169)"
     style="font-style:normal;font-weight:normal;font-size:18px;font-family:mwa_cmr10;color-interpolation:linearRGB;fill:#262626;fill-opacity:1;stroke:#262626;stroke-width:1;stroke-linecap:square;stroke-linejoin:miter;stroke-miterlimit:10;stroke-dasharray:none;stroke-dashoffset:0;stroke-opacity:1;color-rendering:optimizeQuality;image-rendering:optimizeQuality;shape-rendering:auto;text-rendering:geometricPrecision"
     id="g9570">
    <path
       style="stroke:none"
       d="m -40.5157,15.1199 0,-0.6406 q 1.8594,0 1.8594,-0.5625 l 0,-9.8906 q 0,-0.5625 -1.8594,-0.5625 l 0,-0.6406 9.9375,0 0.5,4.125 -0.5313,0 Q -30.7188,5.8074 -30.9298,5.1512 -31.1407,4.4949 -31.5391,4.1277 -31.9376,3.7606 -32.5938,3.6121 -33.2501,3.4637 -34.422,3.4637 l -1.6406,0 q -0.3281,0 -0.5078,0.0234 -0.1797,0.0235 -0.2891,0.1485 -0.1093,0.125 -0.1093,0.3906 l 0,4.6406 1.2656,0 q 0.9219,0 1.3516,-0.1641 0.4296,-0.164 0.5937,-0.5937 0.1641,-0.4297 0.1641,-1.3516 l 0.5156,0 0,4.8282 -0.5156,0 q 0,-0.9219 -0.1641,-1.3516 -0.1641,-0.4297 -0.5937,-0.5938 -0.4297,-0.164 -1.3516,-0.164 l -1.2656,0 0,4.6406 q 0,0.5625 2.2968,0.5625 l 0,0.6406 -5.8437,0 z"
       id="path9572" />
    <path
       style="stroke:none"
       d="m -28.2969,15.3699 0,-4.2031 q 0,-0.1406 0.1562,-0.1406 l 0.2188,0 q 0.0469,0 0.0937,0.0469 0.0469,0.0468 0.0469,0.0937 0,1.7656 1.0938,2.7422 1.0937,0.9766 2.875,0.9766 0.625,0 1.1484,-0.3594 0.5234,-0.3594 0.8203,-0.9453 0.2969,-0.586 0.2969,-1.211 0,-0.5468 -0.2188,-1.0625 -0.2187,-0.5156 -0.6328,-0.8906 -0.414,-0.375 -0.9297,-0.5 l -2.3437,-0.5781 q -1.1563,-0.2969 -1.8906,-1.25 -0.7344,-0.9531 -0.7344,-2.1406 0,-0.9375 0.4687,-1.7579 0.4688,-0.8203 1.2735,-1.289 0.8047,-0.4688 1.7422,-0.4688 1.7968,0 2.8593,1.2188 l 0.75,-1.1719 q 0.0469,-0.0469 0.125,-0.0469 l 0.1094,0 q 0.0625,0 0.1094,0.0391 0.0469,0.0391 0.0469,0.1016 l 0,4.1718 q 0,0.1719 -0.1563,0.1719 l -0.2031,0 q -0.1719,0 -0.1719,-0.1719 0,-0.4531 -0.1484,-1 -0.1485,-0.5468 -0.4219,-1.0468 -0.2734,-0.5 -0.6016,-0.8125 -0.8593,-0.875 -2.2968,-0.875 -0.6094,0 -1.1329,0.3125 -0.5234,0.3125 -0.8281,0.8437 -0.3047,0.5313 -0.3047,1.125 0,0.7813 0.4766,1.4063 0.4766,0.625 1.2578,0.8281 l 2.3281,0.5781 q 0.5782,0.1406 1.0938,0.5 0.5156,0.3594 0.8594,0.8438 0.3437,0.4843 0.539,1.0781 0.1953,0.5937 0.1953,1.2344 0,0.9687 -0.4453,1.8359 -0.4453,0.8672 -1.2656,1.3906 -0.8203,0.5235 -1.7734,0.5235 -0.6094,0 -1.2344,-0.1329 -0.625,-0.1328 -1.1485,-0.3984 -0.5234,-0.2656 -0.9609,-0.7031 l -0.75,1.1875 q -0.0469,0.0469 -0.125,0.0469 l -0.1094,0 q -0.1562,0 -0.1562,-0.1407 z"
       id="path9574" />
    <path
       style="stroke:none"
       d="m -18.7656,15.1199 0,-0.6406 q 1.8593,0 1.8593,-0.5625 l 0,-9.8906 q 0,-0.5625 -1.8593,-0.5625 l 0,-0.6406 9.9375,0 0.5,4.125 -0.5313,0 Q -8.9688,5.8074 -9.1797,5.1512 -9.3906,4.4949 -9.7891,4.1277 -10.1875,3.7606 -10.8438,3.6121 -11.5,3.4637 -12.6719,3.4637 l -1.6406,0 q -0.3281,0 -0.5078,0.0234 -0.1797,0.0235 -0.2891,0.1485 -0.1094,0.125 -0.1094,0.3906 l 0,4.6406 1.2657,0 q 0.9218,0 1.3515,-0.1641 0.4297,-0.164 0.5938,-0.5937 0.164,-0.4297 0.164,-1.3516 l 0.5157,0 0,4.8282 -0.5157,0 q 0,-0.9219 -0.164,-1.3516 -0.1641,-0.4297 -0.5938,-0.5938 -0.4297,-0.164 -1.3515,-0.164 l -1.2657,0 0,4.6406 q 0,0.5625 2.2969,0.5625 l 0,0.6406 -5.8437,0 z"
       id="path9576" />
    <path
       style="stroke:none"
       d="m -3.9219,13.1981 q 0.6563,0.7812 1.586,1.2343 0.9297,0.4532 1.9609,0.4532 1,0 1.8125,-0.5079 Q 2.25,13.8699 2.25,12.9168 l 0,-1.5 Q 2.25,10.8387 0,10.8387 l 0,-0.625 5.1719,0 0,0.625 q -0.5781,0 -0.9141,0.0937 -0.3359,0.0938 -0.3359,0.4844 l 0,3.5469 q 0,0.0625 -0.0469,0.1094 -0.0469,0.0468 -0.1094,0.0468 -0.1718,0 -0.5625,-0.3984 -0.3906,-0.3984 -0.6093,-0.6953 -0.4375,0.75 -1.3828,1.1172 -0.9454,0.3672 -1.9766,0.3672 -1.7344,0 -3.1719,-0.8985 -1.4375,-0.8984 -2.2734,-2.4062 -0.836,-1.5078 -0.836,-3.2422 0,-1.2656 0.4844,-2.4688 0.4844,-1.2031 1.3438,-2.1172 0.8593,-0.914 2.0156,-1.4296 1.1562,-0.5157 2.4375,-0.5157 0.9375,0 1.7656,0.3985 0.8281,0.3984 1.4844,1.1328 L 3.5313,2.4793 Q 3.6406,2.4324 3.6563,2.4324 l 0.125,0 q 0.0625,0 0.1015,0.0391 0.0391,0.0391 0.0391,0.1016 l 0,4.8593 q 0,0.1563 -0.1406,0.1563 l -0.3282,0 q -0.1562,0 -0.1562,-0.1563 0,-0.5156 -0.2109,-1.1562 Q 2.875,5.6356 2.5547,5.0574 2.2344,4.4793 1.8125,4.0418 0.8125,3.0574 -0.5,3.0574 q -1,0 -1.914,0.4532 -0.9141,0.4531 -1.5391,1.2343 -0.6563,0.8438 -0.9141,1.9219 -0.2578,1.0781 -0.2578,2.2969 0,2.7656 1.2031,4.2344 z"
       id="path9578" />
    <path
       style="stroke:none"
       d="m 6.2657,11.7918 0,-1.125 4.7656,0 0,1.125 -4.7656,0 z"
       id="path9580" />
    <path
       style="stroke:none"
       d="m 12.6094,15.1199 0,-0.6406 q 1.8594,0 1.8594,-0.5625 l 0,-9.8906 q 0,-0.5625 -1.8594,-0.5625 l 0,-0.6406 5.3906,0 0,0.6406 q -1.8437,0 -1.8437,0.5625 l 0,5.8437 5.5625,-5.3437 q 0.2187,-0.25 0.2187,-0.5 0,-0.2813 -0.2422,-0.4219 -0.2422,-0.1406 -0.539,-0.1406 l 0,-0.6406 3.9062,0 0,0.6406 q -1.4844,0 -2.5937,1.0625 l -3.1875,3.0469 3.9375,5.8437 q 0.4843,0.7188 0.8515,0.8906 0.3672,0.1719 1.2422,0.1719 l 0,0.6406 -4.7187,0 0,-0.6406 q 0.4375,0 0.7265,-0.0859 0.2891,-0.086 0.2891,-0.4141 0,-0.2187 -0.2188,-0.5625 l -3.2343,-4.7812 -2,1.9531 0,3.3281 q 0,0.5625 1.8437,0.5625 l 0,0.6406 -5.3906,0 z"
       id="path9582" />
    <path
       style="stroke:none"
       d="m 26.2657,11.7918 0,-1.125 4.7656,0 0,1.125 -4.7656,0 z"
       id="path9584" />
    <path
       style="stroke:none"
       d="m 32.9532,15.1199 0,-0.4843 q 0,-0.0469 0.0469,-0.0938 l 2.7968,-3.0937 q 0.625,-0.6875 1.0235,-1.1563 0.3984,-0.4687 0.7812,-1.0703 0.3828,-0.6016 0.6094,-1.2344 0.2266,-0.6328 0.2266,-1.3359 0,-0.7344 -0.2735,-1.4063 -0.2734,-0.6718 -0.8125,-1.0781 -0.539,-0.4062 -1.3047,-0.4062 -0.7812,0 -1.4062,0.4687 -0.625,0.4688 -0.875,1.2188 0.0625,-0.0157 0.1875,-0.0157 0.4062,0 0.6875,0.2735 0.2812,0.2734 0.2812,0.7109 0,0.4063 -0.2812,0.6953 -0.2813,0.2891 -0.6875,0.2891 -0.4219,0 -0.711,-0.2969 -0.289,-0.2969 -0.289,-0.6875 0,-0.6875 0.2578,-1.2812 0.2578,-0.5938 0.7344,-1.0547 0.4765,-0.461 1.0781,-0.7032 0.6016,-0.2421 1.2891,-0.2421 1.0312,0 1.914,0.4296 0.8828,0.4297 1.4063,1.2266 0.5234,0.7969 0.5234,1.8594 0,0.7812 -0.3437,1.4844 -0.3438,0.7031 -0.8829,1.2812 -0.539,0.5781 -1.375,1.3047 -0.8359,0.7266 -1.1015,0.9766 l -2.0313,1.9687 1.7344,0 q 1.2656,0 2.125,-0.0234 0.8594,-0.0235 0.9063,-0.0703 0.2187,-0.2344 0.4375,-1.6563 l 0.5312,0 -0.5156,3.2031 -6.6875,0 z"
       id="path9586" />
  </g>
</svg>
