<?xml version="1.0" encoding="UTF-8" standalone="no"?>
<svg
   xmlns:dc="http://purl.org/dc/elements/1.1/"
   xmlns:cc="http://creativecommons.org/ns#"
   xmlns:rdf="http://www.w3.org/1999/02/22-rdf-syntax-ns#"
   xmlns:svg="http://www.w3.org/2000/svg"
   xmlns="http://www.w3.org/2000/svg"
   version="1.1"
   id="svg10177"
   viewBox="0 0 744.09448819 1052.3622047"
   height="297mm"
   width="210mm">
  <defs
     id="defs10179" />
  <metadata
     id="metadata10182">
    <rdf:RDF>
      <cc:Work
         rdf:about="">
        <dc:format>image/svg+xml</dc:format>
        <dc:type
           rdf:resource="http://purl.org/dc/dcmitype/StillImage" />
        <dc:title></dc:title>
      </cc:Work>
    </rdf:RDF>
  </metadata>
  <g
     id="layer1">
    <g
       id="g11522">
      <g
         id="g10572"
         style="font-style:normal;font-weight:normal;font-size:18px;font-family:mwa_cmr10;color-interpolation:linearRGB;fill:#262626;fill-opacity:1;stroke:#262626;stroke-width:1;stroke-linecap:square;stroke-linejoin:miter;stroke-miterlimit:10;stroke-dasharray:none;stroke-dashoffset:0;stroke-opacity:1;color-rendering:optimizeQuality;image-rendering:optimizeQuality;shape-rendering:auto;text-rendering:geometricPrecision"
         transform="translate(144.54286,417.17176)">
        <path
           id="path10574"
           d="m -4.5,4.7106 q -2.2032,0 -3,-1.8125 -0.7969,-1.8125 -0.7969,-4.3125 0,-1.5625 0.2891,-2.9454 0.289,-1.3828 1.1328,-2.3437 0.8437,-0.9609 2.375,-0.9609 1.1875,0 1.9453,0.5781 0.7578,0.5781 1.1484,1.5 0.3906,0.9219 0.5391,1.9687 0.1484,1.0469 0.1484,2.2032 0,1.5468 -0.289,2.8906 -0.2891,1.3437 -1.125,2.289 -0.836,0.9454 -2.3672,0.9454 z m 0,-0.4688 q 1,0 1.4922,-1.0234 0.4921,-1.0235 0.6093,-2.2735 0.1172,-1.25 0.1172,-2.6562 0,-1.3594 -0.1172,-2.5 Q -2.5157,-5.3519 -3,-6.2738 q -0.4844,-0.9219 -1.5,-0.9219 -1.0157,0 -1.5078,0.9297 -0.4922,0.9297 -0.6094,2.0625 -0.1172,1.1328 -0.1172,2.4922 0,1 0.0469,1.8906 0.0468,0.8906 0.2578,1.8359 0.2109,0.9454 0.6875,1.586 0.4765,0.6406 1.2422,0.6406 z"
           style="stroke:none" />
      </g>
      <g
         id="g10576"
         style="font-style:normal;font-weight:normal;font-size:18px;font-family:mwa_cmr10;color-interpolation:linearRGB;fill:#262626;fill-opacity:1;stroke:#262626;stroke-width:1;stroke-linecap:square;stroke-linejoin:miter;stroke-miterlimit:10;stroke-dasharray:none;stroke-dashoffset:0;stroke-opacity:1;color-rendering:optimizeQuality;image-rendering:optimizeQuality;shape-rendering:auto;text-rendering:geometricPrecision"
         transform="translate(144.54286,351.83836)">
        <path
           id="path10578"
           d="m -18.5001,4.7106 q -2.2031,0 -3,-1.8125 -0.7968,-1.8125 -0.7968,-4.3125 0,-1.5625 0.289,-2.9454 0.2891,-1.3828 1.1328,-2.3437 0.8438,-0.9609 2.375,-0.9609 1.1875,0 1.9453,0.5781 0.7579,0.5781 1.1485,1.5 0.3906,0.9219 0.539,1.9687 0.1485,1.0469 0.1485,2.2032 0,1.5468 -0.2891,2.8906 -0.289,1.3437 -1.125,2.289 -0.8359,0.9454 -2.3672,0.9454 z m 0,-0.4688 q 1,0 1.4922,-1.0234 0.4922,-1.0235 0.6094,-2.2735 0.1172,-1.25 0.1172,-2.6562 0,-1.3594 -0.1172,-2.5 -0.1172,-1.1406 -0.6016,-2.0625 -0.4843,-0.9219 -1.5,-0.9219 -1.0156,0 -1.5078,0.9297 -0.4922,0.9297 -0.6094,2.0625 -0.1171,1.1328 -0.1171,2.4922 0,1 0.0468,1.8906 0.0469,0.8906 0.2578,1.8359 0.211,0.9454 0.6875,1.586 0.4766,0.6406 1.2422,0.6406 z"
           style="stroke:none" />
        <path
           id="path10580"
           d="m -12.4844,3.3199 q 0,-0.3906 0.2969,-0.6875 0.2968,-0.2968 0.6875,-0.2968 0.25,0 0.4843,0.1328 0.2344,0.1328 0.3672,0.375 0.1328,0.2422 0.1328,0.4765 0,0.4063 -0.289,0.7032 -0.2891,0.2968 -0.6953,0.2968 -0.3907,0 -0.6875,-0.2968 -0.2969,-0.2969 -0.2969,-0.7032 z"
           style="stroke:none" />
        <path
           id="path10582"
           d="m -8.1094,4.3199 0,-0.4843 q 0,-0.0469 0.0469,-0.0938 l 2.7968,-3.0937 q 0.625,-0.6875 1.0235,-1.1563 0.3984,-0.4687 0.7812,-1.0703 0.3828,-0.6016 0.6094,-1.2344 0.2266,-0.6328 0.2266,-1.3359 0,-0.7344 -0.2735,-1.4063 -0.2734,-0.6718 -0.8125,-1.0781 -0.539,-0.4062 -1.3047,-0.4062 -0.7812,0 -1.4062,0.4687 -0.625,0.4688 -0.875,1.2188 0.0625,-0.0157 0.1875,-0.0157 0.4062,0 0.6875,0.2735 0.2812,0.2734 0.2812,0.7109 0,0.4063 -0.2812,0.6953 -0.2813,0.2891 -0.6875,0.2891 -0.4219,0 -0.7109,-0.2969 -0.2891,-0.2969 -0.2891,-0.6875 0,-0.6875 0.2578,-1.2812 0.2578,-0.5938 0.7344,-1.0547 0.4765,-0.461 1.0781,-0.7032 0.6016,-0.2421 1.2891,-0.2421 1.0312,0 1.914,0.4296 0.8828,0.4297 1.4063,1.2266 0.5234,0.7969 0.5234,1.8594 0,0.7812 -0.3437,1.4844 -0.3438,0.7031 -0.8828,1.2812 -0.5391,0.5781 -1.375,1.3047 -0.836,0.7266 -1.1016,0.9766 l -2.0313,1.9687 1.7344,0 q 1.2656,0 2.125,-0.0234 0.8594,-0.0235 0.9063,-0.0703 0.2187,-0.2344 0.4375,-1.6563 l 0.5312,0 -0.5156,3.2031 -6.6875,0 z"
           style="stroke:none" />
      </g>
      <g
         id="g10584"
         style="font-style:normal;font-weight:normal;font-size:18px;font-family:mwa_cmr10;color-interpolation:linearRGB;fill:#262626;fill-opacity:1;stroke:#262626;stroke-width:1;stroke-linecap:square;stroke-linejoin:miter;stroke-miterlimit:10;stroke-dasharray:none;stroke-dashoffset:0;stroke-opacity:1;color-rendering:optimizeQuality;image-rendering:optimizeQuality;shape-rendering:auto;text-rendering:geometricPrecision"
         transform="translate(144.54286,286.50506)">
        <path
           id="path10586"
           d="m -18.5001,4.7106 q -2.2031,0 -3,-1.8125 -0.7968,-1.8125 -0.7968,-4.3125 0,-1.5625 0.289,-2.9454 0.2891,-1.3828 1.1328,-2.3437 0.8438,-0.9609 2.375,-0.9609 1.1875,0 1.9453,0.5781 0.7579,0.5781 1.1485,1.5 0.3906,0.9219 0.539,1.9687 0.1485,1.0469 0.1485,2.2032 0,1.5468 -0.2891,2.8906 -0.289,1.3437 -1.125,2.289 -0.8359,0.9454 -2.3672,0.9454 z m 0,-0.4688 q 1,0 1.4922,-1.0234 0.4922,-1.0235 0.6094,-2.2735 0.1172,-1.25 0.1172,-2.6562 0,-1.3594 -0.1172,-2.5 -0.1172,-1.1406 -0.6016,-2.0625 -0.4843,-0.9219 -1.5,-0.9219 -1.0156,0 -1.5078,0.9297 -0.4922,0.9297 -0.6094,2.0625 -0.1171,1.1328 -0.1171,2.4922 0,1 0.0468,1.8906 0.0469,0.8906 0.2578,1.8359 0.211,0.9454 0.6875,1.586 0.4766,0.6406 1.2422,0.6406 z"
           style="stroke:none" />
        <path
           id="path10588"
           d="m -12.4844,3.3199 q 0,-0.3906 0.2969,-0.6875 0.2968,-0.2968 0.6875,-0.2968 0.25,0 0.4843,0.1328 0.2344,0.1328 0.3672,0.375 0.1328,0.2422 0.1328,0.4765 0,0.4063 -0.289,0.7032 -0.2891,0.2968 -0.6953,0.2968 -0.3907,0 -0.6875,-0.2968 -0.2969,-0.2969 -0.2969,-0.7032 z"
           style="stroke:none" />
        <path
           id="path10590"
           d="m -8.5,1.3512 0,-0.6406 5.5625,-8.2969 Q -2.875,-7.6644 -2.75,-7.6644 l 0.2656,0 q 0.2031,0 0.2031,0.2031 l 0,8.1719 1.7656,0 0,0.6406 -1.7656,0 0,1.7656 q 0,0.375 0.5235,0.4688 0.5234,0.0937 1.2265,0.0937 l 0,0.6406 -4.9687,0 0,-0.6406 q 0.7031,0 1.2265,-0.0937 Q -3.75,3.4918 -3.75,3.1168 l 0,-1.7656 -4.75,0 z m 0.5937,-0.6406 4.2656,0 0,-6.3594 -4.2656,6.3594 z"
           style="stroke:none" />
      </g>
      <g
         id="g10592"
         style="font-style:normal;font-weight:normal;font-size:18px;font-family:mwa_cmr10;color-interpolation:linearRGB;fill:#262626;fill-opacity:1;stroke:#262626;stroke-width:1;stroke-linecap:square;stroke-linejoin:miter;stroke-miterlimit:10;stroke-dasharray:none;stroke-dashoffset:0;stroke-opacity:1;color-rendering:optimizeQuality;image-rendering:optimizeQuality;shape-rendering:auto;text-rendering:geometricPrecision"
         transform="translate(144.54286,221.17176)">
        <path
           id="path10594"
           d="m -18.5001,4.7106 q -2.2031,0 -3,-1.8125 -0.7968,-1.8125 -0.7968,-4.3125 0,-1.5625 0.289,-2.9454 0.2891,-1.3828 1.1328,-2.3437 0.8438,-0.9609 2.375,-0.9609 1.1875,0 1.9453,0.5781 0.7579,0.5781 1.1485,1.5 0.3906,0.9219 0.539,1.9687 0.1485,1.0469 0.1485,2.2032 0,1.5468 -0.2891,2.8906 -0.289,1.3437 -1.125,2.289 -0.8359,0.9454 -2.3672,0.9454 z m 0,-0.4688 q 1,0 1.4922,-1.0234 0.4922,-1.0235 0.6094,-2.2735 0.1172,-1.25 0.1172,-2.6562 0,-1.3594 -0.1172,-2.5 -0.1172,-1.1406 -0.6016,-2.0625 -0.4843,-0.9219 -1.5,-0.9219 -1.0156,0 -1.5078,0.9297 -0.4922,0.9297 -0.6094,2.0625 -0.1171,1.1328 -0.1171,2.4922 0,1 0.0468,1.8906 0.0469,0.8906 0.2578,1.8359 0.211,0.9454 0.6875,1.586 0.4766,0.6406 1.2422,0.6406 z"
           style="stroke:none" />
        <path
           id="path10596"
           d="m -12.4844,3.3199 q 0,-0.3906 0.2969,-0.6875 0.2968,-0.2968 0.6875,-0.2968 0.25,0 0.4843,0.1328 0.2344,0.1328 0.3672,0.375 0.1328,0.2422 0.1328,0.4765 0,0.4063 -0.289,0.7032 -0.2891,0.2968 -0.6953,0.2968 -0.3907,0 -0.6875,-0.2968 -0.2969,-0.2969 -0.2969,-0.7032 z"
           style="stroke:none" />
        <path
           id="path10598"
           d="m -4.5,4.7106 q -1.1094,0 -1.8594,-0.5938 Q -7.1094,3.5231 -7.5157,2.5777 -7.9219,1.6324 -8.086,0.6012 -8.25,-0.4301 -8.25,-1.4926 q 0,-1.4375 0.5547,-2.8672 0.5546,-1.4296 1.6328,-2.3671 1.0781,-0.9375 2.5625,-0.9375 0.6093,0 1.1406,0.2343 0.5312,0.2344 0.8359,0.6797 0.3047,0.4453 0.3047,1.1016 0,0.3594 -0.25,0.6094 -0.25,0.25 -0.625,0.25 -0.3437,0 -0.6015,-0.25 -0.2579,-0.25 -0.2579,-0.6094 0,-0.3594 0.2579,-0.6172 0.2578,-0.2578 0.6015,-0.2578 l 0.0938,0 Q -2.2188,-6.8363 -2.6407,-6.9926 -3.0625,-7.1488 -3.5,-7.1488 q -0.5469,0 -1.0078,0.2344 -0.461,0.2343 -0.836,0.6406 -0.375,0.4062 -0.6172,0.8906 -0.2422,0.4844 -0.3828,1.1094 -0.1406,0.625 -0.1719,1.1719 -0.0312,0.5468 -0.0312,1.375 0.3125,-0.7344 0.8906,-1.2032 0.5781,-0.4687 1.3125,-0.4687 0.7969,0 1.461,0.3203 0.664,0.3203 1.1328,0.8984 0.4687,0.5782 0.7265,1.3125 0.2578,0.7344 0.2578,1.5 0,1.0469 -0.4765,2 Q -1.7188,3.5856 -2.5703,4.1481 -3.4219,4.7106 -4.5,4.7106 Z m 0,-0.5625 q 0.6875,0 1.1093,-0.3204 0.4219,-0.3203 0.625,-0.8437 0.2032,-0.5234 0.25,-1.0547 0.0469,-0.5312 0.0469,-1.2969 0,-1.0312 -0.0937,-1.75 -0.0938,-0.7187 -0.5313,-1.2656 -0.4375,-0.5469 -1.3125,-0.5469 -0.7344,0 -1.2031,0.4922 -0.4688,0.4922 -0.6875,1.2422 -0.2188,0.75 -0.2188,1.4531 0,0.2344 0.0157,0.3594 0,0.0156 0,0.0391 0,0.0234 -0.0157,0.039 0,0.7813 0.1563,1.5703 0.1562,0.7891 0.6094,1.336 0.4531,0.5469 1.25,0.5469 z"
           style="stroke:none" />
      </g>
      <g
         id="g10600"
         style="font-style:normal;font-weight:normal;font-size:18px;font-family:mwa_cmr10;color-interpolation:linearRGB;fill:#262626;fill-opacity:1;stroke:#262626;stroke-width:1;stroke-linecap:square;stroke-linejoin:miter;stroke-miterlimit:10;stroke-dasharray:none;stroke-dashoffset:0;stroke-opacity:1;color-rendering:optimizeQuality;image-rendering:optimizeQuality;shape-rendering:auto;text-rendering:geometricPrecision"
         transform="translate(144.54286,155.83836)">
        <path
           id="path10602"
           d="m -18.5001,4.7106 q -2.2031,0 -3,-1.8125 -0.7968,-1.8125 -0.7968,-4.3125 0,-1.5625 0.289,-2.9454 0.2891,-1.3828 1.1328,-2.3437 0.8438,-0.9609 2.375,-0.9609 1.1875,0 1.9453,0.5781 0.7579,0.5781 1.1485,1.5 0.3906,0.9219 0.539,1.9687 0.1485,1.0469 0.1485,2.2032 0,1.5468 -0.2891,2.8906 -0.289,1.3437 -1.125,2.289 -0.8359,0.9454 -2.3672,0.9454 z m 0,-0.4688 q 1,0 1.4922,-1.0234 0.4922,-1.0235 0.6094,-2.2735 0.1172,-1.25 0.1172,-2.6562 0,-1.3594 -0.1172,-2.5 -0.1172,-1.1406 -0.6016,-2.0625 -0.4843,-0.9219 -1.5,-0.9219 -1.0156,0 -1.5078,0.9297 -0.4922,0.9297 -0.6094,2.0625 -0.1171,1.1328 -0.1171,2.4922 0,1 0.0468,1.8906 0.0469,0.8906 0.2578,1.8359 0.211,0.9454 0.6875,1.586 0.4766,0.6406 1.2422,0.6406 z"
           style="stroke:none" />
        <path
           id="path10604"
           d="m -12.4844,3.3199 q 0,-0.3906 0.2969,-0.6875 0.2968,-0.2968 0.6875,-0.2968 0.25,0 0.4843,0.1328 0.2344,0.1328 0.3672,0.375 0.1328,0.2422 0.1328,0.4765 0,0.4063 -0.289,0.7032 -0.2891,0.2968 -0.6953,0.2968 -0.3907,0 -0.6875,-0.2968 -0.2969,-0.2969 -0.2969,-0.7032 z"
           style="stroke:none" />
        <path
           id="path10606"
           d="m -8.25,1.5856 q 0,-1.0782 0.7187,-1.9063 0.7188,-0.8281 1.8281,-1.3906 L -6.375,-2.1332 q -0.6094,-0.4062 -1,-1.0781 -0.3907,-0.6719 -0.3907,-1.4219 0,-0.8594 0.4532,-1.5547 0.4531,-0.6953 1.2031,-1.0859 0.75,-0.3906 1.6094,-0.3906 0.7968,0 1.539,0.3203 0.7422,0.3203 1.2266,0.9297 0.4844,0.6093 0.4844,1.4375 0,0.6093 -0.2891,1.1328 -0.2891,0.5234 -0.7891,0.9297 -0.5,0.4062 -1.0625,0.7031 l 1.0313,0.6562 q 0.7187,0.4688 1.1562,1.2266 0.4375,0.7578 0.4375,1.5859 0,0.9844 -0.5234,1.7813 -0.5234,0.7969 -1.3906,1.2344 -0.8672,0.4375 -1.8203,0.4375 -0.9375,0 -1.7969,-0.375 Q -7.1563,3.9606 -7.7032,3.2418 -8.25,2.5231 -8.25,1.5856 Z m 0.9843,0 q 0,0.7187 0.3907,1.3046 0.3906,0.586 1.0312,0.9219 0.6406,0.336 1.3438,0.336 1.0468,0 1.8984,-0.6094 Q -1.75,2.9293 -1.75,1.9137 -1.75,1.5699 -1.8828,1.234 -2.0157,0.8981 -2.2578,0.6168 -2.5,0.3356 -2.7969,0.1637 l -2.4219,-1.5625 q -0.5625,0.2969 -1.0312,0.75 -0.4688,0.4531 -0.7422,1.0312 -0.2735,0.5782 -0.2735,1.2032 z m 1.2344,-5.5 2.1875,1.4062 q 0.75,-0.4375 1.2344,-1.0625 0.4844,-0.625 0.4844,-1.4062 0,-0.5938 -0.336,-1.1016 -0.3359,-0.5078 -0.8828,-0.7891 -0.5469,-0.2812 -1.1719,-0.2812 -0.5468,0 -1.1015,0.2109 -0.5547,0.211 -0.9141,0.625 -0.3594,0.4141 -0.3594,0.9766 0,0.8437 0.8594,1.4219 z"
           style="stroke:none" />
      </g>
      <g
         id="g10608"
         style="font-style:normal;font-weight:normal;font-size:18px;font-family:mwa_cmr10;color-interpolation:linearRGB;fill:#262626;fill-opacity:1;stroke:#262626;stroke-width:1;stroke-linecap:square;stroke-linejoin:miter;stroke-miterlimit:10;stroke-dasharray:none;stroke-dashoffset:0;stroke-opacity:1;color-rendering:optimizeQuality;image-rendering:optimizeQuality;shape-rendering:auto;text-rendering:geometricPrecision"
         transform="translate(144.54286,90.50506)">
        <path
           id="path10610"
           d="m -7.3282,4.3199 0,-0.6406 q 2.25,0 2.25,-0.5625 l 0,-9.4531 q -0.9375,0.4531 -2.3593,0.4531 l 0,-0.6406 q 2.2031,0 3.3281,-1.1406 l 0.2656,0 q 0.0625,0 0.1172,0.0468 0.0547,0.0469 0.0547,0.1094 l 0,10.625 q 0,0.5625 2.25,0.5625 l 0,0.6406 -5.9063,0 z"
           style="stroke:none" />
      </g>
      <g
         id="g10612"
         style="font-style:normal;font-weight:normal;font-size:20px;font-family:mwa_cmr10;color-interpolation:linearRGB;fill:#000000;fill-opacity:1;stroke:#000000;stroke-width:1;stroke-linecap:square;stroke-linejoin:miter;stroke-miterlimit:10;stroke-dasharray:none;stroke-dashoffset:0;stroke-opacity:1;color-rendering:optimizeQuality;image-rendering:optimizeQuality;shape-rendering:auto;text-rendering:geometricPrecision"
         transform="translate(322.65133,119.55506)">
        <path
           id="path10614"
           d="m -64.3777,-7.1281 0,-0.7031 q 2.0625,0 2.0625,-0.6406 l 0,-10.9844 q 0,-0.625 -2.0625,-0.625 l 0,-0.7031 7.3438,0 q 1.0156,0 2.0547,0.3906 1.039,0.3906 1.7187,1.1719 0.6797,0.7812 0.6797,1.8281 0,1.2188 -1,2.0469 -1,0.8281 -2.3437,1.0781 0.875,0 1.789,0.4766 0.9141,0.4765 1.5,1.2812 0.586,0.8047 0.586,1.6953 0,1.0938 -0.6485,1.9375 -0.6484,0.8438 -1.6797,1.2969 -1.0312,0.4531 -2.0781,0.4531 l -7.9219,0 z m 3.7969,-1.3437 q 0,0.4375 0.2422,0.539 0.2422,0.1016 0.7734,0.1016 l 2.5313,0 q 0.7812,0 1.4531,-0.4141 0.6719,-0.414 1.0625,-1.1015 0.3906,-0.6875 0.3906,-1.4688 0,-0.75 -0.3203,-1.4843 -0.3203,-0.7344 -0.9218,-1.2032 -0.6016,-0.4687 -1.3672,-0.4687 l -3.8438,0 0,5.5 z m 0,-6.0156 3,0 q 0.6094,0 1.1406,-0.2188 0.5313,-0.2187 0.9532,-0.6406 0.4218,-0.4219 0.6484,-0.9375 0.2266,-0.5156 0.2266,-1.1094 0,-0.5156 -0.1641,-0.9922 -0.1641,-0.4765 -0.5,-0.8672 -0.3359,-0.3906 -0.7812,-0.6093 -0.4454,-0.2188 -0.9766,-0.2188 l -2.5313,0 q -0.3593,0 -0.5625,0.0234 -0.2031,0.0235 -0.3281,0.1641 -0.125,0.1406 -0.125,0.4375 l 0,4.9688 z"
           style="stroke:none" />
        <path
           id="path10616"
           d="m -46.0401,-6.9093 q -1.2031,0 -2.2266,-0.6094 -1.0234,-0.6094 -1.6172,-1.6328 -0.5937,-1.0234 -0.5937,-2.2422 0,-0.9062 0.3281,-1.7578 0.3281,-0.8516 0.9375,-1.5234 0.6094,-0.6719 1.4141,-1.0469 0.8047,-0.375 1.7578,-0.375 1.2344,0 2.2422,0.6484 1.0078,0.6485 1.5937,1.7422 0.586,1.0938 0.586,2.3125 0,1.2031 -0.5938,2.2344 -0.5937,1.0312 -1.6172,1.6406 -1.0234,0.6094 -2.2109,0.6094 z m 0,-0.5781 q 1.6094,0 2.1406,-1.1641 0.5313,-1.1641 0.5313,-2.9609 0,-1 -0.1016,-1.6641 -0.1016,-0.6641 -0.4766,-1.1953 -0.2187,-0.3281 -0.5625,-0.5781 -0.3437,-0.25 -0.7343,-0.3829 -0.3907,-0.1328 -0.7969,-0.1328 -0.625,0 -1.1875,0.2813 -0.5625,0.2812 -0.9375,0.8125 -0.3594,0.5625 -0.4609,1.2422 -0.1016,0.6797 -0.1016,1.6172 0,1.125 0.1953,2.0156 0.1953,0.8906 0.7813,1.5 0.5859,0.6094 1.7109,0.6094 z"
           style="stroke:none" />
        <path
           id="path10618"
           d="m -38.9838,-9.5187 0,-4.4062 q 0,-0.5313 -0.1563,-0.7735 -0.1562,-0.2422 -0.4609,-0.2969 -0.3047,-0.0546 -0.9453,-0.0546 l 0,-0.7032 3.0312,-0.2187 0,6.4531 q 0,0.7813 0.1094,1.2188 0.1094,0.4375 0.4766,0.6562 0.3671,0.2188 1.164,0.2188 1.0781,0 1.711,-0.8985 0.6328,-0.8984 0.6328,-2.0547 l 0,-3.5468 q 0,-0.5313 -0.1641,-0.7735 -0.1641,-0.2422 -0.4609,-0.2969 -0.2969,-0.0546 -0.9375,-0.0546 l 0,-0.7032 3.0312,-0.2187 0,7.0312 q 0,0.5157 0.1563,0.7578 0.1562,0.2422 0.4609,0.2969 0.3047,0.0547 0.9453,0.0547 l 0,0.7031 -2.9687,0.2188 0,-1.6875 q -0.375,0.75 -1.0391,1.2187 -0.6641,0.4688 -1.4609,0.4688 -1.4375,0 -2.2813,-0.6094 -0.8437,-0.6094 -0.8437,-2 z"
           style="stroke:none" />
        <path
           id="path10620"
           d="m -29.5463,-7.1281 0,-0.7031 q 0.6875,0 1.125,-0.1094 0.4375,-0.1093 0.4375,-0.5312 l 0,-5.4531 q 0,-0.5313 -0.1562,-0.7735 -0.1563,-0.2422 -0.461,-0.2969 -0.3047,-0.0546 -0.9453,-0.0546 l 0,-0.7032 2.9063,-0.2187 0,1.9531 q 0.3906,-0.8594 1.1796,-1.4062 0.7891,-0.5469 1.711,-0.5469 1.3906,0 2.0937,0.664 0.7032,0.6641 0.7032,2.0391 l 0,4.7969 q 0,0.4219 0.4375,0.5312 0.4375,0.1094 1.125,0.1094 l 0,0.7031 -4.5938,0 0,-0.7031 q 0.6875,0 1.125,-0.1094 0.4375,-0.1093 0.4375,-0.5312 l 0,-4.7344 q 0,-0.9844 -0.2812,-1.6172 -0.2813,-0.6328 -1.1563,-0.6328 -1.1562,0 -1.9062,0.9297 -0.75,0.9297 -0.75,2.1172 l 0,3.9375 q 0,0.4219 0.4375,0.5312 0.4375,0.1094 1.1093,0.1094 l 0,0.7031 -4.5781,0 z"
           style="stroke:none" />
        <path
           id="path10622"
           d="m -14.2494,-6.9093 q -1.1875,0 -2.164,-0.6406 -0.9766,-0.6407 -1.5157,-1.6797 -0.539,-1.0391 -0.539,-2.211 0,-1.2187 0.5859,-2.2578 0.5859,-1.039 1.6016,-1.6562 1.0156,-0.6172 2.2343,-0.6172 0.7344,0 1.3907,0.3125 0.6562,0.3125 1.1406,0.8594 l 0,-4.1719 q 0,-0.5313 -0.1641,-0.7735 -0.164,-0.2421 -0.4609,-0.289 -0.2969,-0.0469 -0.9375,-0.0469 l 0,-0.7031 2.9687,-0.2188 0,12.0625 q 0,0.5157 0.1563,0.7578 0.1562,0.2422 0.4531,0.2969 0.2969,0.0547 0.9375,0.0547 l 0,0.7031 -3.0156,0.2188 0,-1.25 q -0.5156,0.5937 -1.2344,0.9219 -0.7187,0.3281 -1.4375,0.3281 z m -2.0469,-1.9531 q 0.3438,0.6562 0.9141,1.0468 0.5703,0.3907 1.2422,0.3907 0.8281,0 1.5234,-0.4844 0.6953,-0.4844 1.0391,-1.2344 l 0,-4.7969 q -0.2344,-0.4375 -0.5938,-0.789 -0.3593,-0.3516 -0.8046,-0.5391 -0.4454,-0.1875 -0.9454,-0.1875 -1.0312,0 -1.6718,0.5938 -0.6407,0.5937 -0.8907,1.5156 -0.25,0.9219 -0.25,1.9219 0,0.7968 0.0782,1.3906 0.0781,0.5937 0.3593,1.1719 z"
           style="stroke:none" />
        <path
           id="path10624"
           d="m -0.8994,-7.1281 0,-0.7031 q 0.6719,0 1.1172,-0.1094 0.4453,-0.1093 0.4453,-0.5312 l 0,-6.5781 -1.5312,0 0,-0.7032 1.5312,0 0,-2.3906 q 0,-0.6406 0.2657,-1.2031 0.2656,-0.5625 0.7187,-0.9844 0.4531,-0.4219 1.0469,-0.6641 0.5937,-0.2421 1.2187,-0.2421 0.6875,0 1.2266,0.4062 0.5391,0.4063 0.5391,1.0625 0,0.3906 -0.2578,0.6484 -0.2579,0.2579 -0.6485,0.2579 -0.375,0 -0.6406,-0.2579 -0.2656,-0.2578 -0.2656,-0.6484 0,-0.625 0.5312,-0.8437 -0.3281,-0.0938 -0.5781,-0.0938 -0.5781,0 -0.9922,0.4141 -0.4141,0.414 -0.625,1.0078 -0.2109,0.5937 -0.2109,1.1719 l 0,2.3593 2.3125,0 0,0.7032 -2.2344,0 0,6.5781 q 0,0.4219 0.5859,0.5312 0.586,0.1094 1.336,0.1094 l 0,0.7031 -4.8907,0 z"
           style="stroke:none" />
        <path
           id="path10626"
           d="m 5.0257,-7.1281 0,-0.7031 q 0.6875,0 1.125,-0.1094 0.4375,-0.1093 0.4375,-0.5312 l 0,-5.4531 q 0,-0.5313 -0.1563,-0.7735 -0.1562,-0.2422 -0.4609,-0.2969 -0.3047,-0.0546 -0.9453,-0.0546 l 0,-0.7032 2.8593,-0.2187 0,1.9531 q 0.3282,-0.8594 0.9219,-1.4062 0.5938,-0.5469 1.4531,-0.5469 0.5938,0 1.0625,0.3515 0.4688,0.3516 0.4688,0.9297 0,0.3594 -0.2578,0.6328 -0.2578,0.2735 -0.6485,0.2735 -0.375,0 -0.6328,-0.2656 -0.2578,-0.2657 -0.2578,-0.6407 0,-0.5312 0.375,-0.7656 l -0.1094,0 q -0.8125,0 -1.3281,0.5859 -0.5156,0.586 -0.7265,1.461 -0.211,0.875 -0.211,1.6562 l 0,3.2813 q 0,0.6406 1.9375,0.6406 l 0,0.7031 -4.9062,0 z"
           style="stroke:none" />
        <path
           id="path10628"
           d="m 13.0619,-9.0968 q 0,-1.1875 0.9375,-1.9375 0.9375,-0.75 2.25,-1.0547 1.3125,-0.3047 2.5,-0.3047 l 0,-0.8125 q 0,-0.5781 -0.25,-1.125 -0.25,-0.5469 -0.7343,-0.8906 -0.4844,-0.3438 -1.0625,-0.3438 -1.3282,0 -2.0157,0.5938 0.375,0 0.625,0.289 0.25,0.2891 0.25,0.6641 0,0.4063 -0.2812,0.6875 -0.2813,0.2813 -0.6719,0.2813 -0.4062,0 -0.6875,-0.2813 -0.2812,-0.2812 -0.2812,-0.6875 0,-1.0469 0.9609,-1.5625 0.9609,-0.5156 2.1016,-0.5156 0.8125,0 1.6328,0.3515 0.8203,0.3516 1.3437,0.9922 0.5235,0.6407 0.5235,1.5 l 0,4.5 q 0,0.3907 0.164,0.7188 0.1641,0.3281 0.5235,0.3281 0.3281,0 0.4921,-0.3281 0.1641,-0.3281 0.1641,-0.7188 l 0,-1.2812 0.5781,0 0,1.2812 q 0,0.4532 -0.2343,0.8594 -0.2344,0.4063 -0.625,0.6484 -0.3907,0.2422 -0.8594,0.2422 -0.5781,0 -1.0078,-0.4609 -0.4297,-0.4609 -0.4766,-1.0859 -0.3594,0.75 -1.0859,1.1953 -0.7266,0.4453 -1.5391,0.4453 -0.7656,0 -1.5078,-0.2188 -0.7422,-0.2187 -1.2344,-0.7031 -0.4922,-0.4844 -0.4922,-1.2656 z m 1.625,0 q 0,0.7031 0.5157,1.1875 0.5156,0.4844 1.2187,0.4844 0.6563,0 1.1797,-0.3282 0.5234,-0.3281 0.8359,-0.8828 0.3125,-0.5547 0.3125,-1.164 l 0,-2.0782 q -0.9062,0 -1.8593,0.2969 -0.9532,0.2969 -1.5782,0.9297 -0.625,0.6328 -0.625,1.5547 z"
           style="stroke:none" />
        <path
           id="path10630"
           d="m 27.1495,-6.9093 q -1.2188,0 -2.2032,-0.625 -0.9843,-0.625 -1.5468,-1.6797 -0.5625,-1.0547 -0.5625,-2.2266 0,-1.1875 0.5546,-2.2734 0.5547,-1.0859 1.5469,-1.7344 0.9922,-0.6484 2.211,-0.6484 1.1718,0 2.1328,0.4609 0.9609,0.461 0.9609,1.5078 0,0.3907 -0.2812,0.6797 -0.2813,0.2891 -0.6719,0.2891 -0.4063,0 -0.6875,-0.2891 -0.2813,-0.289 -0.2813,-0.6797 0,-0.3593 0.2266,-0.6172 0.2266,-0.2578 0.5547,-0.3203 -0.6875,-0.4375 -1.9375,-0.4375 -0.9531,0 -1.5391,0.6328 -0.5859,0.6329 -0.8203,1.5704 -0.2344,0.9375 -0.2344,1.8593 0,0.9688 0.2891,1.8672 0.2891,0.8985 0.9297,1.4922 0.6406,0.5938 1.5937,0.5938 0.9532,0 1.6172,-0.586 0.6641,-0.5859 0.9141,-1.5234 0,-0.1094 0.1562,-0.1094 l 0.2344,0 q 0.0625,0 0.1094,0.0547 0.0469,0.0547 0.0469,0.1172 l 0,0.0625 q -0.2969,1.1875 -1.1954,1.875 -0.8984,0.6875 -2.1171,0.6875 z"
           style="stroke:none" />
        <path
           id="path10632"
           d="m 33.012,-9.5343 0,-5.5156 -1.6719,0 0,-0.5157 q 1.3125,0 1.9297,-1.2187 0.6172,-1.2188 0.6172,-2.6563 l 0.5781,0 0,3.6875 2.8125,0 0,0.7032 -2.8125,0 0,5.4843 q 0,0.8282 0.2734,1.4532 0.2735,0.625 1.0078,0.625 0.6719,0 0.9766,-0.6641 0.3047,-0.6641 0.3047,-1.4141 l 0,-1.1875 0.5781,0 0,1.2188 q 0,0.625 -0.2266,1.2344 -0.2265,0.6093 -0.6796,1 -0.4532,0.3906 -1.0938,0.3906 -1.2031,0 -1.8984,-0.7188 -0.6953,-0.7187 -0.6953,-1.9062 z"
           style="stroke:none" />
        <path
           id="path10634"
           d="m 39.2745,-7.1281 0,-0.7031 q 0.6875,0 1.125,-0.1094 0.4375,-0.1093 0.4375,-0.5312 l 0,-5.4531 q 0,-0.7657 -0.2969,-0.9454 -0.2969,-0.1796 -1.1719,-0.1796 l 0,-0.7032 2.875,-0.2187 0,7.5 q 0,0.4219 0.3828,0.5312 0.3829,0.1094 1.0235,0.1094 l 0,0.7031 -4.375,0 z m 0.8594,-12.2812 q 0,-0.4375 0.3281,-0.7656 0.3281,-0.3282 0.7656,-0.3282 0.2813,0 0.5469,0.1407 0.2656,0.1406 0.4062,0.4062 0.1407,0.2656 0.1407,0.5469 0,0.4375 -0.3282,0.7656 -0.3281,0.3281 -0.7656,0.3281 -0.4375,0 -0.7656,-0.3281 -0.3281,-0.3281 -0.3281,-0.7656 z"
           style="stroke:none" />
        <path
           id="path10636"
           d="m 49.1651,-6.9093 q -1.2031,0 -2.2265,-0.6094 -1.0235,-0.6094 -1.6172,-1.6328 -0.5938,-1.0234 -0.5938,-2.2422 0,-0.9062 0.3281,-1.7578 0.3282,-0.8516 0.9375,-1.5234 0.6094,-0.6719 1.4141,-1.0469 0.8047,-0.375 1.7578,-0.375 1.2344,0 2.2422,0.6484 1.0078,0.6485 1.5938,1.7422 0.5859,1.0938 0.5859,2.3125 0,1.2031 -0.5938,2.2344 -0.5937,1.0312 -1.6171,1.6406 -1.0235,0.6094 -2.211,0.6094 z m 0,-0.5781 q 1.6094,0 2.1406,-1.1641 0.5313,-1.1641 0.5313,-2.9609 0,-1 -0.1016,-1.6641 -0.1015,-0.6641 -0.4765,-1.1953 -0.2188,-0.3281 -0.5625,-0.5781 -0.3438,-0.25 -0.7344,-0.3829 -0.3906,-0.1328 -0.7969,-0.1328 -0.625,0 -1.1875,0.2813 -0.5625,0.2812 -0.9375,0.8125 -0.3594,0.5625 -0.4609,1.2422 -0.1016,0.6797 -0.1016,1.6172 0,1.125 0.1953,2.0156 0.1953,0.8906 0.7813,1.5 0.5859,0.6094 1.7109,0.6094 z"
           style="stroke:none" />
        <path
           id="path10638"
           d="m 54.6589,-7.1281 0,-0.7031 q 0.6875,0 1.125,-0.1094 0.4375,-0.1093 0.4375,-0.5312 l 0,-5.4531 q 0,-0.5313 -0.1562,-0.7735 -0.1563,-0.2422 -0.461,-0.2969 -0.3047,-0.0546 -0.9453,-0.0546 l 0,-0.7032 2.9063,-0.2187 0,1.9531 q 0.3906,-0.8594 1.1796,-1.4062 0.7891,-0.5469 1.711,-0.5469 1.3906,0 2.0937,0.664 0.7032,0.6641 0.7032,2.0391 l 0,4.7969 q 0,0.4219 0.4375,0.5312 0.4375,0.1094 1.125,0.1094 l 0,0.7031 -4.5938,0 0,-0.7031 q 0.6875,0 1.125,-0.1094 0.4375,-0.1093 0.4375,-0.5312 l 0,-4.7344 q 0,-0.9844 -0.2812,-1.6172 -0.2813,-0.6328 -1.1563,-0.6328 -1.1562,0 -1.9062,0.9297 -0.75,0.9297 -0.75,2.1172 l 0,3.9375 q 0,0.4219 0.4375,0.5312 0.4375,0.1094 1.1093,0.1094 l 0,0.7031 -4.5781,0 z"
           style="stroke:none" />
      </g>
      <g
         id="g11504">
        <g
           transform="translate(77.142857,59.50506)"
           style="font-style:normal;font-weight:normal;font-size:medium;font-family:Dialog;color-interpolation:linearRGB;fill:#262626;fill-opacity:1;stroke:#262626;stroke-width:0.5;stroke-linecap:square;stroke-linejoin:round;stroke-miterlimit:10;stroke-dasharray:none;stroke-dashoffset:0;stroke-opacity:1;color-rendering:optimizeQuality;image-rendering:optimizeQuality;shape-rendering:auto;text-rendering:geometricPrecision"
           id="g10556">
          <line
             y2="31"
             style="fill:none"
             x1="73"
             x2="73"
             y1="374"
             id="line10558" />
          <line
             y2="357.66669"
             style="fill:none"
             x1="73"
             x2="77.339996"
             y1="357.66669"
             id="line10560" />
          <line
             y2="292.33331"
             style="fill:none"
             x1="73"
             x2="77.339996"
             y1="292.33331"
             id="line10562" />
          <line
             y2="227"
             style="fill:none"
             x1="73"
             x2="77.339996"
             y1="227"
             id="line10564" />
          <line
             y2="161.6667"
             style="fill:none"
             x1="73"
             x2="77.339996"
             y1="161.6667"
             id="line10566" />
          <line
             y2="96.333298"
             style="fill:none"
             x1="73"
             x2="77.339996"
             y1="96.333298"
             id="line10568" />
          <line
             y2="31"
             style="fill:none"
             x1="73"
             x2="77.339996"
             y1="31"
             id="line10570" />
        </g>
        <g
           transform="matrix(0.79615656,0,0,1.0032533,30.579067,-1.3837447)"
           id="g11435">
          <line
             y2="429.16507"
             style="font-style:normal;font-weight:normal;font-size:medium;font-family:Dialog;color-interpolation:linearRGB;fill:none;fill-opacity:1;stroke:#262626;stroke-width:0.5;stroke-linecap:square;stroke-linejoin:round;stroke-miterlimit:10;stroke-dasharray:none;stroke-dashoffset:0;stroke-opacity:1;color-rendering:optimizeQuality;image-rendering:optimizeQuality;shape-rendering:auto;text-rendering:geometricPrecision"
             x1="150.14285"
             x2="150.14285"
             y1="433.50507"
             id="line10492" />
          <line
             y2="429.16507"
             style="font-style:normal;font-weight:normal;font-size:medium;font-family:Dialog;color-interpolation:linearRGB;fill:none;fill-opacity:1;stroke:#262626;stroke-width:0.5;stroke-linecap:square;stroke-linejoin:round;stroke-miterlimit:10;stroke-dasharray:none;stroke-dashoffset:0;stroke-opacity:1;color-rendering:optimizeQuality;image-rendering:optimizeQuality;shape-rendering:auto;text-rendering:geometricPrecision"
             x1="584.14288"
             x2="584.14288"
             y1="433.50507"
             id="line10500" />
          <line
             y2="433.50507"
             style="font-style:normal;font-weight:normal;font-size:medium;font-family:Dialog;color-interpolation:linearRGB;fill:none;fill-opacity:1;stroke:#262626;stroke-width:0.5;stroke-linecap:square;stroke-linejoin:round;stroke-miterlimit:10;stroke-dasharray:none;stroke-dashoffset:0;stroke-opacity:1;color-rendering:optimizeQuality;image-rendering:optimizeQuality;shape-rendering:auto;text-rendering:geometricPrecision"
             x1="150.14285"
             x2="584.14288"
             y1="433.50507"
             id="line10490" />
          <g
             id="g10640"
             style="font-style:normal;font-weight:normal;font-size:medium;font-family:Dialog;color-interpolation:linearRGB;fill:#262626;fill-opacity:1;stroke:#262626;stroke-width:0.5;stroke-linecap:butt;stroke-linejoin:round;stroke-miterlimit:10;stroke-dasharray:none;stroke-dashoffset:0;stroke-opacity:1;color-rendering:optimizeQuality;image-rendering:optimizeQuality;shape-rendering:auto;text-rendering:geometricPrecision"
             transform="translate(77.142857,59.50506)">
            <line
               id="line10642"
               y1="357.66669"
               x2="507"
               x1="73"
               style="fill:none"
               y2="357.66669" />
          </g>
          <g
             id="g10682"
             transform="translate(258.64286,430.23836)"
             style="font-style:normal;font-weight:normal;font-size:medium;font-family:Dialog;color-interpolation:linearRGB;fill:#000000;fill-opacity:1;stroke:#000000;stroke-width:1;stroke-linecap:square;stroke-linejoin:miter;stroke-miterlimit:10;stroke-dasharray:none;stroke-dashoffset:0;stroke-opacity:1;color-rendering:optimizeQuality;image-rendering:optimizeQuality;shape-rendering:auto;text-rendering:geometricPrecision">
            <path
               id="path10684"
               d="M -3,0 3,0"
               style="stroke:none" />
          </g>
        </g>
      </g>
      <g
         id="g10690"
         transform="translate(367.14286,204.83836)"
         style="font-style:normal;font-weight:normal;font-size:medium;font-family:Dialog;color-interpolation:linearRGB;fill:#000000;fill-opacity:1;stroke:#000000;stroke-width:1;stroke-linecap:square;stroke-linejoin:miter;stroke-miterlimit:10;stroke-dasharray:none;stroke-dashoffset:0;stroke-opacity:1;color-rendering:optimizeQuality;image-rendering:optimizeQuality;shape-rendering:auto;text-rendering:geometricPrecision">
        <path
           id="path10692"
           d="M -3,0 3,0"
           style="stroke:none" />
      </g>
      <g
         id="g10706"
         transform="translate(258.64286,410.63836)"
         style="font-style:normal;font-weight:normal;font-size:medium;font-family:Dialog;color-interpolation:linearRGB;fill:#000000;fill-opacity:1;stroke:#000000;stroke-width:1;stroke-linecap:square;stroke-linejoin:miter;stroke-miterlimit:10;stroke-dasharray:none;stroke-dashoffset:0;stroke-opacity:1;color-rendering:optimizeQuality;image-rendering:optimizeQuality;shape-rendering:auto;text-rendering:geometricPrecision">
        <path
           id="path10708"
           d="M -3,0 3,0"
           style="stroke:none" />
      </g>
      <g
         id="g11484">
        <g
           transform="translate(212.64286,439.10506)"
           style="font-style:normal;font-weight:normal;font-size:18px;font-family:mwa_cmr10;color-interpolation:linearRGB;fill:#262626;fill-opacity:1;stroke:#262626;stroke-width:1;stroke-linecap:square;stroke-linejoin:miter;stroke-miterlimit:10;stroke-dasharray:none;stroke-dashoffset:0;stroke-opacity:1;color-rendering:optimizeQuality;image-rendering:optimizeQuality;shape-rendering:auto;text-rendering:geometricPrecision"
           id="g10502">
          <path
             style="stroke:none"
             d="m -47.2657,15.1199 0,-0.6406 q 1.8594,0 1.8594,-1.0625 l 0,-9.8594 q -0.5938,-0.0937 -1.8594,-0.0937 l 0,-0.6406 3.4531,0 q 0.0938,0 0.125,0.0781 l 6.375,9.375 0,-7.75 q 0,-1.0625 -1.8594,-1.0625 l 0,-0.6406 4.2813,0 0,0.6406 q -1.8438,0 -1.8438,1.0625 l 0,10.4375 q 0,0.0469 -0.0703,0.1015 -0.0703,0.0547 -0.1172,0.0547 l -0.2187,0 q -0.0938,0 -0.125,-0.0781 l -7.5625,-11.125 0,9.5 q 0,1.0625 1.8594,1.0625 l 0,0.6406 -4.2969,0 z"
             id="path10504" />
          <path
             style="stroke:none"
             d="m -29.8126,15.3231 q -1.0781,0 -2,-0.5469 -0.9218,-0.5469 -1.4609,-1.4766 -0.5391,-0.9297 -0.5391,-2.0078 0,-0.8281 0.2969,-1.5937 0.2969,-0.7657 0.8438,-1.3672 0.5468,-0.6016 1.2734,-0.9375 0.7266,-0.336 1.5859,-0.336 1.1094,0 2.0157,0.5782 0.9062,0.5781 1.4375,1.5625 0.5312,0.9843 0.5312,2.0937 0,1.0781 -0.539,2.0078 -0.5391,0.9297 -1.4532,1.4766 -0.914,0.5469 -1.9922,0.5469 z m 0,-0.5313 q 1.4375,0 1.9219,-1.0469 0.4844,-1.0468 0.4844,-2.6562 0,-0.9063 -0.0938,-1.5 -0.0937,-0.5938 -0.4218,-1.0781 -0.2032,-0.2969 -0.5157,-0.5235 -0.3125,-0.2265 -0.6562,-0.3437 -0.3438,-0.1172 -0.7188,-0.1172 -0.5625,0 -1.0703,0.2578 -0.5078,0.2578 -0.8359,0.7266 -0.3281,0.5156 -0.4219,1.125 -0.0937,0.6093 -0.0937,1.4531 0,1 0.1718,1.8047 0.1719,0.8047 0.7032,1.3515 0.5312,0.5469 1.5468,0.5469 z"
             id="path10506" />
          <path
             style="stroke:none"
             d="m -18.7657,15.1199 0,-0.6406 q 1.8594,0 1.8594,-0.5625 l 0,-9.8906 q 0,-0.5625 -1.8594,-0.5625 l 0,-0.6406 9.9375,0 0.5,4.125 -0.5312,0 Q -8.9688,5.8074 -9.1797,5.1512 -9.3907,4.4949 -9.7891,4.1277 -10.1875,3.7606 -10.8438,3.6121 -11.5,3.4637 -12.6719,3.4637 l -1.6406,0 q -0.3282,0 -0.5078,0.0234 -0.1797,0.0235 -0.2891,0.1485 -0.1094,0.125 -0.1094,0.3906 l 0,4.6406 1.2656,0 q 0.9219,0 1.3516,-0.1641 0.4297,-0.164 0.5938,-0.5937 0.164,-0.4297 0.164,-1.3516 l 0.5156,0 0,4.8282 -0.5156,0 q 0,-0.9219 -0.164,-1.3516 -0.1641,-0.4297 -0.5938,-0.5938 -0.4297,-0.164 -1.3516,-0.164 l -1.2656,0 0,4.6406 q 0,0.5625 2.2969,0.5625 l 0,0.6406 -5.8438,0 z"
             id="path10508" />
          <path
             style="stroke:none"
             d="m -6.5469,15.3699 0,-4.2031 q 0,-0.1406 0.1563,-0.1406 l 0.2187,0 q 0.0469,0 0.0938,0.0469 0.0469,0.0468 0.0469,0.0937 0,1.7656 1.0937,2.7422 1.0938,0.9766 2.875,0.9766 0.625,0 1.1484,-0.3594 0.5235,-0.3594 0.8204,-0.9453 0.2968,-0.586 0.2968,-1.211 0,-0.5468 -0.2187,-1.0625 -0.2188,-0.5156 -0.6328,-0.8906 -0.4141,-0.375 -0.9297,-0.5 L -3.9219,9.3387 q -1.1562,-0.2969 -1.8906,-1.25 -0.7344,-0.9531 -0.7344,-2.1406 0,-0.9375 0.4688,-1.7579 0.4687,-0.8203 1.2734,-1.289 Q -4,2.4324 -3.0625,2.4324 q 1.7969,0 2.8594,1.2188 l 0.75,-1.1719 Q 0.5938,2.4324 0.6719,2.4324 l 0.1094,0 q 0.0625,0 0.1093,0.0391 0.0469,0.0391 0.0469,0.1016 l 0,4.1718 q 0,0.1719 -0.1562,0.1719 l -0.2032,0 q -0.1718,0 -0.1718,-0.1719 0,-0.4531 -0.1485,-1 -0.1484,-0.5468 -0.4219,-1.0468 -0.2734,-0.5 -0.6015,-0.8125 -0.8594,-0.875 -2.2969,-0.875 -0.6094,0 -1.1328,0.3125 -0.5234,0.3125 -0.8281,0.8437 -0.3047,0.5313 -0.3047,1.125 0,0.7813 0.4765,1.4063 0.4766,0.625 1.2579,0.8281 l 2.3281,0.5781 q 0.5781,0.1406 1.0937,0.5 0.5157,0.3594 0.8594,0.8438 0.3438,0.4843 0.5391,1.0781 0.1953,0.5937 0.1953,1.2344 0,0.9687 -0.4453,1.8359 -0.4453,0.8672 -1.2657,1.3906 -0.8203,0.5235 -1.7734,0.5235 -0.6094,0 -1.2344,-0.1329 -0.625,-0.1328 -1.1484,-0.3984 -0.5234,-0.2656 -0.9609,-0.7031 l -0.75,1.1875 q -0.0469,0.0469 -0.125,0.0469 l -0.1094,0 q -0.1563,0 -0.1563,-0.1407 z"
             id="path10510" />
          <path
             style="stroke:none"
             d="m 2.9844,15.1199 0,-0.6406 q 1.8594,0 1.8594,-0.5625 l 0,-9.8906 q 0,-0.5625 -1.8594,-0.5625 l 0,-0.6406 9.9375,0 0.5,4.125 -0.5312,0 Q 12.7813,5.8074 12.5703,5.1512 12.3594,4.4949 11.961,4.1277 11.5625,3.7606 10.9063,3.6121 10.25,3.4637 9.0782,3.4637 l -1.6407,0 q -0.3281,0 -0.5078,0.0234 Q 6.75,3.5106 6.6407,3.6356 6.5313,3.7606 6.5313,4.0262 l 0,4.6406 1.2656,0 q 0.9219,0 1.3516,-0.1641 Q 9.5782,8.3387 9.7422,7.909 9.9063,7.4793 9.9063,6.5574 l 0.5156,0 0,4.8282 -0.5156,0 q 0,-0.9219 -0.1641,-1.3516 Q 9.5782,9.6043 9.1485,9.4402 8.7188,9.2762 7.7969,9.2762 l -1.2656,0 0,4.6406 q 0,0.5625 2.2969,0.5625 l 0,0.6406 -5.8438,0 z"
             id="path10512" />
          <path
             style="stroke:none"
             d="m 17.8282,13.1981 q 0.6562,0.7812 1.5859,1.2343 0.9297,0.4532 1.961,0.4532 1,0 1.8125,-0.5079 0.8125,-0.5078 0.8125,-1.4609 l 0,-1.5 q 0,-0.5781 -2.25,-0.5781 l 0,-0.625 5.1718,0 0,0.625 q -0.5781,0 -0.914,0.0937 -0.336,0.0938 -0.336,0.4844 l 0,3.5469 q 0,0.0625 -0.0468,0.1094 -0.0469,0.0468 -0.1094,0.0468 -0.1719,0 -0.5625,-0.3984 -0.3906,-0.3984 -0.6094,-0.6953 -0.4375,0.75 -1.3828,1.1172 -0.9453,0.3672 -1.9766,0.3672 -1.7343,0 -3.1718,-0.8985 -1.4375,-0.8984 -2.2735,-2.4062 -0.8359,-1.5078 -0.8359,-3.2422 0,-1.2656 0.4844,-2.4688 0.4843,-1.2031 1.3437,-2.1172 0.8594,-0.914 2.0156,-1.4296 1.1563,-0.5157 2.4375,-0.5157 0.9375,0 1.7657,0.3985 0.8281,0.3984 1.4843,1.1328 l 1.0469,-1.4844 q 0.1094,-0.0469 0.125,-0.0469 l 0.125,0 q 0.0625,0 0.1016,0.0391 0.039,0.0391 0.039,0.1016 l 0,4.8593 q 0,0.1563 -0.1406,0.1563 l -0.3281,0 q -0.1563,0 -0.1563,-0.1563 0,-0.5156 -0.2109,-1.1562 -0.2109,-0.6406 -0.5312,-1.2188 -0.3204,-0.5781 -0.7422,-1.0156 -1,-0.9844 -2.3125,-0.9844 -1,0 -1.9141,0.4532 -0.9141,0.4531 -1.5391,1.2343 -0.6562,0.8438 -0.914,1.9219 -0.2578,1.0781 -0.2578,2.2969 0,2.7656 1.2031,4.2344 z"
             id="path10514" />
          <path
             style="stroke:none"
             d="m 28.0157,11.7918 0,-1.125 4.7656,0 0,1.125 -4.7656,0 z"
             id="path10516" />
          <path
             style="stroke:none"
             d="m 34.3594,15.1199 0,-0.6406 q 1.8594,0 1.8594,-0.5625 l 0,-9.8906 q 0,-0.5625 -1.8594,-0.5625 l 0,-0.6406 5.3907,0 0,0.6406 q -1.8438,0 -1.8438,0.5625 l 0,5.8437 5.5625,-5.3437 q 0.2188,-0.25 0.2188,-0.5 0,-0.2813 -0.2422,-0.4219 -0.2422,-0.1406 -0.5391,-0.1406 l 0,-0.6406 3.9063,0 0,0.6406 q -1.4844,0 -2.5938,1.0625 l -3.1875,3.0469 3.9375,5.8437 q 0.4844,0.7188 0.8516,0.8906 0.3672,0.1719 1.2422,0.1719 l 0,0.6406 -4.7188,0 0,-0.6406 q 0.4375,0 0.7266,-0.0859 0.289,-0.086 0.289,-0.4141 0,-0.2187 -0.2187,-0.5625 l -3.2344,-4.7812 -2,1.9531 0,3.3281 q 0,0.5625 1.8438,0.5625 l 0,0.6406 -5.3907,0 z"
             id="path10518" />
        </g>
        <g
           transform="translate(-46,0)"
           id="g11417">
          <path
             style="font-style:normal;font-weight:normal;font-size:medium;font-family:Dialog;color-interpolation:sRGB;fill:#58a1e4;fill-opacity:1;stroke:none;stroke-width:1;stroke-linecap:square;stroke-linejoin:miter;stroke-miterlimit:10;stroke-dasharray:none;stroke-dashoffset:0;stroke-opacity:1;color-rendering:optimizeSpeed;image-rendering:optimizeSpeed;shape-rendering:crispEdges;text-rendering:optimizeSpeed"
             d="m 215.24286,417.17176 86.8,0 0,3.2666 -86.8,0 z"
             id="path10646" />
          <g
             id="g11169">
            <line
               id="line10660"
               y2="430.23837"
               style="font-style:normal;font-weight:normal;font-size:medium;font-family:Dialog;color-interpolation:linearRGB;fill:none;fill-opacity:1;stroke:#000000;stroke-width:2;stroke-linecap:butt;stroke-linejoin:round;stroke-miterlimit:10;stroke-dasharray:none;stroke-dashoffset:0;stroke-opacity:1;color-rendering:optimizeQuality;image-rendering:optimizeQuality;shape-rendering:auto;text-rendering:geometricPrecision"
               y1="420.43835"
               x2="258.64285"
               x1="258.64285" />
            <line
               id="line10666"
               y2="410.63837"
               style="font-style:normal;font-weight:normal;font-size:medium;font-family:Dialog;color-interpolation:linearRGB;fill:none;fill-opacity:1;stroke:#000000;stroke-width:2;stroke-linecap:butt;stroke-linejoin:round;stroke-miterlimit:10;stroke-dasharray:none;stroke-dashoffset:0;stroke-opacity:1;color-rendering:optimizeQuality;image-rendering:optimizeQuality;shape-rendering:auto;text-rendering:geometricPrecision"
               y1="420.43835"
               x2="258.64285"
               x1="258.64285" />
            <g
               transform="translate(258.64286,430.23836)"
               style="font-style:normal;font-weight:normal;font-size:medium;font-family:Dialog;color-interpolation:linearRGB;fill:#000000;fill-opacity:1;stroke:#000000;stroke-width:2;stroke-linecap:butt;stroke-linejoin:miter;stroke-miterlimit:10;stroke-dasharray:none;stroke-dashoffset:0;stroke-opacity:1;color-rendering:optimizeQuality;image-rendering:optimizeQuality;shape-rendering:auto;text-rendering:geometricPrecision"
               id="g10686">
              <path
                 style="fill:none;stroke-width:2;stroke-miterlimit:10;stroke-dasharray:none"
                 d="M -3,0 3,0"
                 id="path10688" />
            </g>
            <g
               transform="translate(258.64286,410.63836)"
               style="font-style:normal;font-weight:normal;font-size:medium;font-family:Dialog;color-interpolation:linearRGB;fill:#000000;fill-opacity:1;stroke:#000000;stroke-width:2;stroke-linecap:butt;stroke-linejoin:miter;stroke-miterlimit:10;stroke-dasharray:none;stroke-dashoffset:0;stroke-opacity:1;color-rendering:optimizeQuality;image-rendering:optimizeQuality;shape-rendering:auto;text-rendering:geometricPrecision"
               id="g10710">
              <path
                 style="fill:none;stroke-width:2;stroke-miterlimit:10;stroke-dasharray:none"
                 d="M -3,0 3,0"
                 id="path10712" />
            </g>
          </g>
        </g>
      </g>
      <g
         id="g10714"
         transform="translate(367.14286,178.70506)"
         style="font-style:normal;font-weight:normal;font-size:medium;font-family:Dialog;color-interpolation:linearRGB;fill:#000000;fill-opacity:1;stroke:#000000;stroke-width:1;stroke-linecap:square;stroke-linejoin:miter;stroke-miterlimit:10;stroke-dasharray:none;stroke-dashoffset:0;stroke-opacity:1;color-rendering:optimizeQuality;image-rendering:optimizeQuality;shape-rendering:auto;text-rendering:geometricPrecision">
        <path
           id="path10716"
           d="M -3,0 3,0"
           style="stroke:none" />
      </g>
      <g
         id="g11464">
        <g
           transform="translate(321.14286,439.10506)"
           style="font-style:normal;font-weight:normal;font-size:18px;font-family:mwa_cmr10;color-interpolation:linearRGB;fill:#262626;fill-opacity:1;stroke:#262626;stroke-width:1;stroke-linecap:square;stroke-linejoin:miter;stroke-miterlimit:10;stroke-dasharray:none;stroke-dashoffset:0;stroke-opacity:1;color-rendering:optimizeQuality;image-rendering:optimizeQuality;shape-rendering:auto;text-rendering:geometricPrecision"
           id="g10520">
          <path
             style="stroke:none"
             d="m -40.5157,15.1199 0,-0.6406 q 1.8594,0 1.8594,-0.5625 l 0,-9.8906 q 0,-0.5625 -1.8594,-0.5625 l 0,-0.6406 9.9375,0 0.5,4.125 -0.5313,0 Q -30.7188,5.8074 -30.9298,5.1512 -31.1407,4.4949 -31.5391,4.1277 -31.9376,3.7606 -32.5938,3.6121 -33.2501,3.4637 -34.422,3.4637 l -1.6406,0 q -0.3281,0 -0.5078,0.0234 -0.1797,0.0235 -0.2891,0.1485 -0.1093,0.125 -0.1093,0.3906 l 0,4.6406 1.2656,0 q 0.9219,0 1.3516,-0.1641 0.4296,-0.164 0.5937,-0.5937 0.1641,-0.4297 0.1641,-1.3516 l 0.5156,0 0,4.8282 -0.5156,0 q 0,-0.9219 -0.1641,-1.3516 -0.1641,-0.4297 -0.5937,-0.5938 -0.4297,-0.164 -1.3516,-0.164 l -1.2656,0 0,4.6406 q 0,0.5625 2.2968,0.5625 l 0,0.6406 -5.8437,0 z"
             id="path10522" />
          <path
             style="stroke:none"
             d="m -28.2969,15.3699 0,-4.2031 q 0,-0.1406 0.1562,-0.1406 l 0.2188,0 q 0.0469,0 0.0937,0.0469 0.0469,0.0468 0.0469,0.0937 0,1.7656 1.0938,2.7422 1.0937,0.9766 2.875,0.9766 0.625,0 1.1484,-0.3594 0.5234,-0.3594 0.8203,-0.9453 0.2969,-0.586 0.2969,-1.211 0,-0.5468 -0.2188,-1.0625 -0.2187,-0.5156 -0.6328,-0.8906 -0.414,-0.375 -0.9297,-0.5 l -2.3437,-0.5781 q -1.1563,-0.2969 -1.8906,-1.25 -0.7344,-0.9531 -0.7344,-2.1406 0,-0.9375 0.4687,-1.7579 0.4688,-0.8203 1.2735,-1.289 0.8047,-0.4688 1.7422,-0.4688 1.7968,0 2.8593,1.2188 l 0.75,-1.1719 q 0.0469,-0.0469 0.125,-0.0469 l 0.1094,0 q 0.0625,0 0.1094,0.0391 0.0469,0.0391 0.0469,0.1016 l 0,4.1718 q 0,0.1719 -0.1563,0.1719 l -0.2031,0 q -0.1719,0 -0.1719,-0.1719 0,-0.4531 -0.1484,-1 -0.1485,-0.5468 -0.4219,-1.0468 -0.2734,-0.5 -0.6016,-0.8125 -0.8593,-0.875 -2.2968,-0.875 -0.6094,0 -1.1329,0.3125 -0.5234,0.3125 -0.8281,0.8437 -0.3047,0.5313 -0.3047,1.125 0,0.7813 0.4766,1.4063 0.4766,0.625 1.2578,0.8281 l 2.3281,0.5781 q 0.5782,0.1406 1.0938,0.5 0.5156,0.3594 0.8594,0.8438 0.3437,0.4843 0.539,1.0781 0.1953,0.5937 0.1953,1.2344 0,0.9687 -0.4453,1.8359 -0.4453,0.8672 -1.2656,1.3906 -0.8203,0.5235 -1.7734,0.5235 -0.6094,0 -1.2344,-0.1329 -0.625,-0.1328 -1.1485,-0.3984 -0.5234,-0.2656 -0.9609,-0.7031 l -0.75,1.1875 q -0.0469,0.0469 -0.125,0.0469 l -0.1094,0 q -0.1562,0 -0.1562,-0.1407 z"
             id="path10524" />
          <path
             style="stroke:none"
             d="m -18.7656,15.1199 0,-0.6406 q 1.8593,0 1.8593,-0.5625 l 0,-9.8906 q 0,-0.5625 -1.8593,-0.5625 l 0,-0.6406 9.9375,0 0.5,4.125 -0.5313,0 Q -8.9688,5.8074 -9.1797,5.1512 -9.3906,4.4949 -9.7891,4.1277 -10.1875,3.7606 -10.8438,3.6121 -11.5,3.4637 -12.6719,3.4637 l -1.6406,0 q -0.3281,0 -0.5078,0.0234 -0.1797,0.0235 -0.2891,0.1485 -0.1094,0.125 -0.1094,0.3906 l 0,4.6406 1.2657,0 q 0.9218,0 1.3515,-0.1641 0.4297,-0.164 0.5938,-0.5937 0.164,-0.4297 0.164,-1.3516 l 0.5157,0 0,4.8282 -0.5157,0 q 0,-0.9219 -0.164,-1.3516 -0.1641,-0.4297 -0.5938,-0.5938 -0.4297,-0.164 -1.3515,-0.164 l -1.2657,0 0,4.6406 q 0,0.5625 2.2969,0.5625 l 0,0.6406 -5.8437,0 z"
             id="path10526" />
          <path
             style="stroke:none"
             d="m -3.9219,13.1981 q 0.6563,0.7812 1.586,1.2343 0.9297,0.4532 1.9609,0.4532 1,0 1.8125,-0.5079 Q 2.25,13.8699 2.25,12.9168 l 0,-1.5 Q 2.25,10.8387 0,10.8387 l 0,-0.625 5.1719,0 0,0.625 q -0.5781,0 -0.9141,0.0937 -0.3359,0.0938 -0.3359,0.4844 l 0,3.5469 q 0,0.0625 -0.0469,0.1094 -0.0469,0.0468 -0.1094,0.0468 -0.1718,0 -0.5625,-0.3984 -0.3906,-0.3984 -0.6093,-0.6953 -0.4375,0.75 -1.3828,1.1172 -0.9454,0.3672 -1.9766,0.3672 -1.7344,0 -3.1719,-0.8985 -1.4375,-0.8984 -2.2734,-2.4062 -0.836,-1.5078 -0.836,-3.2422 0,-1.2656 0.4844,-2.4688 0.4844,-1.2031 1.3438,-2.1172 0.8593,-0.914 2.0156,-1.4296 1.1562,-0.5157 2.4375,-0.5157 0.9375,0 1.7656,0.3985 0.8281,0.3984 1.4844,1.1328 L 3.5313,2.4793 Q 3.6406,2.4324 3.6563,2.4324 l 0.125,0 q 0.0625,0 0.1015,0.0391 0.0391,0.0391 0.0391,0.1016 l 0,4.8593 q 0,0.1563 -0.1406,0.1563 l -0.3282,0 q -0.1562,0 -0.1562,-0.1563 0,-0.5156 -0.2109,-1.1562 Q 2.875,5.6356 2.5547,5.0574 2.2344,4.4793 1.8125,4.0418 0.8125,3.0574 -0.5,3.0574 q -1,0 -1.914,0.4532 -0.9141,0.4531 -1.5391,1.2343 -0.6563,0.8438 -0.9141,1.9219 -0.2578,1.0781 -0.2578,2.2969 0,2.7656 1.2031,4.2344 z"
             id="path10528" />
          <path
             style="stroke:none"
             d="m 6.2657,11.7918 0,-1.125 4.7656,0 0,1.125 -4.7656,0 z"
             id="path10530" />
          <path
             style="stroke:none"
             d="m 12.6094,15.1199 0,-0.6406 q 1.8594,0 1.8594,-0.5625 l 0,-9.8906 q 0,-0.5625 -1.8594,-0.5625 l 0,-0.6406 5.3906,0 0,0.6406 q -1.8437,0 -1.8437,0.5625 l 0,5.8437 5.5625,-5.3437 q 0.2187,-0.25 0.2187,-0.5 0,-0.2813 -0.2422,-0.4219 -0.2422,-0.1406 -0.539,-0.1406 l 0,-0.6406 3.9062,0 0,0.6406 q -1.4844,0 -2.5937,1.0625 l -3.1875,3.0469 3.9375,5.8437 q 0.4843,0.7188 0.8515,0.8906 0.3672,0.1719 1.2422,0.1719 l 0,0.6406 -4.7187,0 0,-0.6406 q 0.4375,0 0.7265,-0.0859 0.2891,-0.086 0.2891,-0.4141 0,-0.2187 -0.2188,-0.5625 l -3.2343,-4.7812 -2,1.9531 0,3.3281 q 0,0.5625 1.8437,0.5625 l 0,0.6406 -5.3906,0 z"
             id="path10532" />
          <path
             style="stroke:none"
             d="m 26.2657,11.7918 0,-1.125 4.7656,0 0,1.125 -4.7656,0 z"
             id="path10534" />
          <path
             style="stroke:none"
             d="m 33.7344,15.1199 0,-0.6406 q 2.25,0 2.25,-0.5625 l 0,-9.4531 q -0.9375,0.4531 -2.3593,0.4531 l 0,-0.6406 q 2.2031,0 3.3281,-1.1406 l 0.2656,0 q 0.0625,0 0.1172,0.0468 0.0547,0.0469 0.0547,0.1094 l 0,10.625 q 0,0.5625 2.25,0.5625 l 0,0.6406 -5.9063,0 z"
             id="path10536" />
        </g>
        <g
           transform="translate(-46,0)"
           id="g11407">
          <path
             style="font-style:normal;font-weight:normal;font-size:medium;font-family:Dialog;color-interpolation:sRGB;fill:#58a1e4;fill-opacity:1;stroke:none;stroke-width:1;stroke-linecap:square;stroke-linejoin:miter;stroke-miterlimit:10;stroke-dasharray:none;stroke-dashoffset:0;stroke-opacity:1;color-rendering:optimizeSpeed;image-rendering:optimizeSpeed;shape-rendering:crispEdges;text-rendering:optimizeSpeed"
             d="m 323.74286,417.17176 86.8,0 0,-225.4 -86.8,0 z"
             id="path10648" />
          <g
             id="g11161">
            <line
               id="line10662"
               y2="204.83836"
               style="font-style:normal;font-weight:normal;font-size:medium;font-family:Dialog;color-interpolation:linearRGB;fill:none;fill-opacity:1;stroke:#000000;stroke-width:2;stroke-linecap:butt;stroke-linejoin:round;stroke-miterlimit:10;stroke-dasharray:none;stroke-dashoffset:0;stroke-opacity:1;color-rendering:optimizeQuality;image-rendering:optimizeQuality;shape-rendering:auto;text-rendering:geometricPrecision"
               y1="191.77176"
               x2="367.14285"
               x1="367.14285" />
            <line
               id="line10668"
               y2="178.70506"
               style="font-style:normal;font-weight:normal;font-size:medium;font-family:Dialog;color-interpolation:linearRGB;fill:none;fill-opacity:1;stroke:#000000;stroke-width:2;stroke-linecap:butt;stroke-linejoin:round;stroke-miterlimit:10;stroke-dasharray:none;stroke-dashoffset:0;stroke-opacity:1;color-rendering:optimizeQuality;image-rendering:optimizeQuality;shape-rendering:auto;text-rendering:geometricPrecision"
               y1="191.77176"
               x2="367.14285"
               x1="367.14285" />
            <g
               transform="translate(367.14286,204.83836)"
               style="font-style:normal;font-weight:normal;font-size:medium;font-family:Dialog;color-interpolation:linearRGB;fill:#000000;fill-opacity:1;stroke:#000000;stroke-width:2;stroke-linecap:butt;stroke-linejoin:miter;stroke-miterlimit:10;stroke-dasharray:none;stroke-dashoffset:0;stroke-opacity:1;color-rendering:optimizeQuality;image-rendering:optimizeQuality;shape-rendering:auto;text-rendering:geometricPrecision"
               id="g10694">
              <path
                 style="fill:none;stroke-width:2;stroke-miterlimit:10;stroke-dasharray:none"
                 d="M -3,0 3,0"
                 id="path10696" />
            </g>
            <g
               transform="translate(367.14286,178.70506)"
               style="font-style:normal;font-weight:normal;font-size:medium;font-family:Dialog;color-interpolation:linearRGB;fill:#000000;fill-opacity:1;stroke:#000000;stroke-width:2;stroke-linecap:butt;stroke-linejoin:miter;stroke-miterlimit:10;stroke-dasharray:none;stroke-dashoffset:0;stroke-opacity:1;color-rendering:optimizeQuality;image-rendering:optimizeQuality;shape-rendering:auto;text-rendering:geometricPrecision"
               id="g10718">
              <path
                 style="fill:none;stroke-width:2;stroke-miterlimit:10;stroke-dasharray:none"
                 d="M -3,0 3,0"
                 id="path10720" />
            </g>
          </g>
        </g>
      </g>
      <g
         id="g11444">
        <g
           transform="translate(429.64286,439.10506)"
           style="font-style:normal;font-weight:normal;font-size:18px;font-family:mwa_cmr10;color-interpolation:linearRGB;fill:#262626;fill-opacity:1;stroke:#262626;stroke-width:1;stroke-linecap:square;stroke-linejoin:miter;stroke-miterlimit:10;stroke-dasharray:none;stroke-dashoffset:0;stroke-opacity:1;color-rendering:optimizeQuality;image-rendering:optimizeQuality;shape-rendering:auto;text-rendering:geometricPrecision"
           id="g10538">
          <path
             style="stroke:none"
             d="m -40.5157,15.1199 0,-0.6406 q 1.8594,0 1.8594,-0.5625 l 0,-9.8906 q 0,-0.5625 -1.8594,-0.5625 l 0,-0.6406 9.9375,0 0.5,4.125 -0.5313,0 Q -30.7188,5.8074 -30.9298,5.1512 -31.1407,4.4949 -31.5391,4.1277 -31.9376,3.7606 -32.5938,3.6121 -33.2501,3.4637 -34.422,3.4637 l -1.6406,0 q -0.3281,0 -0.5078,0.0234 -0.1797,0.0235 -0.2891,0.1485 -0.1093,0.125 -0.1093,0.3906 l 0,4.6406 1.2656,0 q 0.9219,0 1.3516,-0.1641 0.4296,-0.164 0.5937,-0.5937 0.1641,-0.4297 0.1641,-1.3516 l 0.5156,0 0,4.8282 -0.5156,0 q 0,-0.9219 -0.1641,-1.3516 -0.1641,-0.4297 -0.5937,-0.5938 -0.4297,-0.164 -1.3516,-0.164 l -1.2656,0 0,4.6406 q 0,0.5625 2.2968,0.5625 l 0,0.6406 -5.8437,0 z"
             id="path10540" />
          <path
             style="stroke:none"
             d="m -28.2969,15.3699 0,-4.2031 q 0,-0.1406 0.1562,-0.1406 l 0.2188,0 q 0.0469,0 0.0937,0.0469 0.0469,0.0468 0.0469,0.0937 0,1.7656 1.0938,2.7422 1.0937,0.9766 2.875,0.9766 0.625,0 1.1484,-0.3594 0.5234,-0.3594 0.8203,-0.9453 0.2969,-0.586 0.2969,-1.211 0,-0.5468 -0.2188,-1.0625 -0.2187,-0.5156 -0.6328,-0.8906 -0.414,-0.375 -0.9297,-0.5 l -2.3437,-0.5781 q -1.1563,-0.2969 -1.8906,-1.25 -0.7344,-0.9531 -0.7344,-2.1406 0,-0.9375 0.4687,-1.7579 0.4688,-0.8203 1.2735,-1.289 0.8047,-0.4688 1.7422,-0.4688 1.7968,0 2.8593,1.2188 l 0.75,-1.1719 q 0.0469,-0.0469 0.125,-0.0469 l 0.1094,0 q 0.0625,0 0.1094,0.0391 0.0469,0.0391 0.0469,0.1016 l 0,4.1718 q 0,0.1719 -0.1563,0.1719 l -0.2031,0 q -0.1719,0 -0.1719,-0.1719 0,-0.4531 -0.1484,-1 -0.1485,-0.5468 -0.4219,-1.0468 -0.2734,-0.5 -0.6016,-0.8125 -0.8593,-0.875 -2.2968,-0.875 -0.6094,0 -1.1329,0.3125 -0.5234,0.3125 -0.8281,0.8437 -0.3047,0.5313 -0.3047,1.125 0,0.7813 0.4766,1.4063 0.4766,0.625 1.2578,0.8281 l 2.3281,0.5781 q 0.5782,0.1406 1.0938,0.5 0.5156,0.3594 0.8594,0.8438 0.3437,0.4843 0.539,1.0781 0.1953,0.5937 0.1953,1.2344 0,0.9687 -0.4453,1.8359 -0.4453,0.8672 -1.2656,1.3906 -0.8203,0.5235 -1.7734,0.5235 -0.6094,0 -1.2344,-0.1329 -0.625,-0.1328 -1.1485,-0.3984 -0.5234,-0.2656 -0.9609,-0.7031 l -0.75,1.1875 q -0.0469,0.0469 -0.125,0.0469 l -0.1094,0 q -0.1562,0 -0.1562,-0.1407 z"
             id="path10542" />
          <path
             style="stroke:none"
             d="m -18.7656,15.1199 0,-0.6406 q 1.8593,0 1.8593,-0.5625 l 0,-9.8906 q 0,-0.5625 -1.8593,-0.5625 l 0,-0.6406 9.9375,0 0.5,4.125 -0.5313,0 Q -8.9688,5.8074 -9.1797,5.1512 -9.3906,4.4949 -9.7891,4.1277 -10.1875,3.7606 -10.8438,3.6121 -11.5,3.4637 -12.6719,3.4637 l -1.6406,0 q -0.3281,0 -0.5078,0.0234 -0.1797,0.0235 -0.2891,0.1485 -0.1094,0.125 -0.1094,0.3906 l 0,4.6406 1.2657,0 q 0.9218,0 1.3515,-0.1641 0.4297,-0.164 0.5938,-0.5937 0.164,-0.4297 0.164,-1.3516 l 0.5157,0 0,4.8282 -0.5157,0 q 0,-0.9219 -0.164,-1.3516 -0.1641,-0.4297 -0.5938,-0.5938 -0.4297,-0.164 -1.3515,-0.164 l -1.2657,0 0,4.6406 q 0,0.5625 2.2969,0.5625 l 0,0.6406 -5.8437,0 z"
             id="path10544" />
          <path
             style="stroke:none"
             d="m -3.9219,13.1981 q 0.6563,0.7812 1.586,1.2343 0.9297,0.4532 1.9609,0.4532 1,0 1.8125,-0.5079 Q 2.25,13.8699 2.25,12.9168 l 0,-1.5 Q 2.25,10.8387 0,10.8387 l 0,-0.625 5.1719,0 0,0.625 q -0.5781,0 -0.9141,0.0937 -0.3359,0.0938 -0.3359,0.4844 l 0,3.5469 q 0,0.0625 -0.0469,0.1094 -0.0469,0.0468 -0.1094,0.0468 -0.1718,0 -0.5625,-0.3984 -0.3906,-0.3984 -0.6093,-0.6953 -0.4375,0.75 -1.3828,1.1172 -0.9454,0.3672 -1.9766,0.3672 -1.7344,0 -3.1719,-0.8985 -1.4375,-0.8984 -2.2734,-2.4062 -0.836,-1.5078 -0.836,-3.2422 0,-1.2656 0.4844,-2.4688 0.4844,-1.2031 1.3438,-2.1172 0.8593,-0.914 2.0156,-1.4296 1.1562,-0.5157 2.4375,-0.5157 0.9375,0 1.7656,0.3985 0.8281,0.3984 1.4844,1.1328 L 3.5313,2.4793 Q 3.6406,2.4324 3.6563,2.4324 l 0.125,0 q 0.0625,0 0.1015,0.0391 0.0391,0.0391 0.0391,0.1016 l 0,4.8593 q 0,0.1563 -0.1406,0.1563 l -0.3282,0 q -0.1562,0 -0.1562,-0.1563 0,-0.5156 -0.2109,-1.1562 Q 2.875,5.6356 2.5547,5.0574 2.2344,4.4793 1.8125,4.0418 0.8125,3.0574 -0.5,3.0574 q -1,0 -1.914,0.4532 -0.9141,0.4531 -1.5391,1.2343 -0.6563,0.8438 -0.9141,1.9219 -0.2578,1.0781 -0.2578,2.2969 0,2.7656 1.2031,4.2344 z"
             id="path10546" />
          <path
             style="stroke:none"
             d="m 6.2657,11.7918 0,-1.125 4.7656,0 0,1.125 -4.7656,0 z"
             id="path10548" />
          <path
             style="stroke:none"
             d="m 12.6094,15.1199 0,-0.6406 q 1.8594,0 1.8594,-0.5625 l 0,-9.8906 q 0,-0.5625 -1.8594,-0.5625 l 0,-0.6406 5.3906,0 0,0.6406 q -1.8437,0 -1.8437,0.5625 l 0,5.8437 5.5625,-5.3437 q 0.2187,-0.25 0.2187,-0.5 0,-0.2813 -0.2422,-0.4219 -0.2422,-0.1406 -0.539,-0.1406 l 0,-0.6406 3.9062,0 0,0.6406 q -1.4844,0 -2.5937,1.0625 l -3.1875,3.0469 3.9375,5.8437 q 0.4843,0.7188 0.8515,0.8906 0.3672,0.1719 1.2422,0.1719 l 0,0.6406 -4.7187,0 0,-0.6406 q 0.4375,0 0.7265,-0.0859 0.2891,-0.086 0.2891,-0.4141 0,-0.2187 -0.2188,-0.5625 l -3.2343,-4.7812 -2,1.9531 0,3.3281 q 0,0.5625 1.8437,0.5625 l 0,0.6406 -5.3906,0 z"
             id="path10550" />
          <path
             style="stroke:none"
             d="m 26.2657,11.7918 0,-1.125 4.7656,0 0,1.125 -4.7656,0 z"
             id="path10552" />
          <path
             style="stroke:none"
             d="m 32.9532,15.1199 0,-0.4843 q 0,-0.0469 0.0469,-0.0938 l 2.7968,-3.0937 q 0.625,-0.6875 1.0235,-1.1563 0.3984,-0.4687 0.7812,-1.0703 0.3828,-0.6016 0.6094,-1.2344 0.2266,-0.6328 0.2266,-1.3359 0,-0.7344 -0.2735,-1.4063 -0.2734,-0.6718 -0.8125,-1.0781 -0.539,-0.4062 -1.3047,-0.4062 -0.7812,0 -1.4062,0.4687 -0.625,0.4688 -0.875,1.2188 0.0625,-0.0157 0.1875,-0.0157 0.4062,0 0.6875,0.2735 0.2812,0.2734 0.2812,0.7109 0,0.4063 -0.2812,0.6953 -0.2813,0.2891 -0.6875,0.2891 -0.4219,0 -0.711,-0.2969 -0.289,-0.2969 -0.289,-0.6875 0,-0.6875 0.2578,-1.2812 0.2578,-0.5938 0.7344,-1.0547 0.4765,-0.461 1.0781,-0.7032 0.6016,-0.2421 1.2891,-0.2421 1.0312,0 1.914,0.4296 0.8828,0.4297 1.4063,1.2266 0.5234,0.7969 0.5234,1.8594 0,0.7812 -0.3437,1.4844 -0.3438,0.7031 -0.8829,1.2812 -0.539,0.5781 -1.375,1.3047 -0.8359,0.7266 -1.1015,0.9766 l -2.0313,1.9687 1.7344,0 q 1.2656,0 2.125,-0.0234 0.8594,-0.0235 0.9063,-0.0703 0.2187,-0.2344 0.4375,-1.6563 l 0.5312,0 -0.5156,3.2031 -6.6875,0 z"
             id="path10554" />
        </g>
        <g
           transform="translate(-46,0)"
           id="g11397">
          <path
             style="font-style:normal;font-weight:normal;font-size:medium;font-family:Dialog;color-interpolation:sRGB;fill:#58a1e4;fill-opacity:1;stroke:#58a1e4;stroke-width:1;stroke-linecap:square;stroke-linejoin:miter;stroke-miterlimit:10;stroke-dasharray:none;stroke-dashoffset:0;stroke-opacity:1;color-rendering:optimizeSpeed;image-rendering:optimizeSpeed;shape-rendering:crispEdges;text-rendering:optimizeSpeed"
             d="m 432.24286,417.17176 86.8,0 0,-261.3334 -86.8,0 z"
             id="path10650" />
          <g
             id="g11153">
            <g
               id="g11149">
              <line
                 x1="475.64285"
                 x2="475.64285"
                 y1="155.83836"
                 style="font-style:normal;font-weight:normal;font-size:medium;font-family:Dialog;color-interpolation:linearRGB;fill:none;fill-opacity:1;stroke:#000000;stroke-width:2;stroke-linecap:butt;stroke-linejoin:round;stroke-miterlimit:10;stroke-dasharray:none;stroke-dashoffset:0;stroke-opacity:1;color-rendering:optimizeQuality;image-rendering:optimizeQuality;shape-rendering:auto;text-rendering:geometricPrecision"
                 y2="162.37177"
                 id="line10664" />
              <line
                 x1="475.64285"
                 x2="475.64285"
                 y1="155.83836"
                 style="font-style:normal;font-weight:normal;font-size:medium;font-family:Dialog;color-interpolation:linearRGB;fill:none;fill-opacity:1;stroke:#000000;stroke-width:2;stroke-linecap:butt;stroke-linejoin:round;stroke-miterlimit:10;stroke-dasharray:none;stroke-dashoffset:0;stroke-opacity:1;color-rendering:optimizeQuality;image-rendering:optimizeQuality;shape-rendering:auto;text-rendering:geometricPrecision"
                 y2="149.30507"
                 id="line10670" />
            </g>
            <g
               transform="translate(475.64286,162.37176)"
               style="font-style:normal;font-weight:normal;font-size:medium;font-family:Dialog;color-interpolation:linearRGB;fill:#000000;fill-opacity:1;stroke:#000000;stroke-width:2;stroke-linecap:butt;stroke-linejoin:miter;stroke-miterlimit:10;stroke-dasharray:none;stroke-dashoffset:0;stroke-opacity:1;color-rendering:optimizeQuality;image-rendering:optimizeQuality;shape-rendering:auto;text-rendering:geometricPrecision"
               id="g10702">
              <path
                 style="fill:none;stroke-width:2;stroke-miterlimit:10;stroke-dasharray:none"
                 d="M -3,0 3,0"
                 id="path10704" />
            </g>
            <path
               id="path10728"
               d="m 472.64286,148.63249 6,0"
               style="font-style:normal;font-weight:normal;font-size:medium;font-family:Dialog;color-interpolation:linearRGB;fill:none;fill-opacity:1;stroke:#000000;stroke-width:2;stroke-linecap:butt;stroke-linejoin:miter;stroke-miterlimit:10;stroke-dasharray:none;stroke-dashoffset:0;stroke-opacity:1;color-rendering:optimizeQuality;image-rendering:optimizeQuality;shape-rendering:auto;text-rendering:geometricPrecision" />
          </g>
        </g>
      </g>
    </g>
  </g>
</svg>
