<?xml version="1.0" encoding="UTF-8" standalone="no"?>
<svg
   xmlns:dc="http://purl.org/dc/elements/1.1/"
   xmlns:cc="http://creativecommons.org/ns#"
   xmlns:rdf="http://www.w3.org/1999/02/22-rdf-syntax-ns#"
   xmlns:svg="http://www.w3.org/2000/svg"
   xmlns="http://www.w3.org/2000/svg"
   version="1.1"
   id="svg2"
   viewBox="0 0 744.09448819 1052.3622047"
   height="297mm"
   width="210mm">
  <defs
     id="defs4">
    <clipPath
       id="clipPath7105"
       clipPathUnits="userSpaceOnUse">
      <rect
         y="30.489841"
         x="11.745654"
         height="244.70123"
         width="250.57407"
         id="rect7107"
         style="opacity:0.36400003;fill:#ff0000;fill-opacity:1;stroke:#9b2d2d;stroke-width:2.18600011;stroke-miterlimit:1;stroke-dasharray:4.37200022, 2.18600011;stroke-dashoffset:0;stroke-opacity:1" />
    </clipPath>
  </defs>
  <metadata
     id="metadata7">
    <rdf:RDF>
      <cc:Work
         rdf:about="">
        <dc:format>image/svg+xml</dc:format>
        <dc:type
           rdf:resource="http://purl.org/dc/dcmitype/StillImage" />
        <dc:title></dc:title>
      </cc:Work>
    </rdf:RDF>
  </metadata>
  <g
     id="layer1">
    <text
       id="text7299"
       y="86.163223"
       x="51.90897"
       style="font-style:normal;font-variant:normal;font-weight:normal;font-stretch:normal;font-size:12.5px;line-height:1000%;font-family:'Minion Pro';-inkscape-font-specification:'Minion Pro, Normal';text-align:start;letter-spacing:0px;word-spacing:0px;writing-mode:lr-tb;text-anchor:start;fill:#000000;fill-opacity:1;stroke:none;stroke-width:1px;stroke-linecap:butt;stroke-linejoin:miter;stroke-opacity:1;"
       xml:space="preserve"><tspan
         y="86.163223"
         x="51.90897"
         id="tspan7301" /></text>
    <g
       transform="translate(47.064134,-2.7684785)"
       id="g7499">
      <g
         id="g5047"
         style="font-style:normal;font-weight:normal;font-size:medium;font-family:Dialog;color-interpolation:linearRGB;fill:#262626;fill-opacity:1;stroke:#262626;stroke-width:0.5;stroke-linecap:square;stroke-linejoin:round;stroke-miterlimit:10;stroke-dasharray:none;stroke-dashoffset:0;stroke-opacity:1;color-rendering:optimizeQuality;image-rendering:optimizeQuality;shape-rendering:auto;text-rendering:geometricPrecision"
         transform="matrix(0.57729404,0,0,0.72872701,-31.121176,8.0310809)">
        <line
           id="line5049"
           y1="366"
           x2="507"
           x1="73"
           style="fill:none"
           y2="366" />
        <line
           id="line5051"
           y1="31"
           x2="507"
           x1="73"
           style="fill:none"
           y2="31" />
        <line
           id="line5053"
           y1="366"
           x2="73"
           x1="73"
           style="fill:none"
           y2="361.66" />
        <line
           id="line5055"
           y1="366"
           x2="135"
           x1="135"
           style="fill:none"
           y2="361.66" />
        <line
           id="line5057"
           y1="366"
           x2="197"
           x1="197"
           style="fill:none"
           y2="361.66" />
        <line
           id="line5059"
           y1="366"
           x2="259"
           x1="259"
           style="fill:none"
           y2="361.66" />
        <line
           id="line5061"
           y1="366"
           x2="321"
           x1="321"
           style="fill:none"
           y2="361.66" />
        <line
           id="line5063"
           y1="366"
           x2="383"
           x1="383"
           style="fill:none"
           y2="361.66" />
        <line
           id="line5065"
           y1="366"
           x2="445"
           x1="445"
           style="fill:none"
           y2="361.66" />
        <line
           id="line5067"
           y1="366"
           x2="507"
           x1="507"
           style="fill:none"
           y2="361.66" />
        <line
           id="line5069"
           y1="31"
           x2="73"
           x1="73"
           style="fill:none"
           y2="35.34" />
        <line
           id="line5071"
           y1="31"
           x2="135"
           x1="135"
           style="fill:none"
           y2="35.34" />
        <line
           id="line5073"
           y1="31"
           x2="197"
           x1="197"
           style="fill:none"
           y2="35.34" />
        <line
           id="line5075"
           y1="31"
           x2="259"
           x1="259"
           style="fill:none"
           y2="35.34" />
        <line
           id="line5077"
           y1="31"
           x2="321"
           x1="321"
           style="fill:none"
           y2="35.34" />
        <line
           id="line5079"
           y1="31"
           x2="383"
           x1="383"
           style="fill:none"
           y2="35.34" />
        <line
           id="line5081"
           y1="31"
           x2="445"
           x1="445"
           style="fill:none"
           y2="35.34" />
        <line
           id="line5083"
           y1="31"
           x2="507"
           x1="507"
           style="fill:none"
           y2="35.34" />
      </g>
      <g
         id="g5121"
         style="font-style:normal;font-weight:normal;font-size:medium;font-family:Dialog;color-interpolation:linearRGB;fill:#262626;fill-opacity:1;stroke:#262626;stroke-width:0.5;stroke-linecap:square;stroke-linejoin:round;stroke-miterlimit:10;stroke-dasharray:none;stroke-dashoffset:0;stroke-opacity:1;color-rendering:optimizeQuality;image-rendering:optimizeQuality;shape-rendering:auto;text-rendering:geometricPrecision"
         transform="matrix(0.57729404,0,0,0.72872701,-31.121176,8.0310809)">
        <line
           id="line5123"
           y1="366"
           x2="73"
           x1="73"
           style="fill:none"
           y2="31" />
        <line
           id="line5125"
           y1="366"
           x2="507"
           x1="507"
           style="fill:none"
           y2="31" />
        <line
           id="line5127"
           y1="366"
           x2="77.339996"
           x1="73"
           style="fill:none"
           y2="366" />
        <line
           id="line5129"
           y1="318.14291"
           x2="77.339996"
           x1="73"
           style="fill:none"
           y2="318.14291" />
        <line
           id="line5131"
           y1="270.28571"
           x2="77.339996"
           x1="73"
           style="fill:none"
           y2="270.28571" />
        <line
           id="line5133"
           y1="222.4286"
           x2="77.339996"
           x1="73"
           style="fill:none"
           y2="222.4286" />
        <line
           id="line5135"
           y1="174.5714"
           x2="77.339996"
           x1="73"
           style="fill:none"
           y2="174.5714" />
        <line
           id="line5137"
           y1="126.7143"
           x2="77.339996"
           x1="73"
           style="fill:none"
           y2="126.7143" />
        <line
           id="line5139"
           y1="78.857101"
           x2="77.339996"
           x1="73"
           style="fill:none"
           y2="78.857101" />
        <line
           id="line5141"
           y1="31"
           x2="77.339996"
           x1="73"
           style="fill:none"
           y2="31" />
        <line
           id="line5143"
           y1="366"
           x2="502.66"
           x1="507"
           style="fill:none"
           y2="366" />
        <line
           id="line5145"
           y1="318.14291"
           x2="502.66"
           x1="507"
           style="fill:none"
           y2="318.14291" />
        <line
           id="line5147"
           y1="270.28571"
           x2="502.66"
           x1="507"
           style="fill:none"
           y2="270.28571" />
        <line
           id="line5149"
           y1="222.4286"
           x2="502.66"
           x1="507"
           style="fill:none"
           y2="222.4286" />
        <line
           id="line5151"
           y1="174.5714"
           x2="502.66"
           x1="507"
           style="fill:none"
           y2="174.5714" />
        <line
           id="line5153"
           y1="126.7143"
           x2="502.66"
           x1="507"
           style="fill:none"
           y2="126.7143" />
        <line
           id="line5155"
           y1="78.857101"
           x2="502.66"
           x1="507"
           style="fill:none"
           y2="78.857101" />
        <line
           id="line5157"
           y1="31"
           x2="502.66"
           x1="507"
           style="fill:none"
           y2="31" />
      </g>
      <g
         id="g7101"
         clip-path="url(#clipPath7105)">
        <path
           id="path5203"
           style="font-style:normal;font-weight:normal;font-size:medium;font-family:Dialog;color-interpolation:linearRGB;fill:none;fill-opacity:1;fill-rule:evenodd;stroke:#2dd284;stroke-width:2;stroke-linecap:butt;stroke-linejoin:round;stroke-miterlimit:10;stroke-dasharray:none;stroke-dashoffset:0;stroke-opacity:1;color-rendering:optimizeQuality;image-rendering:optimizeQuality;shape-rendering:auto;text-rendering:geometricPrecision"
           d="m -32.311923,206.93668 0.356872,0.12437 0.356872,-0.30652 0.356872,-0.0895 0.356872,0.13633 0.356872,-0.3807 0.356872,0.42325 0.356872,-0.1603 0.356872,0.18543 0.356872,0.16686 0.356872,-0.37961 0.356872,0.40474 0.356872,-0.20182 0.356872,-0.10689 0.356872,-0.16692 0.356872,0.0709 0.356872,0.37086 0.356872,0.071 0.356872,-0.24547 0.356872,0.21268 0.356872,-0.11883 0.356872,0.0665 0.356872,-0.0447 0.356872,0.10142 0.356872,-0.68933 0.356872,0.67738 0.356872,0.27709 0.356872,-0.27381 0.356872,-0.25639 0.356872,-0.16139 0.356872,-0.10696 0.356872,0.0633 0.356872,-0.29451 0.356872,0.0545 0.356872,0.33268 0.356872,0.06 0.356872,0.23126 0.356872,-0.11672 0.356872,0.15053 0.356872,-0.50944 0.356872,0.61851 0.356872,0.0851 0.356872,-0.47235 0.356872,0.14288 0.356872,-0.12758 0.356872,0.31191 0.356872,0.21822 0.356872,-0.44073 0.356872,-0.13414 0.356872,0.57815 0.356872,-0.34798 0.356872,0.0512 0.356872,0.0339 0.356872,0.17778 0.356872,0.11563 0.356872,0.12649 0.356872,-0.37524 0.356872,0.48875 0.356872,-0.0699 0.356872,-0.53779 0.356872,0.276 0.356872,-0.0163 0.356872,-0.43418 0.356872,0.47884 0.356872,-0.32175 0.356872,-0.32503 0.356872,0.36867 0.356872,0.38617 0.356872,0.1734 0.356872,-0.0818 0.356872,-0.51374 0.356872,0.13632 0.356872,0.53888 0.356872,-0.37523 0.356872,0.23235 0.356872,0.0294 0.356872,-0.32401 0.356872,0.16364 0.356872,-0.0709 0.356872,0.36219 0.356872,-0.52256 0.356872,-0.0283 0.356872,-0.002 0.356872,0.26507 0.356872,-0.12656 0.356872,0.22478 0.356872,0.0349 0.356872,0.15162 0.356872,-0.28693 0.356872,0.1713 0.356872,0.14179 0.356872,0.11891 0.356872,-0.31855 0.356872,-0.13851 0.356872,0.10798 0.356872,0.12437 0.356872,-0.19636 0.356872,0.23236 0.356872,-0.01 0.356872,-0.15927 0.356872,-0.002 0.356872,0.3262 0.356872,-0.1004 0.356872,0.096 0.356872,-0.27709 0.356872,0.28036 0.356872,0.15272 0.356872,0.28146 0.356872,-0.29676 0.356872,-0.20831 0.356872,-0.28146 0.356872,0.0524 0.356872,-0.0818 0.356872,0.0524 0.356872,0.4854 0.356872,-0.0807 0.356872,-0.51921 0.356872,-0.0982 0.356872,0.43527 0.356872,-0.0742 0.356872,0.16029 0.356872,-0.34791 0.356872,0.77772 0.356872,-0.68832 0.356872,0.36 0.356872,-0.20401 0.356872,0.52577 0.356872,-0.23017 0.356872,-0.41013 0.356872,0.47673 0.356872,-0.20292 0.356872,-0.19527 0.356872,0.10907 0.356872,0.0546 0.356872,-0.37524 0.356872,0.47666 0.356872,0.13202 0.356872,-0.26186 0.356872,-0.16466 0.356872,0.14288 0.356872,0.0109 0.356872,0.21815 0.356872,0.12328 0.356872,-0.0927 0.356872,-0.23673 0.356872,0.0721 0.356872,0.23775 0.356872,-0.13086 0.356872,-0.004 0.356872,0.0436 0.356872,-0.0666 0.356872,0.10149 0.356872,-0.14725 0.356872,-0.12328 0.356872,0.30543 0.356872,-0.0807 0.356872,-0.11235 0.356872,0.28037 0.356872,0.10142 0.356872,-0.40357 0.356872,0.28466 0.356872,-0.21158 0.356872,0.33377 0.356872,-0.0644 0.356872,0.16146 0.356872,-0.41888 0.356872,0.4156 0.356872,-0.14944 0.356872,0.11345 0.356872,-0.0643 0.356872,0.004 0.356872,-0.41013 0.356872,0.35993 0.356872,0.0546 0.356872,-0.21166 0.356872,0.0579 0.356872,0.20619 0.356872,-0.071 0.356872,-0.12219 0.356872,0.0666 0.356872,0.12977 0.356872,0.0371 0.356872,0.001 0.356872,0.20729 0.356872,-0.0393 0.356872,-0.23454 0.356872,-0.12219 0.356872,-0.0174 0.356872,0.0447 0.356872,0.0797 0.356872,-0.0109 0.356872,-0.16583 0.356872,0.1004 0.356872,0.0894 0.356872,0.13203 0.356872,0.14397 0.356872,0.11235 0.356872,-0.35454 0.356872,-0.0436 0.356872,0.0906 0.356872,-0.46361 0.356872,0.41997 0.356872,0.25742 0.356872,-0.39265 0.356872,0.10579 0.356872,0.33378 0.356872,-0.68832 0.356872,0.62726 0.356872,0.21815 0.356872,-0.33159 0.356872,-0.48547 0.356872,0.37093 0.356872,-0.59564 0.356872,0.58581 0.356872,-0.17888 0.356872,0.34908 0.356872,-0.34799 0.356872,0.20613 0.356872,0.38288 0.356872,-0.28467 0.356872,0.0676 0.356872,-0.26725 0.356872,0.0382 0.356872,0.33378 0.356872,-0.5356 0.356872,-0.0905 0.356872,0.1243 0.356872,0.19308 0.356872,-0.0774 0.356872,0.16036 0.356872,0.0709 0.356872,-0.17232 0.356872,-0.0709 0.356872,0.0436 0.356872,0.15592 0.356872,-0.0665 0.356872,0.0764 0.356872,0.24656 0.356872,-0.59782 0.356872,0.58471 0.356872,0.42324 0.356872,-0.29559 0.356872,-0.15053 0.356872,-0.11891 0.356872,-0.0273 0.356872,0.40802 0.356872,-0.51491 0.356872,0.58689 0.356872,-0.3447 0.356872,0.0436 0.356872,-0.0818 0.356872,0.18871 0.356872,-0.002 0.356872,0.4309 0.356872,-0.73196 0.356872,0.38944 0.356872,-0.13093 0.356872,0.12219 0.356872,-0.18762 0.356872,0.2803 0.356872,-0.31957 0.356872,-0.0131 0.356872,-0.0152 0.356872,0.0251 0.356872,-0.10907 0.356872,-0.036 0.356872,0.0262 0.356872,0.63703 0.356872,-0.0589 0.356872,0.0709 0.356872,-0.28576 0.356872,0.14397 0.356872,0.10142 0.356872,-0.44175 0.356872,0.50507 0.356872,-0.4309 0.356872,0.49524 0.356872,-0.12001 0.356872,-0.38179 0.356872,-0.10579 0.356872,-0.0295 0.356872,0.30223 0.356873,0.0163 0.356872,-0.24649 0.356872,-0.0884 0.356872,0.44503 0.356872,0.19308 0.356872,0.0316 0.356872,-0.46362 0.356872,0.31636 0.356872,-0.36758 0.356872,0.12328 0.356872,0.29013 0.356872,-0.29341 0.356872,0.21596 0.356872,-0.006 0.356872,0.32074 0.356872,0.13523 0.356872,-0.52577 0.356872,0.25523 0.356872,-0.19635 0.356872,-0.0567 0.356872,0.32073 0.356872,-0.2553 0.356872,0.17348 0.356872,-0.0731 0.356872,0.27592 0.356872,-0.10142 0.356872,0.17997 0.356872,-0.42427 0.356872,-0.16583 0.356872,-0.15818 0.356872,0.26507 0.356872,-0.0982 0.356872,0.19847 0.356872,-0.0622 0.356872,0.06 0.356872,0.12977 0.356872,-0.14398 0.356872,-0.16473 0.356872,0.24 0.356872,-0.18325 0.356872,0.0403 0.356872,-0.085 0.356872,0.10798 0.356872,-0.37633 0.356872,0.16904 0.356872,0.45603 0.356872,-0.4102 0.356872,0.21931 0.356872,-0.0164 0.356872,0.14615 0.356872,-0.0502 0.356872,-0.29669 0.356872,0.23454 0.356872,-0.28364 0.356872,0.0796 0.356872,0.13749 0.356872,-0.17785 0.356872,0.4658 0.356872,-0.32504 0.356872,-0.0371 0.356872,-0.0688 0.356872,-0.11235 0.356872,0.50397 0.356872,-0.0785 0.356872,0.16146 0.356872,-0.002 0.356872,-0.1745 0.356872,0.0316 0.356872,-0.14834 0.356872,0.15927 0.356872,-0.12437 0.356872,0.0491 0.356872,-0.0153 0.356872,-0.23673 0.356872,0.11235 0.356872,0.14077 0.356872,-0.0633 0.356872,0.0687 0.356872,-0.0109 0.356872,-0.0884 0.356872,0.18215 0.356872,0.0491 0.356872,-0.24329 0.356872,0.20948 0.356872,-0.12219 0.356872,0.2051 0.356872,0.0883 0.356872,-0.29341 0.356872,-0.0589 0.356872,0.004 0.35687,-0.31308 0.35687,0.5039 0.35688,0.0796 0.35687,0.19745 0.35687,-0.0512 0.35687,-0.005 0.35687,-0.43636 0.35688,-0.0458 0.35687,-0.11454 0.35687,0.31636 0.35687,-0.46798 0.35687,0.14943 0.35688,-0.29231 0.35687,-0.33269 0.35687,-0.37851 0.35687,0.001 0.35687,-0.17785 0.35688,-0.62391 0.35687,0.0185 0.35687,-0.38179 0.35687,-0.45924 0.35687,-0.33487 0.35688,-0.45924 0.35687,-0.59783 0.35687,-0.95549 0.35687,-0.47782 0.35687,0.0327 0.35688,-0.58471 0.35687,-0.82463 0.35687,-0.51812 0.35687,-0.74179 0.35687,-0.54981 0.35688,-0.91295 0.35687,-0.45924 0.35687,-0.83127 0.35687,-1.03083 0.35687,-0.67301 0.35688,-0.53342 0.35687,-0.82245 0.35687,-0.58689 0.35687,-0.90646 0.35687,-0.61087 0.35688,-0.85305 0.35687,-1.07557 0.35687,-0.85954 0.35687,-0.7069 0.35687,-1.1552 0.35688,-0.37742 0.35687,-1.10173 0.35687,-0.48977 0.35687,-1.33408 0.35687,-1.28935 0.35688,-0.7592 0.35687,-0.25859 0.35687,-1.18136 0.35687,-1.11805 0.35687,-0.94034 0.35688,-0.51265 0.35687,-0.83994 0.35687,-0.77779 0.35687,-0.86172 0.35687,-1.13991 0.35688,-0.96431 0.35687,-0.0665 0.35687,-1.72899 0.35687,-0.36977 0.35687,-1.27739 0.35688,-1.16825 0.35687,-0.64037 0.35687,-0.99157 0.35687,-1.60461 0.35687,-0.49742 0.35688,-0.80606 0.35687,-0.8956 0.35687,-0.27381 0.35687,-0.86938 0.35687,-0.65778 0.35688,-0.50719 0.35687,-0.38616 0.35687,-0.60438 0.35687,-0.17341 0.35687,-0.46033 0.35688,-1.02319 0.35687,-0.2596 0.35687,0.16904 0.35687,-0.28904 0.35687,-0.57269 0.35688,-0.0557 0.35687,0.0458 0.35687,0.44073 0.35687,-0.0764 0.35687,-0.4451 0.35688,0.5705 0.35687,0.0764 0.35687,-0.22361 0.35687,0.26506 0.35687,-0.54973 0.35688,0.0403 0.35687,-0.38499 0.35687,-0.1015 0.35687,-1.17481 0.35687,-1.16176 0.35688,-0.54755 0.35687,-1.78349 0.35687,-1.32759 0.35687,-2.01365 0.35687,-2.25038 0.35688,-2.82962 0.35687,-1.86203 0.35687,-3.07072 0.35687,-3.24303 0.35687,-3.48843 0.35688,-3.31502 0.35687,-3.38489 0.35687,-3.48733 0.35687,-3.75248 0.35687,-2.95938 0.35688,-3.84414 0.35687,-4.28479 0.35687,-4.0797 0.35687,-3.61061 0.35687,-4.139731 0.35688,-4.042607 0.35687,-3.379355 0.35687,-3.560486 0.35687,-3.559394 0.35687,-3.067365 0.35688,-3.388172 0.35687,-2.925578 0.35687,-3.426277 0.35687,-1.931903 0.35687,-1.540204 0.35688,-1.928624 0.35687,-2.496865 0.35687,-1.015606 0.35687,-0.512649 0.35687,-1.76935 0.35688,-0.189803 0.35687,-2.006075 0.35687,-0.867189 0.35687,-0.270532 0.35687,-1.667855 0.35688,-0.273811 0.35687,-1.552226 0.35687,-1.607891 0.35687,-0.559571 0.35687,-1.410438 0.35688,-2.218756 0.35687,-1.58392 0.35687,-1.955874 0.35687,-1.944946 0.35687,-2.221961 0.35688,-1.868587 0.35687,-2.167535 0.35687,-0.558478 0.35687,-1.243514 0.35687,0.257417 0.35688,0.11563 0.35687,-1.0516 0.35687,0.139674 0.35687,1.158414 0.35687,0.742888 0.35688,1.171528 0.35687,-0.137415 0.35687,2.119446 0.35687,2.914722 0.35687,0.589079 0.35688,0.847517 0.35687,2.177298 0.35687,1.722428 0.35687,1.290437 0.35687,2.727106 0.35688,0.947918 0.35687,2.974686 0.35687,1.797694 0.35687,1.892558 0.35687,1.20978 0.35688,2.3322 0.35687,2.300506 0.35687,2.511146 0.35687,1.713685 0.35687,2.370379 0.35688,2.141305 0.35687,2.436901 0.35687,2.783791 0.35687,2.295114 0.35687,2.307063 0.35688,1.840244 0.35687,2.519817 0.35687,1.868587 0.35687,2.944158 0.35687,2.242727 0.35688,2.9529 0.35687,1.63077 0.35687,2.65184 0.35687,2.39216 0.35687,2.35399 0.35688,2.98124 0.35687,2.58306 0.35687,1.53919 0.35687,1.8817 0.35687,3.07392 0.35688,2.48929 0.35687,3.02707 0.35687,2.44018 0.35687,1.88928 0.35687,2.5035 0.35688,2.1969 0.35687,2.29729 0.35687,2.35618 0.35687,2.09875 0.35687,2.07806 0.35688,2.53942 0.35687,2.34641 0.35687,1.51623 0.35687,2.69439 0.35687,2.26998 0.35688,2.126 0.35687,2.0366 0.35687,2.29949 0.35687,1.87624 0.35687,1.74858 0.35688,1.5915 0.35687,2.68128 0.35687,1.84133 0.35687,1.83588 0.35687,1.91113 0.35688,1.8009 0.35687,1.94065 0.35687,1.89256 0.35687,1.80753 0.35687,1.6962 0.35688,1.65809 0.35687,1.32861 0.35687,2.04856 0.35687,1.1759 0.35687,1.88716 0.35688,1.62312 0.35687,1.37226 0.35687,1.56651 0.35687,1.61328 0.35687,1.65044 0.35688,1.16497 0.35687,1.34501 0.35687,1.4672 0.35687,1.14428 0.35687,1.33517 0.35688,1.28607 0.35687,0.865 0.35687,1.34938 0.35687,1.71697 0.35687,1.11265 0.35688,0.71338 0.35687,1.1912 0.35687,1.1912 0.35687,0.96861 0.35687,1.15521 0.35688,0.98719 0.35687,0.792 0.35687,0.71556 0.35687,0.93262 0.35687,1.1727 0.35688,0.65669 0.35687,1.41372 0.35687,0.89006 0.35687,0.41014 0.35687,0.80941 0.35688,0.85305 0.35687,0.53669 0.35687,1.04286 0.35687,0.65334 0.35687,0.84213 0.35688,0.75054 0.35687,0.44175 0.35687,0.64577 0.35687,0.64467 0.35687,0.84977 0.35688,0.38616 0.35687,0.38507 0.35687,0.53014 0.35687,0.47775 0.35687,0.50944 0.35688,0.68285 0.35687,0.56394 0.35687,0.47454 0.35687,0.46799 0.35687,0.24977 0.35688,0.82361 0.35687,0.31629 0.35687,0.37203 0.35687,0.55848 0.35687,0.2596 0.35688,0.40685 0.35687,0.3458 0.35687,0.60759 0.35687,-0.0218 0.35687,0.24656 0.35688,0.79302 0.35687,0.0774 0.35687,0.42434 0.35687,0.28139 0.35687,-0.013 0.35688,0.59993 0.35687,0.41997 0.35687,0.10252 0.35687,0.0982 0.35687,0.34034 0.35688,0.43629 0.35687,0.13093 0.35687,0.14069 0.35687,0.1898 0.35687,0.3807 0.35688,0.0774 0.35687,0.30106 0.35687,0.28256 0.35687,0.19745 0.35687,-0.0273 0.35688,0.31308 0.35687,0.0818 0.35687,0.096 0.35687,0.21706 0.35687,0.42324 0.35688,-0.0283 0.35687,0.11563 0.35687,0.10252 0.35687,0.0229 0.35687,0.38835 0.35688,0.21603 0.35687,-0.0295 0.35687,0.41778 0.35687,-0.1898 0.35687,0.0458 0.35688,0.28903 0.35687,-0.0578 0.35687,0.19417 0.35687,0.0654 0.35687,0.10907 0.35688,-0.003 0.35687,0.28794 0.35687,-0.0579 0.35687,0.24 0.35687,-0.0676 0.35688,0.21057 0.35687,0.003 0.35687,-0.0479 0.35687,0.21268 0.35687,-0.036 0.35688,0.18215 0.35687,0.0644 0.35687,-0.0262 0.35687,0.19964 0.35687,-0.18762 0.35688,0.18652 0.35687,-0.0371 0.35687,0.15927 0.35687,0.0785 0.35687,0.0927 0.35688,0.004 0.35687,0.0818 0.35687,-0.0349 0.35687,0.13195 0.35687,0.20401 0.35688,-0.17013 0.35687,0.22252 0.35687,-0.0219 0.35687,-0.24868 0.35687,0.28037 0.35688,0.0229 0.35687,0.0491 0.35687,-0.0807 0.35687,0.14179 0.35687,0.12 0.35688,-0.005 0.35687,0.0862 0.35687,0.0916 0.35687,-0.1396 0.35687,0.14943 0.35688,-0.0643 0.35687,-0.0927 0.35687,0.25202 0.35687,-0.0993 0.35687,0.0753 0.35688,0.14834 0.35687,-0.0676 0.35687,-0.1745 0.35687,0.1036 0.35687,0.11454 0.35688,-0.0753 0.35687,-0.0393 0.35687,-0.15818 0.35687,0.31418 0.35687,-0.16365 0.35688,0.0688 0.35687,-0.0175 0.35687,0.16802 0.35687,-0.0284 0.35687,0.01 0.35688,0.12437 0.35687,-0.1047 0.35687,0.10579 0.35687,0.0632 0.35687,-0.29122 0.35688,0.0927 0.35687,0.11454 0.35687,-0.13742 0.35687,-0.0109 0.35687,0.1364 0.35688,-0.06 0.35687,0.16474 0.35687,0.024 0.35687,-0.16146 0.35687,-0.12758 0.35688,0.0469 0.35687,0.22143 0.35687,-0.11024 0.35687,0.0568 0.35687,-0.0862 0.35688,0.0175 0.35687,0.005 0.35687,0.37305 0.35687,-0.0305 0.35687,-0.20292 0.35688,-0.0665 0.35687,-0.0338 0.35687,0.004 0.35687,-0.0218 0.35687,0.001 0.35688,-0.1058 0.35687,0.0917 0.35687,0.0927 0.35687,-0.12867 0.35687,0.1745 0.35688,-0.0895 0.35687,0.0404 0.35687,-0.0818 0.35687,0.023 0.35687,0.0883 0.35688,0.0763 0.35687,-0.13413 0.35687,-0.0109 0.35687,-0.01 0.35687,-0.0851 0.35688,0.0687 0.35687,0.0447 0.35687,-0.012 0.35687,-0.1909 0.35687,-0.0218 0.35688,0.13632 0.35687,0.0327 0.35687,-0.12109 0.35687,0.0197" />
        <path
           id="path5209"
           style="font-style:normal;font-weight:normal;font-size:medium;font-family:Dialog;color-interpolation:linearRGB;fill:none;fill-opacity:1;fill-rule:evenodd;stroke:#9b2d2d;stroke-width:2.18600011;stroke-linecap:butt;stroke-linejoin:bevel;stroke-miterlimit:1;stroke-dasharray:4.37200022, 2.18600011;stroke-dashoffset:0;stroke-opacity:1;color-rendering:optimizeQuality;image-rendering:optimizeQuality;shape-rendering:auto;text-rendering:geometricPrecision"
           d="m -32.311923,205.56682 0.356872,-0.0146 0.356872,-0.17844 0.356872,0.15184 0.356872,-0.17574 0.356872,0.16227 0.356872,-0.16802 0.356872,0.27629 0.356872,-0.0879 0.356872,-0.0721 0.356872,-0.0655 0.356872,0.34026 0.356872,-0.15797 0.356872,-0.071 0.356872,-0.0524 0.356872,0.009 0.356872,-0.20926 0.356872,0.0663 0.356872,0.23694 0.356872,-0.0423 0.356872,-0.008 0.356872,-0.0142 0.356872,0.11905 0.356872,-0.21268 0.356872,-0.0879 0.356872,0.15104 0.356872,-0.0686 0.356872,0.0512 0.356872,-0.0127 0.356872,-0.18302 0.356872,0.17268 0.356872,0.1788 0.356872,-0.19075 0.356872,-0.006 0.356872,0.007 0.356872,0.0162 0.356872,-0.0844 0.356872,0.17027 0.356872,-0.0477 0.356872,-0.0278 0.356872,-0.0921 0.356872,0.25392 0.356872,-0.18805 0.356872,7.3e-4 0.356872,0.10557 0.356872,-0.24313 0.356872,0.0266 0.356872,0.0111 0.356872,0.30747 0.356872,-0.19111 0.356872,-0.1815 0.356872,0.32482 0.356872,-0.0508 0.356872,-0.0836 0.356872,-0.12795 0.356872,-0.0416 0.356872,0.0982 0.356872,-0.23155 0.356872,0.34332 0.356872,0.0863 0.356872,-0.0397 0.356872,-0.14216 0.356872,-0.20969 0.356872,0.0991 0.356872,0.0925 0.356872,0.11949 0.356872,-0.0656 0.356872,0.15454 0.356872,-0.42114 0.356872,0.13173 0.356872,0.0432 0.356872,0.0219 0.356872,-0.11636 0.356872,0.3391 0.356872,-0.48052 0.356872,0.10091 0.356872,0.0802 0.356872,0.13254 0.356872,0.0678 0.356872,-0.25283 0.356872,0.20503 0.356872,-0.13719 0.356872,0.18033 0.356872,-0.43236 0.356872,0.26973 0.356872,0.1133 0.356872,-0.21771 0.356872,0.18193 0.356872,-0.12838 0.356872,0.0501 0.356872,-0.12335 0.356872,0.21895 0.356872,-0.12948 0.356872,0.0536 0.356872,-0.0952 0.356872,0.13756 0.356872,0.19577 0.356872,-0.17413 0.356872,-0.10019 0.356872,-0.004 0.356872,-0.20918 0.356872,0.30404 0.356872,0.12525 0.356872,-0.26208 0.356872,-0.0297 0.356872,-0.11942 0.356872,0.0455 0.356872,0.27586 0.356872,-0.24008 0.356872,0.28365 0.356872,0.0439 0.356872,-0.18303 0.356872,0.025 0.356872,-0.0482 0.356872,-0.18033 0.356872,0.13837 0.356872,-0.0335 0.356872,0.31826 0.356872,-0.14062 0.356872,-0.0671 0.356872,-0.25159 0.356872,0.2443 0.356872,0.0675 0.356872,-0.0821 0.356872,0.15723 0.356872,-0.21814 0.356872,0.14798 0.356872,-0.26281 0.356872,0.10521 0.356872,-0.0686 0.356872,0.18995 0.356872,-0.0566 0.356872,0.10747 0.356872,-0.0551 0.356872,0.1133 0.356872,0.002 0.356872,-0.0551 0.356872,0.0293 0.356872,0.0944 0.356872,-0.0466 0.356872,-0.0335 0.356872,-0.0243 0.356872,0.17727 0.356872,-0.25669 0.356872,0.0308 0.356872,0.0517 0.356872,-0.0682 0.356872,0.19614 0.356872,-0.20962 0.356872,-0.0697 0.356872,0.34638 0.356872,-0.25931 0.356872,0.15643 0.356872,-0.0443 0.356872,-0.0493 0.356872,0.0936 0.356872,-0.005 0.356872,-0.0204 0.356872,-0.0968 0.356872,-0.1063 0.356872,0.17064 0.356872,0.0155 0.356872,-0.13407 0.356872,0.0297 0.356872,-0.11141 0.356872,0.2035 0.356872,0.0216 0.356872,-0.13217 0.356872,0.12255 0.356872,-0.0243 0.356872,-0.18077 0.356872,0.11833 0.356872,0.25355 0.356872,-0.20153 0.356872,-0.0752 0.356872,0.0648 0.356872,0.0975 0.356872,-0.23658 0.356872,-0.0493 0.356872,0.17261 0.356872,0.0579 0.356872,-0.0675 0.356872,-0.10521 0.356872,-0.01 0.356872,0.0404 0.356872,0.21815 0.356872,-0.0625 0.356872,0.03 0.356872,-0.0447 0.356872,-0.13297 0.356872,0.12139 0.356872,-0.19804 0.356872,0.0763 0.356872,-0.0436 0.356872,0.16766 0.356872,-0.15724 0.356872,0.0431 0.356872,-0.0293 0.356872,-0.17873 0.356872,0.34674 0.356872,-0.29093 0.356872,-0.0277 0.356872,0.077 0.356872,0.0617 0.356872,-0.0451 0.356872,-0.081 0.356872,0.0443 0.356872,0.007 0.356872,0.15454 0.356872,-0.10172 0.356872,0.17144 0.356872,-0.24772 0.356872,-0.0717 0.356872,0.12678 0.356872,0.11942 0.356872,-0.11978 0.356872,-0.0552 0.356872,-0.1302 0.356872,0.22193 0.356872,0.0771 0.356872,-0.074 0.356872,-0.057 0.356872,0.0948 0.356872,-0.0852 0.356872,-0.16801 0.356872,0.1487 0.356872,-0.11672 0.356872,0.004 0.356872,0.0111 0.356872,-0.0342 0.356872,0.0767 0.356872,-0.0717 0.356872,0.16962 0.356872,-0.0825 0.356872,0.009 0.356872,0.0169 0.356872,-0.004 0.356872,-0.0817 0.356872,-0.001 0.356872,0.0778 0.356872,-0.0436 0.356872,-0.025 0.356872,0.23235 0.356872,0.004 0.356872,-0.16335 0.356872,-0.17654 0.356872,0.0975 0.356872,-0.13021 0.356872,0.10711 0.356872,-0.0736 0.356872,0.0131 0.356872,0.0324 0.356872,0.0909 0.356872,-0.0625 0.356872,0.0633 0.356872,-0.0748 0.356872,-0.0382 0.356872,0.1141 0.356872,-0.17224 0.356872,0.25968 0.356872,-0.0821 0.356872,-0.0385 0.356872,-0.042 0.356872,0.0836 0.356872,0.0155 0.356872,-0.25436 0.356872,-0.18069 0.356872,0.25661 0.356872,-0.22812 0.356872,0.46084 0.356872,-0.0212 0.356872,-0.34179 0.356872,0.0278 0.356872,-0.14645 0.356872,0.0971 0.356872,0.17152 0.356872,-0.0382 0.356872,0.10018 0.356872,-0.2196 0.356872,0.19884 0.356872,0.004 0.356872,-0.23352 0.356873,-0.0296 0.356872,0.0917 0.356872,0.0632 0.356872,-0.16263 0.356872,0.32103 0.356872,-0.32984 0.356872,-0.13603 0.356872,0.31825 0.356872,-0.18375 0.356872,0.18688 0.356872,-0.12102 0.356872,0.25553 0.356872,-0.42704 0.356872,0.0624 0.356872,0.0455 0.356872,0.0617 0.356872,-0.16576 0.356872,0.12838 0.356872,0.067 0.356872,-0.12175 0.356872,0.0312 0.356872,0.0759 0.356872,-0.185 0.356872,0.0208 0.356872,0.10405 0.356872,-0.10179 0.356872,0.20583 0.356872,-0.50135 0.356872,0.53873 0.356872,-0.11563 0.356872,-0.0273 0.356872,0.004 0.356872,-0.0909 0.356872,0.12022 0.356872,0.0177 0.356872,-0.13174 0.356872,0.1152 0.356872,7.3e-4 0.356872,-0.20044 0.356872,-0.0767 0.356872,0.25392 0.356872,-0.16256 0.356872,-0.10178 0.356872,-0.0917 0.356872,0.14368 0.356872,0.16073 0.356872,-0.21465 0.356872,0.16838 0.356872,-0.0786 0.356872,-0.004 0.356872,-0.13603 0.356872,0.19731 0.356872,0.0401 0.356872,-0.12677 0.356872,0.0675 0.356872,-0.0486 0.356872,-0.0979 0.356872,0.17188 0.356872,-0.0601 0.356872,0.0608 0.356872,-0.0847 0.356872,-0.17384 0.356872,-0.0709 0.356872,0.27134 0.356872,-0.071 0.356872,-0.1275 0.356872,-0.0143 0.356872,-0.0278 0.356872,0.12722 0.356872,-0.0297 0.356872,0.0952 0.356872,0.18186 0.356872,-0.13486 0.356872,-0.099 0.356872,-0.0952 0.356872,0.10055 0.356872,-0.0551 0.356872,-0.0651 0.356872,-0.0151 0.356872,0.1372 0.356872,0.0571 0.356872,-0.19964 0.356872,0.13377 0.356872,0.13559 0.356872,-0.11133 0.356872,0.0813 0.356872,-0.0921 0.356872,-0.0702 0.356872,-0.0701 0.356872,0.15257 0.35687,-0.10637 0.35687,0.29253 0.35688,-0.16729 0.35687,0.0783 0.35687,-0.0855 0.35687,-0.081 0.35687,0.015 0.35688,0.18113 0.35687,-0.18922 0.35687,0.0116 0.35687,0.0724 0.35687,-0.0736 0.35688,-0.27898 0.35687,0.22776 0.35687,-0.007 0.35687,-0.0312 0.35687,0.35644 0.35688,-0.12175 0.35687,-0.17421 0.35687,0.21042 0.35687,0.067 0.35687,0.2035 0.35688,-0.18922 0.35687,0.01 0.35687,-0.0393 0.35687,-0.0971 0.35687,0.13217 0.35688,-0.0509 0.35687,0.23585 0.35687,-0.0286 0.35687,-0.069 0.35687,-0.06 0.35688,0.26237 0.35687,-0.12328 0.35687,0.0828 0.35687,0.0763 0.35687,-0.11949 0.35688,0.12685 0.35687,0.39994 0.35687,-0.46507 0.35687,0.13486 0.35687,0.13676 0.35688,0.009 0.35687,0.28671 0.35687,0.0166 0.35687,-0.0324 0.35687,0.0444 0.35688,-0.0933 0.35687,0.24197 0.35687,0.16029 0.35687,-0.0216 0.35687,0.1965 0.35688,0.0763 0.35687,0.14995 0.35687,0.0335 0.35687,-0.047 0.35687,0.26317 0.35688,-0.10558 0.35687,0.0635 0.35687,0.22696 0.35687,0.089 0.35687,-0.0512 0.35688,0.48743 0.35687,0.10944 0.35687,0.0189 0.35687,0.19075 0.35687,0.12598 0.35688,0.1141 0.35687,0.14259 0.35687,0.0759 0.35687,0.0728 0.35687,0.23972 0.35688,0.16488 0.35687,0.29407 0.35687,0.0563 0.35687,0.052 0.35687,0.0532 0.35688,-0.0135 0.35687,0.13523 0.35687,0.13603 0.35687,0.0262 0.35687,0.0374 0.35688,0.20882 0.35687,-0.0224 0.35687,0.11023 0.35687,-0.1114 0.35687,0.0887 0.35688,0.13064 0.35687,0.32678 0.35687,-0.23352 0.35687,0.19265 0.35687,0.17843 0.35688,0.1576 0.35687,-0.16146 0.35687,0.50595 0.35687,0.14564 0.35687,-0.0192 0.35688,0.26084 0.35687,0.27512 0.35687,0.46362 0.35687,0.26353 0.35687,0.42318 0.35688,0.18186 0.35687,0.23461 0.35687,0.61159 0.35687,0.63775 0.35687,0.38376 0.35688,0.32948 0.35687,0.52911 0.35687,0.37298 0.35687,0.50441 0.35687,0.60657 0.35688,0.3533 0.35687,0.51214 0.35687,0.43199 0.35687,0.46667 0.35687,0.56839 0.35688,0.32059 0.35687,0.32947 0.35687,0.58843 0.35687,0.29822 0.35687,0.18076 0.35688,0.38646 0.35687,0.34915 0.35687,0.32408 0.35687,0.35877 0.35687,0.47702 0.35688,0.42732 0.35687,0.17341 0.35687,0.30325 0.35687,0.32561 0.35687,0.21735 0.35688,0.42543 0.35687,0.53334 0.35687,0.46857 0.35687,0.12525 0.35687,0.61538 0.35688,0.34529 0.35687,0.28517 0.35687,0.5356 0.35687,0.5587 0.35687,0.25086 0.35688,0.35148 0.35687,0.52023 0.35687,0.38608 0.35687,0.32409 0.35687,0.46507 0.35688,0.38689 0.35687,0.44627 0.35687,0.15141 0.35687,0.33953 0.35687,0.27009 0.35688,0.2709 0.35687,0.24394 0.35687,0.53217 0.35687,0.16991 0.35687,0.16838 0.35688,0.50325 0.35687,0.31141 0.35687,0.21997 0.35687,0.15723 0.35687,0.17035 0.35688,0.43738 0.35687,0.19993 0.35687,0.18696 0.35687,0.31906 0.35687,0.49283 0.35688,0.14332 0.35687,0.50055 0.35687,-0.20765 0.35687,0.51483 0.35687,0.0759 0.35688,0.19541 0.35687,0.2223 0.35687,0.25786 0.35687,0.25698 0.35687,0.26514 0.35688,0.18302 0.35687,0.15804 0.35687,0.23388 0.35687,0.0871 0.35687,0.17268 0.35688,0.18951 0.35687,0.15264 0.35687,0.0674 0.35687,0.3345 0.35687,0.0355 0.35688,0.36991 0.35687,0.12328 0.35687,0.21006 0.35687,-0.022 0.35687,0.16649 0.35688,0.14492 0.35687,0.14871 0.35687,0.21151 0.35687,-0.0331 0.35687,0.17493 0.35688,0.18376 0.35687,-0.0416 0.35687,0.28328 0.35687,0.19337 0.35687,0.24204 0.35688,-0.15643 0.35687,0.32095 0.35687,0.10485 0.35687,-0.0798 0.35687,0.36488 0.35688,0.0108 0.35687,0.17574 0.35687,-0.0104 0.35687,0.13333 0.35687,0.057 0.35688,0.16299 0.35687,0.15257 0.35687,0.18194 0.35687,-0.0247 0.35687,0.22426 0.35688,0.1592 0.35687,-0.0933 0.35687,0.18339 0.35687,7.3e-4 0.35687,0.16685 0.35688,0.0293 0.35687,0.0335 0.35687,0.15184 0.35687,-0.0158 0.35687,0.25166 0.35688,-0.0197 0.35687,0.0886 0.35687,0.18113 0.35687,-0.004 0.35687,0.0323 0.35688,0.0312 0.35687,0.30288 0.35687,-0.0374 0.35687,0.0498 0.35687,0.0739 0.35688,0.067 0.35687,0.16612 0.35687,0.0678 0.35687,-0.0181 0.35687,0.0783 0.35688,0.0836 0.35687,0.0451 0.35687,0.10711 0.35687,0.0686 0.35687,-0.0227 0.35688,0.11519 0.35687,-3.6e-4 0.35687,0.14412 0.35687,0.0408 0.35687,-0.0613 0.35688,0.0671 0.35687,0.10863 0.35687,0.0987 0.35687,-0.0459 0.35687,0.12838 0.35688,0.0332 0.35687,0.17333 0.35687,0.0301 0.35687,0.0613 0.35687,-0.0316 0.35688,-0.0628 0.35687,0.10288 0.35687,0.20423 0.35687,0.012 0.35687,0.0385 0.35688,-0.0562 0.35687,0.13253 0.35687,-0.002 0.35687,0.0497 0.35687,0.0608 0.35688,0.007 0.35687,0.0574 0.35687,0.0513 0.35687,3.6e-4 0.35687,-0.10171 0.35688,-0.0274 0.35687,0.20809 0.35687,-0.0142 0.35687,0.0482 0.35687,0.0978 0.35688,-0.0536 0.35687,0.0859 0.35687,-0.0162 0.35687,0.12875 0.35687,-0.0871 0.35688,0.14062 0.35687,-0.027 0.35687,-0.017 0.35687,0.007 0.35687,0.0204 0.35688,-0.0563 0.35687,0.11439 0.35687,0.0774 0.35687,-0.12831 0.35687,0.11527 0.35688,-0.0146 0.35687,0.0509 0.35687,-0.0563 0.35687,0.077 0.35687,0.0675 0.35688,-0.0224 0.35687,0.0636 0.35687,0.0689 0.35687,-0.13756 0.35687,0.0304 0.35688,0.17305 0.35687,-0.10864 0.35687,0.0998 0.35687,-0.0581 0.35687,-0.0493 0.35688,0.13523 0.35687,0.0933 0.35687,-0.12139 0.35687,0.0208 0.35687,0.002 0.35688,-0.0219 0.35687,0.0458 0.35687,-0.10441 0.35687,0.10594 0.35687,0.11912 0.35688,-0.0779 0.35687,-0.008 0.35687,0.14914 0.35687,-0.17763 0.35687,0.0278 0.35688,0.057 0.35687,0.10871 0.35687,-0.15724 0.35687,0.10907 0.35687,0.0266 0.35688,-0.0243 0.35687,0.0497 0.35687,-0.007 0.35687,-0.0895 0.35687,0.0721 0.35688,0.0512 0.35687,-0.035 0.35687,0.0474 0.35687,-0.0208 0.35687,-0.0593 0.35688,0.0362 0.35687,-0.0343 0.35687,0.0948 0.35687,-0.0351 0.35687,0.0671 0.35688,-0.0906 0.35687,0.10478 0.35687,0.007 0.35687,-0.16102 0.35687,0.0146 0.35688,0.12255 0.35687,0.0606 0.35687,0.0273 0.35687,-0.1992 0.35687,0.079 0.35688,0.0278 0.35687,-0.0312 0.35687,0.0354 0.35687,0.0366 0.35687,0.0386 0.35688,-0.0266 0.35687,-0.0108 0.35687,0.0454 0.35687,-0.16838 0.35687,-0.0504 0.35688,0.0235 0.35687,0.16109 0.35687,0.0732 0.35687,0.0216 0.35687,-0.1557 0.35688,0.001 0.35687,0.0482 0.35687,0.0393 0.35687,-0.10754 0.35687,0.11869 0.35688,0.0147 0.35687,-0.079 0.35687,0.0655 0.35687,0.0848 0.35687,-0.0717 0.35688,-0.0262 0.35687,0.0682 0.35687,0.007 0.35687,0.20306 0.35687,-0.15993 0.35688,0.0143 0.35687,0.0882 0.35687,-0.0273 0.35687,0.0709 0.35687,0.0743 0.35688,-7.3e-4 0.35687,-0.10638 0.35687,0.001 0.35687,0.0463 0.35687,0.077 0.35688,-0.0135 0.35687,-0.0111 0.35687,-0.002 0.35687,0.002 0.35687,0.0894 0.35688,0.0798 0.35687,-0.0559 0.35687,-0.11563 0.35687,0.10018 0.35687,-0.0393 0.35688,0.0111 0.35687,0.0231 0.35687,0.0705 0.35687,-0.052 0.35687,0.005 0.35688,0.0601 0.35687,0.0767 0.35687,-0.13793 0.35687,-0.0875 0.35687,0.0208 0.35688,0.0443 0.35687,0.0894 0.35687,-0.0259 0.35687,0.0629 0.35687,-0.0147 0.35688,0.0127 0.35687,-0.0219 0.35687,-0.0759 0.35687,0.0517 0.35687,0.025 0.35688,-0.1568 0.35687,0.0948 0.35687,0.0497 0.35687,-0.009 0.35687,0.0747 0.35688,-0.0766 0.35687,-0.0756 0.35687,0.11636 0.35687,0.035 0.35687,-0.11708 0.35688,0.0466 0.35687,-0.0871 0.35687,0.10288 0.35687,-0.0886 0.35687,0.001 0.35688,0.0667 0.35687,-0.12022 0.35687,0.0601 0.35687,0.0852 0.35687,0.0571 0.35688,-0.089 0.35687,0.0116 0.35687,-0.0543 0.35687,0.0181" />
      </g>
      <text
         id="text28880"
         style="font-variant:normal;font-weight:normal;font-size:12.5px;font-family:'Minion Pro';-inkscape-font-specification:MinionPro-Regular;writing-mode:lr-tb;fill:#000000;fill-opacity:1;fill-rule:nonzero;stroke:none"
         x="89.769081"
         y="300.58212">
        <tspan
           id="tspan28882"
           y="300.58212"
           x="89.769081 96.406578 102.78158 107.36907 110.54408 114.43157 117.78158 123.99407 130.83159 133.66908 137.99408 148.23158 151.58159 156.86908 161.33159 167.55659 174.29408 178.88161">Position (microns)</tspan>
      </text>
      <text
         xml:space="preserve"
         style="font-style:normal;font-variant:normal;font-weight:normal;font-stretch:normal;font-size:12.5px;line-height:1000%;font-family:'Minion Pro';-inkscape-font-specification:'Minion Pro, Normal';text-align:start;letter-spacing:0px;word-spacing:0px;writing-mode:lr-tb;text-anchor:start;opacity:1;fill:#000000;fill-opacity:1;stroke:none;stroke-width:1px;stroke-linecap:butt;stroke-linejoin:miter;stroke-opacity:1"
         x="8.2570133"
         y="287.36221"
         id="text29950"><tspan
           id="tspan29952"
           x="8.2570133"
           y="287.36221">0</tspan></text>
      <text
         xml:space="preserve"
         style="font-style:normal;font-variant:normal;font-weight:normal;font-stretch:normal;font-size:12.5px;line-height:1000%;font-family:'Minion Pro';-inkscape-font-specification:'Minion Pro, Normal';text-align:start;letter-spacing:0px;word-spacing:0px;writing-mode:lr-tb;text-anchor:start;opacity:1;fill:#000000;fill-opacity:1;stroke:none;stroke-width:1px;stroke-linecap:butt;stroke-linejoin:miter;stroke-opacity:1"
         x="143.75479"
         y="287.36221"
         id="text29954"><tspan
           id="tspan29956"
           x="143.75479"
           y="287.36221">800</tspan></text>
      <text
         xml:space="preserve"
         style="font-style:normal;font-variant:normal;font-weight:normal;font-stretch:normal;font-size:12.5px;line-height:1000%;font-family:'Minion Pro';-inkscape-font-specification:'Minion Pro, Normal';text-align:start;letter-spacing:0px;word-spacing:0px;writing-mode:lr-tb;text-anchor:start;opacity:1;fill:#000000;fill-opacity:1;stroke:none;stroke-width:1px;stroke-linecap:butt;stroke-linejoin:miter;stroke-opacity:1"
         x="74.197762"
         y="287.36221"
         id="text29958"><tspan
           id="tspan29960"
           x="74.197762"
           y="287.36221">400</tspan></text>
      <text
         xml:space="preserve"
         style="font-style:normal;font-variant:normal;font-weight:normal;font-stretch:normal;font-size:12.5px;line-height:1000%;font-family:'Minion Pro';-inkscape-font-specification:'Minion Pro, Normal';text-align:start;letter-spacing:0px;word-spacing:0px;writing-mode:lr-tb;text-anchor:start;opacity:1;fill:#000000;fill-opacity:1;stroke:none;stroke-width:1px;stroke-linecap:butt;stroke-linejoin:miter;stroke-opacity:1"
         x="214.03505"
         y="287.36221"
         id="text29962"><tspan
           id="tspan29964"
           x="214.03505"
           y="287.36221">1200</tspan></text>
      <text
         id="text28888"
         style="font-variant:normal;font-weight:normal;font-size:12.5px;font-family:'Minion Pro';-inkscape-font-specification:MinionPro-Regular;writing-mode:lr-tb;fill:#000000;fill-opacity:1;fill-rule:nonzero;stroke:none"
         transform="matrix(0,-1,1,0,0,0)"
         x="-205.58963"
         y="-13.89255">
        <tspan
           id="tspan28890"
           y="-13.89255"
           x="-205.58963 -196.62711 -190.40213 -185.68967 -175.51468 -169.93967 -166.77719 -163.42715 -158.17715 -152.77719 -146.17715 -143.33963 -139.98965 -133.41467 -129.67715 -124.36465 -117.61468 -113.02715 -109.85217 -106.00216">Normalized intensity</tspan>
      </text>
      <text
         xml:space="preserve"
         style="font-style:normal;font-variant:normal;font-weight:normal;font-stretch:normal;font-size:12.5px;line-height:1000%;font-family:'Minion Pro';-inkscape-font-specification:'Minion Pro, Normal';text-align:start;letter-spacing:0px;word-spacing:0px;writing-mode:lr-tb;text-anchor:start;fill:#000000;fill-opacity:1;stroke:none;stroke-width:1px;stroke-linecap:butt;stroke-linejoin:miter;stroke-opacity:1"
         x="-4.0031385"
         y="277.17911"
         id="text30094"><tspan
           id="tspan30096"
           x="-4.0031385"
           y="277.17911">0</tspan></text>
      <text
         xml:space="preserve"
         style="font-style:normal;font-variant:normal;font-weight:normal;font-stretch:normal;font-size:12.5px;line-height:1000%;font-family:'Minion Pro';-inkscape-font-specification:'Minion Pro, Normal';text-align:start;letter-spacing:0px;word-spacing:0px;writing-mode:lr-tb;text-anchor:start;fill:#000000;fill-opacity:1;stroke:none;stroke-width:1px;stroke-linecap:butt;stroke-linejoin:miter;stroke-opacity:1"
         x="-3.2656386"
         y="209.70328"
         id="text30098"><tspan
           id="tspan30100"
           x="-3.2656386"
           y="209.70328">1</tspan></text>
      <text
         xml:space="preserve"
         style="font-style:normal;font-variant:normal;font-weight:normal;font-stretch:normal;font-size:12.5px;line-height:1000%;font-family:'Minion Pro';-inkscape-font-specification:'Minion Pro, Normal';text-align:start;letter-spacing:0px;word-spacing:0px;writing-mode:lr-tb;text-anchor:start;fill:#000000;fill-opacity:1;stroke:none;stroke-width:1px;stroke-linecap:butt;stroke-linejoin:miter;stroke-opacity:1"
         x="-3.9656386"
         y="139.50415"
         id="text30102"><tspan
           id="tspan30104"
           x="-3.9656386"
           y="139.50415">2</tspan></text>
      <text
         xml:space="preserve"
         style="font-style:normal;font-variant:normal;font-weight:normal;font-stretch:normal;font-size:12.5px;line-height:1000%;font-family:'Minion Pro';-inkscape-font-specification:'Minion Pro, Normal';text-align:start;letter-spacing:0px;word-spacing:0px;writing-mode:lr-tb;text-anchor:start;fill:#000000;fill-opacity:1;stroke:none;stroke-width:1px;stroke-linecap:butt;stroke-linejoin:miter;stroke-opacity:1"
         x="-3.7656386"
         y="69.135284"
         id="text30106"><tspan
           id="tspan30108"
           x="-3.7656386"
           y="69.135284">3</tspan></text>
      <g
         id="g7273">
        <path
           style="fill:none;fill-rule:evenodd;stroke:#2dd284;stroke-width:2;stroke-linecap:butt;stroke-linejoin:miter;stroke-miterlimit:4;stroke-dasharray:none;stroke-opacity:0.7254902"
           d="m 16.35028,44.511542 c 19.59454,0 19.59454,0 19.59454,0"
           id="path30114" />
        <path
           style="fill:none;fill-rule:evenodd;stroke:#9b2d2d;stroke-width:2;stroke-linecap:butt;stroke-linejoin:miter;stroke-miterlimit:4;stroke-dasharray:4, 2;stroke-dashoffset:0;stroke-opacity:1"
           d="m 16.35028,58.301832 c 19.59454,0 19.59454,0 19.59454,0"
           id="path30118" />
        <text
           id="text30120"
           y="46.786541"
           x="40.557175"
           style="font-style:normal;font-variant:normal;font-weight:normal;font-stretch:normal;font-size:10px;line-height:1000%;font-family:'Minion Pro';-inkscape-font-specification:'Minion Pro, Normal';text-align:start;letter-spacing:0px;word-spacing:0px;writing-mode:lr-tb;text-anchor:start;fill:#000000;fill-opacity:1;stroke:none;stroke-width:1px;stroke-linecap:butt;stroke-linejoin:miter;stroke-opacity:1"
           xml:space="preserve"><tspan
             y="46.786541"
             x="40.557175"
             id="tspan30122">NTF2-FITC</tspan></text>
        <text
           id="text30132"
           y="60.576836"
           x="40.487167"
           style="font-style:normal;font-variant:normal;font-weight:normal;font-stretch:normal;font-size:10px;line-height:1000%;font-family:'Minion Pro';-inkscape-font-specification:'Minion Pro, Normal';text-align:start;letter-spacing:0px;word-spacing:0px;writing-mode:lr-tb;text-anchor:start;fill:#000000;fill-opacity:1;stroke:none;stroke-width:1px;stroke-linecap:butt;stroke-linejoin:miter;stroke-opacity:1"
           xml:space="preserve"><tspan
             y="60.576836"
             x="40.487167"
             id="tspan30134">mCherry</tspan></text>
      </g>
      <g
         transform="matrix(1.2807176,0,0,1.2290812,-120.48398,14.935976)"
         id="g28932">
        <path
           id="path28934"
           style="fill:none;stroke:#808080;stroke-width:0.80000001;stroke-linecap:butt;stroke-linejoin:miter;stroke-miterlimit:4;stroke-dasharray:1.6, 0.8;stroke-dashoffset:0;stroke-opacity:1"
           d="m 198.938,12.336 0,198.516" />
      </g>
      <text
         xml:space="preserve"
         style="font-style:normal;font-variant:normal;font-weight:normal;font-stretch:normal;font-size:12.5px;line-height:1000%;font-family:'Minion Pro';-inkscape-font-specification:'Minion Pro, Normal';text-align:start;letter-spacing:0px;word-spacing:0px;writing-mode:lr-tb;text-anchor:start;fill:#000000;fill-opacity:1;stroke:none;stroke-width:1px;stroke-linecap:butt;stroke-linejoin:miter;stroke-opacity:1"
         x="170.55611"
         y="264.34778"
         id="text30150"><tspan
           id="tspan30152"
           x="170.55611"
           y="264.34778">Hydrogel</tspan></text>
      <text
         xml:space="preserve"
         style="font-style:normal;font-variant:normal;font-weight:normal;font-stretch:normal;font-size:12.5px;line-height:1000%;font-family:'Minion Pro';-inkscape-font-specification:'Minion Pro, Normal';text-align:start;letter-spacing:0px;word-spacing:0px;writing-mode:lr-tb;text-anchor:start;fill:#000000;fill-opacity:1;stroke:none;stroke-width:1px;stroke-linecap:butt;stroke-linejoin:miter;stroke-opacity:1"
         x="40.235138"
         y="265.49152"
         id="text30158"><tspan
           id="tspan30160"
           x="40.235138"
           y="265.49152">Reservoir</tspan></text>
      <text
         xml:space="preserve"
         style="font-style:normal;font-variant:normal;font-weight:normal;font-stretch:normal;font-size:12.5px;line-height:1000%;font-family:'Minion Pro';-inkscape-font-specification:'Minion Pro, Normal';text-align:start;letter-spacing:0px;word-spacing:0px;writing-mode:lr-tb;text-anchor:start;fill:#000000;fill-opacity:1;stroke:none;stroke-width:1px;stroke-linecap:butt;stroke-linejoin:miter;stroke-opacity:1"
         x="196.56197"
         y="48.096642"
         id="text7303"><tspan
           id="tspan7305"
           x="196.56197"
           y="48.096642">t = 100 min</tspan></text>
    </g>
    <g
       transform="translate(-49.842392,-9.073914)"
       id="g7577">
      <g
         id="g5618"
         style="font-style:normal;font-weight:normal;font-size:medium;font-family:Dialog;color-interpolation:linearRGB;fill:#262626;fill-opacity:1;stroke:#262626;stroke-width:0.5;stroke-linecap:square;stroke-linejoin:round;stroke-miterlimit:10;stroke-dasharray:none;stroke-dashoffset:0;stroke-opacity:1;color-rendering:optimizeQuality;image-rendering:optimizeQuality;shape-rendering:auto;text-rendering:geometricPrecision"
         transform="matrix(0.5733198,0,0,0.74633287,354.73865,9.8921307)">
        <line
           id="line5620"
           y1="366"
           x2="507"
           x1="73"
           style="fill:none"
           y2="366" />
        <line
           id="line5622"
           y1="31"
           x2="507"
           x1="73"
           style="fill:none"
           y2="31" />
        <line
           id="line5624"
           y1="366"
           x2="73"
           x1="73"
           style="fill:none"
           y2="361.66" />
        <line
           id="line5626"
           y1="366"
           x2="159.8"
           x1="159.8"
           style="fill:none"
           y2="361.66" />
        <line
           id="line5628"
           y1="366"
           x2="246.60001"
           x1="246.60001"
           style="fill:none"
           y2="361.66" />
        <line
           id="line5630"
           y1="366"
           x2="333.39999"
           x1="333.39999"
           style="fill:none"
           y2="361.66" />
        <line
           id="line5632"
           y1="366"
           x2="420.20001"
           x1="420.20001"
           style="fill:none"
           y2="361.66" />
        <line
           id="line5634"
           y1="366"
           x2="507"
           x1="507"
           style="fill:none"
           y2="361.66" />
        <line
           id="line5636"
           y1="31"
           x2="73"
           x1="73"
           style="fill:none"
           y2="35.34" />
        <line
           id="line5638"
           y1="31"
           x2="159.8"
           x1="159.8"
           style="fill:none"
           y2="35.34" />
        <line
           id="line5640"
           y1="31"
           x2="246.60001"
           x1="246.60001"
           style="fill:none"
           y2="35.34" />
        <line
           id="line5642"
           y1="31"
           x2="333.39999"
           x1="333.39999"
           style="fill:none"
           y2="35.34" />
        <line
           id="line5644"
           y1="31"
           x2="420.20001"
           x1="420.20001"
           style="fill:none"
           y2="35.34" />
        <line
           id="line5646"
           y1="31"
           x2="507"
           x1="507"
           style="fill:none"
           y2="35.34" />
      </g>
      <g
         id="g5676"
         style="font-style:normal;font-weight:normal;font-size:medium;font-family:Dialog;color-interpolation:linearRGB;fill:#262626;fill-opacity:1;stroke:#262626;stroke-width:0.5;stroke-linecap:square;stroke-linejoin:round;stroke-miterlimit:10;stroke-dasharray:none;stroke-dashoffset:0;stroke-opacity:1;color-rendering:optimizeQuality;image-rendering:optimizeQuality;shape-rendering:auto;text-rendering:geometricPrecision"
         transform="matrix(0.5733198,0,0,0.74633287,354.73865,9.8921307)">
        <line
           id="line5678"
           y1="366"
           x2="73"
           x1="73"
           style="fill:none"
           y2="31" />
        <line
           id="line5680"
           y1="366"
           x2="507"
           x1="507"
           style="fill:none"
           y2="31" />
        <line
           id="line5682"
           y1="366"
           x2="77.339996"
           x1="73"
           style="fill:none"
           y2="366" />
        <line
           id="line5684"
           y1="282.25"
           x2="77.339996"
           x1="73"
           style="fill:none"
           y2="282.25" />
        <line
           id="line5686"
           y1="198.5"
           x2="77.339996"
           x1="73"
           style="fill:none"
           y2="198.5" />
        <line
           id="line5688"
           y1="114.75"
           x2="77.339996"
           x1="73"
           style="fill:none"
           y2="114.75" />
        <line
           id="line5690"
           y1="31"
           x2="77.339996"
           x1="73"
           style="fill:none"
           y2="31" />
        <line
           id="line5692"
           y1="366"
           x2="502.66"
           x1="507"
           style="fill:none"
           y2="366" />
        <line
           id="line5694"
           y1="282.25"
           x2="502.66"
           x1="507"
           style="fill:none"
           y2="282.25" />
        <line
           id="line5696"
           y1="198.5"
           x2="502.66"
           x1="507"
           style="fill:none"
           y2="198.5" />
        <line
           id="line5698"
           y1="114.75"
           x2="502.66"
           x1="507"
           style="fill:none"
           y2="114.75" />
        <line
           id="line5700"
           y1="31"
           x2="502.66"
           x1="507"
           style="fill:none"
           y2="31" />
      </g>
      <g
         id="g5730"
         style="font-style:normal;font-weight:normal;font-size:medium;font-family:Dialog;color-interpolation:linearRGB;fill:#00ff00;fill-opacity:1;stroke:#2dd284;stroke-width:2.99939895;stroke-linecap:butt;stroke-linejoin:round;stroke-miterlimit:5.5;stroke-dasharray:none;stroke-dashoffset:0;stroke-opacity:1;color-rendering:optimizeQuality;image-rendering:optimizeQuality;shape-rendering:auto;text-rendering:geometricPrecision"
         transform="matrix(0.5733198,0,0,0.74633287,354.73865,9.8921307)">
        <path
           id="path5732"
           style="fill:none;fill-rule:evenodd;stroke:#2dd284;stroke-width:2.99939895;stroke-miterlimit:5.5;stroke-dasharray:none;stroke-dashoffset:0;stroke-opacity:1"
           d="m 77.34,274.0787 4.34,-4.13 4.34,-4.4695 4.34,-4.3371 4.34,-3.7033 4.34,-4.2911 4.34,-2.9092 4.34,-3.8813 4.34,-3.2346 4.34,-4.3314 4.34,-2.5847 4.34,-3.6086 4.34,-3.705 4.34,-2.5781 4.34,-3.2104 4.34,-3.3641 4.34,-2.9361 4.34,-3.0107 4.34,-3.1419 4.34,-2.6313 4.34,-2.8144 4.34,-2.9902 4.34,-2.4196 4.34,-2.8426 4.34,-1.9216 4.34,-3.0905 4.34,-2.6189 4.34,-3.3386 4.34,-1.6497 4.34,-2.7612 4.34,-3.2121 4.34,-2.4462 4.34,-2.3125 4.34,-1.5569 4.34,-3.3713 4.34,-1.3062 4.34,-3.4514 4.34,-2.4078 4.34,-2.3802 4.34,-0.695 4.34,-3.511 4.34,-0.6191 4.34,-4.011 4.34,-2.2825 4.34,-2.1564 4.34,-2.1761 4.34,-0.479 4.34,-3.3907 4.34,-2.116 4.34,-2.3671 4.34,-1.1568 4.34,-1.5622 4.34,-1.645 4.34,-3.256 4.34,-2.351 4.34,-0.1741 4.34,-3.2468 4.34,-1.0479 4.34,-2.8219 4.34,-2.3994 4.34,-0.1339 4.34,-2.5634 4.34,-1.7896 4.34,-2.7241 4.34,-0.7853 4.34,-2.257 4.34,-2.3733 4.34,-2.3992 4.34,-1.5083 4.34,-1.6099 4.34,-1.4102 4.34,-2.2703 4.34,-1.6764 4.34,-0.3917 4.34,-2.9706 4.34,-0.9353 4.34,-0.6176 4.34,-1.6885 4.34,-1.8724 4.34,-1.628 4.34,-1.6092 4.34,-3.7775 4.34,0.2367 4.34,-3.3126 4.34,0.3484 4.34,-1.7384 4.34,-1.5043 4.34,-1.7689 4.34,-1.7262 4.34,-1.6264 4.34,-3.0023 4.34,-1.6752 4.34,-2.0051 4.34,-1.1103 4.34,-0.4021 4.34,-2.2521 4.34,-2.5506 4.34,-1.2938 4.34,0.7512 4.34,-4.6388" />
      </g>
      <g
         id="g5734"
         style="font-style:normal;font-weight:normal;font-size:medium;font-family:Dialog;color-interpolation:linearRGB;fill:#ff0000;fill-opacity:1;stroke:#9b2d2d;stroke-width:2.99939895;stroke-linecap:butt;stroke-linejoin:bevel;stroke-miterlimit:5.5;stroke-dasharray:5.99879808, 2.99939904;stroke-dashoffset:0;stroke-opacity:1;color-rendering:optimizeQuality;image-rendering:optimizeQuality;shape-rendering:auto;text-rendering:geometricPrecision"
         transform="matrix(0.5733198,0,0,0.74633287,354.73865,9.8921307)">
        <path
           id="path5736"
           style="fill:none;fill-rule:evenodd;stroke:#9b2d2d;stroke-width:2.99939895;stroke-miterlimit:5.5;stroke-dasharray:5.99879808, 2.99939904;stroke-dashoffset:0;stroke-opacity:1"
           d="m 77.34,318.3942 4.34,-1.2777 4.34,-1.0864 4.34,-1.215 4.34,-0.8124 4.34,-1.1798 4.34,-0.9322 4.34,-0.8727 4.34,-0.598 4.34,-1.0005 4.34,-0.7482 4.34,-0.5592 4.34,-0.8441 4.34,-0.4506 4.34,-0.615 4.34,-0.7038 4.34,-0.4817 4.34,-0.4204 4.34,-0.56 4.34,-0.5425 4.34,-0.4889 4.34,-0.5454 4.34,-0.4452 4.34,-0.518 4.34,-0.5494 4.34,-0.5309 4.34,-0.3888 4.34,-0.2571 4.34,-0.429 4.34,-0.141 4.34,-0.4239 4.34,-0.4505 4.34,-0.3663 4.34,-0.4346 4.34,-0.237 4.34,-0.4261 4.34,-0.277 4.34,-0.3044 4.34,-0.3099 4.34,-0.2186 4.34,-0.2825 4.34,-0.3091 4.34,-0.1028 4.34,-0.2379 4.34,-0.4141 4.34,-0.2118 4.34,-0.0138 4.34,-0.4471 4.34,-0.2368 4.34,-0.2008 4.34,-0.1569 4.34,0.0933 4.34,-0.208 4.34,-0.4539 4.34,0.0549 4.34,-0.316 4.34,-0.0326 4.34,-0.4381 4.34,0.0802 4.34,-0.2156 4.34,-0.1098 4.34,-0.4728 4.34,0.214 4.34,-0.2778 4.34,-0.294 4.34,0.0446 4.34,-0.0794 4.34,-0.179 4.34,-0.113 4.34,-0.1021 4.34,-0.1001 4.34,-0.1254 4.34,-0.1086 4.34,-0.5037 4.34,0.2692 4.34,-0.1417 4.34,-0.1508 4.34,-0.145 4.34,-0.2695 4.34,-0.2668 4.34,-0.0588 4.34,-0.1555 4.34,-0.0732 4.34,-0.0895 4.34,-0.0746 4.34,-0.0312 4.34,-0.2389 4.34,-0.0802 4.34,-0.0792 4.34,-0.1206 4.34,-0.0119 4.34,0.0655 4.34,-0.3169 4.34,0.1217 4.34,-0.2295 4.34,-0.1177 4.34,-0.0774 4.34,0.1526 4.34,0.0496 4.34,-0.0811" />
      </g>
      <g
         id="g7421"
         transform="translate(6,0)">
        <text
           id="text7357"
           style="font-variant:normal;font-weight:normal;font-size:12.5px;font-family:'Minion Pro';-inkscape-font-specification:MinionPro-Regular;writing-mode:lr-tb;fill:#000000;fill-opacity:1;fill-rule:nonzero;stroke:none"
           transform="matrix(0,-1,1,0,0,0)"
           x="-214.39886"
           y="363.79898">
          <tspan
             id="tspan7359"
             y="363.79898"
             x="-214.39886 -205.43634 -199.21136 -194.4989 -184.32391 -178.7489 -175.58643 -172.23639 -166.98639 -161.58643 -154.98639 -152.14886 -148.79889 -142.22391 -138.48639 -133.17389 -126.42392 -121.8364 -118.66142 -114.8114">Normalized intensity</tspan>
        </text>
        <text
           xml:space="preserve"
           style="font-style:normal;font-variant:normal;font-weight:normal;font-stretch:normal;font-size:12.5px;line-height:1000%;font-family:'Minion Pro';-inkscape-font-specification:'Minion Pro, Normal';text-align:start;letter-spacing:0px;word-spacing:0px;writing-mode:lr-tb;text-anchor:start;fill:#000000;fill-opacity:1;stroke:none;stroke-width:1px;stroke-linecap:butt;stroke-linejoin:miter;stroke-opacity:1"
           x="379.68839"
           y="285.98837"
           id="text7361"><tspan
             id="tspan7363"
             x="379.68839"
             y="285.98837">0</tspan></text>
        <text
           xml:space="preserve"
           style="font-style:normal;font-variant:normal;font-weight:normal;font-stretch:normal;font-size:12.5px;line-height:1000%;font-family:'Minion Pro';-inkscape-font-specification:'Minion Pro, Normal';text-align:start;letter-spacing:0px;word-spacing:0px;writing-mode:lr-tb;text-anchor:start;fill:#000000;fill-opacity:1;stroke:none;stroke-width:1px;stroke-linecap:butt;stroke-linejoin:miter;stroke-opacity:1"
           x="380.4259"
           y="162.51251"
           id="text7365"><tspan
             id="tspan7367"
             x="380.4259"
             y="162.51251">1</tspan></text>
        <text
           xml:space="preserve"
           style="font-style:normal;font-variant:normal;font-weight:normal;font-stretch:normal;font-size:12.5px;line-height:1000%;font-family:'Minion Pro';-inkscape-font-specification:'Minion Pro, Normal';text-align:start;letter-spacing:0px;word-spacing:0px;writing-mode:lr-tb;text-anchor:start;fill:#000000;fill-opacity:1;stroke:none;stroke-width:1px;stroke-linecap:butt;stroke-linejoin:miter;stroke-opacity:1"
           x="379.72589"
           y="36.313393"
           id="text7369"><tspan
             id="tspan7371"
             x="379.72589"
             y="36.313393">2</tspan></text>
        <text
           id="text7413"
           y="224.51251"
           x="370.97607"
           style="font-style:normal;font-variant:normal;font-weight:normal;font-stretch:normal;font-size:12.5px;line-height:1000%;font-family:'Minion Pro';-inkscape-font-specification:'Minion Pro, Normal';text-align:start;letter-spacing:0px;word-spacing:0px;writing-mode:lr-tb;text-anchor:start;fill:#000000;fill-opacity:1;stroke:none;stroke-width:1px;stroke-linecap:butt;stroke-linejoin:miter;stroke-opacity:1"
           xml:space="preserve"><tspan
             y="224.51251"
             x="370.97607"
             id="tspan7415">0.5</tspan></text>
        <text
           id="text7417"
           y="98.512512"
           x="370.97607"
           style="font-style:normal;font-variant:normal;font-weight:normal;font-stretch:normal;font-size:12.5px;line-height:1000%;font-family:'Minion Pro';-inkscape-font-specification:'Minion Pro, Normal';text-align:start;letter-spacing:0px;word-spacing:0px;writing-mode:lr-tb;text-anchor:start;fill:#000000;fill-opacity:1;stroke:none;stroke-width:1px;stroke-linecap:butt;stroke-linejoin:miter;stroke-opacity:1"
           xml:space="preserve"><tspan
             y="98.512512"
             x="370.97607"
             id="tspan7419">1.5</tspan></text>
      </g>
      <text
         id="text7471"
         y="297.36221"
         x="394.25702"
         style="font-style:normal;font-variant:normal;font-weight:normal;font-stretch:normal;font-size:12.5px;line-height:1000%;font-family:'Minion Pro';-inkscape-font-specification:'Minion Pro, Normal';text-align:start;letter-spacing:0px;word-spacing:0px;writing-mode:lr-tb;text-anchor:start;opacity:1;fill:#000000;fill-opacity:1;stroke:none;stroke-width:1px;stroke-linecap:butt;stroke-linejoin:miter;stroke-opacity:1"
         xml:space="preserve"><tspan
           y="297.36221"
           x="394.25702"
           id="tspan7473">0</tspan></text>
      <text
         id="text7475"
         y="297.36221"
         x="589.75476"
         style="font-style:normal;font-variant:normal;font-weight:normal;font-stretch:normal;font-size:12.5px;line-height:1000%;font-family:'Minion Pro';-inkscape-font-specification:'Minion Pro, Normal';text-align:start;letter-spacing:0px;word-spacing:0px;writing-mode:lr-tb;text-anchor:start;opacity:1;fill:#000000;fill-opacity:1;stroke:none;stroke-width:1px;stroke-linecap:butt;stroke-linejoin:miter;stroke-opacity:1"
         xml:space="preserve"><tspan
           y="297.36221"
           x="589.75476"
           id="tspan7477">80</tspan></text>
      <text
         id="text7479"
         y="297.36221"
         x="490.19775"
         style="font-style:normal;font-variant:normal;font-weight:normal;font-stretch:normal;font-size:12.5px;line-height:1000%;font-family:'Minion Pro';-inkscape-font-specification:'Minion Pro, Normal';text-align:start;letter-spacing:0px;word-spacing:0px;writing-mode:lr-tb;text-anchor:start;opacity:1;fill:#000000;fill-opacity:1;stroke:none;stroke-width:1px;stroke-linecap:butt;stroke-linejoin:miter;stroke-opacity:1"
         xml:space="preserve"><tspan
           y="297.36221"
           x="490.19775"
           id="tspan7481">40</tspan></text>
      <text
         id="text7483"
         y="297.36221"
         x="636.03503"
         style="font-style:normal;font-variant:normal;font-weight:normal;font-stretch:normal;font-size:12.5px;line-height:1000%;font-family:'Minion Pro';-inkscape-font-specification:'Minion Pro, Normal';text-align:start;letter-spacing:0px;word-spacing:0px;writing-mode:lr-tb;text-anchor:start;opacity:1;fill:#000000;fill-opacity:1;stroke:none;stroke-width:1px;stroke-linecap:butt;stroke-linejoin:miter;stroke-opacity:1"
         xml:space="preserve"><tspan
           y="297.36221"
           x="636.03503"
           id="tspan7485">100</tspan></text>
      <text
         xml:space="preserve"
         style="font-style:normal;font-variant:normal;font-weight:normal;font-stretch:normal;font-size:12.5px;line-height:1000%;font-family:'Minion Pro';-inkscape-font-specification:'Minion Pro, Normal';text-align:start;letter-spacing:0px;word-spacing:0px;writing-mode:lr-tb;text-anchor:start;opacity:1;fill:#000000;fill-opacity:1;stroke:none;stroke-width:1px;stroke-linecap:butt;stroke-linejoin:miter;stroke-opacity:1"
         x="440.19775"
         y="297.36221"
         id="text7487"><tspan
           id="tspan7489"
           x="440.19775"
           y="297.36221">20</tspan></text>
      <text
         xml:space="preserve"
         style="font-style:normal;font-variant:normal;font-weight:normal;font-stretch:normal;font-size:12.5px;line-height:1000%;font-family:'Minion Pro';-inkscape-font-specification:'Minion Pro, Normal';text-align:start;letter-spacing:0px;word-spacing:0px;writing-mode:lr-tb;text-anchor:start;opacity:1;fill:#000000;fill-opacity:1;stroke:none;stroke-width:1px;stroke-linecap:butt;stroke-linejoin:miter;stroke-opacity:1"
         x="540.19775"
         y="297.36221"
         id="text7491"><tspan
           id="tspan7493"
           x="540.19775"
           y="297.36221">60</tspan></text>
      <text
         xml:space="preserve"
         style="font-style:normal;font-variant:normal;font-weight:normal;font-stretch:normal;line-height:1000%;font-family:'Minion Pro';-inkscape-font-specification:'Minion Pro, Normal';text-align:start;letter-spacing:0px;word-spacing:0px;writing-mode:lr-tb;text-anchor:start;fill:#000000;fill-opacity:1;stroke:none;stroke-width:1px;stroke-linecap:butt;stroke-linejoin:miter;stroke-opacity:1"
         x="490.71283"
         y="311.79422"
         id="text7495"><tspan
           id="tspan7497"
           x="490.71283"
           y="311.79422">Time (minutes)</tspan></text>
    </g>
    <text
       id="text7638"
       y="21.680595"
       x="29.364147"
       style="font-style:normal;font-variant:normal;font-weight:normal;font-stretch:normal;font-size:15px;line-height:1000%;font-family:'Minion Pro';-inkscape-font-specification:'Minion Pro, Normal';text-align:start;letter-spacing:0px;word-spacing:0px;writing-mode:lr-tb;text-anchor:start;fill:#000000;fill-opacity:1;stroke:none;stroke-width:1px;stroke-linecap:butt;stroke-linejoin:miter;stroke-opacity:1"
       xml:space="preserve"><tspan
         y="21.680595"
         x="29.364147"
         id="tspan7640">A</tspan></text>
    <text
       id="text7642"
       y="21.568096"
       x="315.1752"
       style="font-style:normal;font-variant:normal;font-weight:normal;font-stretch:normal;font-size:15px;line-height:1000%;font-family:'Minion Pro';-inkscape-font-specification:'Minion Pro, Normal';text-align:start;letter-spacing:0px;word-spacing:0px;writing-mode:lr-tb;text-anchor:start;fill:#000000;fill-opacity:1;stroke:none;stroke-width:1px;stroke-linecap:butt;stroke-linejoin:miter;stroke-opacity:1"
       xml:space="preserve"><tspan
         y="21.568096"
         x="315.1752"
         id="tspan7644">B</tspan></text>
  </g>
</svg>
