<?xml version="1.0" encoding="UTF-8" standalone="no"?>
<svg
   xmlns:dc="http://purl.org/dc/elements/1.1/"
   xmlns:cc="http://creativecommons.org/ns#"
   xmlns:rdf="http://www.w3.org/1999/02/22-rdf-syntax-ns#"
   xmlns:svg="http://www.w3.org/2000/svg"
   xmlns="http://www.w3.org/2000/svg"
   xmlns:sodipodi="http://sodipodi.sourceforge.net/DTD/sodipodi-0.dtd"
   xmlns:inkscape="http://www.inkscape.org/namespaces/inkscape"
   style="fill-opacity:1; color-rendering:auto; color-interpolation:auto; stroke:black; text-rendering:auto; stroke-linecap:square; stroke-miterlimit:10; stroke-opacity:1; shape-rendering:auto; fill:black; stroke-dasharray:none; font-weight:normal; stroke-width:1; font-family:'Dialog'; font-style:normal; stroke-linejoin:miter; font-size:12px; stroke-dashoffset:0; image-rendering:auto;"
   width="560"
   height="420"
   id="svg8080"
   version="1.1"
   inkscape:version="0.91 r13725"
   sodipodi:docname="ITC_runs.svg">
  <metadata
     id="metadata8409">
    <rdf:RDF>
      <cc:Work
         rdf:about="">
        <dc:format>image/svg+xml</dc:format>
        <dc:type
           rdf:resource="http://purl.org/dc/dcmitype/StillImage" />
      </cc:Work>
    </rdf:RDF>
  </metadata>
  <sodipodi:namedview
     pagecolor="#ffffff"
     bordercolor="#666666"
     borderopacity="1"
     objecttolerance="10"
     gridtolerance="10"
     guidetolerance="10"
     inkscape:pageopacity="0"
     inkscape:pageshadow="2"
     inkscape:window-width="1277"
     inkscape:window-height="726"
     id="namedview8407"
     showgrid="false"
     inkscape:zoom="1.1547619"
     inkscape:cx="282.5643"
     inkscape:cy="210"
     inkscape:window-x="0"
     inkscape:window-y="0"
     inkscape:window-maximized="0"
     inkscape:current-layer="svg8080" />
  <!--Generated by the Batik Graphics2D SVG Generator-->
  <defs
     id="genericDefs" />
  <g
     id="g8625"
     transform="matrix(0.80462295,0,0,0.80462295,5.0022386,4.5592407)">
    <g
       style="color-interpolation:linearRGB;fill:#262626;stroke:#262626;stroke-width:0.5;stroke-linejoin:round;color-rendering:optimizeQuality;image-rendering:optimizeQuality;text-rendering:geometricPrecision"
       id="g8099">
      <line
         y2="374"
         style="fill:none"
         x1="73"
         x2="507"
         y1="374"
         id="line8101" />
      <line
         y2="31"
         style="fill:none"
         x1="73"
         x2="507"
         y1="31"
         id="line8103" />
      <line
         y2="369.66"
         style="fill:none"
         x1="73"
         x2="73"
         y1="374"
         id="line8105" />
      <line
         y2="369.66"
         style="fill:none"
         x1="145.3333"
         x2="145.3333"
         y1="374"
         id="line8107" />
      <line
         y2="369.66"
         style="fill:none"
         x1="217.6667"
         x2="217.6667"
         y1="374"
         id="line8109" />
      <line
         y2="369.66"
         style="fill:none"
         x1="290"
         x2="290"
         y1="374"
         id="line8111" />
      <line
         y2="369.66"
         style="fill:none"
         x1="362.33331"
         x2="362.33331"
         y1="374"
         id="line8113" />
      <line
         y2="369.66"
         style="fill:none"
         x1="434.66669"
         x2="434.66669"
         y1="374"
         id="line8115" />
      <line
         y2="369.66"
         style="fill:none"
         x1="507"
         x2="507"
         y1="374"
         id="line8117" />
      <line
         y2="35.34"
         style="fill:none"
         x1="73"
         x2="73"
         y1="31"
         id="line8119" />
      <line
         y2="35.34"
         style="fill:none"
         x1="145.3333"
         x2="145.3333"
         y1="31"
         id="line8121" />
      <line
         y2="35.34"
         style="fill:none"
         x1="217.6667"
         x2="217.6667"
         y1="31"
         id="line8123" />
      <line
         y2="35.34"
         style="fill:none"
         x1="290"
         x2="290"
         y1="31"
         id="line8125" />
      <line
         y2="35.34"
         style="fill:none"
         x1="362.33331"
         x2="362.33331"
         y1="31"
         id="line8127" />
      <line
         y2="35.34"
         style="fill:none"
         x1="434.66669"
         x2="434.66669"
         y1="31"
         id="line8129" />
      <line
         y2="35.34"
         style="fill:none"
         x1="507"
         x2="507"
         y1="31"
         id="line8131" />
    </g>
    <g
       transform="translate(73,379.6)"
       style="font-size:18px;font-family:mwa_cmr10;color-interpolation:linearRGB;fill:#262626;stroke:#262626;color-rendering:optimizeQuality;image-rendering:optimizeQuality;text-rendering:geometricPrecision"
       id="g8133">
      <path
         style="stroke:none"
         d="m 0,15.5106 q -2.2031,0 -3,-1.8125 -0.7969,-1.8125 -0.7969,-4.3125 0,-1.5625 0.2891,-2.9454 Q -3.2188,5.0574 -2.375,4.0965 -1.5312,3.1356 0,3.1356 q 1.1875,0 1.9453,0.5781 0.7578,0.5781 1.1485,1.5 0.3906,0.9219 0.539,1.9687 0.1484,1.0469 0.1484,2.2032 0,1.5468 -0.289,2.8906 -0.2891,1.3437 -1.125,2.289 Q 1.5312,15.5106 0,15.5106 Z m 0,-0.4688 q 1,0 1.4922,-1.0234 0.4922,-1.0235 0.6094,-2.2735 0.1172,-1.25 0.1172,-2.6562 0,-1.3594 -0.1172,-2.5 Q 1.9844,5.4481 1.5,4.5262 1.0156,3.6043 0,3.6043 -1.0156,3.6043 -1.5078,4.534 -2,5.4637 -2.1172,6.5965 q -0.1172,1.1328 -0.1172,2.4922 0,1 0.0469,1.8906 0.0469,0.8906 0.2578,1.8359 0.2109,0.9454 0.6875,1.586 0.4766,0.6406 1.2422,0.6406 z"
         id="path8135"
         inkscape:connector-curvature="0" />
    </g>
    <g
       transform="translate(145.3333,379.6)"
       style="font-size:18px;font-family:mwa_cmr10;color-interpolation:linearRGB;fill:#262626;stroke:#262626;color-rendering:optimizeQuality;image-rendering:optimizeQuality;text-rendering:geometricPrecision"
       id="g8137">
      <path
         style="stroke:none"
         d="m -7,15.5106 q -2.2031,0 -3,-1.8125 -0.7969,-1.8125 -0.7969,-4.3125 0,-1.5625 0.2891,-2.9454 0.289,-1.3828 1.1328,-2.3437 0.8437,-0.9609 2.375,-0.9609 1.1875,0 1.9453,0.5781 0.7578,0.5781 1.1484,1.5 0.3907,0.9219 0.5391,1.9687 0.1484,1.0469 0.1484,2.2032 0,1.5468 -0.289,2.8906 -0.2891,1.3437 -1.125,2.289 -0.836,0.9454 -2.3672,0.9454 z m 0,-0.4688 q 1,0 1.4922,-1.0234 0.4922,-1.0235 0.6093,-2.2735 0.1172,-1.25 0.1172,-2.6562 0,-1.3594 -0.1172,-2.5 Q -5.0156,5.4481 -5.5,4.5262 -5.9844,3.6043 -7,3.6043 -8.0156,3.6043 -8.5078,4.534 -9,5.4637 -9.1172,6.5965 q -0.1172,1.1328 -0.1172,2.4922 0,1 0.0469,1.8906 0.0469,0.8906 0.2578,1.8359 0.2109,0.9454 0.6875,1.586 0.4766,0.6406 1.2422,0.6406 z"
         id="path8139"
         inkscape:connector-curvature="0" />
      <path
         style="stroke:none"
         d="m -0.9844,14.1199 q 0,-0.3906 0.2969,-0.6875 0.2969,-0.2968 0.6875,-0.2968 0.25,0 0.4844,0.1328 0.2344,0.1328 0.3672,0.375 0.1328,0.2422 0.1328,0.4765 0,0.4063 -0.2891,0.7032 -0.289,0.2968 -0.6953,0.2968 -0.3906,0 -0.6875,-0.2968 -0.2969,-0.2969 -0.2969,-0.7032 z"
         id="path8141"
         inkscape:connector-curvature="0" />
      <path
         style="stroke:none"
         d="m 3.3906,15.1199 0,-0.4843 q 0,-0.0469 0.0469,-0.0938 L 6.2344,11.4481 Q 6.8594,10.7606 7.2578,10.2918 7.6563,9.8231 8.0391,9.2215 8.4219,8.6199 8.6485,7.9871 8.875,7.3543 8.875,6.6512 8.875,5.9168 8.6016,5.2449 8.3281,4.5731 7.7891,4.1668 7.25,3.7606 6.4844,3.7606 q -0.7813,0 -1.4063,0.4687 -0.625,0.4688 -0.875,1.2188 0.0625,-0.0157 0.1875,-0.0157 0.4063,0 0.6875,0.2735 0.2813,0.2734 0.2813,0.7109 0,0.4063 -0.2813,0.6953 Q 4.7969,7.4012 4.3906,7.4012 3.9688,7.4012 3.6797,7.1043 3.3906,6.8074 3.3906,6.4168 3.3906,5.7293 3.6485,5.1356 3.9063,4.5418 4.3828,4.0809 4.8594,3.6199 5.461,3.3777 6.0625,3.1356 6.75,3.1356 q 1.0313,0 1.9141,0.4296 0.8828,0.4297 1.4062,1.2266 0.5235,0.7969 0.5235,1.8594 0,0.7812 -0.3438,1.4844 -0.3437,0.7031 -0.8828,1.2812 -0.5391,0.5781 -1.375,1.3047 -0.8359,0.7266 -1.1016,0.9766 l -2.0312,1.9687 1.7344,0 q 1.2656,0 2.125,-0.0234 0.8593,-0.0235 0.9062,-0.0703 0.2188,-0.2344 0.4375,-1.6563 l 0.5313,0 -0.5157,3.2031 -6.6875,0 z"
         id="path8143"
         inkscape:connector-curvature="0" />
    </g>
    <g
       transform="translate(217.6667,379.6)"
       style="font-size:18px;font-family:mwa_cmr10;color-interpolation:linearRGB;fill:#262626;stroke:#262626;color-rendering:optimizeQuality;image-rendering:optimizeQuality;text-rendering:geometricPrecision"
       id="g8145">
      <path
         style="stroke:none"
         d="m -7,15.5106 q -2.2031,0 -3,-1.8125 -0.7969,-1.8125 -0.7969,-4.3125 0,-1.5625 0.2891,-2.9454 0.289,-1.3828 1.1328,-2.3437 0.8437,-0.9609 2.375,-0.9609 1.1875,0 1.9453,0.5781 0.7578,0.5781 1.1484,1.5 0.3907,0.9219 0.5391,1.9687 0.1484,1.0469 0.1484,2.2032 0,1.5468 -0.289,2.8906 -0.2891,1.3437 -1.125,2.289 -0.836,0.9454 -2.3672,0.9454 z m 0,-0.4688 q 1,0 1.4922,-1.0234 0.4922,-1.0235 0.6093,-2.2735 0.1172,-1.25 0.1172,-2.6562 0,-1.3594 -0.1172,-2.5 Q -5.0156,5.4481 -5.5,4.5262 -5.9844,3.6043 -7,3.6043 -8.0156,3.6043 -8.5078,4.534 -9,5.4637 -9.1172,6.5965 q -0.1172,1.1328 -0.1172,2.4922 0,1 0.0469,1.8906 0.0469,0.8906 0.2578,1.8359 0.2109,0.9454 0.6875,1.586 0.4766,0.6406 1.2422,0.6406 z"
         id="path8147"
         inkscape:connector-curvature="0" />
      <path
         style="stroke:none"
         d="m -0.9844,14.1199 q 0,-0.3906 0.2969,-0.6875 0.2969,-0.2968 0.6875,-0.2968 0.25,0 0.4844,0.1328 0.2344,0.1328 0.3672,0.375 0.1328,0.2422 0.1328,0.4765 0,0.4063 -0.2891,0.7032 -0.289,0.2968 -0.6953,0.2968 -0.3906,0 -0.6875,-0.2968 -0.2969,-0.2969 -0.2969,-0.7032 z"
         id="path8149"
         inkscape:connector-curvature="0" />
      <path
         style="stroke:none"
         d="M 3,12.1512 3,11.5106 8.5625,3.2137 Q 8.625,3.1356 8.75,3.1356 l 0.2656,0 q 0.2032,0 0.2032,0.2031 l 0,8.1719 1.7656,0 0,0.6406 -1.7656,0 0,1.7656 q 0,0.375 0.5234,0.4688 0.5234,0.0937 1.2266,0.0937 l 0,0.6406 -4.9688,0 0,-0.6406 q 0.7031,0 1.2266,-0.0937 Q 7.75,14.2918 7.75,13.9168 l 0,-1.7656 -4.75,0 z m 0.5938,-0.6406 4.2656,0 0,-6.3594 -4.2656,6.3594 z"
         id="path8151"
         inkscape:connector-curvature="0" />
    </g>
    <g
       transform="translate(290,379.6)"
       style="font-size:18px;font-family:mwa_cmr10;color-interpolation:linearRGB;fill:#262626;stroke:#262626;color-rendering:optimizeQuality;image-rendering:optimizeQuality;text-rendering:geometricPrecision"
       id="g8153">
      <path
         style="stroke:none"
         d="m -7,15.5106 q -2.2031,0 -3,-1.8125 -0.7969,-1.8125 -0.7969,-4.3125 0,-1.5625 0.2891,-2.9454 0.289,-1.3828 1.1328,-2.3437 0.8437,-0.9609 2.375,-0.9609 1.1875,0 1.9453,0.5781 0.7578,0.5781 1.1484,1.5 0.3907,0.9219 0.5391,1.9687 0.1484,1.0469 0.1484,2.2032 0,1.5468 -0.289,2.8906 -0.2891,1.3437 -1.125,2.289 -0.836,0.9454 -2.3672,0.9454 z m 0,-0.4688 q 1,0 1.4922,-1.0234 0.4922,-1.0235 0.6093,-2.2735 0.1172,-1.25 0.1172,-2.6562 0,-1.3594 -0.1172,-2.5 Q -5.0156,5.4481 -5.5,4.5262 -5.9844,3.6043 -7,3.6043 -8.0156,3.6043 -8.5078,4.534 -9,5.4637 -9.1172,6.5965 q -0.1172,1.1328 -0.1172,2.4922 0,1 0.0469,1.8906 0.0469,0.8906 0.2578,1.8359 0.2109,0.9454 0.6875,1.586 0.4766,0.6406 1.2422,0.6406 z"
         id="path8155"
         inkscape:connector-curvature="0" />
      <path
         style="stroke:none"
         d="m -0.9844,14.1199 q 0,-0.3906 0.2969,-0.6875 0.2969,-0.2968 0.6875,-0.2968 0.25,0 0.4844,0.1328 0.2344,0.1328 0.3672,0.375 0.1328,0.2422 0.1328,0.4765 0,0.4063 -0.2891,0.7032 -0.289,0.2968 -0.6953,0.2968 -0.3906,0 -0.6875,-0.2968 -0.2969,-0.2969 -0.2969,-0.7032 z"
         id="path8157"
         inkscape:connector-curvature="0" />
      <path
         style="stroke:none"
         d="m 7,15.5106 q -1.1094,0 -1.8594,-0.5938 Q 4.3906,14.3231 3.9844,13.3777 3.5781,12.4324 3.4141,11.4012 3.25,10.3699 3.25,9.3074 3.25,7.8699 3.8047,6.4402 4.3594,5.0106 5.4375,4.0731 6.5156,3.1356 8,3.1356 q 0.6094,0 1.1406,0.2343 0.5313,0.2344 0.836,0.6797 0.3047,0.4453 0.3047,1.1016 0,0.3594 -0.25,0.6094 -0.25,0.25 -0.625,0.25 -0.3438,0 -0.6016,-0.25 -0.2578,-0.25 -0.2578,-0.6094 0,-0.3594 0.2578,-0.6172 0.2578,-0.2578 0.6016,-0.2578 l 0.0937,0 Q 9.2813,3.9637 8.8594,3.8074 8.4375,3.6512 8,3.6512 7.4531,3.6512 6.9922,3.8856 6.5313,4.1199 6.1563,4.5262 5.7813,4.9324 5.5391,5.4168 5.2969,5.9012 5.1563,6.5262 5.0156,7.1512 4.9844,7.6981 4.9531,8.2449 4.9531,9.0731 5.2656,8.3387 5.8438,7.8699 6.4219,7.4012 7.1563,7.4012 q 0.7968,0 1.4609,0.3203 0.6641,0.3203 1.1328,0.8984 0.4688,0.5782 0.7266,1.3125 0.2578,0.7344 0.2578,1.5 0,1.0469 -0.4766,2 Q 9.7813,14.3856 8.9297,14.9481 8.0781,15.5106 7,15.5106 Z m 0,-0.5625 q 0.6875,0 1.1094,-0.3204 0.4219,-0.3203 0.625,-0.8437 0.2031,-0.5234 0.25,-1.0547 0.0469,-0.5312 0.0469,-1.2969 0,-1.0312 -0.0938,-1.75 Q 8.8438,8.9637 8.4063,8.4168 7.9688,7.8699 7.0938,7.8699 q -0.7344,0 -1.2032,0.4922 -0.4687,0.4922 -0.6875,1.2422 -0.2187,0.75 -0.2187,1.4531 0,0.2344 0.0156,0.3594 0,0.0156 0,0.0391 0,0.0234 -0.0156,0.039 0,0.7813 0.1562,1.5703 0.1563,0.7891 0.6094,1.336 0.4531,0.5469 1.25,0.5469 z"
         id="path8159"
         inkscape:connector-curvature="0" />
    </g>
    <g
       transform="translate(362.3333,379.6)"
       style="font-size:18px;font-family:mwa_cmr10;color-interpolation:linearRGB;fill:#262626;stroke:#262626;color-rendering:optimizeQuality;image-rendering:optimizeQuality;text-rendering:geometricPrecision"
       id="g8161">
      <path
         style="stroke:none"
         d="m -7,15.5106 q -2.2031,0 -3,-1.8125 -0.7969,-1.8125 -0.7969,-4.3125 0,-1.5625 0.2891,-2.9454 0.289,-1.3828 1.1328,-2.3437 0.8437,-0.9609 2.375,-0.9609 1.1875,0 1.9453,0.5781 0.7578,0.5781 1.1484,1.5 0.3907,0.9219 0.5391,1.9687 0.1484,1.0469 0.1484,2.2032 0,1.5468 -0.289,2.8906 -0.2891,1.3437 -1.125,2.289 -0.836,0.9454 -2.3672,0.9454 z m 0,-0.4688 q 1,0 1.4922,-1.0234 0.4922,-1.0235 0.6093,-2.2735 0.1172,-1.25 0.1172,-2.6562 0,-1.3594 -0.1172,-2.5 Q -5.0156,5.4481 -5.5,4.5262 -5.9844,3.6043 -7,3.6043 -8.0156,3.6043 -8.5078,4.534 -9,5.4637 -9.1172,6.5965 q -0.1172,1.1328 -0.1172,2.4922 0,1 0.0469,1.8906 0.0469,0.8906 0.2578,1.8359 0.2109,0.9454 0.6875,1.586 0.4766,0.6406 1.2422,0.6406 z"
         id="path8163"
         inkscape:connector-curvature="0" />
      <path
         style="stroke:none"
         d="m -0.9844,14.1199 q 0,-0.3906 0.2969,-0.6875 0.2969,-0.2968 0.6875,-0.2968 0.25,0 0.4844,0.1328 0.2344,0.1328 0.3672,0.375 0.1328,0.2422 0.1328,0.4765 0,0.4063 -0.2891,0.7032 -0.289,0.2968 -0.6953,0.2968 -0.3906,0 -0.6875,-0.2968 -0.2969,-0.2969 -0.2969,-0.7032 z"
         id="path8165"
         inkscape:connector-curvature="0" />
      <path
         style="stroke:none"
         d="m 3.25,12.3856 q 0,-1.0782 0.7188,-1.9063 Q 4.6875,9.6512 5.7969,9.0887 L 5.125,8.6668 Q 4.5156,8.2606 4.125,7.5887 3.7344,6.9168 3.7344,6.1668 3.7344,5.3074 4.1875,4.6121 4.6406,3.9168 5.3906,3.5262 6.1406,3.1356 7,3.1356 q 0.7969,0 1.5391,0.3203 0.7422,0.3203 1.2265,0.9297 0.4844,0.6093 0.4844,1.4375 0,0.6093 -0.289,1.1328 -0.2891,0.5234 -0.7891,0.9297 -0.5,0.4062 -1.0625,0.7031 l 1.0312,0.6562 q 0.7188,0.4688 1.1563,1.2266 0.4375,0.7578 0.4375,1.5859 0,0.9844 -0.5234,1.7813 Q 9.6875,14.6356 8.8203,15.0731 7.9531,15.5106 7,15.5106 q -0.9375,0 -1.7969,-0.375 Q 4.3438,14.7606 3.7969,14.0418 3.25,13.3231 3.25,12.3856 Z m 0.9844,0 q 0,0.7187 0.3906,1.3046 0.3906,0.586 1.0313,0.9219 0.6406,0.336 1.3437,0.336 1.0469,0 1.8985,-0.6094 Q 9.75,13.7293 9.75,12.7137 9.75,12.3699 9.6172,12.034 9.4844,11.6981 9.2422,11.4168 9,11.1356 8.7031,10.9637 L 6.2813,9.4012 Q 5.7188,9.6981 5.25,10.1512 4.7813,10.6043 4.5078,11.1824 4.2344,11.7606 4.2344,12.3856 Z m 1.2344,-5.5 2.1875,1.4062 Q 8.4063,7.8543 8.8906,7.2293 9.375,6.6043 9.375,5.8231 9.375,5.2293 9.0391,4.7215 8.7031,4.2137 8.1563,3.9324 7.6094,3.6512 6.9844,3.6512 q -0.5469,0 -1.1016,0.2109 -0.5547,0.211 -0.914,0.625 -0.3594,0.4141 -0.3594,0.9766 0,0.8437 0.8594,1.4219 z"
         id="path8167"
         inkscape:connector-curvature="0" />
    </g>
    <g
       transform="translate(434.6667,379.6)"
       style="font-size:18px;font-family:mwa_cmr10;color-interpolation:linearRGB;fill:#262626;stroke:#262626;color-rendering:optimizeQuality;image-rendering:optimizeQuality;text-rendering:geometricPrecision"
       id="g8169">
      <path
         style="stroke:none"
         d="m -2.8281,15.1199 0,-0.6406 q 2.25,0 2.25,-0.5625 l 0,-9.4531 q -0.9375,0.4531 -2.3594,0.4531 l 0,-0.6406 q 2.2031,0 3.3281,-1.1406 l 0.2656,0 q 0.0626,0 0.1172,0.0468 0.0547,0.0469 0.0547,0.1094 l 0,10.625 q 0,0.5625 2.25,0.5625 l 0,0.6406 -5.9062,0 z"
         id="path8171"
         inkscape:connector-curvature="0" />
    </g>
    <g
       transform="translate(507,379.6)"
       style="font-size:18px;font-family:mwa_cmr10;color-interpolation:linearRGB;fill:#262626;stroke:#262626;color-rendering:optimizeQuality;image-rendering:optimizeQuality;text-rendering:geometricPrecision"
       id="g8173">
      <path
         style="stroke:none"
         d="m -9.8281,15.1199 0,-0.6406 q 2.25,0 2.25,-0.5625 l 0,-9.4531 q -0.9375,0.4531 -2.3594,0.4531 l 0,-0.6406 q 2.2031,0 3.3281,-1.1406 l 0.2656,0 q 0.0625,0 0.1172,0.0468 0.0547,0.0469 0.0547,0.1094 l 0,10.625 q 0,0.5625 2.25,0.5625 l 0,0.6406 -5.9062,0 z"
         id="path8175"
         inkscape:connector-curvature="0" />
      <path
         style="stroke:none"
         d="m -0.9844,14.1199 q 0,-0.3906 0.2969,-0.6875 0.2969,-0.2968 0.6875,-0.2968 0.25,0 0.4844,0.1328 0.2344,0.1328 0.3672,0.375 0.1328,0.2422 0.1328,0.4765 0,0.4063 -0.2891,0.7032 -0.289,0.2968 -0.6953,0.2968 -0.3906,0 -0.6875,-0.2968 -0.2969,-0.2969 -0.2969,-0.7032 z"
         id="path8177"
         inkscape:connector-curvature="0" />
      <path
         style="stroke:none"
         d="m 3.3906,15.1199 0,-0.4843 q 0,-0.0469 0.0469,-0.0938 L 6.2344,11.4481 Q 6.8594,10.7606 7.2578,10.2918 7.6563,9.8231 8.0391,9.2215 8.4219,8.6199 8.6485,7.9871 8.875,7.3543 8.875,6.6512 8.875,5.9168 8.6016,5.2449 8.3281,4.5731 7.7891,4.1668 7.25,3.7606 6.4844,3.7606 q -0.7813,0 -1.4063,0.4687 -0.625,0.4688 -0.875,1.2188 0.0625,-0.0157 0.1875,-0.0157 0.4063,0 0.6875,0.2735 0.2813,0.2734 0.2813,0.7109 0,0.4063 -0.2813,0.6953 Q 4.7969,7.4012 4.3906,7.4012 3.9688,7.4012 3.6797,7.1043 3.3906,6.8074 3.3906,6.4168 3.3906,5.7293 3.6485,5.1356 3.9063,4.5418 4.3828,4.0809 4.8594,3.6199 5.461,3.3777 6.0625,3.1356 6.75,3.1356 q 1.0313,0 1.9141,0.4296 0.8828,0.4297 1.4062,1.2266 0.5235,0.7969 0.5235,1.8594 0,0.7812 -0.3438,1.4844 -0.3437,0.7031 -0.8828,1.2812 -0.5391,0.5781 -1.375,1.3047 -0.8359,0.7266 -1.1016,0.9766 l -2.0312,1.9687 1.7344,0 q 1.2656,0 2.125,-0.0234 0.8593,-0.0235 0.9062,-0.0703 0.2188,-0.2344 0.4375,-1.6563 l 0.5313,0 -0.5157,3.2031 -6.6875,0 z"
         id="path8179"
         inkscape:connector-curvature="0" />
    </g>
    <g
       style="color-interpolation:linearRGB;fill:#262626;stroke:#262626;stroke-width:0.5;stroke-linejoin:round;color-rendering:optimizeQuality;image-rendering:optimizeQuality;text-rendering:geometricPrecision"
       id="g8181">
      <line
         y2="31"
         style="fill:none"
         x1="73"
         x2="73"
         y1="374"
         id="line8183" />
      <line
         y2="31"
         style="fill:none"
         x1="507"
         x2="507"
         y1="374"
         id="line8185" />
      <line
         y2="374"
         style="fill:none"
         x1="73"
         x2="77.339996"
         y1="374"
         id="line8187" />
      <line
         y2="316.83331"
         style="fill:none"
         x1="73"
         x2="77.339996"
         y1="316.83331"
         id="line8189" />
      <line
         y2="259.66669"
         style="fill:none"
         x1="73"
         x2="77.339996"
         y1="259.66669"
         id="line8191" />
      <line
         y2="202.5"
         style="fill:none"
         x1="73"
         x2="77.339996"
         y1="202.5"
         id="line8193" />
      <line
         y2="145.3333"
         style="fill:none"
         x1="73"
         x2="77.339996"
         y1="145.3333"
         id="line8195" />
      <line
         y2="88.166702"
         style="fill:none"
         x1="73"
         x2="77.339996"
         y1="88.166702"
         id="line8197" />
      <line
         y2="31"
         style="fill:none"
         x1="73"
         x2="77.339996"
         y1="31"
         id="line8199" />
      <line
         y2="374"
         style="fill:none"
         x1="507"
         x2="502.66"
         y1="374"
         id="line8201" />
      <line
         y2="316.83331"
         style="fill:none"
         x1="507"
         x2="502.66"
         y1="316.83331"
         id="line8203" />
      <line
         y2="259.66669"
         style="fill:none"
         x1="507"
         x2="502.66"
         y1="259.66669"
         id="line8205" />
      <line
         y2="202.5"
         style="fill:none"
         x1="507"
         x2="502.66"
         y1="202.5"
         id="line8207" />
      <line
         y2="145.3333"
         style="fill:none"
         x1="507"
         x2="502.66"
         y1="145.3333"
         id="line8209" />
      <line
         y2="88.166702"
         style="fill:none"
         x1="507"
         x2="502.66"
         y1="88.166702"
         id="line8211" />
      <line
         y2="31"
         style="fill:none"
         x1="507"
         x2="502.66"
         y1="31"
         id="line8213" />
    </g>
    <g
       transform="translate(67.4,374)"
       style="font-size:18px;font-family:mwa_cmr10;color-interpolation:linearRGB;fill:#262626;stroke:#262626;color-rendering:optimizeQuality;image-rendering:optimizeQuality;text-rendering:geometricPrecision"
       id="g8215">
      <path
         style="stroke:none"
         d="m -41.797,0.9918 0,-1.125 4.7657,0 0,1.125 -4.7657,0 z"
         id="path8217"
         inkscape:connector-curvature="0" />
    </g>
    <g
       transform="translate(67.4,374)"
       style="font-size:18px;font-family:mwa_cmr10;color-interpolation:linearRGB;fill:#262626;stroke:#262626;color-rendering:optimizeQuality;image-rendering:optimizeQuality;text-rendering:geometricPrecision"
       id="g8219">
      <path
         style="stroke:none"
         d="m -35.2501,1.5856 q 0,-1.0782 0.7187,-1.9063 0.7188,-0.8281 1.8282,-1.3906 l -0.6719,-0.4219 q -0.6094,-0.4062 -1,-1.0781 -0.3906,-0.6719 -0.3906,-1.4219 0,-0.8594 0.4531,-1.5547 0.4531,-0.6953 1.2031,-1.0859 0.75,-0.3906 1.6094,-0.3906 0.7969,0 1.5391,0.3203 0.7421,0.3203 1.2265,0.9297 0.4844,0.6093 0.4844,1.4375 0,0.6093 -0.2891,1.1328 -0.289,0.5234 -0.789,0.9297 -0.5,0.4062 -1.0625,0.7031 l 1.0312,0.6562 q 0.7188,0.4688 1.1563,1.2266 0.4375,0.7578 0.4375,1.5859 0,0.9844 -0.5235,1.7813 -0.5234,0.7969 -1.3906,1.2344 -0.8672,0.4375 -1.8203,0.4375 -0.9375,0 -1.7969,-0.375 -0.8594,-0.375 -1.4062,-1.0938 -0.5469,-0.7187 -0.5469,-1.6562 z m 0.9844,0 q 0,0.7187 0.3906,1.3046 0.3906,0.586 1.0312,0.9219 0.6407,0.336 1.3438,0.336 1.0469,0 1.8984,-0.6094 0.8516,-0.6094 0.8516,-1.625 0,-0.3438 -0.1328,-0.6797 -0.1328,-0.3359 -0.375,-0.6172 -0.2422,-0.2812 -0.5391,-0.4531 l -2.4219,-1.5625 q -0.5625,0.2969 -1.0312,0.75 -0.4688,0.4531 -0.7422,1.0312 -0.2734,0.5782 -0.2734,1.2032 z m 1.2343,-5.5 2.1875,1.4062 q 0.75,-0.4375 1.2344,-1.0625 0.4844,-0.625 0.4844,-1.4062 0,-0.5938 -0.3359,-1.1016 -0.336,-0.5078 -0.8829,-0.7891 -0.5468,-0.2812 -1.1718,-0.2812 -0.5469,0 -1.1016,0.2109 -0.5547,0.211 -0.9141,0.625 -0.3593,0.4141 -0.3593,0.9766 0,0.8437 0.8593,1.4219 z"
         id="path8221"
         inkscape:connector-curvature="0" />
      <path
         style="stroke:none"
         d="m -22.5001,4.7106 q -2.2031,0 -3,-1.8125 -0.7969,-1.8125 -0.7969,-4.3125 0,-1.5625 0.2891,-2.9454 0.2891,-1.3828 1.1328,-2.3437 0.8438,-0.9609 2.375,-0.9609 1.1875,0 1.9453,0.5781 0.7578,0.5781 1.1485,1.5 0.3906,0.9219 0.539,1.9687 0.1485,1.0469 0.1485,2.2032 0,1.5468 -0.2891,2.8906 -0.2891,1.3437 -1.125,2.289 -0.8359,0.9454 -2.3672,0.9454 z m 0,-0.4688 q 1,0 1.4922,-1.0234 0.4922,-1.0235 0.6094,-2.2735 0.1172,-1.25 0.1172,-2.6562 0,-1.3594 -0.1172,-2.5 -0.1172,-1.1406 -0.6016,-2.0625 -0.4844,-0.9219 -1.5,-0.9219 -1.0156,0 -1.5078,0.9297 -0.4922,0.9297 -0.6094,2.0625 -0.1172,1.1328 -0.1172,2.4922 0,1 0.0469,1.8906 0.0469,0.8906 0.2578,1.8359 0.211,0.9454 0.6875,1.586 0.4766,0.6406 1.2422,0.6406 z"
         id="path8223"
         inkscape:connector-curvature="0" />
      <path
         style="stroke:none"
         d="m -13.5001,4.7106 q -2.2031,0 -3,-1.8125 -0.7968,-1.8125 -0.7968,-4.3125 0,-1.5625 0.289,-2.9454 0.2891,-1.3828 1.1328,-2.3437 0.8438,-0.9609 2.375,-0.9609 1.1875,0 1.9454,0.5781 0.7578,0.5781 1.1484,1.5 0.3906,0.9219 0.5391,1.9687 0.1484,1.0469 0.1484,2.2032 0,1.5468 -0.2891,2.8906 -0.289,1.3437 -1.125,2.289 -0.8359,0.9454 -2.3672,0.9454 z m 0,-0.4688 q 1,0 1.4922,-1.0234 0.4922,-1.0235 0.6094,-2.2735 0.1172,-1.25 0.1172,-2.6562 0,-1.3594 -0.1172,-2.5 -0.1172,-1.1406 -0.6016,-2.0625 -0.4843,-0.9219 -1.5,-0.9219 -1.0156,0 -1.5078,0.9297 -0.4922,0.9297 -0.6093,2.0625 -0.1172,1.1328 -0.1172,2.4922 0,1 0.0468,1.8906 0.0469,0.8906 0.2579,1.8359 0.2109,0.9454 0.6875,1.586 0.4765,0.6406 1.2421,0.6406 z"
         id="path8225"
         inkscape:connector-curvature="0" />
      <path
         style="stroke:none"
         d="m -4.5,4.7106 q -2.2032,0 -3,-1.8125 -0.7969,-1.8125 -0.7969,-4.3125 0,-1.5625 0.2891,-2.9454 0.289,-1.3828 1.1328,-2.3437 0.8437,-0.9609 2.375,-0.9609 1.1875,0 1.9453,0.5781 0.7578,0.5781 1.1484,1.5 0.3906,0.9219 0.5391,1.9687 0.1484,1.0469 0.1484,2.2032 0,1.5468 -0.289,2.8906 -0.2891,1.3437 -1.125,2.289 -0.836,0.9454 -2.3672,0.9454 z m 0,-0.4688 q 1,0 1.4922,-1.0234 0.4921,-1.0235 0.6093,-2.2735 0.1172,-1.25 0.1172,-2.6562 0,-1.3594 -0.1172,-2.5 Q -2.5157,-5.3519 -3,-6.2738 q -0.4844,-0.9219 -1.5,-0.9219 -1.0157,0 -1.5078,0.9297 -0.4922,0.9297 -0.6094,2.0625 -0.1172,1.1328 -0.1172,2.4922 0,1 0.0469,1.8906 0.0468,0.8906 0.2578,1.8359 0.2109,0.9454 0.6875,1.586 0.4765,0.6406 1.2422,0.6406 z"
         id="path8227"
         inkscape:connector-curvature="0" />
    </g>
    <g
       transform="translate(67.4,316.8333)"
       style="font-size:18px;font-family:mwa_cmr10;color-interpolation:linearRGB;fill:#262626;stroke:#262626;color-rendering:optimizeQuality;image-rendering:optimizeQuality;text-rendering:geometricPrecision"
       id="g8229">
      <path
         style="stroke:none"
         d="m -41.797,0.9918 0,-1.125 4.7657,0 0,1.125 -4.7657,0 z"
         id="path8231"
         inkscape:connector-curvature="0" />
      <path
         style="stroke:none"
         d="m -32.8751,3.8512 q 0,-1 0.1797,-1.961 0.1797,-0.9609 0.5156,-1.8906 0.3359,-0.9297 0.8125,-1.8359 0.4766,-0.9063 1.0547,-1.6875 l 1.6406,-2.2969 -2.0469,0 q -3.2031,0 -3.2968,0.0938 -0.25,0.2968 -0.4532,1.6562 l -0.5156,0 0.5781,-3.7812 0.5313,0 0,0.0625 q 0,0.3281 1.1016,0.4218 1.1015,0.0938 2.1484,0.0938 l 3.3594,0 0,0.4687 q 0,0.0157 -0.0078,0.0235 -0.0079,0.0078 -0.0235,0.0234 l -2.4687,3.4844 q -0.9219,1.3594 -1.1485,3.0078 -0.2265,1.6484 -0.2265,4.1172 0,0.3594 -0.2578,0.6094 -0.2579,0.25 -0.6016,0.25 -0.3594,0 -0.6172,-0.25 -0.2578,-0.25 -0.2578,-0.6094 z"
         id="path8233"
         inkscape:connector-curvature="0" />
      <path
         style="stroke:none"
         d="m -22.5001,4.7106 q -2.2031,0 -3,-1.8125 -0.7969,-1.8125 -0.7969,-4.3125 0,-1.5625 0.2891,-2.9454 0.2891,-1.3828 1.1328,-2.3437 0.8438,-0.9609 2.375,-0.9609 1.1875,0 1.9453,0.5781 0.7578,0.5781 1.1485,1.5 0.3906,0.9219 0.539,1.9687 0.1485,1.0469 0.1485,2.2032 0,1.5468 -0.2891,2.8906 -0.2891,1.3437 -1.125,2.289 -0.8359,0.9454 -2.3672,0.9454 z m 0,-0.4688 q 1,0 1.4922,-1.0234 0.4922,-1.0235 0.6094,-2.2735 0.1172,-1.25 0.1172,-2.6562 0,-1.3594 -0.1172,-2.5 -0.1172,-1.1406 -0.6016,-2.0625 -0.4844,-0.9219 -1.5,-0.9219 -1.0156,0 -1.5078,0.9297 -0.4922,0.9297 -0.6094,2.0625 -0.1172,1.1328 -0.1172,2.4922 0,1 0.0469,1.8906 0.0469,0.8906 0.2578,1.8359 0.211,0.9454 0.6875,1.586 0.4766,0.6406 1.2422,0.6406 z"
         id="path8235"
         inkscape:connector-curvature="0" />
      <path
         style="stroke:none"
         d="m -13.5001,4.7106 q -2.2031,0 -3,-1.8125 -0.7968,-1.8125 -0.7968,-4.3125 0,-1.5625 0.289,-2.9454 0.2891,-1.3828 1.1328,-2.3437 0.8438,-0.9609 2.375,-0.9609 1.1875,0 1.9454,0.5781 0.7578,0.5781 1.1484,1.5 0.3906,0.9219 0.5391,1.9687 0.1484,1.0469 0.1484,2.2032 0,1.5468 -0.2891,2.8906 -0.289,1.3437 -1.125,2.289 -0.8359,0.9454 -2.3672,0.9454 z m 0,-0.4688 q 1,0 1.4922,-1.0234 0.4922,-1.0235 0.6094,-2.2735 0.1172,-1.25 0.1172,-2.6562 0,-1.3594 -0.1172,-2.5 -0.1172,-1.1406 -0.6016,-2.0625 -0.4843,-0.9219 -1.5,-0.9219 -1.0156,0 -1.5078,0.9297 -0.4922,0.9297 -0.6093,2.0625 -0.1172,1.1328 -0.1172,2.4922 0,1 0.0468,1.8906 0.0469,0.8906 0.2579,1.8359 0.2109,0.9454 0.6875,1.586 0.4765,0.6406 1.2421,0.6406 z"
         id="path8237"
         inkscape:connector-curvature="0" />
      <path
         style="stroke:none"
         d="m -4.5,4.7106 q -2.2032,0 -3,-1.8125 -0.7969,-1.8125 -0.7969,-4.3125 0,-1.5625 0.2891,-2.9454 0.289,-1.3828 1.1328,-2.3437 0.8437,-0.9609 2.375,-0.9609 1.1875,0 1.9453,0.5781 0.7578,0.5781 1.1484,1.5 0.3906,0.9219 0.5391,1.9687 0.1484,1.0469 0.1484,2.2032 0,1.5468 -0.289,2.8906 -0.2891,1.3437 -1.125,2.289 -0.836,0.9454 -2.3672,0.9454 z m 0,-0.4688 q 1,0 1.4922,-1.0234 0.4921,-1.0235 0.6093,-2.2735 0.1172,-1.25 0.1172,-2.6562 0,-1.3594 -0.1172,-2.5 Q -2.5157,-5.3519 -3,-6.2738 q -0.4844,-0.9219 -1.5,-0.9219 -1.0157,0 -1.5078,0.9297 -0.4922,0.9297 -0.6094,2.0625 -0.1172,1.1328 -0.1172,2.4922 0,1 0.0469,1.8906 0.0468,0.8906 0.2578,1.8359 0.2109,0.9454 0.6875,1.586 0.4765,0.6406 1.2422,0.6406 z"
         id="path8239"
         inkscape:connector-curvature="0" />
    </g>
    <g
       transform="translate(67.4,259.6667)"
       style="font-size:18px;font-family:mwa_cmr10;color-interpolation:linearRGB;fill:#262626;stroke:#262626;color-rendering:optimizeQuality;image-rendering:optimizeQuality;text-rendering:geometricPrecision"
       id="g8241">
      <path
         style="stroke:none"
         d="m -41.797,0.9918 0,-1.125 4.7657,0 0,1.125 -4.7657,0 z"
         id="path8243"
         inkscape:connector-curvature="0" />
      <path
         style="stroke:none"
         d="m -31.5001,4.7106 q -1.1094,0 -1.8594,-0.5938 -0.75,-0.5937 -1.1562,-1.5391 -0.4063,-0.9453 -0.5703,-1.9765 -0.1641,-1.0313 -0.1641,-2.0938 0,-1.4375 0.5547,-2.8672 0.5547,-1.4296 1.6328,-2.3671 1.0781,-0.9375 2.5625,-0.9375 0.6094,0 1.1406,0.2343 0.5313,0.2344 0.836,0.6797 0.3046,0.4453 0.3046,1.1016 0,0.3594 -0.25,0.6094 -0.25,0.25 -0.625,0.25 -0.3437,0 -0.6015,-0.25 -0.2578,-0.25 -0.2578,-0.6094 0,-0.3594 0.2578,-0.6172 0.2578,-0.2578 0.6015,-0.2578 l 0.0938,0 q -0.2188,-0.3125 -0.6406,-0.4688 -0.4219,-0.1562 -0.8594,-0.1562 -0.5469,0 -1.0078,0.2344 -0.461,0.2343 -0.836,0.6406 -0.375,0.4062 -0.6171,0.8906 -0.2422,0.4844 -0.3829,1.1094 -0.1406,0.625 -0.1718,1.1719 -0.0313,0.5468 -0.0313,1.375 0.3125,-0.7344 0.8906,-1.2032 0.5782,-0.4687 1.3125,-0.4687 0.7969,0 1.461,0.3203 0.664,0.3203 1.1328,0.8984 0.4687,0.5782 0.7266,1.3125 0.2578,0.7344 0.2578,1.5 0,1.0469 -0.4766,2 -0.4766,0.9532 -1.3281,1.5157 -0.8516,0.5625 -1.9297,0.5625 z m 0,-0.5625 q 0.6875,0 1.1094,-0.3204 0.4218,-0.3203 0.625,-0.8437 0.2031,-0.5234 0.25,-1.0547 0.0468,-0.5312 0.0468,-1.2969 0,-1.0312 -0.0937,-1.75 -0.0938,-0.7187 -0.5313,-1.2656 -0.4375,-0.5469 -1.3125,-0.5469 -0.7343,0 -1.2031,0.4922 -0.4687,0.4922 -0.6875,1.2422 -0.2187,0.75 -0.2187,1.4531 0,0.2344 0.0156,0.3594 0,0.0156 0,0.0391 0,0.0234 -0.0156,0.039 0,0.7813 0.1562,1.5703 0.1563,0.7891 0.6094,1.336 0.4531,0.5469 1.25,0.5469 z"
         id="path8245"
         inkscape:connector-curvature="0" />
      <path
         style="stroke:none"
         d="m -22.5001,4.7106 q -2.2031,0 -3,-1.8125 -0.7969,-1.8125 -0.7969,-4.3125 0,-1.5625 0.2891,-2.9454 0.2891,-1.3828 1.1328,-2.3437 0.8438,-0.9609 2.375,-0.9609 1.1875,0 1.9453,0.5781 0.7578,0.5781 1.1485,1.5 0.3906,0.9219 0.539,1.9687 0.1485,1.0469 0.1485,2.2032 0,1.5468 -0.2891,2.8906 -0.2891,1.3437 -1.125,2.289 -0.8359,0.9454 -2.3672,0.9454 z m 0,-0.4688 q 1,0 1.4922,-1.0234 0.4922,-1.0235 0.6094,-2.2735 0.1172,-1.25 0.1172,-2.6562 0,-1.3594 -0.1172,-2.5 -0.1172,-1.1406 -0.6016,-2.0625 -0.4844,-0.9219 -1.5,-0.9219 -1.0156,0 -1.5078,0.9297 -0.4922,0.9297 -0.6094,2.0625 -0.1172,1.1328 -0.1172,2.4922 0,1 0.0469,1.8906 0.0469,0.8906 0.2578,1.8359 0.211,0.9454 0.6875,1.586 0.4766,0.6406 1.2422,0.6406 z"
         id="path8247"
         inkscape:connector-curvature="0" />
      <path
         style="stroke:none"
         d="m -13.5001,4.7106 q -2.2031,0 -3,-1.8125 -0.7968,-1.8125 -0.7968,-4.3125 0,-1.5625 0.289,-2.9454 0.2891,-1.3828 1.1328,-2.3437 0.8438,-0.9609 2.375,-0.9609 1.1875,0 1.9454,0.5781 0.7578,0.5781 1.1484,1.5 0.3906,0.9219 0.5391,1.9687 0.1484,1.0469 0.1484,2.2032 0,1.5468 -0.2891,2.8906 -0.289,1.3437 -1.125,2.289 -0.8359,0.9454 -2.3672,0.9454 z m 0,-0.4688 q 1,0 1.4922,-1.0234 0.4922,-1.0235 0.6094,-2.2735 0.1172,-1.25 0.1172,-2.6562 0,-1.3594 -0.1172,-2.5 -0.1172,-1.1406 -0.6016,-2.0625 -0.4843,-0.9219 -1.5,-0.9219 -1.0156,0 -1.5078,0.9297 -0.4922,0.9297 -0.6093,2.0625 -0.1172,1.1328 -0.1172,2.4922 0,1 0.0468,1.8906 0.0469,0.8906 0.2579,1.8359 0.2109,0.9454 0.6875,1.586 0.4765,0.6406 1.2421,0.6406 z"
         id="path8249"
         inkscape:connector-curvature="0" />
      <path
         style="stroke:none"
         d="m -4.5,4.7106 q -2.2032,0 -3,-1.8125 -0.7969,-1.8125 -0.7969,-4.3125 0,-1.5625 0.2891,-2.9454 0.289,-1.3828 1.1328,-2.3437 0.8437,-0.9609 2.375,-0.9609 1.1875,0 1.9453,0.5781 0.7578,0.5781 1.1484,1.5 0.3906,0.9219 0.5391,1.9687 0.1484,1.0469 0.1484,2.2032 0,1.5468 -0.289,2.8906 -0.2891,1.3437 -1.125,2.289 -0.836,0.9454 -2.3672,0.9454 z m 0,-0.4688 q 1,0 1.4922,-1.0234 0.4921,-1.0235 0.6093,-2.2735 0.1172,-1.25 0.1172,-2.6562 0,-1.3594 -0.1172,-2.5 Q -2.5157,-5.3519 -3,-6.2738 q -0.4844,-0.9219 -1.5,-0.9219 -1.0157,0 -1.5078,0.9297 -0.4922,0.9297 -0.6094,2.0625 -0.1172,1.1328 -0.1172,2.4922 0,1 0.0469,1.8906 0.0468,0.8906 0.2578,1.8359 0.2109,0.9454 0.6875,1.586 0.4765,0.6406 1.2422,0.6406 z"
         id="path8251"
         inkscape:connector-curvature="0" />
    </g>
    <g
       transform="translate(67.4,202.5)"
       style="font-size:18px;font-family:mwa_cmr10;color-interpolation:linearRGB;fill:#262626;stroke:#262626;color-rendering:optimizeQuality;image-rendering:optimizeQuality;text-rendering:geometricPrecision"
       id="g8253">
      <path
         style="stroke:none"
         d="m -41.797,0.9918 0,-1.125 4.7657,0 0,1.125 -4.7657,0 z"
         id="path8255"
         inkscape:connector-curvature="0" />
      <path
         style="stroke:none"
         d="m -34.4376,2.2731 q 0.1875,0.5312 0.5703,0.9609 0.3828,0.4297 0.9063,0.6719 0.5234,0.2422 1.0859,0.2422 1.2969,0 1.7891,-1.0157 0.4921,-1.0156 0.4921,-2.4531 0,-0.625 -0.0234,-1.0469 -0.0234,-0.4218 -0.1172,-0.8281 -0.1719,-0.625 -0.5859,-1.1016 -0.4141,-0.4765 -1.0235,-0.4765 -0.6093,0 -1.039,0.1875 -0.4297,0.1875 -0.7031,0.4297 -0.2735,0.2422 -0.4844,0.5156 -0.211,0.2734 -0.2735,0.2891 l -0.2031,0 q -0.0312,0 -0.1015,-0.0547 -0.0704,-0.0547 -0.0704,-0.1172 l 0,-6 q 0,-0.0469 0.0625,-0.0938 0.0625,-0.0468 0.1094,-0.0468 l 0.0625,0 q 1.2031,0.5781 2.5781,0.5781 1.3282,0 2.5625,-0.5781 l 0.0625,0 q 0.0625,0 0.1172,0.039 0.0547,0.0391 0.0547,0.1016 l 0,0.1562 q 0,0.0938 -0.0469,0.0938 -0.6093,0.8125 -1.539,1.2734 -0.9297,0.461 -1.9141,0.461 -0.7187,0 -1.4844,-0.2032 l 0,3.4063 q 0.5938,-0.4844 1.0704,-0.6953 0.4765,-0.211 1.1953,-0.211 1,0 1.789,0.5703 0.7891,0.5704 1.211,1.4922 0.4218,0.9219 0.4218,1.875 0,1.0782 -0.539,2.0078 -0.5391,0.9297 -1.4531,1.4688 -0.9141,0.5391 -1.9766,0.5391 -0.8906,0 -1.6328,-0.4532 -0.7422,-0.4531 -1.1719,-1.2265 -0.4297,-0.7735 -0.4297,-1.6485 0,-0.4062 0.2656,-0.6562 0.2657,-0.25 0.6563,-0.25 0.4062,0 0.6719,0.2578 0.2656,0.2578 0.2656,0.6484 0,0.3907 -0.2656,0.6563 -0.2657,0.2656 -0.6719,0.2656 -0.0469,0 -0.1328,-0.0156 -0.086,-0.0156 -0.1172,-0.0156 z"
         id="path8257"
         inkscape:connector-curvature="0" />
      <path
         style="stroke:none"
         d="m -22.5001,4.7106 q -2.2031,0 -3,-1.8125 -0.7969,-1.8125 -0.7969,-4.3125 0,-1.5625 0.2891,-2.9454 0.2891,-1.3828 1.1328,-2.3437 0.8438,-0.9609 2.375,-0.9609 1.1875,0 1.9453,0.5781 0.7578,0.5781 1.1485,1.5 0.3906,0.9219 0.539,1.9687 0.1485,1.0469 0.1485,2.2032 0,1.5468 -0.2891,2.8906 -0.2891,1.3437 -1.125,2.289 -0.8359,0.9454 -2.3672,0.9454 z m 0,-0.4688 q 1,0 1.4922,-1.0234 0.4922,-1.0235 0.6094,-2.2735 0.1172,-1.25 0.1172,-2.6562 0,-1.3594 -0.1172,-2.5 -0.1172,-1.1406 -0.6016,-2.0625 -0.4844,-0.9219 -1.5,-0.9219 -1.0156,0 -1.5078,0.9297 -0.4922,0.9297 -0.6094,2.0625 -0.1172,1.1328 -0.1172,2.4922 0,1 0.0469,1.8906 0.0469,0.8906 0.2578,1.8359 0.211,0.9454 0.6875,1.586 0.4766,0.6406 1.2422,0.6406 z"
         id="path8259"
         inkscape:connector-curvature="0" />
      <path
         style="stroke:none"
         d="m -13.5001,4.7106 q -2.2031,0 -3,-1.8125 -0.7968,-1.8125 -0.7968,-4.3125 0,-1.5625 0.289,-2.9454 0.2891,-1.3828 1.1328,-2.3437 0.8438,-0.9609 2.375,-0.9609 1.1875,0 1.9454,0.5781 0.7578,0.5781 1.1484,1.5 0.3906,0.9219 0.5391,1.9687 0.1484,1.0469 0.1484,2.2032 0,1.5468 -0.2891,2.8906 -0.289,1.3437 -1.125,2.289 -0.8359,0.9454 -2.3672,0.9454 z m 0,-0.4688 q 1,0 1.4922,-1.0234 0.4922,-1.0235 0.6094,-2.2735 0.1172,-1.25 0.1172,-2.6562 0,-1.3594 -0.1172,-2.5 -0.1172,-1.1406 -0.6016,-2.0625 -0.4843,-0.9219 -1.5,-0.9219 -1.0156,0 -1.5078,0.9297 -0.4922,0.9297 -0.6093,2.0625 -0.1172,1.1328 -0.1172,2.4922 0,1 0.0468,1.8906 0.0469,0.8906 0.2579,1.8359 0.2109,0.9454 0.6875,1.586 0.4765,0.6406 1.2421,0.6406 z"
         id="path8261"
         inkscape:connector-curvature="0" />
      <path
         style="stroke:none"
         d="m -4.5,4.7106 q -2.2032,0 -3,-1.8125 -0.7969,-1.8125 -0.7969,-4.3125 0,-1.5625 0.2891,-2.9454 0.289,-1.3828 1.1328,-2.3437 0.8437,-0.9609 2.375,-0.9609 1.1875,0 1.9453,0.5781 0.7578,0.5781 1.1484,1.5 0.3906,0.9219 0.5391,1.9687 0.1484,1.0469 0.1484,2.2032 0,1.5468 -0.289,2.8906 -0.2891,1.3437 -1.125,2.289 -0.836,0.9454 -2.3672,0.9454 z m 0,-0.4688 q 1,0 1.4922,-1.0234 0.4921,-1.0235 0.6093,-2.2735 0.1172,-1.25 0.1172,-2.6562 0,-1.3594 -0.1172,-2.5 Q -2.5157,-5.3519 -3,-6.2738 q -0.4844,-0.9219 -1.5,-0.9219 -1.0157,0 -1.5078,0.9297 -0.4922,0.9297 -0.6094,2.0625 -0.1172,1.1328 -0.1172,2.4922 0,1 0.0469,1.8906 0.0468,0.8906 0.2578,1.8359 0.2109,0.9454 0.6875,1.586 0.4765,0.6406 1.2422,0.6406 z"
         id="path8263"
         inkscape:connector-curvature="0" />
    </g>
    <g
       transform="translate(67.4,145.3333)"
       style="font-size:18px;font-family:mwa_cmr10;color-interpolation:linearRGB;fill:#262626;stroke:#262626;color-rendering:optimizeQuality;image-rendering:optimizeQuality;text-rendering:geometricPrecision"
       id="g8265">
      <path
         style="stroke:none"
         d="m -41.797,0.9918 0,-1.125 4.7657,0 0,1.125 -4.7657,0 z"
         id="path8267"
         inkscape:connector-curvature="0" />
      <path
         style="stroke:none"
         d="m -35.5001,1.3512 0,-0.6406 5.5625,-8.2969 q 0.0625,-0.0781 0.1875,-0.0781 l 0.2656,0 q 0.2031,0 0.2031,0.2031 l 0,8.1719 1.7657,0 0,0.6406 -1.7657,0 0,1.7656 q 0,0.375 0.5235,0.4688 0.5234,0.0937 1.2265,0.0937 l 0,0.6406 -4.9687,0 0,-0.6406 q 0.7031,0 1.2266,-0.0937 0.5234,-0.0938 0.5234,-0.4688 l 0,-1.7656 -4.75,0 z m 0.5937,-0.6406 4.2657,0 0,-6.3594 -4.2657,6.3594 z"
         id="path8269"
         inkscape:connector-curvature="0" />
      <path
         style="stroke:none"
         d="m -22.5001,4.7106 q -2.2031,0 -3,-1.8125 -0.7969,-1.8125 -0.7969,-4.3125 0,-1.5625 0.2891,-2.9454 0.2891,-1.3828 1.1328,-2.3437 0.8438,-0.9609 2.375,-0.9609 1.1875,0 1.9453,0.5781 0.7578,0.5781 1.1485,1.5 0.3906,0.9219 0.539,1.9687 0.1485,1.0469 0.1485,2.2032 0,1.5468 -0.2891,2.8906 -0.2891,1.3437 -1.125,2.289 -0.8359,0.9454 -2.3672,0.9454 z m 0,-0.4688 q 1,0 1.4922,-1.0234 0.4922,-1.0235 0.6094,-2.2735 0.1172,-1.25 0.1172,-2.6562 0,-1.3594 -0.1172,-2.5 -0.1172,-1.1406 -0.6016,-2.0625 -0.4844,-0.9219 -1.5,-0.9219 -1.0156,0 -1.5078,0.9297 -0.4922,0.9297 -0.6094,2.0625 -0.1172,1.1328 -0.1172,2.4922 0,1 0.0469,1.8906 0.0469,0.8906 0.2578,1.8359 0.211,0.9454 0.6875,1.586 0.4766,0.6406 1.2422,0.6406 z"
         id="path8271"
         inkscape:connector-curvature="0" />
      <path
         style="stroke:none"
         d="m -13.5001,4.7106 q -2.2031,0 -3,-1.8125 -0.7968,-1.8125 -0.7968,-4.3125 0,-1.5625 0.289,-2.9454 0.2891,-1.3828 1.1328,-2.3437 0.8438,-0.9609 2.375,-0.9609 1.1875,0 1.9454,0.5781 0.7578,0.5781 1.1484,1.5 0.3906,0.9219 0.5391,1.9687 0.1484,1.0469 0.1484,2.2032 0,1.5468 -0.2891,2.8906 -0.289,1.3437 -1.125,2.289 -0.8359,0.9454 -2.3672,0.9454 z m 0,-0.4688 q 1,0 1.4922,-1.0234 0.4922,-1.0235 0.6094,-2.2735 0.1172,-1.25 0.1172,-2.6562 0,-1.3594 -0.1172,-2.5 -0.1172,-1.1406 -0.6016,-2.0625 -0.4843,-0.9219 -1.5,-0.9219 -1.0156,0 -1.5078,0.9297 -0.4922,0.9297 -0.6093,2.0625 -0.1172,1.1328 -0.1172,2.4922 0,1 0.0468,1.8906 0.0469,0.8906 0.2579,1.8359 0.2109,0.9454 0.6875,1.586 0.4765,0.6406 1.2421,0.6406 z"
         id="path8273"
         inkscape:connector-curvature="0" />
      <path
         style="stroke:none"
         d="m -4.5,4.7106 q -2.2032,0 -3,-1.8125 -0.7969,-1.8125 -0.7969,-4.3125 0,-1.5625 0.2891,-2.9454 0.289,-1.3828 1.1328,-2.3437 0.8437,-0.9609 2.375,-0.9609 1.1875,0 1.9453,0.5781 0.7578,0.5781 1.1484,1.5 0.3906,0.9219 0.5391,1.9687 0.1484,1.0469 0.1484,2.2032 0,1.5468 -0.289,2.8906 -0.2891,1.3437 -1.125,2.289 -0.836,0.9454 -2.3672,0.9454 z m 0,-0.4688 q 1,0 1.4922,-1.0234 0.4921,-1.0235 0.6093,-2.2735 0.1172,-1.25 0.1172,-2.6562 0,-1.3594 -0.1172,-2.5 Q -2.5157,-5.3519 -3,-6.2738 q -0.4844,-0.9219 -1.5,-0.9219 -1.0157,0 -1.5078,0.9297 -0.4922,0.9297 -0.6094,2.0625 -0.1172,1.1328 -0.1172,2.4922 0,1 0.0469,1.8906 0.0468,0.8906 0.2578,1.8359 0.2109,0.9454 0.6875,1.586 0.4765,0.6406 1.2422,0.6406 z"
         id="path8275"
         inkscape:connector-curvature="0" />
    </g>
    <g
       transform="translate(67.4,88.1667)"
       style="font-size:18px;font-family:mwa_cmr10;color-interpolation:linearRGB;fill:#262626;stroke:#262626;color-rendering:optimizeQuality;image-rendering:optimizeQuality;text-rendering:geometricPrecision"
       id="g8277">
      <path
         style="stroke:none"
         d="m -41.797,0.9918 0,-1.125 4.7657,0 0,1.125 -4.7657,0 z"
         id="path8279"
         inkscape:connector-curvature="0" />
      <path
         style="stroke:none"
         d="m -34.2814,2.9293 q 0.4219,0.6094 1.1329,0.9141 0.7109,0.3047 1.5234,0.3047 1.0469,0 1.4844,-0.8907 0.4375,-0.8906 0.4375,-2.0312 0,-0.5156 -0.086,-1.0235 -0.0859,-0.5078 -0.3125,-0.9453 -0.2265,-0.4375 -0.6093,-0.7031 -0.3829,-0.2656 -0.9297,-0.2656 l -1.1875,0 q -0.1719,0 -0.1719,-0.1719 l 0,-0.1562 q 0,-0.1407 0.1719,-0.1407 l 0.9843,-0.0781 q 0.6407,0 1.0547,-0.4766 0.4141,-0.4765 0.6094,-1.1562 0.1953,-0.6797 0.1953,-1.2891 0,-0.8593 -0.4062,-1.414 -0.4063,-0.5547 -1.2344,-0.5547 -0.6875,0 -1.3125,0.2578 -0.625,0.2578 -0.9844,0.7891 0.0313,-0.0157 0.0547,-0.0157 0.0234,0 0.0703,0 0.4063,0 0.6719,0.2813 0.2656,0.2812 0.2656,0.6719 0,0.3906 -0.2656,0.6718 -0.2656,0.2813 -0.6719,0.2813 -0.4062,0 -0.6875,-0.2813 -0.2812,-0.2812 -0.2812,-0.6718 0,-0.7657 0.4687,-1.3438 0.4688,-0.5781 1.2031,-0.8672 0.7344,-0.289 1.4688,-0.289 0.5469,0 1.1562,0.164 0.6094,0.1641 1.1016,0.461 0.4922,0.2968 0.8047,0.7734 0.3125,0.4766 0.3125,1.0859 0,0.75 -0.3438,1.3907 -0.3437,0.6406 -0.9296,1.1093 -0.586,0.4688 -1.2891,0.7032 0.7812,0.1406 1.4844,0.5781 0.7031,0.4375 1.1328,1.125 0.4297,0.6875 0.4297,1.4844 0,0.9843 -0.5469,1.789 -0.5469,0.8047 -1.4375,1.2578 -0.8906,0.4532 -1.875,0.4532 -0.8438,0 -1.6875,-0.3204 -0.8438,-0.3203 -1.3906,-0.9609 -0.5469,-0.6406 -0.5469,-1.5312 0,-0.4532 0.3047,-0.75 0.3047,-0.2969 0.7422,-0.2969 0.2968,0 0.539,0.1328 0.2422,0.1328 0.375,0.3828 0.1328,0.25 0.1328,0.5313 0,0.4375 -0.3046,0.7343 -0.3047,0.2969 -0.7422,0.2969 l -0.0782,0 z"
         id="path8281"
         inkscape:connector-curvature="0" />
      <path
         style="stroke:none"
         d="m -22.5001,4.7106 q -2.2031,0 -3,-1.8125 -0.7969,-1.8125 -0.7969,-4.3125 0,-1.5625 0.2891,-2.9454 0.2891,-1.3828 1.1328,-2.3437 0.8438,-0.9609 2.375,-0.9609 1.1875,0 1.9453,0.5781 0.7578,0.5781 1.1485,1.5 0.3906,0.9219 0.539,1.9687 0.1485,1.0469 0.1485,2.2032 0,1.5468 -0.2891,2.8906 -0.2891,1.3437 -1.125,2.289 -0.8359,0.9454 -2.3672,0.9454 z m 0,-0.4688 q 1,0 1.4922,-1.0234 0.4922,-1.0235 0.6094,-2.2735 0.1172,-1.25 0.1172,-2.6562 0,-1.3594 -0.1172,-2.5 -0.1172,-1.1406 -0.6016,-2.0625 -0.4844,-0.9219 -1.5,-0.9219 -1.0156,0 -1.5078,0.9297 -0.4922,0.9297 -0.6094,2.0625 -0.1172,1.1328 -0.1172,2.4922 0,1 0.0469,1.8906 0.0469,0.8906 0.2578,1.8359 0.211,0.9454 0.6875,1.586 0.4766,0.6406 1.2422,0.6406 z"
         id="path8283"
         inkscape:connector-curvature="0" />
      <path
         style="stroke:none"
         d="m -13.5001,4.7106 q -2.2031,0 -3,-1.8125 -0.7968,-1.8125 -0.7968,-4.3125 0,-1.5625 0.289,-2.9454 0.2891,-1.3828 1.1328,-2.3437 0.8438,-0.9609 2.375,-0.9609 1.1875,0 1.9454,0.5781 0.7578,0.5781 1.1484,1.5 0.3906,0.9219 0.5391,1.9687 0.1484,1.0469 0.1484,2.2032 0,1.5468 -0.2891,2.8906 -0.289,1.3437 -1.125,2.289 -0.8359,0.9454 -2.3672,0.9454 z m 0,-0.4688 q 1,0 1.4922,-1.0234 0.4922,-1.0235 0.6094,-2.2735 0.1172,-1.25 0.1172,-2.6562 0,-1.3594 -0.1172,-2.5 -0.1172,-1.1406 -0.6016,-2.0625 -0.4843,-0.9219 -1.5,-0.9219 -1.0156,0 -1.5078,0.9297 -0.4922,0.9297 -0.6093,2.0625 -0.1172,1.1328 -0.1172,2.4922 0,1 0.0468,1.8906 0.0469,0.8906 0.2579,1.8359 0.2109,0.9454 0.6875,1.586 0.4765,0.6406 1.2421,0.6406 z"
         id="path8285"
         inkscape:connector-curvature="0" />
      <path
         style="stroke:none"
         d="m -4.5,4.7106 q -2.2032,0 -3,-1.8125 -0.7969,-1.8125 -0.7969,-4.3125 0,-1.5625 0.2891,-2.9454 0.289,-1.3828 1.1328,-2.3437 0.8437,-0.9609 2.375,-0.9609 1.1875,0 1.9453,0.5781 0.7578,0.5781 1.1484,1.5 0.3906,0.9219 0.5391,1.9687 0.1484,1.0469 0.1484,2.2032 0,1.5468 -0.289,2.8906 -0.2891,1.3437 -1.125,2.289 -0.836,0.9454 -2.3672,0.9454 z m 0,-0.4688 q 1,0 1.4922,-1.0234 0.4921,-1.0235 0.6093,-2.2735 0.1172,-1.25 0.1172,-2.6562 0,-1.3594 -0.1172,-2.5 Q -2.5157,-5.3519 -3,-6.2738 q -0.4844,-0.9219 -1.5,-0.9219 -1.0157,0 -1.5078,0.9297 -0.4922,0.9297 -0.6094,2.0625 -0.1172,1.1328 -0.1172,2.4922 0,1 0.0469,1.8906 0.0468,0.8906 0.2578,1.8359 0.2109,0.9454 0.6875,1.586 0.4765,0.6406 1.2422,0.6406 z"
         id="path8287"
         inkscape:connector-curvature="0" />
    </g>
    <g
       transform="translate(67.4,31)"
       style="font-size:18px;font-family:mwa_cmr10;color-interpolation:linearRGB;fill:#262626;stroke:#262626;color-rendering:optimizeQuality;image-rendering:optimizeQuality;text-rendering:geometricPrecision"
       id="g8289">
      <path
         style="stroke:none"
         d="m -41.797,0.9918 0,-1.125 4.7657,0 0,1.125 -4.7657,0 z"
         id="path8291"
         inkscape:connector-curvature="0" />
      <path
         style="stroke:none"
         d="m -35.1095,4.3199 0,-0.4843 q 0,-0.0469 0.0469,-0.0938 l 2.7969,-3.0937 q 0.625,-0.6875 1.0234,-1.1563 0.3984,-0.4687 0.7813,-1.0703 0.3828,-0.6016 0.6093,-1.2344 0.2266,-0.6328 0.2266,-1.3359 0,-0.7344 -0.2734,-1.4063 -0.2735,-0.6718 -0.8125,-1.0781 -0.5391,-0.4062 -1.3047,-0.4062 -0.7813,0 -1.4063,0.4687 -0.625,0.4688 -0.875,1.2188 0.0625,-0.0157 0.1875,-0.0157 0.4063,0 0.6875,0.2735 0.2813,0.2734 0.2813,0.7109 0,0.4063 -0.2813,0.6953 -0.2812,0.2891 -0.6875,0.2891 -0.4219,0 -0.7109,-0.2969 -0.2891,-0.2969 -0.2891,-0.6875 0,-0.6875 0.2578,-1.2812 0.2578,-0.5938 0.7344,-1.0547 0.4766,-0.461 1.0781,-0.7032 0.6016,-0.2421 1.2891,-0.2421 1.0312,0 1.9141,0.4296 0.8828,0.4297 1.4062,1.2266 0.5234,0.7969 0.5234,1.8594 0,0.7812 -0.3437,1.4844 -0.3438,0.7031 -0.8828,1.2812 -0.5391,0.5781 -1.375,1.3047 -0.836,0.7266 -1.1016,0.9766 l -2.0312,1.9687 1.7343,0 q 1.2657,0 2.125,-0.0234 0.8594,-0.0235 0.9063,-0.0703 0.2187,-0.2344 0.4375,-1.6563 l 0.5312,0 -0.5156,3.2031 -6.6875,0 z"
         id="path8293"
         inkscape:connector-curvature="0" />
      <path
         style="stroke:none"
         d="m -22.5001,4.7106 q -2.2031,0 -3,-1.8125 -0.7969,-1.8125 -0.7969,-4.3125 0,-1.5625 0.2891,-2.9454 0.2891,-1.3828 1.1328,-2.3437 0.8438,-0.9609 2.375,-0.9609 1.1875,0 1.9453,0.5781 0.7578,0.5781 1.1485,1.5 0.3906,0.9219 0.539,1.9687 0.1485,1.0469 0.1485,2.2032 0,1.5468 -0.2891,2.8906 -0.2891,1.3437 -1.125,2.289 -0.8359,0.9454 -2.3672,0.9454 z m 0,-0.4688 q 1,0 1.4922,-1.0234 0.4922,-1.0235 0.6094,-2.2735 0.1172,-1.25 0.1172,-2.6562 0,-1.3594 -0.1172,-2.5 -0.1172,-1.1406 -0.6016,-2.0625 -0.4844,-0.9219 -1.5,-0.9219 -1.0156,0 -1.5078,0.9297 -0.4922,0.9297 -0.6094,2.0625 -0.1172,1.1328 -0.1172,2.4922 0,1 0.0469,1.8906 0.0469,0.8906 0.2578,1.8359 0.211,0.9454 0.6875,1.586 0.4766,0.6406 1.2422,0.6406 z"
         id="path8295"
         inkscape:connector-curvature="0" />
      <path
         style="stroke:none"
         d="m -13.5001,4.7106 q -2.2031,0 -3,-1.8125 -0.7968,-1.8125 -0.7968,-4.3125 0,-1.5625 0.289,-2.9454 0.2891,-1.3828 1.1328,-2.3437 0.8438,-0.9609 2.375,-0.9609 1.1875,0 1.9454,0.5781 0.7578,0.5781 1.1484,1.5 0.3906,0.9219 0.5391,1.9687 0.1484,1.0469 0.1484,2.2032 0,1.5468 -0.2891,2.8906 -0.289,1.3437 -1.125,2.289 -0.8359,0.9454 -2.3672,0.9454 z m 0,-0.4688 q 1,0 1.4922,-1.0234 0.4922,-1.0235 0.6094,-2.2735 0.1172,-1.25 0.1172,-2.6562 0,-1.3594 -0.1172,-2.5 -0.1172,-1.1406 -0.6016,-2.0625 -0.4843,-0.9219 -1.5,-0.9219 -1.0156,0 -1.5078,0.9297 -0.4922,0.9297 -0.6093,2.0625 -0.1172,1.1328 -0.1172,2.4922 0,1 0.0468,1.8906 0.0469,0.8906 0.2579,1.8359 0.2109,0.9454 0.6875,1.586 0.4765,0.6406 1.2421,0.6406 z"
         id="path8297"
         inkscape:connector-curvature="0" />
      <path
         style="stroke:none"
         d="m -4.5,4.7106 q -2.2032,0 -3,-1.8125 -0.7969,-1.8125 -0.7969,-4.3125 0,-1.5625 0.2891,-2.9454 0.289,-1.3828 1.1328,-2.3437 0.8437,-0.9609 2.375,-0.9609 1.1875,0 1.9453,0.5781 0.7578,0.5781 1.1484,1.5 0.3906,0.9219 0.5391,1.9687 0.1484,1.0469 0.1484,2.2032 0,1.5468 -0.289,2.8906 -0.2891,1.3437 -1.125,2.289 -0.836,0.9454 -2.3672,0.9454 z m 0,-0.4688 q 1,0 1.4922,-1.0234 0.4921,-1.0235 0.6093,-2.2735 0.1172,-1.25 0.1172,-2.6562 0,-1.3594 -0.1172,-2.5 Q -2.5157,-5.3519 -3,-6.2738 q -0.4844,-0.9219 -1.5,-0.9219 -1.0157,0 -1.5078,0.9297 -0.4922,0.9297 -0.6094,2.0625 -0.1172,1.1328 -0.1172,2.4922 0,1 0.0469,1.8906 0.0468,0.8906 0.2578,1.8359 0.2109,0.9454 0.6875,1.586 0.4765,0.6406 1.2422,0.6406 z"
         id="path8299"
         inkscape:connector-curvature="0" />
    </g>
    <g
       transform="translate(96.6096,317.4918)"
       style="color-interpolation:linearRGB;fill:#0072bd;stroke:#0072bd;stroke-width:2;stroke-linecap:butt;color-rendering:optimizeQuality;image-rendering:optimizeQuality;text-rendering:geometricPrecision"
       id="g8301">
      <circle
         r="3"
         style="fill:none"
         cx="-0.5"
         cy="-0.5"
         id="circle8303" />
      <circle
         r="3"
         style="fill:none"
         cx="-0.5"
         transform="translate(21.6855,-3.0836)"
         cy="-0.5"
         id="circle8305" />
      <circle
         r="3"
         style="fill:none"
         cx="-0.5"
         transform="translate(43.5772,-27.4795)"
         cy="-0.5"
         id="circle8307" />
      <circle
         r="3"
         style="fill:none"
         cx="-0.5"
         transform="translate(65.6823,-46.4479)"
         cy="-0.5"
         id="circle8309" />
      <circle
         r="3"
         style="fill:none"
         cx="-0.5"
         transform="translate(110.5181,-75.2182)"
         cy="-0.5"
         id="circle8311" />
      <circle
         r="3"
         style="fill:none"
         cx="-0.5"
         transform="translate(133.2525,-93.2646)"
         cy="-0.5"
         id="circle8313" />
      <circle
         r="3"
         style="fill:none"
         cx="-0.5"
         transform="translate(156.1966,-137.8176)"
         cy="-0.5"
         id="circle8315" />
      <circle
         r="3"
         style="fill:none"
         cx="-0.5"
         transform="translate(179.3505,-146.4257)"
         cy="-0.5"
         id="circle8317" />
      <circle
         r="3"
         style="fill:none"
         cx="-0.5"
         transform="translate(202.7142,-173.0115)"
         cy="-0.5"
         id="circle8319" />
      <circle
         r="3"
         style="fill:none"
         cx="-0.5"
         transform="translate(250.0708,-191.9055)"
         cy="-0.5"
         id="circle8321" />
      <circle
         r="3"
         style="fill:none"
         cx="-0.5"
         transform="translate(274.0674,-210.9844)"
         cy="-0.5"
         id="circle8323" />
      <circle
         r="3"
         style="fill:none"
         cx="-0.5"
         transform="translate(298.2701,-215.4517)"
         cy="-0.5"
         id="circle8325" />
      <circle
         r="3"
         style="fill:none"
         cx="-0.5"
         transform="translate(322.6826,-222.3886)"
         cy="-0.5"
         id="circle8327" />
      <circle
         r="3"
         style="fill:none"
         cx="-0.5"
         transform="translate(347.3085,-229.7758)"
         cy="-0.5"
         id="circle8329" />
      <circle
         r="3"
         style="fill:none"
         cx="-0.5"
         transform="translate(372.1405,-244.4392)"
         cy="-0.5"
         id="circle8331" />
      <circle
         r="3"
         style="fill:none"
         cx="-0.5"
         transform="translate(397.186,-249.1812)"
         cy="-0.5"
         id="circle8333" />
      <circle
         transform="translate(0,-59.562)"
         style="fill:none;stroke:#d95319"
         r="3"
         cx="-0.5"
         cy="-0.5"
         id="circle8335" />
      <circle
         transform="translate(21.6855,-46.8685)"
         style="fill:none;stroke:#d95319"
         r="3"
         cx="-0.5"
         cy="-0.5"
         id="circle8337" />
      <circle
         transform="translate(43.5772,-53.0005)"
         style="fill:none;stroke:#d95319"
         r="3"
         cx="-0.5"
         cy="-0.5"
         id="circle8339" />
      <circle
         transform="translate(65.6823,-71.5076)"
         style="fill:none;stroke:#d95319"
         r="3"
         cx="-0.5"
         cy="-0.5"
         id="circle8341" />
      <circle
         transform="translate(87.9935,-106.281)"
         style="fill:none;stroke:#d95319"
         r="3"
         cx="-0.5"
         cy="-0.5"
         id="circle8343" />
      <circle
         transform="translate(110.5181,-112.6667)"
         style="fill:none;stroke:#d95319"
         r="3"
         cx="-0.5"
         cy="-0.5"
         id="circle8345" />
      <circle
         transform="translate(133.2525,-127.0978)"
         style="fill:none;stroke:#d95319"
         r="3"
         cx="-0.5"
         cy="-0.5"
         id="circle8347" />
      <circle
         transform="translate(156.1966,-147.8194)"
         style="fill:none;stroke:#d95319"
         r="3"
         cx="-0.5"
         cy="-0.5"
         id="circle8349" />
      <circle
         transform="translate(179.3505,-158.367)"
         style="fill:none;stroke:#d95319"
         r="3"
         cx="-0.5"
         cy="-0.5"
         id="circle8351" />
      <circle
         transform="translate(202.7142,-174.4896)"
         style="fill:none;stroke:#d95319"
         r="3"
         cx="-0.5"
         cy="-0.5"
         id="circle8353" />
      <circle
         transform="translate(226.2876,-181.4953)"
         style="fill:none;stroke:#d95319"
         r="3"
         cx="-0.5"
         cy="-0.5"
         id="circle8355" />
      <circle
         transform="translate(250.0708,-195.5404)"
         style="fill:none;stroke:#d95319"
         r="3"
         cx="-0.5"
         cy="-0.5"
         id="circle8357" />
      <circle
         transform="translate(274.0674,-205.8675)"
         style="fill:none;stroke:#d95319"
         r="3"
         cx="-0.5"
         cy="-0.5"
         id="circle8359" />
      <circle
         transform="translate(298.2701,-213.2729)"
         style="fill:none;stroke:#d95319"
         r="3"
         cx="-0.5"
         cy="-0.5"
         id="circle8361" />
      <circle
         transform="translate(322.6826,-225.1497)"
         style="fill:none;stroke:#d95319"
         r="3"
         cx="-0.5"
         cy="-0.5"
         id="circle8363" />
      <circle
         transform="translate(347.3085,-223.4338)"
         style="fill:none;stroke:#d95319"
         r="3"
         cx="-0.5"
         cy="-0.5"
         id="circle8365" />
      <circle
         transform="translate(372.1405,-224.3288)"
         style="fill:none;stroke:#d95319"
         r="3"
         cx="-0.5"
         cy="-0.5"
         id="circle8367" />
      <circle
         transform="translate(397.186,-248.3769)"
         style="fill:none;stroke:#d95319"
         r="3"
         cx="-0.5"
         cy="-0.5"
         id="circle8369" />
      <circle
         transform="translate(0,-10.0115)"
         style="fill:none;stroke:#edb120"
         r="3"
         cx="-0.5"
         cy="-0.5"
         id="circle8371" />
      <circle
         transform="translate(21.6855,1.9667)"
         style="fill:none;stroke:#edb120"
         r="3"
         cx="-0.5"
         cy="-0.5"
         id="circle8373" />
      <circle
         transform="translate(43.5772,-42.5783)"
         style="fill:none;stroke:#edb120"
         r="3"
         cx="-0.5"
         cy="-0.5"
         id="circle8375" />
      <circle
         transform="translate(65.6823,-6.2096)"
         style="fill:none;stroke:#edb120"
         r="3"
         cx="-0.5"
         cy="-0.5"
         id="circle8377" />
      <circle
         transform="translate(87.9935,-73.0511)"
         style="fill:none;stroke:#edb120"
         r="3"
         cx="-0.5"
         cy="-0.5"
         id="circle8379" />
      <circle
         transform="translate(110.5181,-82.813)"
         style="fill:none;stroke:#edb120"
         r="3"
         cx="-0.5"
         cy="-0.5"
         id="circle8381" />
      <circle
         transform="translate(133.2525,-103.8127)"
         style="fill:none;stroke:#edb120"
         r="3"
         cx="-0.5"
         cy="-0.5"
         id="circle8383" />
      <circle
         transform="translate(156.1966,-120.3179)"
         style="fill:none;stroke:#edb120"
         r="3"
         cx="-0.5"
         cy="-0.5"
         id="circle8385" />
      <circle
         transform="translate(179.3505,-130.8061)"
         style="fill:none;stroke:#edb120"
         r="3"
         cx="-0.5"
         cy="-0.5"
         id="circle8387" />
      <circle
         transform="translate(202.7142,-144.8852)"
         style="fill:none;stroke:#edb120"
         r="3"
         cx="-0.5"
         cy="-0.5"
         id="circle8389" />
      <circle
         transform="translate(226.2876,-155.1237)"
         style="fill:none;stroke:#edb120"
         r="3"
         cx="-0.5"
         cy="-0.5"
         id="circle8391" />
      <circle
         transform="translate(250.0708,-168.9079)"
         style="fill:none;stroke:#edb120"
         r="3"
         cx="-0.5"
         cy="-0.5"
         id="circle8393" />
      <circle
         transform="translate(274.0674,-178.1527)"
         style="fill:none;stroke:#edb120"
         r="3"
         cx="-0.5"
         cy="-0.5"
         id="circle8395" />
      <circle
         transform="translate(298.2701,-188.7003)"
         style="fill:none;stroke:#edb120"
         r="3"
         cx="-0.5"
         cy="-0.5"
         id="circle8397" />
      <circle
         transform="translate(322.6826,-201.3548)"
         style="fill:none;stroke:#edb120"
         r="3"
         cx="-0.5"
         cy="-0.5"
         id="circle8399" />
      <circle
         transform="translate(347.3085,-208.3126)"
         style="fill:none;stroke:#edb120"
         r="3"
         cx="-0.5"
         cy="-0.5"
         id="circle8401" />
      <circle
         transform="translate(372.1405,-216.3943)"
         style="fill:none;stroke:#edb120"
         r="3"
         cx="-0.5"
         cy="-0.5"
         id="circle8403" />
      <circle
         transform="translate(397.186,-226.2151)"
         style="fill:none;stroke:#edb120"
         r="3"
         cx="-0.5"
         cy="-0.5"
         id="circle8405" />
    </g>
  </g>
  <text
     xml:space="preserve"
     style="font-style:normal;font-variant:normal;font-weight:normal;font-stretch:normal;font-size:15px;line-height:1000%;font-family:'Minion Pro';-inkscape-font-specification:'Minion Pro, Normal';text-align:start;letter-spacing:0px;word-spacing:0px;writing-mode:lr-tb;text-anchor:start;fill:#000000;fill-opacity:1;stroke:none;stroke-width:1px;stroke-linecap:butt;stroke-linejoin:miter;stroke-opacity:1"
     x="146.31889"
     y="349.38144"
     id="text8781"
     sodipodi:linespacing="1000%"><tspan
       sodipodi:role="line"
       id="tspan8783"
       x="146.31889"
       y="349.38144">Molar Ratio of FSFG to NTF2</tspan></text>
  <text
     xml:space="preserve"
     style="font-style:normal;font-variant:normal;font-weight:normal;font-stretch:normal;font-size:15px;line-height:1000%;font-family:'Minion Pro';-inkscape-font-specification:'Minion Pro, Normal';text-align:start;letter-spacing:0px;word-spacing:0px;writing-mode:lr-tb;text-anchor:start;fill:#000000;fill-opacity:1;stroke:none;stroke-width:1px;stroke-linecap:butt;stroke-linejoin:miter;stroke-opacity:1"
     x="-272.59131"
     y="12.171019"
     id="text8785"
     sodipodi:linespacing="1000%"
     transform="matrix(0,-1,1,0,0,0)"><tspan
       sodipodi:role="line"
       id="tspan8787"
       x="-272.59131"
       y="12.171019">Heat of mixing (kcal / mol FSFG)</tspan></text>
</svg>
